<?xml version="1.0" encoding="UTF-8"?><svg id="a" xmlns="http://www.w3.org/2000/svg" viewBox="0 0 376.48 47.29"><defs><style>.b{fill:#151515;}</style></defs><path class="b" d="M13.53,44.7c3.16,0,5.6-.94,7.34-2.82,1.73-1.88,2.6-4.1,2.6-6.66,0-3.76-2.79-6.7-8.35-8.8-3.99-1.5-7.09-3.29-9.31-5.36-2.22-2.07-3.33-4.87-3.33-8.41,0-1.65.3-3.25.9-4.8.6-1.54,1.48-2.9,2.65-4.06,1.17-1.17,2.56-2.09,4.18-2.77,1.62-.68,3.44-1.02,5.47-1.02,2.86,0,5.19.47,7,1.41,1.81.94,3.01,1.9,3.61,2.88.23.38.41.79.56,1.24.15.45.15.87,0,1.24-.38,1.88-1.51,2.64-3.39,2.26-.68-.23-1.28-.64-1.81-1.24-.38-.52-.73-1.09-1.07-1.69-.34-.6-.73-1.17-1.18-1.69-.45-.53-1-.96-1.64-1.3-.64-.34-1.45-.51-2.43-.51-2.03,0-3.86.66-5.47,1.98-1.62,1.32-2.43,3.1-2.43,5.36,0,2.93,2.44,5.42,7.34,7.45,2.26.9,4.23,1.81,5.93,2.71,1.69.9,3.12,1.92,4.29,3.05,1.17,1.13,2.03,2.46,2.6,4.01.56,1.54.85,3.44.85,5.7,0,1.96-.36,3.8-1.07,5.53-.71,1.73-1.73,3.24-3.05,4.52-1.32,1.28-2.88,2.3-4.68,3.05-1.81.75-3.84,1.13-6.1,1.13-2.03,0-3.78-.21-5.25-.62-1.47-.41-2.73-.9-3.78-1.47-1.06-.56-1.9-1.17-2.54-1.81-.64-.64-1.11-1.19-1.41-1.64-.53-.9-.68-1.73-.45-2.48.15-.83.58-1.45,1.3-1.86.71-.41,1.48-.54,2.31-.4.68.23,1.28.64,1.81,1.24.38.53.77,1.17,1.19,1.92.41.75.92,1.49,1.52,2.2.6.71,1.32,1.32,2.14,1.81.83.49,1.88.73,3.16.73Z"/><path class="b" d="M100.94,6.6c.87-1.24,1.94-2.33,3.22-3.27,1.28-.94,2.73-1.71,4.35-2.31,1.62-.6,3.33-.9,5.14-.9,2.26,0,4.27.38,6.04,1.13,1.77.75,3.27,1.79,4.51,3.1,1.24,1.32,2.2,2.84,2.88,4.57.68,1.73,1.02,3.58,1.02,5.53v24.6c0,3.24,1.62,4.85,4.85,4.85v1.92h-17.16v-1.91c3.23,0,4.85-1.61,4.85-4.84V15.09c0-3-.9-5.55-2.71-7.65-1.81-2.1-4.21-3.15-7.22-3.15-1.51,0-2.93.34-4.29,1.01-1.35.68-2.56,1.58-3.61,2.7-1.05,1.13-1.9,2.4-2.54,3.83-.64,1.42-.96,2.89-.96,4.39v22.85c0,3.23,1.62,4.84,4.85,4.84v1.91h-17.16v-1.92c3.23,0,4.85-1.62,4.85-4.85V7.9c0-3.23-1.62-4.85-4.85-4.85v-1.92h12.3v9.37c.23-1.35.77-2.65,1.64-3.89Z"/><path class="b" d="M148.58,44.7c3.16,0,5.6-.94,7.34-2.82,1.73-1.88,2.6-4.1,2.6-6.66,0-3.76-2.79-6.7-8.35-8.8-3.99-1.5-7.09-3.29-9.31-5.36-2.22-2.07-3.33-4.87-3.33-8.41,0-1.65.3-3.25.9-4.8.6-1.54,1.48-2.9,2.65-4.06,1.17-1.17,2.56-2.09,4.18-2.77,1.62-.68,3.44-1.02,5.47-1.02,2.86,0,5.19.47,7,1.41,1.81.94,3.01,1.9,3.61,2.88.23.38.41.79.56,1.24.15.45.15.87,0,1.24-.38,1.88-1.51,2.64-3.39,2.26-.68-.23-1.28-.64-1.81-1.24-.38-.52-.73-1.09-1.07-1.69-.34-.6-.73-1.17-1.18-1.69-.45-.53-1-.96-1.64-1.3-.64-.34-1.45-.51-2.43-.51-2.03,0-3.86.66-5.47,1.98-1.62,1.32-2.43,3.1-2.43,5.36,0,2.93,2.44,5.42,7.34,7.45,2.26.9,4.23,1.81,5.93,2.71,1.69.9,3.12,1.92,4.29,3.05,1.17,1.13,2.03,2.46,2.6,4.01.56,1.54.85,3.44.85,5.7,0,1.96-.36,3.8-1.07,5.53-.71,1.73-1.73,3.24-3.05,4.52-1.32,1.28-2.88,2.3-4.68,3.05-1.81.75-3.84,1.13-6.1,1.13-2.03,0-3.78-.21-5.25-.62-1.47-.41-2.73-.9-3.78-1.47-1.06-.56-1.9-1.17-2.54-1.81-.64-.64-1.11-1.19-1.41-1.64-.53-.9-.68-1.73-.45-2.48.15-.83.58-1.45,1.3-1.86.71-.41,1.48-.54,2.31-.4.68.23,1.28.64,1.81,1.24.38.53.77,1.17,1.19,1.92.41.75.92,1.49,1.52,2.2.6.71,1.32,1.32,2.14,1.81.83.49,1.88.73,3.16.73Z"/><path class="b" d="M206.14,44.7c3.16,0,5.6-.94,7.34-2.82,1.73-1.88,2.6-4.1,2.6-6.66,0-3.76-2.79-6.7-8.35-8.8-3.99-1.5-7.09-3.29-9.31-5.36-2.22-2.07-3.33-4.87-3.33-8.41,0-1.65.3-3.25.9-4.8.6-1.54,1.48-2.9,2.65-4.06,1.17-1.17,2.56-2.09,4.18-2.77,1.62-.68,3.44-1.02,5.47-1.02,2.86,0,5.19.47,7,1.41,1.81.94,3.01,1.9,3.61,2.88.23.38.41.79.56,1.24.15.45.15.87,0,1.24-.38,1.88-1.51,2.64-3.39,2.26-.68-.23-1.28-.64-1.81-1.24-.38-.52-.73-1.09-1.07-1.69-.34-.6-.73-1.17-1.18-1.69-.45-.53-1-.96-1.64-1.3-.64-.34-1.45-.51-2.43-.51-2.03,0-3.86.66-5.47,1.98-1.62,1.32-2.43,3.1-2.43,5.36,0,2.93,2.44,5.42,7.34,7.45,2.26.9,4.23,1.81,5.93,2.71s3.12,1.92,4.29,3.05c1.17,1.13,2.03,2.46,2.6,4.01.56,1.54.85,3.44.85,5.7,0,1.96-.36,3.8-1.07,5.53-.71,1.73-1.73,3.24-3.05,4.52-1.32,1.28-2.88,2.3-4.68,3.05-1.81.75-3.84,1.13-6.1,1.13-2.03,0-3.78-.21-5.25-.62-1.47-.41-2.73-.9-3.78-1.47-1.06-.56-1.9-1.17-2.54-1.81-.64-.64-1.11-1.19-1.41-1.64-.53-.9-.68-1.73-.45-2.48.15-.83.58-1.45,1.3-1.86.71-.41,1.48-.54,2.31-.4.68.23,1.28.64,1.81,1.24.38.53.77,1.17,1.19,1.92.41.75.92,1.49,1.52,2.2.6.71,1.32,1.32,2.14,1.81.83.49,1.88.73,3.16.73Z"/><path class="b" d="M284.39,7.9c0-3.23-1.62-4.85-4.85-4.85v-1.92h17.15v1.92c-3.23,0-4.85,1.62-4.85,4.85v31.15c0,3.24,1.62,4.85,4.85,4.85v1.92h-17.15v-1.92c3.23,0,4.85-1.62,4.85-4.85V7.9Z"/><path class="b" d="M314.74,6.6c.87-1.24,1.94-2.33,3.22-3.27,1.28-.94,2.73-1.71,4.35-2.31,1.62-.6,3.33-.9,5.14-.9,2.26,0,4.27.38,6.04,1.13,1.77.75,3.27,1.79,4.51,3.1,1.24,1.32,2.2,2.84,2.88,4.57.68,1.73,1.02,3.58,1.02,5.53v24.6c0,3.24,1.62,4.85,4.85,4.85v1.92h-17.16v-1.91c3.23,0,4.85-1.61,4.85-4.84V15.09c0-3-.9-5.55-2.71-7.65-1.81-2.1-4.21-3.15-7.22-3.15-1.51,0-2.93.34-4.29,1.01-1.35.68-2.56,1.58-3.61,2.7-1.05,1.13-1.9,2.4-2.54,3.83-.64,1.42-.96,2.89-.96,4.39v22.85c0,3.23,1.62,4.84,4.85,4.84v1.91h-17.16v-1.92c3.23,0,4.85-1.62,4.85-4.85V7.9c0-3.23-1.62-4.85-4.85-4.85v-1.92h12.3v9.37c.23-1.35.77-2.65,1.64-3.89Z"/><path class="b" d="M375.35,39.96c-.83,1.2-1.77,2.14-2.82,2.82-1.06.68-2.33,1.02-3.84,1.02-2.41,0-4.42-.81-6.04-2.43-1.62-1.62-2.43-3.63-2.43-6.04V9.02c0-3.22,1.63-4.83,4.85-4.83h0s6.55-.01,6.55-.01V1.13h-23.7v3.05h0c3.23.01,4.85,1.63,4.85,4.87v25.27c0,1.73.32,3.37.96,4.91.64,1.54,1.52,2.88,2.65,4.01,1.13,1.13,2.46,2.01,4.01,2.65,1.54.64,4.24.96,5.98.96,2.41,0,3.54-.53,5.54-1.58,1.99-1.05,3.52-2.56,4.57-4.51l-1.13-.79Z"/><path class="b" d="M263.73,41.73c-.51.53-1.27,1.12-2.28,1.76-1.02.64-2.19,1.25-3.52,1.81-1.33.57-2.82,1.04-4.45,1.42-1.63.38-3.28.57-4.95.57-3.1,0-6.04-.66-8.83-1.98-2.78-1.32-5.22-3.08-7.33-5.27-2.11-2.19-3.77-4.72-4.98-7.6-1.21-2.87-1.84-5.86-1.88-8.96-.05-3.1.48-6.07,1.59-8.9,1.1-2.84,2.65-5.31,4.64-7.43,1.99-2.12,4.37-3.8,7.13-5.05,2.76-1.25,5.8-1.87,9.13-1.87,2.95,0,5.77.53,8.47,1.59,2.69,1.06,5.01,2.72,6.94,4.99l.09-5.67h12.37s.02,1.93.02,1.93c-3.33,0-4.96,1.63-4.89,4.88l.19,31.07c-.08,3.25,1.59,4.88,4.99,4.88v1.94h-12.49s.06-4.09.06-4.09ZM248.24,2.83c-2.12,0-4.08.53-5.89,1.59-1.81,1.06-3.38,2.52-4.7,4.37-1.32,1.85-2.36,4.05-3.1,6.58-.74,2.53-1.11,5.27-1.09,8.22.03,3.03.43,5.82,1.21,8.39.78,2.57,1.85,4.8,3.23,6.69,1.37,1.89,2.97,3.37,4.79,4.42,1.82,1.06,3.76,1.59,5.8,1.59,2.65,0,5.31-.53,7.99-1.59,2.68-1.06,5.05-2.76,7.12-5.1l-.14-27.11c-1.98-2.5-4.21-4.46-6.71-5.9-2.5-1.44-5.34-2.16-8.52-2.16Z"/><path class="b" d="M78.46,39l-.19-31.07c-.07-3.25,1.56-4.88,4.89-4.88l-.02-1.93h-12.37l-.09,5.67c-1.94-2.27-4.25-3.93-6.94-4.99-2.69-1.06-5.52-1.59-8.47-1.59-3.33,0-6.38.62-9.13,1.87-2.76,1.25-5.13,2.93-7.13,5.05-1.99,2.12-3.54,4.59-4.64,7.43-1.1,2.83-1.63,5.8-1.59,8.9.04,3.1.67,6.09,1.88,8.96,1.21,2.87,2.87,5.41,4.98,7.6,2.11,2.19,4.55,3.95,7.33,5.27,2.78,1.32,5.72,1.98,8.83,1.98,1.66,0,3.31-.19,4.95-.57,1.63-.38,3.11-.85,4.45-1.42,1.33-.57,2.51-1.17,3.52-1.81,1.02-.64,1.78-1.23,2.28-1.76l-.06,4.09h12.49v-1.94c-3.4,0-5.07-1.63-4.99-4.88ZM63.77,43.09c-2.68,1.06-5.35,1.59-7.99,1.59-2.04,0-3.98-.53-5.8-1.59-1.82-1.06-3.42-2.53-4.79-4.42-1.37-1.89-2.45-4.12-3.23-6.69-.78-2.57-1.18-5.37-1.21-8.39-.02-2.95.35-5.69,1.09-8.22.74-2.53,1.77-4.72,3.1-6.58,1.32-1.85,2.89-3.31,4.7-4.37,1.81-1.06,3.77-1.59,5.89-1.59,3.18,0,6.02.72,8.52,2.16,2.5,1.44,4.73,3.4,6.71,5.9l.14,27.11c-2.06,2.34-4.44,4.05-7.12,5.1Z"/><path class="b" d="M180.52,17.52h0s-1.92,0-1.92,0c0,3.18-1.57,4.79-4.7,4.85h-.16v1.92c3.23,0,4.85,1.62,4.85,4.85h0s1.92,0,1.92,0c0-3.18,1.57-4.79,4.7-4.85h.16v-1.92c-3.23,0-4.85-1.62-4.85-4.85Z"/></svg>