<?xml version="1.0" encoding="UTF-8"?><svg id="a" xmlns="http://www.w3.org/2000/svg" viewBox="0 0 437.01 115.87"><defs><style>.b{fill:#785adc;}.c{fill:#151515;}.d{fill:#fa8ca0;}</style></defs><path class="c" d="M74.07,79.7c3.16,0,5.6-.94,7.34-2.82,1.73-1.88,2.6-4.1,2.6-6.66,0-3.76-2.79-6.7-8.35-8.8-3.99-1.5-7.09-3.29-9.31-5.36-2.22-2.07-3.33-4.87-3.33-8.41,0-1.65.3-3.25.9-4.8.6-1.54,1.48-2.9,2.65-4.06,1.17-1.17,2.56-2.09,4.18-2.77,1.62-.68,3.44-1.02,5.47-1.02,2.86,0,5.19.47,7,1.41,1.81.94,3.01,1.9,3.61,2.88.23.38.41.79.56,1.24.15.45.15.87,0,1.24-.38,1.88-1.51,2.64-3.39,2.26-.68-.23-1.28-.64-1.81-1.24-.38-.52-.73-1.09-1.07-1.69-.34-.6-.73-1.17-1.18-1.69-.45-.53-1-.96-1.64-1.3-.64-.34-1.45-.51-2.43-.51-2.03,0-3.86.66-5.47,1.98-1.62,1.32-2.43,3.1-2.43,5.36,0,2.93,2.44,5.42,7.34,7.45,2.26.9,4.23,1.81,5.93,2.71,1.69.9,3.12,1.92,4.29,3.05,1.17,1.13,2.03,2.46,2.6,4.01.56,1.54.85,3.44.85,5.7,0,1.96-.36,3.8-1.07,5.53-.71,1.73-1.73,3.24-3.05,4.52-1.32,1.28-2.88,2.3-4.68,3.05-1.81.75-3.84,1.13-6.1,1.13-2.03,0-3.78-.21-5.25-.62-1.47-.41-2.73-.9-3.78-1.47-1.06-.56-1.9-1.17-2.54-1.81-.64-.64-1.11-1.19-1.41-1.64-.53-.9-.68-1.73-.45-2.48.15-.83.58-1.45,1.3-1.86.71-.41,1.48-.54,2.31-.4.68.23,1.28.64,1.81,1.24.38.53.77,1.17,1.19,1.92.41.75.92,1.49,1.52,2.2.6.71,1.32,1.32,2.14,1.81.83.49,1.88.73,3.16.73Z"/><path class="c" d="M161.47,41.6c.87-1.24,1.94-2.33,3.22-3.27,1.28-.94,2.73-1.71,4.35-2.31,1.62-.6,3.33-.9,5.14-.9,2.26,0,4.27.38,6.04,1.13,1.77.75,3.27,1.79,4.51,3.1,1.24,1.32,2.2,2.84,2.88,4.57.68,1.73,1.02,3.58,1.02,5.53v24.6c0,3.24,1.62,4.85,4.85,4.85v1.92h-17.16v-1.91c3.23,0,4.85-1.61,4.85-4.84v-23.98c0-3-.9-5.55-2.71-7.65-1.81-2.1-4.21-3.15-7.22-3.15-1.51,0-2.93.34-4.29,1.01-1.35.68-2.56,1.58-3.61,2.7-1.05,1.13-1.9,2.4-2.54,3.83-.64,1.42-.96,2.89-.96,4.39v22.85c0,3.23,1.62,4.84,4.85,4.84v1.91h-17.16v-1.92c3.23,0,4.85-1.62,4.85-4.85v-31.15c0-3.23-1.62-4.85-4.85-4.85v-1.92h12.3v9.37c.23-1.35.77-2.65,1.64-3.89Z"/><path class="c" d="M209.11,79.7c3.16,0,5.6-.94,7.34-2.82,1.73-1.88,2.6-4.1,2.6-6.66,0-3.76-2.79-6.7-8.35-8.8-3.99-1.5-7.09-3.29-9.31-5.36-2.22-2.07-3.33-4.87-3.33-8.41,0-1.65.3-3.25.9-4.8.6-1.54,1.48-2.9,2.65-4.06,1.17-1.17,2.56-2.09,4.18-2.77,1.62-.68,3.44-1.02,5.47-1.02,2.86,0,5.19.47,7,1.41,1.81.94,3.01,1.9,3.61,2.88.23.38.41.79.56,1.24.15.45.15.87,0,1.24-.38,1.88-1.51,2.64-3.39,2.26-.68-.23-1.28-.64-1.81-1.24-.38-.52-.73-1.09-1.07-1.69-.34-.6-.73-1.17-1.18-1.69-.45-.53-1-.96-1.64-1.3-.64-.34-1.45-.51-2.43-.51-2.03,0-3.86.66-5.47,1.98-1.62,1.32-2.43,3.1-2.43,5.36,0,2.93,2.44,5.42,7.34,7.45,2.26.9,4.23,1.81,5.93,2.71,1.69.9,3.12,1.92,4.29,3.05,1.17,1.13,2.03,2.46,2.6,4.01.56,1.54.85,3.44.85,5.7,0,1.96-.36,3.8-1.07,5.53-.71,1.73-1.73,3.24-3.05,4.52-1.32,1.28-2.88,2.3-4.68,3.05-1.81.75-3.84,1.13-6.1,1.13-2.03,0-3.78-.21-5.25-.62-1.47-.41-2.73-.9-3.78-1.47-1.06-.56-1.9-1.17-2.54-1.81-.64-.64-1.11-1.19-1.41-1.64-.53-.9-.68-1.73-.45-2.48.15-.83.58-1.45,1.3-1.86.71-.41,1.48-.54,2.31-.4.68.23,1.28.64,1.81,1.24.38.53.77,1.17,1.19,1.92.41.75.92,1.49,1.52,2.2.6.71,1.32,1.32,2.14,1.81.83.49,1.88.73,3.16.73Z"/><path class="c" d="M266.67,79.7c3.16,0,5.6-.94,7.34-2.82,1.73-1.88,2.6-4.1,2.6-6.66,0-3.76-2.79-6.7-8.35-8.8-3.99-1.5-7.09-3.29-9.31-5.36-2.22-2.07-3.33-4.87-3.33-8.41,0-1.65.3-3.25.9-4.8.6-1.54,1.48-2.9,2.65-4.06,1.17-1.17,2.56-2.09,4.18-2.77,1.62-.68,3.44-1.02,5.47-1.02,2.86,0,5.19.47,7,1.41,1.81.94,3.01,1.9,3.61,2.88.23.38.41.79.56,1.24.15.45.15.87,0,1.24-.38,1.88-1.51,2.64-3.39,2.26-.68-.23-1.28-.64-1.81-1.24-.38-.52-.73-1.09-1.07-1.69-.34-.6-.73-1.17-1.18-1.69-.45-.53-1-.96-1.64-1.3-.64-.34-1.45-.51-2.43-.51-2.03,0-3.86.66-5.47,1.98-1.62,1.32-2.43,3.1-2.43,5.36,0,2.93,2.44,5.42,7.34,7.45,2.26.9,4.23,1.81,5.93,2.71,1.69.9,3.12,1.92,4.29,3.05,1.17,1.13,2.03,2.46,2.6,4.01.56,1.54.85,3.44.85,5.7,0,1.96-.36,3.8-1.07,5.53-.71,1.73-1.73,3.24-3.05,4.52-1.32,1.28-2.88,2.3-4.68,3.05-1.81.75-3.84,1.13-6.1,1.13-2.03,0-3.78-.21-5.25-.62-1.47-.41-2.73-.9-3.78-1.47-1.06-.56-1.9-1.17-2.54-1.81-.64-.64-1.11-1.19-1.41-1.64-.53-.9-.68-1.73-.45-2.48.15-.83.58-1.45,1.3-1.86.71-.41,1.48-.54,2.31-.4.68.23,1.28.64,1.81,1.24.38.53.77,1.17,1.19,1.92.41.75.92,1.49,1.52,2.2.6.71,1.32,1.32,2.14,1.81.83.49,1.88.73,3.16.73Z"/><path class="c" d="M344.92,42.9c0-3.23-1.62-4.85-4.85-4.85v-1.92h17.15v1.92c-3.23,0-4.85,1.62-4.85,4.85v31.15c0,3.24,1.62,4.85,4.85,4.85v1.92h-17.15v-1.92c3.23,0,4.85-1.62,4.85-4.85v-31.15Z"/><path class="c" d="M375.27,41.6c.87-1.24,1.94-2.33,3.22-3.27,1.28-.94,2.73-1.71,4.35-2.31,1.62-.6,3.33-.9,5.14-.9,2.26,0,4.27.38,6.04,1.13,1.77.75,3.27,1.79,4.51,3.1,1.24,1.32,2.2,2.84,2.88,4.57.68,1.73,1.02,3.58,1.02,5.53v24.6c0,3.24,1.62,4.85,4.85,4.85v1.92h-17.16v-1.91c3.23,0,4.85-1.61,4.85-4.84v-23.98c0-3-.9-5.55-2.71-7.65-1.81-2.1-4.21-3.15-7.22-3.15-1.51,0-2.93.34-4.29,1.01-1.35.68-2.56,1.58-3.61,2.7-1.05,1.13-1.9,2.4-2.54,3.83-.64,1.42-.96,2.89-.96,4.39v22.85c0,3.23,1.62,4.84,4.85,4.84v1.91h-17.16v-1.92c3.23,0,4.85-1.62,4.85-4.85v-31.15c0-3.23-1.62-4.85-4.85-4.85v-1.92h12.3v9.37c.23-1.35.77-2.65,1.64-3.89Z"/><path class="c" d="M435.88,74.96c-.83,1.2-1.77,2.14-2.82,2.82-1.06.68-2.33,1.02-3.84,1.02-2.41,0-4.42-.81-6.04-2.43-1.62-1.62-2.43-3.63-2.43-6.04v-26.31c0-3.22,1.63-4.83,4.85-4.83h0s6.55-.01,6.55-.01v-3.05h-23.7v3.05h0c3.23.01,4.85,1.63,4.85,4.87v25.27c0,1.73.32,3.37.96,4.91.64,1.54,1.52,2.88,2.65,4.01,1.13,1.13,2.46,2.01,4.01,2.65,1.54.64,4.24.96,5.98.96,2.41,0,3.54-.53,5.54-1.58,1.99-1.05,3.52-2.56,4.57-4.51l-1.13-.79Z"/><path class="c" d="M324.27,76.73c-.51.53-1.27,1.12-2.28,1.76-1.02.64-2.19,1.25-3.52,1.81-1.33.57-2.82,1.04-4.45,1.42-1.63.38-3.28.57-4.95.57-3.1,0-6.04-.66-8.83-1.98-2.78-1.32-5.22-3.08-7.33-5.27-2.11-2.19-3.77-4.72-4.98-7.6-1.21-2.87-1.84-5.86-1.88-8.96-.05-3.1.48-6.07,1.59-8.9,1.1-2.84,2.65-5.31,4.64-7.43,1.99-2.12,4.37-3.8,7.13-5.05,2.76-1.25,5.8-1.87,9.13-1.87,2.95,0,5.77.53,8.47,1.59,2.69,1.06,5.01,2.72,6.94,4.99l.09-5.67h12.37s.02,1.93.02,1.93c-3.33,0-4.96,1.63-4.89,4.88l.19,31.07c-.08,3.25,1.59,4.88,4.99,4.88v1.94h-12.49s.06-4.09.06-4.09ZM308.78,37.83c-2.12,0-4.08.53-5.89,1.59-1.81,1.06-3.38,2.52-4.7,4.37-1.32,1.85-2.36,4.05-3.1,6.58-.74,2.53-1.11,5.27-1.09,8.22.03,3.03.43,5.82,1.21,8.39.78,2.57,1.85,4.8,3.23,6.69,1.37,1.89,2.97,3.37,4.79,4.42,1.82,1.06,3.76,1.59,5.8,1.59,2.65,0,5.31-.53,7.99-1.59,2.68-1.06,5.05-2.76,7.12-5.1l-.14-27.11c-1.98-2.5-4.21-4.46-6.71-5.9-2.5-1.44-5.34-2.16-8.52-2.16Z"/><path class="c" d="M138.99,74l-.19-31.07c-.07-3.25,1.56-4.88,4.89-4.88l-.02-1.93h-12.37l-.09,5.67c-1.94-2.27-4.25-3.93-6.94-4.99-2.69-1.06-5.52-1.59-8.47-1.59-3.33,0-6.38.62-9.13,1.87-2.76,1.25-5.13,2.93-7.13,5.05-1.99,2.12-3.54,4.59-4.64,7.43-1.1,2.83-1.63,5.8-1.59,8.9.04,3.1.67,6.09,1.88,8.96,1.21,2.87,2.87,5.41,4.98,7.6,2.11,2.19,4.55,3.95,7.33,5.27,2.78,1.32,5.72,1.98,8.83,1.98,1.66,0,3.31-.19,4.95-.57,1.63-.38,3.11-.85,4.45-1.42,1.33-.57,2.51-1.17,3.52-1.81,1.02-.64,1.78-1.23,2.28-1.76l-.06,4.09h12.49v-1.94c-3.4,0-5.07-1.63-4.99-4.88ZM124.31,78.09c-2.68,1.06-5.35,1.59-7.99,1.59-2.04,0-3.98-.53-5.8-1.59-1.82-1.06-3.42-2.53-4.79-4.42-1.37-1.89-2.45-4.12-3.23-6.69-.78-2.57-1.18-5.37-1.21-8.39-.02-2.95.35-5.69,1.09-8.22.74-2.53,1.77-4.72,3.1-6.58,1.32-1.85,2.89-3.31,4.7-4.37,1.81-1.06,3.77-1.59,5.89-1.59,3.18,0,6.02.72,8.52,2.16,2.5,1.44,4.73,3.4,6.71,5.9l.14,27.11c-2.06,2.34-4.44,4.05-7.12,5.1Z"/><path class="c" d="M241.05,52.52h0s-1.92,0-1.92,0c0,3.18-1.57,4.79-4.7,4.85h-.16v1.92c3.23,0,4.85,1.62,4.85,4.85h0s1.92,0,1.92,0c0-3.18,1.57-4.79,4.7-4.85h.16v-1.92c-3.23,0-4.85-1.62-4.85-4.85Z"/><path class="b" d="M28.1,18.97c-4.98,8.29-7.85,18.01-7.85,28.28v60.75H0v-54C0,34.01,4.12,22.84,20.25,13.5c3.02,1.75,5.62,3.55,7.85,5.47Z"/><path class="d" d="M47.25,0v108h-6.75v-54c0-16.25-2.72-26.67-12.4-35.03,4.7-7.86,11.3-14.44,19.15-18.97Z"/><path class="c" d="M31.21,43.99h0s-1.87,0-1.87,0c0,3.1-1.53,4.67-4.58,4.73h-.15v1.87c3.15,0,4.73,1.58,4.73,4.73h0s1.87,0,1.87,0c0-3.1,1.53-4.67,4.58-4.73h.15v-1.87c-3.15,0-4.73-1.58-4.73-4.73Z"/><path class="c" d="M62.95,108.02c-.24,0-.44-.03-.59-.1s-.22-.15-.22-.27c0-.13.08-.25.24-.35.16-.1.39-.2.69-.29.49-.15.93-.37,1.34-.67.41-.3.77-.79,1.06-1.48.52-1.19,1-2.31,1.44-3.36.44-1.04.85-2.07,1.25-3.08.39-1.01.8-2.06,1.22-3.15s.86-2.28,1.33-3.57c.09-.26.18-.52.25-.78s.12-.54.14-.84c.17-.06.34-.11.5-.17.17-.06.34-.14.5-.25.17-.11.28-.28.35-.5.07-.22.13-.37.18-.45.02-.02.04-.03.07-.03s.05.02.07.06c.04.08.07.17.1.28.03.11.06.22.1.34.45,1.42.91,2.87,1.4,4.34.49,1.48.96,2.9,1.41,4.27s.88,2.6,1.26,3.7c.38,1.09.69,1.97.91,2.65.26.75.54,1.31.84,1.68.3.37.61.63.94.78.33.15.68.26,1.05.34.32.06.55.14.7.27.15.12.22.25.22.38,0,.11-.07.19-.22.22-.15.04-.35.06-.59.06-.26,0-.62-.01-1.06-.04-.45-.03-.92-.06-1.43-.08-.5-.03-.97-.04-1.4-.04h-1.09c-.37,0-.72,0-1.04.01s-.59.01-.81.01c-.24,0-.44-.03-.59-.08s-.22-.14-.22-.25c0-.13.09-.24.28-.34s.4-.16.64-.2c.62-.09,1.05-.25,1.32-.48.26-.22.39-.49.39-.78,0-.28-.06-.69-.18-1.22-.12-.53-.27-1.1-.43-1.71s-.33-1.14-.48-1.61c-.04-.15-.11-.24-.21-.27-.1-.03-.28-.04-.55-.04h-5.29c-.07,0-.15.03-.24.1s-.16.2-.24.41c-.06.19-.15.48-.28.88s-.26.83-.39,1.27c-.13.45-.24.85-.34,1.2-.09.36-.14.58-.14.67,0,.41.16.75.48,1.02.32.27.7.46,1.15.57.62.17.92.35.92.56,0,.11-.07.19-.22.24s-.35.07-.59.07-.6,0-1.06-.03-.96-.03-1.48-.03c-.62,0-1.21.03-1.79.08-.58.06-1.1.08-1.57.08ZM69.5,99.99h4.34c.26,0,.39-.05.39-.14,0-.04,0-.08-.01-.13,0-.05-.02-.1-.04-.15l-2.18-6.83c-.11-.34-.2-.5-.25-.5-.04,0-.11.16-.22.48l-2.55,6.86c-.04.11-.06.19-.06.22,0,.09.05.15.15.17s.25.03.43.03Z"/><path class="c" d="M83.88,107.97c-.19,0-.33-.02-.42-.07-.09-.05-.14-.13-.14-.24,0-.15.06-.25.17-.29.11-.05.27-.1.48-.15.35-.09.62-.23.8-.41.18-.18.27-.4.27-.66v-6.02c0-.5-.07-.94-.22-1.32-.15-.37-.46-.61-.92-.7-.08-.02-.14-.06-.2-.14-.06-.07-.08-.15-.08-.22,0-.19.08-.3.25-.34.49-.15.99-.37,1.53-.66s.95-.53,1.25-.71c.11-.07.2-.13.27-.15s.12-.04.15-.04c.09,0,.14.07.14.2,0,.06,0,.2-.01.42,0,.22-.02.49-.03.78s-.02.6-.04.9c0,.04.02.06.06.06.3-.37.63-.7.99-.98.36-.28.74-.5,1.12-.67s.75-.25,1.11-.25c.39,0,.71.08.97.25s.38.38.38.64c0,.19-.05.39-.15.62s-.24.42-.41.59-.35.25-.53.25c-.11,0-.23-.02-.36-.07-.13-.05-.27-.11-.42-.18-.15-.06-.3-.11-.45-.17-.15-.06-.3-.08-.45-.08-.45,0-.88.16-1.3.48-.42.32-.63.94-.63,1.88v5.66c0,.24.13.44.39.6.26.16.62.31,1.09.46.21.06.36.11.48.17.11.06.17.15.17.28,0,.21-.19.31-.56.31-.56,0-.99-.02-1.27-.07-.29-.05-.68-.07-1.16-.07-.32,0-.57,0-.77.03-.2.02-.4.04-.62.07s-.51.04-.88.04Z"/><path class="c" d="M97.75,108.28c-.92,0-1.63-.28-2.14-.84-.51-.56-.77-1.39-.77-2.49v-6.5c0-.15-.06-.26-.17-.32s-.35-.1-.73-.1h-.17c-.09,0-.17-.06-.24-.18-.07-.12-.1-.25-.1-.38,0-.04.03-.09.08-.17.06-.07.09-.12.11-.14.37-.26.71-.52,1.02-.78.31-.26.59-.52.84-.77s.46-.48.63-.69c.09-.09.17-.17.24-.24.06-.07.14-.1.24-.1s.18.02.27.06c.08.04.12.12.1.25l-.14,1.26c-.02.21.03.35.14.42.11.07.29.11.53.11h3.19c.07,0,.14.06.2.18.06.12.08.27.08.43s-.03.33-.08.49c-.06.16-.12.24-.2.24h-2.77c-.47,0-.77.04-.91.11-.14.08-.21.3-.21.67v5.52c0,.75.16,1.33.48,1.76.32.43.77.64,1.37.64.54,0,.96-.04,1.26-.13.3-.08.57-.21.81-.38.04-.04.07-.06.11-.06.07,0,.13.04.15.13.03.08.04.17.04.27s-.15.28-.46.56c-.31.28-.71.54-1.2.78-.5.24-1.03.36-1.61.36Z"/><path class="c" d="M105.88,108.28c-.58,0-1.12-.09-1.62-.27s-.93-.42-1.29-.74c-.09-.21-.16-.55-.21-1.04-.05-.48-.08-.89-.1-1.2,0-.17.12-.25.36-.25.07,0,.14.01.21.04.07.03.11.08.13.15.24.92.63,1.57,1.16,1.96.53.39,1.07.59,1.61.59s1-.18,1.39-.55.57-.82.57-1.36c0-.5-.17-.94-.5-1.3-.34-.36-.92-.81-1.76-1.33-.63-.39-1.15-.76-1.54-1.12-.39-.35-.68-.72-.85-1.09-.18-.37-.27-.79-.27-1.26,0-.6.14-1.14.42-1.62.28-.49.7-.87,1.26-1.16.56-.29,1.26-.43,2.1-.43.56,0,1.03.06,1.4.17.37.11.65.23.84.36.15.21.28.53.38.97s.15.85.15,1.25c0,.13-.09.2-.28.2-.11,0-.22-.02-.32-.07s-.17-.11-.21-.18c-.24-.62-.55-1.09-.91-1.41-.36-.33-.82-.49-1.36-.49-.47,0-.88.14-1.25.42-.36.28-.55.69-.55,1.23,0,.43.13.81.41,1.15.27.34.78.72,1.53,1.15,1.08.62,1.89,1.19,2.42,1.72.53.53.8,1.24.8,2.11,0,1.01-.38,1.83-1.15,2.46-.77.63-1.75.95-2.97.95Z"/><path class="c" d="M112.12,107.97c-.15,0-.28-.02-.39-.06s-.17-.12-.17-.25.06-.22.18-.28c.12-.06.28-.11.46-.17.26-.09.53-.2.8-.32.27-.12.41-.37.41-.74v-6.02c0-.5-.06-.95-.17-1.33-.11-.38-.41-.61-.9-.69-.08-.02-.14-.06-.18-.11-.05-.06-.07-.14-.07-.25,0-.19.07-.3.22-.34.5-.13.91-.27,1.2-.41s.56-.3.8-.48c.23-.18.52-.37.85-.57.04-.02.07-.04.11-.07.04-.03.08-.04.14-.04.11,0,.17.07.17.2s-.02.4-.07.8-.07.73-.07.99c0,.19.02.3.06.34h.06c.43-.41.99-.83,1.69-1.25s1.59-.63,2.67-.63c.67,0,1.23.14,1.68.43.45.29.82.79,1.12,1.5h.08c.6-.54,1.28-1,2.04-1.37.77-.37,1.61-.56,2.52-.56.62,0,1.13.19,1.54.56.41.37.72.86.94,1.46.21.6.32,1.22.32,1.88v5.96c0,.37.13.62.39.74.26.12.53.23.81.32.19.06.34.11.46.17.12.06.18.15.18.28,0,.11-.04.19-.13.24-.08.05-.23.07-.43.07-.37,0-.66-.01-.87-.04s-.4-.05-.57-.07c-.18-.02-.43-.03-.77-.03-.32,0-.58,0-.78.03-.21.02-.42.04-.64.07-.22.03-.52.04-.9.04-.17,0-.3-.02-.41-.07-.1-.05-.15-.13-.15-.24,0-.15.06-.25.18-.31.12-.06.28-.1.46-.14.3-.07.57-.18.83-.31.25-.13.38-.38.38-.76v-5.88c0-.45-.1-.87-.31-1.27-.21-.4-.48-.73-.81-.99s-.71-.39-1.12-.39c-.47,0-.9.06-1.3.17-.4.11-.78.31-1.13.59-.52.41-.78,1.08-.78,2.02v5.77c0,.37.14.63.42.76.28.13.56.23.84.31.19.04.34.09.46.15s.18.16.18.29c0,.11-.05.19-.14.24-.09.05-.23.07-.42.07-.37,0-.67-.01-.88-.04s-.42-.05-.62-.07c-.2-.02-.46-.03-.8-.03-.32,0-.58,0-.78.03-.21.02-.42.04-.64.07-.22.03-.52.04-.9.04-.15,0-.28-.02-.39-.07-.11-.05-.17-.13-.17-.24,0-.15.07-.25.21-.29s.28-.1.43-.15c.28-.09.56-.2.83-.32.27-.12.41-.37.41-.74v-5.88c0-.45-.1-.87-.31-1.27-.21-.4-.48-.73-.81-.99s-.71-.39-1.12-.39c-.47,0-.9.06-1.3.17-.4.11-.78.31-1.13.59-.5.37-.76,1.04-.76,2.02v5.77c0,.37.13.62.39.74.26.12.53.23.81.32.15.06.29.11.43.15.14.05.21.14.21.29,0,.11-.05.19-.15.24-.1.05-.24.07-.41.07-.37,0-.67-.01-.88-.04s-.42-.05-.6-.07c-.19-.02-.45-.03-.78-.03-.32,0-.57,0-.77.03-.2.02-.4.04-.62.07-.21.03-.51.04-.88.04Z"/><path class="c" d="M136.03,108.28c-.34,0-.68-.13-1.02-.39s-.63-.58-.87-.95c-.23-.37-.35-.73-.35-1.06,0-.6.16-1.06.48-1.4s.82-.64,1.51-.92l2.86-1.18c.37-.15.59-.28.66-.39.07-.11.11-.35.13-.73l.06-1.79c.02-.49-.12-.91-.41-1.26-.29-.35-.71-.53-1.25-.53-.28,0-.56.05-.84.14-.28.09-.51.21-.7.36-.11.07-.19.19-.22.34s-.06.31-.06.48c0,.08,0,.16.01.25,0,.09.01.18.01.25,0,.09-.12.22-.35.38-.23.16-.49.3-.78.42-.29.12-.53.18-.71.18-.09,0-.17-.02-.22-.07-.06-.05-.08-.11-.08-.18,0-.3.1-.62.29-.97s.47-.67.83-.97c.43-.39.9-.74,1.4-1.04s1-.53,1.48-.7.91-.25,1.29-.25c.67,0,1.23.24,1.67.71s.65,1.07.63,1.78l-.14,6.72c-.02.39.07.71.27.95s.44.36.74.36c.47,0,.81-.1,1.04-.31.09-.09.17-.14.22-.14.09,0,.17.03.22.08.06.06.08.13.08.22,0,.21-.1.41-.31.62-.3.3-.62.54-.97.71-.35.18-.67.27-.97.27-.86,0-1.54-.48-2.04-1.46h-.08c-.62.5-1.2.87-1.76,1.11-.56.23-1.14.35-1.74.35ZM137.35,106.93c.37,0,.69-.06.95-.18s.49-.28.7-.49c.09-.09.17-.22.24-.38.06-.16.11-.42.13-.77l.06-1.37c.02-.21,0-.35-.03-.45s-.11-.14-.22-.14c-.04,0-.1,0-.2.03s-.21.06-.36.11c-.99.35-1.67.72-2.06,1.11-.38.38-.57.73-.57,1.05,0,.49.14.85.43,1.11.29.25.6.38.94.38Z"/><path class="c" d="M145.91,107.97c-.17,0-.3-.02-.41-.07-.1-.05-.15-.13-.15-.24,0-.15.06-.25.17-.29s.27-.1.48-.15c.28-.07.55-.18.81-.31.26-.13.39-.38.39-.76v-6.02c0-.5-.05-.93-.15-1.29s-.4-.6-.88-.73c-.08-.04-.14-.08-.2-.13-.06-.05-.08-.13-.08-.24,0-.21.08-.32.25-.34.65-.17,1.19-.37,1.6-.62.41-.24.81-.51,1.2-.81.06-.04.11-.07.15-.1.05-.03.1-.04.15-.04.04,0,.07.02.1.06.03.04.04.08.04.14,0,.13-.02.4-.07.8s-.07.73-.07.99c0,.07,0,.14.01.21,0,.07.02.11.04.13.65-.62,1.35-1.08,2.09-1.4s1.54-.48,2.42-.48,1.67.37,2.27,1.12c.6.75.9,1.67.9,2.77v5.96c0,.37.13.62.39.74.26.12.53.23.81.32.15.06.29.12.43.18.14.07.21.17.21.32,0,.11-.07.18-.2.21-.13.03-.25.04-.36.04-.37,0-.66-.01-.87-.04s-.4-.05-.59-.07c-.19-.02-.45-.03-.78-.03-.32,0-.58,0-.78.03-.21.02-.42.04-.63.07s-.51.04-.88.04c-.09,0-.21-.01-.35-.04-.14-.03-.21-.1-.21-.21,0-.15.07-.26.21-.32.14-.07.28-.13.43-.18.28-.09.55-.2.81-.32.26-.12.39-.37.39-.74v-5.88c0-.82-.23-1.46-.69-1.92-.46-.46-1.07-.7-1.83-.71-.67,0-1.26.11-1.76.32s-.95.48-1.34.8c-.08.08-.13.17-.17.29-.04.12-.06.24-.06.35v6.75c0,.37.13.63.39.76.26.13.53.23.81.31.43.11.64.26.64.45,0,.11-.05.19-.14.24-.09.05-.23.07-.42.07-.37,0-.67-.01-.88-.04s-.42-.05-.6-.07c-.19-.02-.45-.03-.78-.03-.32,0-.57,0-.77.03-.2.02-.4.04-.62.07-.21.03-.51.04-.88.04Z"/><path class="c" d="M163.79,108.28c-.58,0-1.12-.09-1.62-.27s-.93-.42-1.29-.74c-.09-.21-.16-.55-.21-1.04-.05-.48-.08-.89-.1-1.2,0-.17.12-.25.36-.25.07,0,.14.01.21.04.07.03.11.08.13.15.24.92.63,1.57,1.16,1.96.53.39,1.07.59,1.61.59s1-.18,1.39-.55.57-.82.57-1.36c0-.5-.17-.94-.5-1.3-.34-.36-.92-.81-1.76-1.33-.63-.39-1.15-.76-1.54-1.12-.39-.35-.68-.72-.85-1.09-.18-.37-.27-.79-.27-1.26,0-.6.14-1.14.42-1.62.28-.49.7-.87,1.26-1.16.56-.29,1.26-.43,2.1-.43.56,0,1.03.06,1.4.17.37.11.65.23.84.36.15.21.28.53.38.97s.15.85.15,1.25c0,.13-.09.2-.28.2-.11,0-.22-.02-.32-.07s-.17-.11-.21-.18c-.24-.62-.55-1.09-.91-1.41-.36-.33-.82-.49-1.36-.49-.47,0-.88.14-1.25.42-.36.28-.55.69-.55,1.23,0,.43.13.81.41,1.15.27.34.78.72,1.53,1.15,1.08.62,1.89,1.19,2.42,1.72.53.53.8,1.24.8,2.11,0,1.01-.38,1.83-1.15,2.46-.77.63-1.75.95-2.97.95Z"/><path class="c" d="M169.89,107.97c-.37,0-.56-.1-.56-.31,0-.17.21-.32.64-.45.28-.09.55-.21.8-.36s.39-.41.41-.78v-14.03c0-.5-.08-.95-.25-1.33s-.5-.61-.98-.69c-.17-.04-.25-.17-.25-.39,0-.17.07-.28.22-.34.26-.09.57-.2.94-.31.36-.11.74-.24,1.13-.38.39-.14.74-.27,1.04-.41.08-.04.13-.06.17-.06.06,0,.1.02.14.06.04.04.06.08.06.14,0,.11-.02.27-.07.48-.05.21-.09.56-.13,1.06-.04.5-.06,1.26-.06,2.27v4.87c0,.3.01.51.04.64s.08.26.15.39c.3-.22.67-.47,1.11-.74.44-.27.93-.51,1.47-.71.54-.21,1.1-.31,1.68-.31.91,0,1.67.36,2.28,1.08.61.72.91,1.63.91,2.73v5.88c0,.37.12.65.36.83.24.18.5.31.78.41.21.06.36.12.48.18.11.07.17.15.17.27,0,.21-.19.31-.56.31s-.66-.01-.85-.04c-.2-.03-.38-.05-.56-.07-.18-.02-.43-.03-.77-.03-.32,0-.57,0-.76.03-.19.02-.38.04-.57.07s-.48.04-.85.04-.56-.1-.56-.31c0-.13.06-.22.17-.27.11-.05.27-.11.48-.18.28-.09.53-.23.76-.41.22-.18.34-.45.34-.83v-5.71c0-.47-.14-.89-.41-1.27s-.6-.69-.99-.91c-.39-.22-.79-.34-1.2-.34-.35,0-.77.05-1.23.15-.47.1-.83.26-1.09.46-.3.24-.5.49-.6.76s-.15.68-.15,1.26v5.68c.02.37.14.63.35.78.21.15.46.27.74.36.21.06.36.12.46.18s.15.15.15.27c0,.21-.19.31-.56.31s-.65-.01-.84-.04c-.19-.03-.36-.05-.53-.07-.17-.02-.42-.03-.76-.03-.32,0-.57,0-.77.03-.2.02-.4.04-.62.07s-.51.04-.88.04Z"/><path class="c" d="M184.93,107.97c-.17,0-.3-.02-.41-.07-.1-.05-.15-.13-.15-.24,0-.15.07-.25.21-.31.14-.06.28-.1.43-.14.39-.09.69-.21.9-.35.21-.14.31-.38.31-.71v-6.08c0-.5-.09-.95-.27-1.34-.18-.39-.51-.62-.99-.7-.09-.02-.16-.06-.21-.11-.05-.06-.07-.14-.07-.25,0-.21.08-.32.25-.34.75-.17,1.36-.4,1.85-.69.49-.29.85-.53,1.09-.71.17-.13.3-.2.39-.2.11,0,.17.05.17.14,0,.15-.02.44-.07.88-.05.44-.09.92-.13,1.46-.04.53-.06,1.01-.06,1.44v6.5c0,.32.11.55.32.7s.51.27.88.36c.15.04.29.08.43.14.14.06.21.16.21.31,0,.21-.19.31-.56.31-.35,0-.64-.01-.85-.04-.21-.03-.42-.05-.62-.07-.2-.02-.46-.03-.8-.03-.32,0-.58,0-.78.03-.21.02-.41.04-.62.07-.21.03-.49.04-.87.04ZM187.17,93.44c-.39,0-.72-.13-.99-.41s-.41-.6-.41-.99c0-.41.13-.75.41-1.02s.6-.41.99-.41c.41,0,.75.14,1.02.41s.41.61.41,1.02-.14.72-.41.99-.61.41-1.02.41Z"/><path class="c" d="M191.44,115.87c-.09,0-.21-.01-.36-.04-.15-.03-.22-.1-.22-.21,0-.15.07-.26.21-.32.14-.07.28-.13.43-.18.28-.09.55-.2.81-.32.26-.12.39-.37.39-.74v-14.2c0-.15-.04-.37-.13-.67s-.22-.59-.41-.87-.44-.45-.76-.5c-.07-.02-.13-.07-.17-.14s-.06-.15-.06-.22c0-.09.02-.17.06-.22s.08-.09.14-.11c.71-.17,1.32-.35,1.82-.55s.98-.39,1.43-.57c.02,0,.03,0,.03-.01,0,0,0-.01.03-.01.04,0,.07.03.11.08.04.06.06.11.06.17,0,.17-.02.43-.07.8s-.07.66-.07.88c0,.15,0,.23.03.25.19-.19.53-.42,1.02-.71.49-.29,1.06-.55,1.69-.78s1.24-.35,1.82-.35c.97,0,1.8.26,2.48.77.68.51,1.2,1.18,1.57,1.99.36.81.55,1.66.55,2.53s-.16,1.66-.48,2.45c-.32.79-.77,1.51-1.34,2.14-.58.63-1.25,1.14-2.02,1.53-.77.38-1.59.57-2.46.57-.26,0-.57-.04-.94-.13-.36-.08-.72-.19-1.06-.32-.35-.13-.61-.28-.8-.45-.02,0-.04.11-.06.32-.02.21-.03.44-.04.67,0,.23-.01.38-.01.43v5.24c0,.24.1.43.29.57.2.14.42.24.67.31s.47.13.66.18c.15.06.29.12.43.18.14.06.21.17.21.32,0,.11-.08.18-.22.21-.15.03-.28.04-.39.04-.54,0-.99-.02-1.36-.07-.36-.05-.79-.07-1.27-.07-.32,0-.57,0-.77.03s-.4.04-.6.07c-.21.03-.5.04-.87.04ZM197.99,107.41c.28,0,.62-.08,1.02-.25.4-.17.8-.44,1.2-.81.4-.37.74-.88,1.01-1.51.27-.63.41-1.42.41-2.35,0-1.08-.14-1.95-.42-2.6-.28-.65-.62-1.15-1.04-1.48-.41-.34-.83-.56-1.26-.67s-.79-.17-1.09-.17c-.45,0-.91.09-1.39.28-.48.19-.88.4-1.2.63-.33.23-.49.42-.49.55,0,.41,0,.83-.01,1.25,0,.42-.02.83-.03,1.22,0,.39-.02.74-.03,1.05,0,.31-.01.55-.01.71,0,.75.17,1.44.52,2.07.34.63.77,1.14,1.29,1.53.51.38,1.02.57,1.53.57Z"/><path class="c" d="M212.24,107.97c-.17,0-.3-.02-.41-.07-.1-.05-.15-.13-.15-.24,0-.15.07-.25.21-.31.14-.06.28-.1.43-.14.39-.09.69-.21.9-.35.21-.14.31-.38.31-.71v-6.08c0-.5-.09-.95-.27-1.34-.18-.39-.51-.62-.99-.7-.09-.02-.16-.06-.21-.11-.05-.06-.07-.14-.07-.25,0-.21.08-.32.25-.34.75-.17,1.36-.4,1.85-.69.49-.29.85-.53,1.09-.71.17-.13.3-.2.39-.2.11,0,.17.05.17.14,0,.15-.02.44-.07.88-.05.44-.09.92-.13,1.46-.04.53-.06,1.01-.06,1.44v6.5c0,.32.11.55.32.7s.51.27.88.36c.15.04.29.08.43.14.14.06.21.16.21.31,0,.21-.19.31-.56.31-.35,0-.64-.01-.85-.04-.21-.03-.42-.05-.62-.07-.2-.02-.46-.03-.8-.03-.32,0-.58,0-.78.03-.21.02-.41.04-.62.07-.21.03-.49.04-.87.04ZM214.48,93.44c-.39,0-.72-.13-.99-.41s-.41-.6-.41-.99c0-.41.13-.75.41-1.02s.6-.41.99-.41c.41,0,.75.14,1.02.41s.41.61.41,1.02-.14.72-.41.99-.61.41-1.02.41Z"/><path class="c" d="M219.66,107.97c-.17,0-.3-.02-.41-.07-.1-.05-.15-.13-.15-.24,0-.15.06-.25.17-.29s.27-.1.48-.15c.28-.07.55-.18.81-.31.26-.13.39-.38.39-.76v-6.02c0-.5-.05-.93-.15-1.29s-.4-.6-.88-.73c-.08-.04-.14-.08-.2-.13-.06-.05-.08-.13-.08-.24,0-.21.08-.32.25-.34.65-.17,1.19-.37,1.6-.62.41-.24.81-.51,1.2-.81.06-.04.11-.07.15-.1.05-.03.1-.04.15-.04.04,0,.07.02.1.06.03.04.04.08.04.14,0,.13-.02.4-.07.8s-.07.73-.07.99c0,.07,0,.14.01.21,0,.07.02.11.04.13.65-.62,1.35-1.08,2.09-1.4s1.54-.48,2.42-.48,1.67.37,2.27,1.12c.6.75.9,1.67.9,2.77v5.96c0,.37.13.62.39.74.26.12.53.23.81.32.15.06.29.12.43.18.14.07.21.17.21.32,0,.11-.07.18-.2.21-.13.03-.25.04-.36.04-.37,0-.66-.01-.87-.04s-.4-.05-.59-.07c-.19-.02-.45-.03-.78-.03-.32,0-.58,0-.78.03-.21.02-.42.04-.63.07s-.51.04-.88.04c-.09,0-.21-.01-.35-.04-.14-.03-.21-.1-.21-.21,0-.15.07-.26.21-.32.14-.07.28-.13.43-.18.28-.09.55-.2.81-.32.26-.12.39-.37.39-.74v-5.88c0-.82-.23-1.46-.69-1.92-.46-.46-1.07-.7-1.83-.71-.67,0-1.26.11-1.76.32s-.95.48-1.34.8c-.08.08-.13.17-.17.29-.04.12-.06.24-.06.35v6.75c0,.37.13.63.39.76.26.13.53.23.81.31.43.11.64.26.64.45,0,.11-.05.19-.14.24-.09.05-.23.07-.42.07-.37,0-.67-.01-.88-.04s-.42-.05-.6-.07c-.19-.02-.45-.03-.78-.03-.32,0-.57,0-.77.03-.2.02-.4.04-.62.07-.21.03-.51.04-.88.04Z"/><path class="c" d="M242.64,108.28c-.34,0-.68-.13-1.02-.39s-.63-.58-.87-.95c-.23-.37-.35-.73-.35-1.06,0-.6.16-1.06.48-1.4s.82-.64,1.51-.92l2.86-1.18c.37-.15.59-.28.66-.39.07-.11.11-.35.13-.73l.06-1.79c.02-.49-.12-.91-.41-1.26-.29-.35-.71-.53-1.25-.53-.28,0-.56.05-.84.14-.28.09-.51.21-.7.36-.11.07-.19.19-.22.34s-.06.31-.06.48c0,.08,0,.16.01.25,0,.09.01.18.01.25,0,.09-.12.22-.35.38-.23.16-.49.3-.78.42-.29.12-.53.18-.71.18-.09,0-.17-.02-.22-.07-.06-.05-.08-.11-.08-.18,0-.3.1-.62.29-.97s.47-.67.83-.97c.43-.39.9-.74,1.4-1.04s1-.53,1.48-.7.91-.25,1.29-.25c.67,0,1.23.24,1.67.71s.65,1.07.63,1.78l-.14,6.72c-.02.39.07.71.27.95s.44.36.74.36c.47,0,.81-.1,1.04-.31.09-.09.17-.14.22-.14.09,0,.17.03.22.08.06.06.08.13.08.22,0,.21-.1.41-.31.62-.3.3-.62.54-.97.71-.35.18-.67.27-.97.27-.86,0-1.54-.48-2.04-1.46h-.08c-.62.5-1.2.87-1.76,1.11-.56.23-1.14.35-1.74.35ZM243.96,106.93c.37,0,.69-.06.95-.18s.49-.28.7-.49c.09-.09.17-.22.24-.38.06-.16.11-.42.13-.77l.06-1.37c.02-.21,0-.35-.03-.45s-.11-.14-.22-.14c-.04,0-.1,0-.2.03s-.21.06-.36.11c-.99.35-1.67.72-2.06,1.11-.38.38-.57.73-.57,1.05,0,.49.14.85.43,1.11.29.25.6.38.94.38Z"/><path class="c" d="M260.64,108.42s-.1-.04-.18-.11c-.08-.08-.13-.13-.13-.17,0-.19.02-.45.07-.8.05-.35.07-.64.07-.88v-.17c-.28.43-.73.87-1.34,1.32-.62.45-1.39.67-2.32.67-1.06,0-1.98-.28-2.76-.84-.78-.56-1.37-1.28-1.79-2.16-.42-.88-.63-1.78-.63-2.72,0-1.08.25-2.1.76-3.05s1.23-1.73,2.17-2.32c.94-.6,2.07-.9,3.37-.9.37,0,.75.03,1.13.1.38.07.68.14.88.21.17.06.29.08.36.08.13,0,.2-.22.2-.67v-3.98c0-.77-.12-1.28-.36-1.54-.24-.26-.59-.43-1.04-.5-.17-.04-.25-.16-.25-.36,0-.17.07-.28.22-.34.82-.21,1.47-.4,1.93-.59.47-.19.83-.34,1.09-.45.07-.04.14-.06.21-.07.07,0,.12-.01.15-.01.11,0,.18.06.2.17,0,.11-.01.3-.04.57-.03.27-.06.67-.1,1.19-.04.52-.06,1.2-.06,2.04v12.66c0,.63.05,1.1.14,1.39.09.29.24.43.45.43.09,0,.26,0,.49-.03s.47-.04.71-.06c.34-.02.5.07.5.25,0,.13-.04.25-.13.35s-.17.15-.27.15c-.52.07-1.04.18-1.54.32-.5.14-1.08.35-1.74.63-.15.07-.25.12-.29.14-.05.02-.1.03-.15.03ZM257.82,106.82c.49,0,.96-.13,1.43-.38s.88-.58,1.23-.99l.03-5.04c0-.5-.15-1-.43-1.48s-.69-.88-1.2-1.19c-.51-.31-1.12-.46-1.81-.46-.43,0-.92.13-1.46.39-.54.26-1.01.72-1.4,1.39-.39.66-.59,1.62-.59,2.87,0,1.06.16,1.92.48,2.56.32.64.7,1.13,1.16,1.47.46.34.92.56,1.4.69.48.12.86.18,1.16.18Z"/><path class="c" d="M271.39,108.28c-1.04,0-1.99-.24-2.83-.73-.84-.49-1.51-1.15-2-2-.49-.85-.74-1.82-.74-2.9,0-.78.15-1.55.46-2.3.31-.75.74-1.43,1.3-2.04.56-.62,1.21-1.11,1.96-1.47.75-.36,1.55-.55,2.41-.55,1.08,0,2.06.26,2.93.78s1.56,1.21,2.07,2.06c.51.85.77,1.78.77,2.79,0,1.08-.24,2.11-.71,3.08s-1.18,1.76-2.11,2.37c-.93.61-2.1.91-3.5.91ZM271.98,107.44c.63,0,1.2-.12,1.71-.36.5-.24.9-.63,1.18-1.18.22-.43.37-.95.45-1.57.07-.62.11-1.19.11-1.74,0-.9-.16-1.76-.49-2.59-.33-.83-.78-1.51-1.37-2.04-.59-.53-1.28-.8-2.09-.8-.5,0-.96.08-1.36.24-.4.16-.77.45-1.11.88-.37.47-.62,1.04-.73,1.71-.11.67-.17,1.34-.17,2.02,0,.92.17,1.79.5,2.62.34.83.79,1.51,1.37,2.03.58.52,1.24.78,1.99.78Z"/><path class="c" d="M279.88,107.97c-.19,0-.33-.02-.42-.07-.09-.05-.14-.13-.14-.24,0-.15.06-.25.17-.29.11-.05.27-.1.48-.15.35-.09.62-.23.8-.41.18-.18.27-.4.27-.66v-6.02c0-.5-.07-.94-.22-1.32-.15-.37-.46-.61-.92-.7-.08-.02-.14-.06-.2-.14-.06-.07-.08-.15-.08-.22,0-.19.08-.3.25-.34.49-.15.99-.37,1.53-.66s.95-.53,1.25-.71c.11-.07.2-.13.27-.15s.12-.04.15-.04c.09,0,.14.07.14.2,0,.06,0,.2-.01.42,0,.22-.02.49-.03.78s-.02.6-.04.9c0,.04.02.06.06.06.3-.37.63-.7.99-.98.36-.28.74-.5,1.12-.67s.75-.25,1.11-.25c.39,0,.71.08.97.25s.38.38.38.64c0,.19-.05.39-.15.62s-.24.42-.41.59-.35.25-.53.25c-.11,0-.23-.02-.36-.07-.13-.05-.27-.11-.42-.18-.15-.06-.3-.11-.45-.17-.15-.06-.3-.08-.45-.08-.45,0-.88.16-1.3.48-.42.32-.63.94-.63,1.88v5.66c0,.24.13.44.39.6.26.16.62.31,1.09.46.21.06.36.11.48.17.11.06.17.15.17.28,0,.21-.19.31-.56.31-.56,0-.99-.02-1.27-.07-.29-.05-.68-.07-1.16-.07-.32,0-.57,0-.77.03-.2.02-.4.04-.62.07s-.51.04-.88.04Z"/><path class="c" d="M291.11,108.28c-.34,0-.68-.13-1.02-.39-.35-.26-.63-.58-.87-.95-.23-.37-.35-.73-.35-1.06,0-.6.16-1.06.48-1.4s.82-.64,1.51-.92l2.86-1.18c.37-.15.59-.28.66-.39.07-.11.11-.35.13-.73l.06-1.79c.02-.49-.12-.91-.41-1.26-.29-.35-.71-.53-1.25-.53-.28,0-.56.05-.84.14-.28.09-.51.21-.7.36-.11.07-.19.19-.22.34s-.06.31-.06.48c0,.08,0,.16.01.25,0,.09.01.18.01.25,0,.09-.12.22-.35.38-.23.16-.49.3-.78.42-.29.12-.53.18-.71.18-.09,0-.17-.02-.22-.07-.06-.05-.08-.11-.08-.18,0-.3.1-.62.29-.97s.47-.67.83-.97c.43-.39.9-.74,1.4-1.04s1-.53,1.48-.7.91-.25,1.29-.25c.67,0,1.23.24,1.67.71s.65,1.07.63,1.78l-.14,6.72c-.02.39.07.71.27.95s.44.36.74.36c.47,0,.81-.1,1.04-.31.09-.09.17-.14.22-.14.09,0,.17.03.22.08.06.06.08.13.08.22,0,.21-.1.41-.31.62-.3.3-.62.54-.97.71-.35.18-.67.27-.97.27-.86,0-1.54-.48-2.04-1.46h-.08c-.62.5-1.2.87-1.76,1.11-.56.23-1.14.35-1.74.35ZM292.43,106.93c.37,0,.69-.06.95-.18s.49-.28.7-.49c.09-.09.17-.22.24-.38.06-.16.11-.42.13-.77l.06-1.37c.02-.21,0-.35-.03-.45s-.11-.14-.22-.14c-.04,0-.1,0-.2.03s-.21.06-.36.11c-.99.35-1.67.72-2.06,1.11-.38.38-.57.73-.57,1.05,0,.49.14.85.43,1.11.29.25.6.38.94.38Z"/><path class="c" d="M304.18,108.28c-.92,0-1.63-.28-2.14-.84-.51-.56-.77-1.39-.77-2.49v-6.5c0-.15-.06-.26-.17-.32s-.35-.1-.73-.1h-.17c-.09,0-.17-.06-.24-.18-.07-.12-.1-.25-.1-.38,0-.04.03-.09.08-.17.06-.07.09-.12.11-.14.37-.26.71-.52,1.02-.78.31-.26.59-.52.84-.77s.46-.48.63-.69c.09-.09.17-.17.24-.24.06-.07.14-.1.24-.1s.18.02.27.06c.08.04.12.12.1.25l-.14,1.26c-.02.21.03.35.14.42.11.07.29.11.53.11h3.19c.07,0,.14.06.2.18.06.12.08.27.08.43s-.03.33-.08.49c-.06.16-.12.24-.2.24h-2.77c-.47,0-.77.04-.91.11-.14.08-.21.3-.21.67v5.52c0,.75.16,1.33.48,1.76.32.43.77.64,1.37.64.54,0,.96-.04,1.26-.13.3-.08.57-.21.81-.38.04-.04.07-.06.11-.06.07,0,.13.04.15.13.03.08.04.17.04.27s-.15.28-.46.56c-.31.28-.71.54-1.2.78-.5.24-1.03.36-1.61.36Z"/><path class="c" d="M309.44,107.97c-.17,0-.3-.02-.41-.07-.1-.05-.15-.13-.15-.24,0-.15.07-.25.21-.31.14-.06.28-.1.43-.14.39-.09.69-.21.9-.35.21-.14.31-.38.31-.71v-6.08c0-.5-.09-.95-.27-1.34-.18-.39-.51-.62-.99-.7-.09-.02-.16-.06-.21-.11-.05-.06-.07-.14-.07-.25,0-.21.08-.32.25-.34.75-.17,1.36-.4,1.85-.69.49-.29.85-.53,1.09-.71.17-.13.3-.2.39-.2.11,0,.17.05.17.14,0,.15-.02.44-.07.88-.05.44-.09.92-.13,1.46-.04.53-.06,1.01-.06,1.44v6.5c0,.32.11.55.32.7s.51.27.88.36c.15.04.29.08.43.14.14.06.21.16.21.31,0,.21-.19.31-.56.31-.35,0-.64-.01-.85-.04-.21-.03-.42-.05-.62-.07-.2-.02-.46-.03-.8-.03-.32,0-.58,0-.78.03-.21.02-.41.04-.62.07-.21.03-.49.04-.87.04ZM311.68,93.44c-.39,0-.72-.13-.99-.41s-.41-.6-.41-.99c0-.41.13-.75.41-1.02s.6-.41.99-.41c.41,0,.75.14,1.02.41s.41.61.41,1.02-.14.72-.41.99-.61.41-1.02.41Z"/><path class="c" d="M321.42,108.28c-1.04,0-1.99-.24-2.83-.73-.84-.49-1.51-1.15-2-2-.49-.85-.74-1.82-.74-2.9,0-.78.15-1.55.46-2.3.31-.75.74-1.43,1.3-2.04.56-.62,1.21-1.11,1.96-1.47.75-.36,1.55-.55,2.41-.55,1.08,0,2.06.26,2.93.78s1.56,1.21,2.07,2.06c.51.85.77,1.78.77,2.79,0,1.08-.24,2.11-.71,3.08s-1.18,1.76-2.11,2.37c-.93.61-2.1.91-3.5.91ZM322,107.44c.63,0,1.2-.12,1.71-.36.5-.24.9-.63,1.18-1.18.22-.43.37-.95.45-1.57.07-.62.11-1.19.11-1.74,0-.9-.16-1.76-.49-2.59-.33-.83-.78-1.51-1.37-2.04s-1.28-.8-2.09-.8c-.5,0-.96.08-1.36.24-.4.16-.77.45-1.11.88-.37.47-.62,1.04-.73,1.71-.11.67-.17,1.34-.17,2.02,0,.92.17,1.79.5,2.62.34.83.79,1.51,1.37,2.03.58.52,1.24.78,1.99.78Z"/><path class="c" d="M329.75,107.97c-.17,0-.3-.02-.41-.07-.1-.05-.15-.13-.15-.24,0-.15.06-.25.17-.29s.27-.1.48-.15c.28-.07.55-.18.81-.31.26-.13.39-.38.39-.76v-6.02c0-.5-.05-.93-.15-1.29s-.4-.6-.88-.73c-.08-.04-.14-.08-.2-.13-.06-.05-.08-.13-.08-.24,0-.21.08-.32.25-.34.65-.17,1.19-.37,1.6-.62.41-.24.81-.51,1.2-.81.06-.04.11-.07.15-.1.05-.03.1-.04.15-.04.04,0,.07.02.1.06.03.04.04.08.04.14,0,.13-.02.4-.07.8s-.07.73-.07.99c0,.07,0,.14.01.21,0,.07.02.11.04.13.65-.62,1.35-1.08,2.09-1.4s1.54-.48,2.42-.48,1.67.37,2.27,1.12c.6.75.9,1.67.9,2.77v5.96c0,.37.13.62.39.74.26.12.53.23.81.32.15.06.29.12.43.18.14.07.21.17.21.32,0,.11-.07.18-.2.21-.13.03-.25.04-.36.04-.37,0-.66-.01-.87-.04s-.4-.05-.59-.07c-.19-.02-.45-.03-.78-.03-.32,0-.58,0-.78.03-.21.02-.42.04-.63.07s-.51.04-.88.04c-.09,0-.21-.01-.35-.04-.14-.03-.21-.1-.21-.21,0-.15.07-.26.21-.32.14-.07.28-.13.43-.18.28-.09.55-.2.81-.32.26-.12.39-.37.39-.74v-5.88c0-.82-.23-1.46-.69-1.92-.46-.46-1.07-.7-1.83-.71-.67,0-1.26.11-1.76.32s-.95.48-1.34.8c-.08.08-.13.17-.17.29-.04.12-.06.24-.06.35v6.75c0,.37.13.63.39.76.26.13.53.23.81.31.43.11.64.26.64.45,0,.11-.05.19-.14.24-.09.05-.23.07-.42.07-.37,0-.67-.01-.88-.04s-.42-.05-.6-.07c-.19-.02-.45-.03-.78-.03-.32,0-.57,0-.77.03-.2.02-.4.04-.62.07-.21.03-.51.04-.88.04Z"/><path class="c" d="M356.02,108.28c-1.04,0-1.99-.24-2.83-.73-.84-.49-1.51-1.15-2-2-.49-.85-.74-1.82-.74-2.9,0-.78.15-1.55.46-2.3.31-.75.74-1.43,1.3-2.04.56-.62,1.21-1.11,1.96-1.47.75-.36,1.55-.55,2.41-.55,1.08,0,2.06.26,2.93.78s1.56,1.21,2.07,2.06c.51.85.77,1.78.77,2.79,0,1.08-.24,2.11-.71,3.08s-1.18,1.76-2.11,2.37c-.93.61-2.1.91-3.5.91ZM356.6,107.44c.63,0,1.2-.12,1.71-.36.5-.24.9-.63,1.18-1.18.22-.43.37-.95.45-1.57.07-.62.11-1.19.11-1.74,0-.9-.16-1.76-.49-2.59-.33-.83-.78-1.51-1.37-2.04s-1.28-.8-2.09-.8c-.5,0-.96.08-1.36.24-.4.16-.77.45-1.11.88-.37.47-.62,1.04-.73,1.71-.11.67-.17,1.34-.17,2.02,0,.92.17,1.79.5,2.62.34.83.79,1.51,1.37,2.03.58.52,1.24.78,1.99.78Z"/><path class="c" d="M364.56,107.97c-.19,0-.33-.02-.42-.07-.09-.05-.14-.13-.14-.24,0-.15.06-.25.18-.31.12-.06.28-.1.46-.14.43-.09.74-.23.92-.41.19-.18.28-.45.28-.83v-7.9c-.19,0-.4,0-.64-.01-.24,0-.51-.02-.81-.04-.06-.02-.14-.08-.24-.2-.1-.11-.15-.21-.15-.31,0-.04.03-.07.08-.1s.09-.05.11-.07c.34-.17.62-.32.87-.45.24-.13.5-.26.78-.39,0-1.62.2-2.98.6-4.06s.92-1.94,1.55-2.58,1.31-1.09,2.02-1.36c.71-.27,1.37-.41,1.99-.41,1.05,0,1.82.16,2.32.48s.76.72.76,1.2c0,.37-.09.65-.28.84-.19.19-.41.28-.67.28-.17,0-.32-.07-.46-.2-.14-.13-.3-.28-.49-.45-.24-.24-.54-.47-.9-.69s-.84-.32-1.46-.32c-.88,0-1.6.38-2.17,1.15s-.85,1.94-.85,3.53v2.46c0,.11.03.19.1.22s.13.06.21.06h3.5c.09,0,.18.03.25.08.07.06.11.13.11.22,0,.13-.01.27-.04.42-.03.15-.07.28-.13.39-.06.15-.14.22-.25.22h-3.22c-.22,0-.37.03-.43.1s-.1.15-.1.27v7.59c0,.37.12.65.36.83.24.18.74.31,1.48.41.43.06.64.21.64.45,0,.11-.05.19-.14.24-.09.05-.23.07-.42.07-.56,0-1.05-.02-1.48-.07-.43-.05-.89-.07-1.37-.07-.32,0-.58,0-.78.03-.21.02-.42.04-.64.07s-.52.04-.9.04Z"/><path class="c" d="M389.37,108.28c-1.29,0-2.52-.23-3.68-.69-1.17-.46-2.2-1.1-3.11-1.92s-1.62-1.79-2.14-2.9c-.52-1.11-.78-2.31-.78-3.6,0-1.38.27-2.67.81-3.86.54-1.19,1.29-2.24,2.24-3.14.95-.9,2.05-1.6,3.29-2.1s2.56-.76,3.96-.76c.32,0,.75.03,1.3.1.55.07,1.12.14,1.71.24.59.09,1.12.19,1.6.29.48.1.81.2.99.29.09.04.15.08.18.13.03.05.05.12.07.21.07.54.14,1.08.2,1.61.06.53.08.99.08,1.36,0,.13-.04.26-.13.38-.08.12-.18.18-.29.18-.19,0-.33-.08-.42-.25-.09-.17-.17-.34-.22-.5-.11-.3-.23-.55-.35-.77-.12-.21-.29-.45-.52-.71-.11-.15-.35-.34-.71-.57s-.85-.44-1.47-.63-1.37-.28-2.27-.28c-1.08,0-2.07.23-2.97.69-.9.46-1.67,1.08-2.31,1.88-.64.79-1.14,1.69-1.48,2.7-.35,1.01-.52,2.06-.52,3.16,0,1.33.21,2.51.62,3.56.41,1.04.96,1.93,1.65,2.66.69.73,1.47,1.28,2.35,1.65.88.37,1.78.56,2.72.56,1.08,0,1.88-.13,2.39-.39.51-.26.85-.48,1.02-.64.21-.21.4-.5.57-.87.18-.37.27-.8.27-1.29,0-.17,0-.35.01-.53s.02-.37.03-.56c0-.19.01-.36.01-.53,0-.21,0-.38-.03-.52-.02-.14-.06-.25-.11-.32-.15-.21-.41-.37-.78-.5s-.75-.22-1.12-.28-.65-.08-.84-.08c-.08,0-.19-.05-.34-.14-.15-.09-.22-.21-.22-.34,0-.15.07-.27.22-.35s.26-.13.34-.13c.47,0,.87,0,1.2.03s.68.04,1.04.06.78.03,1.29.03.9-.02,1.23-.06c.34-.04.76-.06,1.26-.06.07,0,.19.03.35.08.16.06.24.18.24.36,0,.13-.08.24-.24.34-.16.09-.28.15-.35.17-.41.11-.7.28-.85.49-.16.21-.27.51-.32.88-.06.41-.09.77-.11,1.09-.02.32-.03.65-.03,1.01v.76c0,.09.02.17.06.22.04.06.08.13.11.22.06.09.13.18.22.25.09.08.14.15.14.22s-.01.17-.04.29c-.03.12-.15.2-.35.24-.13.02-.39.13-.77.32-.38.2-.86.42-1.44.66-.58.24-1.24.45-1.99.63-.75.18-1.57.27-2.46.27Z"/><path class="c" d="M405.5,108.28c-1.04,0-1.99-.24-2.83-.73-.84-.49-1.51-1.15-2-2-.49-.85-.74-1.82-.74-2.9,0-.78.15-1.55.46-2.3.31-.75.74-1.43,1.3-2.04.56-.62,1.21-1.11,1.96-1.47.75-.36,1.55-.55,2.41-.55,1.08,0,2.06.26,2.93.78s1.56,1.21,2.07,2.06c.51.85.77,1.78.77,2.79,0,1.08-.24,2.11-.71,3.08s-1.18,1.76-2.11,2.37c-.93.61-2.1.91-3.5.91ZM406.08,107.44c.63,0,1.2-.12,1.71-.36.5-.24.9-.63,1.18-1.18.22-.43.37-.95.45-1.57.07-.62.11-1.19.11-1.74,0-.9-.16-1.76-.49-2.59-.33-.83-.78-1.51-1.37-2.04s-1.28-.8-2.09-.8c-.5,0-.96.08-1.36.24-.4.16-.77.45-1.11.88-.37.47-.62,1.04-.73,1.71-.11.67-.17,1.34-.17,2.02,0,.92.17,1.79.5,2.62.34.83.79,1.51,1.37,2.03.58.52,1.24.78,1.99.78Z"/><path class="c" d="M422.95,108.42s-.1-.04-.18-.11c-.08-.08-.13-.13-.13-.17,0-.19.02-.45.07-.8.05-.35.07-.64.07-.88v-.17c-.28.43-.73.87-1.34,1.32-.62.45-1.39.67-2.32.67-1.06,0-1.98-.28-2.76-.84-.78-.56-1.37-1.28-1.79-2.16-.42-.88-.63-1.78-.63-2.72,0-1.08.25-2.1.76-3.05s1.23-1.73,2.17-2.32c.94-.6,2.07-.9,3.37-.9.37,0,.75.03,1.13.1.38.07.68.14.88.21.17.06.29.08.36.08.13,0,.2-.22.2-.67v-3.98c0-.77-.12-1.28-.36-1.54-.24-.26-.59-.43-1.04-.5-.17-.04-.25-.16-.25-.36,0-.17.07-.28.22-.34.82-.21,1.47-.4,1.93-.59.47-.19.83-.34,1.09-.45.07-.04.14-.06.21-.07.07,0,.12-.01.15-.01.11,0,.18.06.2.17,0,.11-.01.3-.04.57-.03.27-.06.67-.1,1.19-.04.52-.06,1.2-.06,2.04v12.66c0,.63.05,1.1.14,1.39.09.29.24.43.45.43.09,0,.26,0,.49-.03s.47-.04.71-.06c.34-.02.5.07.5.25,0,.13-.04.25-.13.35s-.17.15-.27.15c-.52.07-1.04.18-1.54.32-.5.14-1.08.35-1.74.63-.15.07-.25.12-.29.14-.05.02-.1.03-.15.03ZM420.12,106.82c.49,0,.96-.13,1.43-.38s.88-.58,1.23-.99l.03-5.04c0-.5-.15-1-.43-1.48s-.69-.88-1.2-1.19c-.51-.31-1.12-.46-1.81-.46-.43,0-.92.13-1.46.39-.54.26-1.01.72-1.4,1.39-.39.66-.59,1.62-.59,2.87,0,1.06.16,1.92.48,2.56.32.64.7,1.13,1.16,1.47.46.34.92.56,1.4.69.48.12.86.18,1.16.18Z"/><path class="c" d="M430.74,108.28c-.41,0-.77-.15-1.08-.46s-.46-.67-.46-1.08.15-.79.46-1.09c.31-.3.67-.45,1.08-.45s.79.15,1.09.45.45.66.45,1.09-.15.77-.45,1.08c-.3.31-.66.46-1.09.46Z"/></svg>