<?xml version="1.0" encoding="UTF-8"?><svg id="a" xmlns="http://www.w3.org/2000/svg" viewBox="0 0 446.01 130.45"><defs><style>.g{fill:#785adc;}.h{fill:none;}.i{fill:#151515;}.j{fill:#fa8ca0;}</style></defs><g id="b"><g id="c"><path class="i" d="M83.07,95.12c3.16,0,5.6-.94,7.34-2.82,1.73-1.88,2.6-4.1,2.6-6.66,0-3.76-2.79-6.7-8.35-8.8-3.99-1.5-7.09-3.29-9.31-5.36-2.22-2.07-3.33-4.87-3.33-8.41,0-1.65.3-3.25.9-4.8.6-1.54,1.48-2.9,2.65-4.06,1.17-1.17,2.56-2.09,4.18-2.77,1.62-.68,3.44-1.02,5.47-1.02,2.86,0,5.19.47,7,1.41,1.81.94,3.01,1.9,3.61,2.88.23.38.41.79.56,1.24.15.45.15.87,0,1.24-.38,1.88-1.51,2.64-3.39,2.26-.68-.23-1.28-.64-1.81-1.24-.38-.52-.73-1.09-1.07-1.69-.34-.6-.73-1.17-1.18-1.69-.45-.53-1-.96-1.64-1.3-.64-.34-1.45-.51-2.43-.51-2.03,0-3.86.66-5.47,1.98-1.62,1.32-2.43,3.1-2.43,5.36,0,2.93,2.44,5.42,7.34,7.45,2.26.9,4.23,1.81,5.93,2.71,1.69.9,3.12,1.92,4.29,3.05,1.17,1.13,2.03,2.46,2.6,4.01.56,1.54.85,3.44.85,5.7,0,1.96-.36,3.8-1.07,5.53-.71,1.73-1.73,3.24-3.05,4.52-1.32,1.28-2.88,2.3-4.68,3.05-1.81.75-3.84,1.13-6.1,1.13-2.03,0-3.78-.21-5.25-.62-1.47-.41-2.73-.9-3.78-1.47-1.06-.56-1.9-1.17-2.54-1.81-.64-.64-1.11-1.19-1.41-1.64-.53-.9-.68-1.73-.45-2.48.15-.83.58-1.45,1.3-1.86.71-.41,1.48-.54,2.31-.4.68.23,1.28.64,1.81,1.24.38.53.77,1.17,1.19,1.92.41.75.92,1.49,1.52,2.2.6.71,1.32,1.32,2.14,1.81.83.49,1.88.73,3.16.73Z"/><path class="i" d="M170.47,57.03c.87-1.24,1.94-2.33,3.22-3.27,1.28-.94,2.73-1.71,4.35-2.31,1.62-.6,3.33-.9,5.14-.9,2.26,0,4.27.38,6.04,1.13,1.77.75,3.27,1.79,4.51,3.1,1.24,1.32,2.2,2.84,2.88,4.57.68,1.73,1.02,3.58,1.02,5.53v24.6c0,3.24,1.62,4.85,4.85,4.85v1.92h-17.16v-1.91c3.23,0,4.85-1.61,4.85-4.84v-23.98c0-3-.9-5.55-2.71-7.65-1.81-2.1-4.21-3.15-7.22-3.15-1.51,0-2.93.34-4.29,1.01-1.35.68-2.56,1.58-3.61,2.7-1.05,1.13-1.9,2.4-2.54,3.83-.64,1.42-.96,2.89-.96,4.39v22.85c0,3.23,1.62,4.84,4.85,4.84v1.91h-17.16v-1.92c3.23,0,4.85-1.62,4.85-4.85v-31.15c0-3.23-1.62-4.85-4.85-4.85v-1.92h12.3v9.37c.23-1.35.77-2.65,1.64-3.89Z"/><path class="i" d="M218.11,95.12c3.16,0,5.6-.94,7.34-2.82,1.73-1.88,2.6-4.1,2.6-6.66,0-3.76-2.79-6.7-8.35-8.8-3.99-1.5-7.09-3.29-9.31-5.36-2.22-2.07-3.33-4.87-3.33-8.41,0-1.65.3-3.25.9-4.8.6-1.54,1.48-2.9,2.65-4.06,1.17-1.17,2.56-2.09,4.18-2.77,1.62-.68,3.44-1.02,5.47-1.02,2.86,0,5.19.47,7,1.41,1.81.94,3.01,1.9,3.61,2.88.23.38.41.79.56,1.24.15.45.15.87,0,1.24-.38,1.88-1.51,2.64-3.39,2.26-.68-.23-1.28-.64-1.81-1.24-.38-.52-.73-1.09-1.07-1.69-.34-.6-.73-1.17-1.18-1.69-.45-.53-1-.96-1.64-1.3-.64-.34-1.45-.51-2.43-.51-2.03,0-3.86.66-5.47,1.98-1.62,1.32-2.43,3.1-2.43,5.36,0,2.93,2.44,5.42,7.34,7.45,2.26.9,4.23,1.81,5.93,2.71,1.69.9,3.12,1.92,4.29,3.05,1.17,1.13,2.03,2.46,2.6,4.01.56,1.54.85,3.44.85,5.7,0,1.96-.36,3.8-1.07,5.53-.71,1.73-1.73,3.24-3.05,4.52-1.32,1.28-2.88,2.3-4.68,3.05-1.81.75-3.84,1.13-6.1,1.13-2.03,0-3.78-.21-5.25-.62-1.47-.41-2.73-.9-3.78-1.47-1.06-.56-1.9-1.17-2.54-1.81-.64-.64-1.11-1.19-1.41-1.64-.53-.9-.68-1.73-.45-2.48.15-.83.58-1.45,1.3-1.86.71-.41,1.48-.54,2.31-.4.68.23,1.28.64,1.81,1.24.38.53.77,1.17,1.19,1.92.41.75.92,1.49,1.52,2.2.6.71,1.32,1.32,2.14,1.81.83.49,1.88.73,3.16.73Z"/><path class="i" d="M275.67,95.12c3.16,0,5.6-.94,7.34-2.82,1.73-1.88,2.6-4.1,2.6-6.66,0-3.76-2.79-6.7-8.35-8.8-3.99-1.5-7.09-3.29-9.31-5.36-2.22-2.07-3.33-4.87-3.33-8.41,0-1.65.3-3.25.9-4.8.6-1.54,1.48-2.9,2.65-4.06,1.17-1.17,2.56-2.09,4.18-2.77,1.62-.68,3.44-1.02,5.47-1.02,2.86,0,5.19.47,7,1.41,1.81.94,3.01,1.9,3.61,2.88.23.38.41.79.56,1.24.15.45.15.87,0,1.24-.38,1.88-1.51,2.64-3.39,2.26-.68-.23-1.28-.64-1.81-1.24-.38-.52-.73-1.09-1.07-1.69-.34-.6-.73-1.17-1.18-1.69-.45-.53-1-.96-1.64-1.3-.64-.34-1.45-.51-2.43-.51-2.03,0-3.86.66-5.47,1.98-1.62,1.32-2.43,3.1-2.43,5.36,0,2.93,2.44,5.42,7.34,7.45,2.26.9,4.23,1.81,5.93,2.71,1.69.9,3.12,1.92,4.29,3.05,1.17,1.13,2.03,2.46,2.6,4.01.56,1.54.85,3.44.85,5.7,0,1.96-.36,3.8-1.07,5.53-.71,1.73-1.73,3.24-3.05,4.52-1.32,1.28-2.88,2.3-4.68,3.05-1.81.75-3.84,1.13-6.1,1.13-2.03,0-3.78-.21-5.25-.62-1.47-.41-2.73-.9-3.78-1.47-1.06-.56-1.9-1.17-2.54-1.81-.64-.64-1.11-1.19-1.41-1.64-.53-.9-.68-1.73-.45-2.48.15-.83.58-1.45,1.3-1.86.71-.41,1.48-.54,2.31-.4.68.23,1.28.64,1.81,1.24.38.53.77,1.17,1.19,1.92.41.75.92,1.49,1.52,2.2.6.71,1.32,1.32,2.14,1.81.83.49,1.88.73,3.16.73Z"/><path class="i" d="M353.92,58.32c0-3.23-1.62-4.85-4.85-4.85v-1.92h17.15v1.92c-3.23,0-4.85,1.62-4.85,4.85v31.15c0,3.24,1.62,4.85,4.85,4.85v1.92h-17.15v-1.92c3.23,0,4.85-1.62,4.85-4.85v-31.15Z"/><path class="i" d="M384.27,57.03c.87-1.24,1.94-2.33,3.22-3.27,1.28-.94,2.73-1.71,4.35-2.31,1.62-.6,3.33-.9,5.14-.9,2.26,0,4.27.38,6.04,1.13,1.77.75,3.27,1.79,4.51,3.1,1.24,1.32,2.2,2.84,2.88,4.57.68,1.73,1.02,3.58,1.02,5.53v24.6c0,3.24,1.62,4.85,4.85,4.85v1.92h-17.16v-1.91c3.23,0,4.85-1.61,4.85-4.84v-23.98c0-3-.9-5.55-2.71-7.65-1.81-2.1-4.21-3.15-7.22-3.15-1.51,0-2.93.34-4.29,1.01-1.35.68-2.56,1.58-3.61,2.7-1.05,1.13-1.9,2.4-2.54,3.83-.64,1.42-.96,2.89-.96,4.39v22.85c0,3.23,1.62,4.84,4.85,4.84v1.91h-17.16v-1.92c3.23,0,4.85-1.62,4.85-4.85v-31.15c0-3.23-1.62-4.85-4.85-4.85v-1.92h12.3v9.37c.23-1.35.77-2.65,1.64-3.89Z"/><path class="i" d="M444.88,90.38c-.83,1.2-1.77,2.14-2.82,2.82-1.06.68-2.33,1.02-3.84,1.02-2.41,0-4.42-.81-6.04-2.43-1.62-1.62-2.43-3.63-2.43-6.04v-26.31c0-3.22,1.63-4.83,4.85-4.83h0s6.55-.01,6.55-.01v-3.05h-23.7v3.05h0c3.23.01,4.85,1.63,4.85,4.87v25.27c0,1.73.32,3.37.96,4.91.64,1.54,1.52,2.88,2.65,4.01,1.13,1.13,2.46,2.01,4.01,2.65,1.54.64,4.24.96,5.98.96,2.41,0,3.54-.53,5.54-1.58,1.99-1.05,3.52-2.56,4.57-4.51l-1.13-.79Z"/><path class="i" d="M333.27,92.15c-.51.53-1.27,1.12-2.28,1.76-1.02.64-2.19,1.25-3.52,1.81-1.33.57-2.82,1.04-4.45,1.42-1.63.38-3.28.57-4.95.57-3.1,0-6.04-.66-8.83-1.98-2.78-1.32-5.22-3.08-7.33-5.27-2.11-2.19-3.77-4.72-4.98-7.6-1.21-2.87-1.84-5.86-1.88-8.96-.05-3.1.48-6.07,1.59-8.9,1.1-2.84,2.65-5.31,4.64-7.43,1.99-2.12,4.37-3.8,7.13-5.05,2.76-1.25,5.8-1.87,9.13-1.87,2.95,0,5.77.53,8.47,1.59,2.69,1.06,5.01,2.72,6.94,4.99l.09-5.67h12.37s.02,1.93.02,1.93c-3.33,0-4.96,1.63-4.89,4.88l.19,31.07c-.08,3.25,1.59,4.88,4.99,4.88v1.94h-12.49s.06-4.09.06-4.09ZM317.78,53.25c-2.12,0-4.08.53-5.89,1.59-1.81,1.06-3.38,2.52-4.7,4.37-1.32,1.85-2.36,4.05-3.1,6.58-.74,2.53-1.11,5.27-1.09,8.22.03,3.03.43,5.82,1.21,8.39.78,2.57,1.85,4.8,3.23,6.69,1.37,1.89,2.97,3.37,4.79,4.42,1.82,1.06,3.76,1.59,5.8,1.59,2.65,0,5.31-.53,7.99-1.59s5.05-2.76,7.12-5.1l-.14-27.11c-1.98-2.5-4.21-4.46-6.71-5.9-2.5-1.44-5.34-2.16-8.52-2.16Z"/><path class="i" d="M147.99,89.43l-.19-31.07c-.07-3.25,1.56-4.88,4.89-4.88l-.02-1.93h-12.37l-.09,5.67c-1.94-2.27-4.25-3.93-6.94-4.99-2.69-1.06-5.52-1.59-8.47-1.59-3.33,0-6.38.62-9.13,1.87-2.76,1.25-5.13,2.93-7.13,5.05-1.99,2.12-3.54,4.59-4.64,7.43-1.1,2.83-1.63,5.8-1.59,8.9.04,3.1.67,6.09,1.88,8.96,1.21,2.87,2.87,5.41,4.98,7.6,2.11,2.19,4.55,3.95,7.33,5.27,2.78,1.32,5.72,1.98,8.83,1.98,1.66,0,3.31-.19,4.95-.57,1.63-.38,3.11-.85,4.45-1.42,1.33-.57,2.51-1.17,3.52-1.81,1.02-.64,1.78-1.23,2.28-1.76l-.06,4.09h12.49v-1.94c-3.4,0-5.07-1.63-4.99-4.88ZM133.31,93.51c-2.68,1.06-5.35,1.59-7.99,1.59-2.04,0-3.98-.53-5.8-1.59-1.82-1.06-3.42-2.53-4.79-4.42-1.37-1.89-2.45-4.12-3.23-6.69-.78-2.57-1.18-5.37-1.21-8.39-.02-2.95.35-5.69,1.09-8.22.74-2.53,1.77-4.72,3.1-6.58,1.32-1.85,2.89-3.31,4.7-4.37,1.81-1.06,3.77-1.59,5.89-1.59,3.18,0,6.02.72,8.52,2.16,2.5,1.44,4.73,3.4,6.71,5.9l.14,27.11c-2.06,2.34-4.44,4.05-7.12,5.1Z"/><path class="i" d="M250.05,67.94h0s-1.92,0-1.92,0c0,3.18-1.57,4.79-4.7,4.85h-.16v1.92c3.23,0,4.85,1.62,4.85,4.85h0s1.92,0,1.92,0c0-3.18,1.57-4.79,4.7-4.85h.16v-1.92c-3.23,0-4.85-1.62-4.85-4.85Z"/></g><g id="d"><path class="g" d="M32.11,21.68c-5.69,9.47-8.97,20.58-8.97,32.31v69.43H0v-61.71C0,38.87,4.71,26.1,23.14,15.43c3.45,2,6.42,4.06,8.97,6.26Z"/><path class="j" d="M54,0v123.42h-7.71v-61.71c0-18.56-3.11-30.48-14.18-40.03C37.48,12.7,45.02,5.19,54,0Z"/><path class="i" d="M35.96,50.43h0s-1.92,0-1.92,0c0,3.18-1.57,4.79-4.7,4.85h-.16v1.92c3.23,0,4.85,1.62,4.85,4.85h0s1.92,0,1.92,0c0-3.18,1.57-4.79,4.7-4.85h.16v-1.92c-3.23,0-4.85-1.62-4.85-4.85Z"/></g><g id="e"><rect class="h" x="71.41" y="105.75" width="387" height="27"/><path d="M72.04,123.47c-.2,0-.37-.03-.5-.09s-.2-.15-.2-.26c0-.13.07-.24.2-.32s.32-.17.55-.25c.45-.13.86-.33,1.23-.6s.67-.68.9-1.23c.45-1.02.87-1.99,1.25-2.91.38-.92.75-1.84,1.1-2.74s.71-1.83,1.08-2.79c.37-.96.74-1.98,1.12-3.06.15-.38.26-.7.32-.96s.11-.49.12-.69c.22-.05.42-.1.6-.16.18-.06.38-.15.6-.26.2-.1.35-.25.46-.44.11-.19.2-.33.26-.41.03-.02.07-.03.11-.04s.08.02.11.09c.05.08.09.17.11.27s.05.21.09.33c.38,1.22.78,2.45,1.19,3.71.41,1.26.81,2.49,1.21,3.69.4,1.2.78,2.31,1.12,3.34.35,1.02.65,1.92.9,2.69.18.55.4.97.65,1.26s.52.51.8.65c.28.14.59.25.93.31.25.05.44.12.56.23s.19.22.19.35c0,.1-.06.17-.19.21s-.28.06-.46.06c-.27,0-.62-.01-1.05-.04-.43-.02-.88-.05-1.35-.06-.47-.02-.89-.02-1.27-.02h-1.05c-.38,0-.75,0-1.09.02s-.64.02-.89.02c-.2,0-.36-.03-.49-.09-.12-.06-.19-.14-.19-.24,0-.13.08-.24.23-.33.15-.08.33-.14.52-.17.57-.1.98-.25,1.24-.45.26-.2.36-.47.31-.8-.02-.28-.08-.64-.18-1.06-.1-.43-.22-.88-.35-1.35-.13-.48-.26-.91-.38-1.31-.03-.13-.09-.22-.18-.25-.08-.03-.23-.05-.42-.05h-4.62c-.08,0-.16.03-.23.09-.07.06-.13.17-.2.34-.05.2-.13.45-.24.76-.11.31-.21.63-.31.98-.1.34-.19.66-.26.95-.07.29-.12.5-.14.64-.05.42.05.75.31.99.26.24.65.43,1.16.56.5.13.75.3.75.5,0,.12-.06.2-.19.24s-.29.06-.49.06c-.32,0-.68,0-1.1-.02s-.86-.02-1.32-.02c-.53,0-1.05.02-1.55.07-.5.05-.97.08-1.42.08ZM77.96,116.25h3.65c.23,0,.35-.04.35-.12,0-.05,0-.09-.01-.12,0-.03-.02-.08-.04-.15l-1.85-5.92c-.08-.27-.15-.4-.2-.4-.03,0-.09.12-.18.38l-2.17,5.95c-.03.1-.05.17-.05.2,0,.08.05.14.14.16.09.03.21.04.36.04Z"/><path d="M90.74,123.42c-.15,0-.27-.03-.36-.08-.09-.05-.14-.12-.14-.23,0-.13.05-.23.16-.29.11-.06.25-.11.41-.16.35-.08.6-.2.74-.35s.21-.35.21-.6v-5.5c0-.42-.06-.77-.17-1.06-.12-.29-.37-.48-.75-.56-.07-.02-.13-.06-.19-.12-.06-.07-.09-.15-.09-.25,0-.18.08-.3.25-.35.47-.13.97-.32,1.5-.56.53-.24.97-.45,1.3-.64.1-.07.19-.12.27-.15.08-.03.14-.05.18-.05.12,0,.17.07.17.2,0,.07,0,.21-.01.42,0,.22-.02.46-.04.73-.02.27-.02.52-.02.77,0,.07.02.1.05.1.27-.33.56-.64.89-.93.32-.28.67-.51,1.04-.69.37-.17.72-.26,1.05-.26.43,0,.77.09,1,.26.23.18.35.4.35.69,0,.18-.05.4-.16.64-.11.24-.25.45-.43.62-.17.17-.36.26-.56.26-.12,0-.24-.03-.38-.09-.13-.06-.27-.12-.42-.19-.13-.07-.27-.13-.41-.19-.14-.06-.28-.09-.41-.09-.42,0-.8.15-1.15.45-.35.3-.52.88-.52,1.75v4.7c0,.27.11.48.33.62.22.15.54.29.97.43.18.05.33.1.43.16s.15.15.15.26c0,.2-.16.3-.48.3-.5,0-.93-.02-1.29-.06-.36-.04-.75-.06-1.19-.06-.28,0-.53,0-.75.02s-.44.04-.67.06-.52.04-.85.04Z"/><path d="M103.98,123.7c-.92,0-1.62-.26-2.11-.77-.49-.52-.74-1.28-.74-2.28v-5.8c0-.13-.05-.23-.16-.29-.11-.06-.32-.09-.64-.09h-.2c-.1,0-.18-.07-.25-.21-.07-.14-.1-.28-.1-.41,0-.03.02-.08.06-.14.04-.06.08-.1.11-.11.35-.22.7-.45,1.04-.71.34-.26.66-.52.95-.79s.54-.5.74-.7c.1-.08.18-.16.25-.22.07-.07.15-.1.25-.1s.19.02.26.07c.08.05.1.15.09.3l-.15,1.23c-.02.2.03.33.14.4.11.07.26.1.46.1h2.9c.05,0,.1.06.15.17.05.12.08.23.08.35,0,.18-.02.36-.08.52-.05.17-.11.25-.17.25h-2.42c-.42,0-.69.04-.81.12-.12.08-.19.27-.19.58v4.85c0,.7.14,1.24.42,1.61.28.38.68.56,1.2.56.48,0,.85-.04,1.1-.12s.48-.18.68-.3c.05-.03.09-.05.12-.05.08,0,.14.04.16.12.02.08.04.17.04.27s-.15.27-.45.52c-.3.25-.69.49-1.18.71-.48.22-1,.34-1.55.34Z"/><path d="M108.68,123.42c-.13,0-.25-.03-.34-.08-.09-.05-.14-.12-.14-.23,0-.13.05-.23.16-.29.11-.06.23-.1.36-.14.38-.1.67-.21.85-.33.18-.12.27-.32.27-.62v-5.4c0-.5-.08-.9-.25-1.21-.17-.31-.46-.5-.88-.56-.08-.02-.15-.05-.19-.11-.04-.06-.06-.15-.06-.26,0-.2.07-.31.23-.33.73-.17,1.36-.39,1.89-.66.52-.27.92-.5,1.19-.66.18-.12.32-.18.4-.18.13,0,.2.07.2.2,0,.18-.02.48-.06.88-.04.4-.08.83-.12,1.3-.04.47-.06.9-.06,1.3v5.7c0,.27.09.47.27.6.18.13.47.25.85.35.13.03.25.08.36.14.11.06.16.15.16.29,0,.2-.15.3-.45.3-.32,0-.6-.01-.85-.04s-.49-.05-.71-.06c-.23-.02-.49-.02-.79-.02-.28,0-.54,0-.77.02-.23.02-.46.04-.69.06-.23.02-.5.04-.84.04ZM110.93,110.65c-.42,0-.77-.15-1.06-.44-.29-.29-.44-.65-.44-1.06s.15-.8.44-1.09c.29-.29.65-.44,1.06-.44s.8.15,1.1.44c.3.29.45.65.45,1.09s-.15.77-.45,1.06c-.3.29-.67.44-1.1.44Z"/><path d="M118.11,123.7c-.53,0-1.04-.08-1.51-.23s-.89-.37-1.24-.65c-.12-.22-.2-.56-.25-1.02-.05-.47-.07-.89-.07-1.28,0-.17.12-.25.38-.25.1,0,.19.02.26.06.08.04.12.1.14.16.25.78.6,1.38,1.05,1.77.45.4.94.6,1.48.6.47,0,.85-.15,1.15-.46.3-.31.45-.68.45-1.11s-.16-.83-.48-1.14c-.32-.31-.8-.66-1.45-1.06-.53-.32-.99-.63-1.38-.94-.38-.31-.68-.65-.88-1.02-.2-.38-.3-.8-.3-1.29,0-.58.15-1.1.44-1.55.29-.45.7-.81,1.24-1.08.53-.27,1.17-.4,1.92-.4.53,0,.99.05,1.36.16s.65.22.81.34c.13.18.25.48.34.9.09.42.14.83.14,1.25,0,.13-.11.2-.32.2-.1,0-.2-.03-.31-.08-.11-.05-.18-.12-.21-.2-.22-.58-.49-1.02-.81-1.32-.32-.3-.72-.45-1.19-.45-.4,0-.76.12-1.07.36-.32.24-.48.59-.48,1.04,0,.38.14.72.41,1.01.27.29.71.6,1.31.94,1,.55,1.74,1.07,2.21,1.56.48.49.71,1.15.71,1.96,0,.97-.35,1.74-1.04,2.33-.69.58-1.63.88-2.81.88Z"/><path d="M125.78,123.7c-.35,0-.69-.11-1.02-.34-.33-.23-.61-.51-.83-.85-.22-.34-.32-.68-.32-1.01,0-.55.15-.99.46-1.32.31-.33.79-.63,1.44-.9l2.42-1.02c.33-.13.53-.25.6-.36.07-.11.11-.33.12-.66l.05-1.52c.02-.45-.09-.83-.33-1.12-.23-.3-.58-.45-1.02-.45-.23,0-.47.05-.71.14-.24.09-.44.2-.59.31-.08.07-.14.16-.16.27-.03.12-.04.24-.04.38,0,.08,0,.18.01.29s.01.2.01.26c0,.1-.11.22-.34.36s-.48.27-.77.39c-.29.12-.54.18-.74.18-.1,0-.18-.03-.24-.09-.06-.06-.09-.14-.09-.24,0-.27.09-.55.26-.84.18-.29.44-.59.79-.89.4-.35.84-.66,1.31-.94.48-.27.94-.49,1.4-.64s.86-.23,1.21-.23c.7,0,1.27.24,1.71.71.44.48.65,1.09.61,1.84l-.12,5.65c-.02.37.06.67.23.9.17.23.38.35.62.35.38,0,.68-.1.9-.3.07-.07.12-.1.17-.1.08,0,.15.03.21.08.06.05.09.12.09.2,0,.2-.12.41-.35.62-.28.28-.59.5-.91.66-.32.16-.64.24-.94.24-.83,0-1.5-.45-2-1.35h-.07c-.55.47-1.07.81-1.55,1.02s-.98.33-1.5.33ZM127.08,122.35c.28,0,.52-.05.71-.14.19-.09.36-.22.51-.39.08-.08.15-.19.19-.31s.07-.32.09-.59l.05-1.43c.02-.17,0-.29-.02-.36-.03-.08-.1-.11-.2-.11-.03,0-.08,0-.15.03-.07.02-.16.05-.27.1-.75.28-1.27.58-1.58.89-.3.31-.45.65-.45,1.01,0,.45.12.78.36.99.24.21.5.31.76.31Z"/><path d="M134.6,123.42c-.13,0-.25-.03-.35-.08s-.15-.12-.15-.23c0-.13.05-.23.16-.29.11-.06.25-.11.41-.16.25-.07.48-.16.7-.28.22-.12.32-.34.32-.67v-5.5c0-.42-.05-.77-.14-1.06-.09-.29-.34-.49-.74-.59-.07-.02-.12-.05-.17-.11-.05-.06-.08-.14-.08-.24,0-.22.08-.33.23-.35.58-.15,1.11-.33,1.59-.55.48-.22.91-.46,1.31-.73.05-.03.1-.07.16-.1.06-.03.11-.05.16-.05.07,0,.11.02.14.06.02.04.04.1.04.16,0,.12-.02.34-.06.67-.04.33-.06.62-.06.85,0,.07,0,.13.01.2,0,.07.02.11.04.12.58-.55,1.19-.97,1.81-1.25.62-.28,1.33-.42,2.11-.42.83,0,1.52.33,2.08.98.55.65.82,1.49.82,2.52v5.4c0,.33.11.55.34.65.22.1.46.19.71.28.13.05.26.11.38.17.12.07.17.17.17.3,0,.12-.05.19-.16.23s-.21.05-.31.05c-.33,0-.61-.01-.84-.04s-.44-.05-.65-.06c-.21-.02-.46-.02-.76-.02-.28,0-.53,0-.75.02s-.44.04-.66.06c-.23.02-.5.04-.84.04-.08,0-.18-.02-.3-.05-.12-.03-.17-.11-.17-.23,0-.13.06-.23.17-.3.12-.07.24-.12.38-.17.25-.08.48-.18.7-.28.22-.1.32-.32.32-.65v-5.17c0-.7-.19-1.24-.56-1.62s-.86-.58-1.46-.6c-.52,0-.97.08-1.36.24-.39.16-.75.37-1.09.64-.07.07-.12.15-.15.25-.03.1-.05.19-.05.27v6c0,.33.11.55.32.66s.44.2.68.26c.37.12.55.27.55.45,0,.1-.04.18-.12.23s-.2.08-.35.08c-.33,0-.61-.01-.84-.04s-.43-.05-.62-.06c-.19-.02-.44-.02-.74-.02-.28,0-.53,0-.75.02-.22.02-.44.04-.68.06s-.52.04-.85.04Z"/><path d="M150.91,123.7c-.53,0-1.04-.08-1.51-.23s-.89-.37-1.24-.65c-.12-.22-.2-.56-.25-1.02-.05-.47-.07-.89-.07-1.28,0-.17.12-.25.38-.25.1,0,.19.02.26.06.08.04.12.1.14.16.25.78.6,1.38,1.05,1.77.45.4.94.6,1.48.6.47,0,.85-.15,1.15-.46.3-.31.45-.68.45-1.11s-.16-.83-.48-1.14c-.32-.31-.8-.66-1.45-1.06-.53-.32-.99-.63-1.38-.94-.38-.31-.68-.65-.88-1.02-.2-.38-.3-.8-.3-1.29,0-.58.15-1.1.44-1.55.29-.45.7-.81,1.24-1.08.53-.27,1.17-.4,1.92-.4.53,0,.99.05,1.36.16s.65.22.81.34c.13.18.25.48.34.9.09.42.14.83.14,1.25,0,.13-.11.2-.32.2-.1,0-.2-.03-.31-.08-.11-.05-.18-.12-.21-.2-.22-.58-.49-1.02-.81-1.32-.32-.3-.72-.45-1.19-.45-.4,0-.76.12-1.07.36-.32.24-.48.59-.48,1.04,0,.38.14.72.41,1.01.27.29.71.6,1.31.94,1,.55,1.74,1.07,2.21,1.56.48.49.71,1.15.71,1.96,0,.97-.35,1.74-1.04,2.33-.69.58-1.63.88-2.81.88Z"/><path d="M156.27,123.42c-.33,0-.5-.1-.5-.3,0-.17.19-.32.57-.45.25-.08.48-.18.7-.3.22-.12.32-.35.32-.7v-12.33c0-.45-.07-.85-.2-1.19-.13-.34-.42-.55-.85-.61-.15-.03-.23-.16-.23-.38,0-.17.07-.28.2-.33.28-.08.62-.18,1.01-.3s.78-.25,1.16-.39.71-.27.98-.39c.1-.03.17-.05.23-.05.07,0,.12.02.15.06.03.04.05.1.05.16,0,.08-.02.21-.05.39-.03.18-.07.45-.1.83-.03.38-.05.9-.05,1.59v4.85c0,.23.01.41.04.54.02.12.06.23.11.31.27-.2.59-.43.96-.68s.8-.47,1.27-.65c.48-.18.98-.27,1.51-.27.85,0,1.55.32,2.11.95s.84,1.47.84,2.5v5.32c0,.33.1.57.31.71.21.14.44.25.69.34.17.07.3.13.4.19s.15.15.15.26c0,.2-.17.3-.52.3s-.62-.01-.83-.04c-.2-.02-.39-.05-.57-.06-.18-.02-.43-.02-.75-.02s-.56,0-.74.02c-.17.02-.36.04-.55.06-.19.02-.47.04-.84.04s-.53-.1-.53-.3c0-.13.05-.23.15-.27.1-.05.23-.11.4-.17.23-.07.45-.18.65-.33s.3-.4.3-.75v-5.05c0-.4-.11-.76-.32-1.09-.22-.32-.48-.58-.79-.76-.31-.18-.63-.27-.96-.27-.3,0-.64.04-1.01.12s-.69.22-.94.42c-.22.17-.36.35-.44.54-.07.19-.11.5-.11.94v5.23c.02.33.12.56.3.69.18.12.39.23.62.31.17.05.3.11.4.17.1.07.15.16.15.27,0,.2-.17.3-.5.3s-.6-.01-.81-.04c-.21-.02-.41-.05-.6-.06-.19-.02-.44-.02-.74-.02-.28,0-.53,0-.74.02-.21.02-.42.04-.65.06s-.5.04-.84.04Z"/><path d="M169.9,123.42c-.13,0-.25-.03-.34-.08-.09-.05-.14-.12-.14-.23,0-.13.05-.23.16-.29.11-.06.23-.1.36-.14.38-.1.67-.21.85-.33.18-.12.27-.32.27-.62v-5.4c0-.5-.08-.9-.25-1.21-.17-.31-.46-.5-.88-.56-.08-.02-.15-.05-.19-.11-.04-.06-.06-.15-.06-.26,0-.2.07-.31.23-.33.73-.17,1.36-.39,1.89-.66.53-.27.92-.5,1.19-.66.18-.12.32-.18.4-.18.13,0,.2.07.2.2,0,.18-.02.48-.06.88-.04.4-.08.83-.12,1.3-.04.47-.06.9-.06,1.3v5.7c0,.27.09.47.27.6.18.13.47.25.85.35.13.03.25.08.36.14.11.06.16.15.16.29,0,.2-.15.3-.45.3-.32,0-.6-.01-.85-.04s-.49-.05-.71-.06c-.23-.02-.49-.02-.79-.02-.28,0-.54,0-.77.02-.23.02-.46.04-.69.06-.23.02-.5.04-.84.04ZM172.15,110.65c-.42,0-.77-.15-1.06-.44-.29-.29-.44-.65-.44-1.06s.15-.8.44-1.09c.29-.29.65-.44,1.06-.44s.8.15,1.1.44c.3.29.45.65.45,1.09s-.15.77-.45,1.06c-.3.29-.67.44-1.1.44Z"/><path d="M175.97,130.27c-.1,0-.21-.02-.34-.06s-.19-.11-.19-.21c0-.13.06-.23.17-.3.12-.07.25-.12.4-.18.28-.08.53-.18.73-.3.2-.12.3-.33.3-.65v-12.43c0-.15-.04-.35-.11-.6s-.2-.48-.36-.7c-.17-.22-.38-.34-.62-.38-.08-.03-.15-.08-.19-.14-.04-.06-.06-.14-.06-.24s.02-.18.06-.24c.04-.06.1-.1.16-.11.6-.15,1.17-.32,1.7-.5.53-.18,1.01-.38,1.42-.57.05,0,.09-.01.11-.04.03-.02.05-.04.09-.04.05,0,.09.03.12.09.03.06.05.11.05.16,0,.15-.02.38-.06.7-.04.32-.06.58-.06.8,0,.13,0,.21.03.23.17-.17.47-.38.9-.64.43-.26.93-.5,1.5-.71.57-.22,1.11-.33,1.62-.33.87,0,1.61.23,2.23.7.62.47,1.09,1.07,1.42,1.8.33.73.5,1.49.5,2.28s-.15,1.51-.44,2.22c-.29.72-.7,1.36-1.23,1.94-.52.58-1.13,1.03-1.81,1.38-.68.34-1.42.51-2.22.51-.22,0-.47-.03-.78-.09-.3-.06-.6-.14-.89-.25-.29-.11-.52-.23-.69-.36-.02,0-.03.07-.05.21-.02.14-.03.29-.04.45,0,.16-.01.27-.01.34v4.48c0,.22.08.39.23.52.15.13.33.24.54.31.21.08.42.15.64.21.15.05.28.1.4.16.12.06.18.15.18.29,0,.1-.06.17-.18.21-.12.04-.23.06-.35.06-.48,0-.92-.02-1.33-.06-.4-.04-.82-.06-1.25-.06-.28,0-.53,0-.75.03-.22.02-.44.04-.66.06-.23.02-.5.04-.84.04ZM182.02,122.82c.23,0,.51-.07.83-.21s.64-.38.96-.71c.33-.33.6-.77.81-1.32.22-.55.33-1.23.33-2.05,0-.95-.11-1.71-.34-2.27-.22-.57-.5-1-.84-1.29-.33-.29-.67-.49-1.01-.59-.34-.1-.63-.15-.86-.15-.37,0-.75.08-1.14.24-.39.16-.72.34-.98.54-.26.2-.39.36-.39.48,0,.3,0,.64-.01,1.01,0,.38-.02.76-.03,1.15,0,.39-.01.75-.01,1.06v.67c0,.57.13,1.12.39,1.65.26.53.59.97,1,1.3s.84.5,1.29.5Z"/><path d="M194.82,123.42c-.13,0-.25-.03-.34-.08-.09-.05-.14-.12-.14-.23,0-.13.05-.23.16-.29.11-.06.23-.1.36-.14.38-.1.67-.21.85-.33.18-.12.28-.32.28-.62v-5.4c0-.5-.08-.9-.25-1.21-.17-.31-.46-.5-.88-.56-.08-.02-.15-.05-.19-.11-.04-.06-.06-.15-.06-.26,0-.2.07-.31.22-.33.73-.17,1.36-.39,1.89-.66.52-.27.92-.5,1.19-.66.18-.12.32-.18.4-.18.13,0,.2.07.2.2,0,.18-.02.48-.06.88s-.08.83-.12,1.3c-.04.47-.06.9-.06,1.3v5.7c0,.27.09.47.28.6.18.13.47.25.85.35.13.03.25.08.36.14.11.06.16.15.16.29,0,.2-.15.3-.45.3-.32,0-.6-.01-.85-.04s-.49-.05-.71-.06-.49-.02-.79-.02c-.28,0-.54,0-.78.02s-.46.04-.69.06-.5.04-.84.04ZM197.07,110.65c-.42,0-.77-.15-1.06-.44s-.44-.65-.44-1.06.15-.8.44-1.09c.29-.29.65-.44,1.06-.44s.8.15,1.1.44c.3.29.45.65.45,1.09s-.15.77-.45,1.06c-.3.29-.67.44-1.1.44Z"/><path d="M201.71,123.42c-.13,0-.25-.03-.35-.08-.1-.05-.15-.12-.15-.23,0-.13.05-.23.16-.29.11-.06.25-.11.41-.16.25-.07.48-.16.7-.28.22-.12.33-.34.33-.67v-5.5c0-.42-.05-.77-.14-1.06-.09-.29-.34-.49-.74-.59-.07-.02-.12-.05-.17-.11-.05-.06-.08-.14-.08-.24,0-.22.08-.33.22-.35.58-.15,1.11-.33,1.59-.55.47-.22.91-.46,1.31-.73.05-.03.1-.07.16-.1.06-.03.11-.05.16-.05.07,0,.11.02.14.06.02.04.04.1.04.16,0,.12-.02.34-.06.67-.04.33-.06.62-.06.85,0,.07,0,.13.01.2,0,.07.02.11.04.12.58-.55,1.19-.97,1.81-1.25.62-.28,1.33-.42,2.11-.42.83,0,1.53.33,2.08.98s.83,1.49.83,2.52v5.4c0,.33.11.55.34.65.22.1.46.19.71.28.13.05.26.11.38.17.12.07.17.17.17.3,0,.12-.05.19-.16.23s-.21.05-.31.05c-.33,0-.61-.01-.84-.04-.22-.02-.44-.05-.65-.06-.21-.02-.46-.02-.76-.02-.28,0-.53,0-.75.02s-.44.04-.66.06c-.23.02-.5.04-.84.04-.08,0-.18-.02-.3-.05-.12-.03-.17-.11-.17-.23,0-.13.06-.23.17-.3.12-.07.24-.12.38-.17.25-.08.48-.18.7-.28.22-.1.32-.32.32-.65v-5.17c0-.7-.19-1.24-.56-1.62s-.86-.58-1.46-.6c-.52,0-.97.08-1.36.24-.39.16-.75.37-1.09.64-.07.07-.12.15-.15.25s-.05.19-.05.27v6c0,.33.11.55.33.66s.44.2.67.26c.37.12.55.27.55.45,0,.1-.04.18-.12.23-.08.05-.2.08-.35.08-.33,0-.61-.01-.84-.04-.22-.02-.43-.05-.62-.06s-.44-.02-.74-.02c-.28,0-.53,0-.75.02s-.44.04-.67.06-.52.04-.85.04Z"/><path d="M222.71,123.7c-.35,0-.69-.11-1.03-.34-.33-.23-.61-.51-.83-.85-.22-.34-.32-.68-.32-1.01,0-.55.15-.99.46-1.32s.79-.63,1.44-.9l2.43-1.02c.33-.13.53-.25.6-.36s.11-.33.12-.66l.05-1.52c.02-.45-.09-.83-.33-1.12-.23-.3-.57-.45-1.03-.45-.23,0-.47.05-.71.14-.24.09-.44.2-.59.31-.08.07-.14.16-.16.27-.03.12-.04.24-.04.38,0,.08,0,.18.01.29,0,.11.01.2.01.26,0,.1-.11.22-.34.36-.23.14-.48.27-.78.39-.29.12-.54.18-.74.18-.1,0-.18-.03-.24-.09-.06-.06-.09-.14-.09-.24,0-.27.09-.55.26-.84.17-.29.44-.59.79-.89.4-.35.84-.66,1.31-.94.48-.27.94-.49,1.4-.64s.86-.23,1.21-.23c.7,0,1.27.24,1.71.71.44.48.64,1.09.61,1.84l-.12,5.65c-.02.37.06.67.22.9.17.23.38.35.62.35.38,0,.68-.1.9-.3.07-.07.12-.1.18-.1.08,0,.15.03.21.08.06.05.09.12.09.2,0,.2-.12.41-.35.62-.28.28-.59.5-.91.66s-.64.24-.94.24c-.83,0-1.5-.45-2-1.35h-.07c-.55.47-1.07.81-1.55,1.02-.48.22-.98.33-1.5.33ZM224.01,122.35c.28,0,.52-.05.71-.14.19-.09.36-.22.51-.39.08-.08.14-.19.19-.31.04-.12.07-.32.09-.59l.05-1.43c.02-.17,0-.29-.03-.36-.03-.08-.1-.11-.2-.11-.03,0-.08,0-.15.03s-.16.05-.28.1c-.75.28-1.27.58-1.57.89-.3.31-.45.65-.45,1.01,0,.45.12.78.36.99.24.21.5.31.76.31Z"/><path d="M238.89,123.82s-.09-.04-.17-.12c-.08-.08-.12-.14-.12-.18.02-.2.04-.44.08-.72.03-.28.05-.53.05-.73v-.15c-.28.43-.7.84-1.26,1.21s-1.23.56-2.01.56c-.95,0-1.77-.25-2.47-.74-.7-.49-1.25-1.13-1.64-1.91s-.59-1.62-.59-2.5c0-1.02.23-1.96.7-2.83.47-.87,1.13-1.56,2-2.09.87-.52,1.88-.79,3.05-.79.3,0,.61.03.94.09.32.06.58.12.76.19.18.05.29.08.33.08.12,0,.17-.18.17-.52v-3.33c0-.65-.1-1.1-.3-1.35s-.49-.41-.88-.48c-.17-.03-.25-.15-.25-.35,0-.17.08-.28.23-.33.7-.17,1.3-.34,1.8-.52.5-.18.9-.33,1.2-.45.12-.07.21-.1.27-.11s.12-.01.15-.01c.13,0,.2.07.2.2,0,.05,0,.18-.03.4-.02.22-.04.52-.08.92-.03.4-.05.89-.05,1.48l-.05,11.77c0,.57.04.98.12,1.23.08.25.22.38.42.38.08,0,.21,0,.38-.02.17-.02.39-.03.67-.05.27-.02.4.07.4.25,0,.12-.04.23-.12.34-.08.11-.17.16-.25.16-.52.07-1.04.17-1.56.3-.53.13-1.08.33-1.66.58-.13.07-.22.11-.27.12-.05.02-.1.02-.15.02ZM236.46,122.25c.37,0,.75-.1,1.16-.29.41-.19.75-.45,1.04-.76v-4.88c0-.38-.12-.77-.36-1.16-.24-.39-.57-.71-.99-.95-.42-.24-.89-.36-1.42-.36-.38,0-.79.13-1.22.39-.43.26-.8.69-1.1,1.29-.3.6-.45,1.41-.45,2.43,0,.85.12,1.55.35,2.11.23.56.53,1,.89,1.31.36.32.73.54,1.11.68.38.13.72.2,1,.2Z"/><path d="M248.74,123.7c-.95,0-1.81-.22-2.59-.66-.77-.44-1.39-1.05-1.84-1.81s-.67-1.64-.67-2.62c0-.73.14-1.44.42-2.12.28-.68.68-1.3,1.2-1.85.52-.55,1.12-.99,1.8-1.31.68-.32,1.42-.49,2.2-.49.98,0,1.88.24,2.67.71s1.43,1.1,1.9,1.86c.47.77.7,1.61.7,2.53,0,1-.22,1.94-.65,2.82-.43.88-1.08,1.6-1.94,2.14-.86.54-1.93.81-3.21.81ZM249.27,122.82c.48,0,.92-.1,1.3-.29s.68-.49.9-.89c.2-.38.34-.85.41-1.41s.11-1.13.11-1.71c0-.83-.13-1.62-.4-2.35s-.63-1.33-1.1-1.78c-.47-.45-1.02-.67-1.65-.67-.38,0-.73.06-1.04.19s-.59.34-.84.64c-.32.38-.52.88-.62,1.49-.1.61-.15,1.27-.15,1.99,0,.8.13,1.57.4,2.3s.63,1.33,1.09,1.8c.46.47.99.7,1.59.7Z"/><path d="M256.15,123.42c-.15,0-.27-.03-.36-.08s-.14-.12-.14-.23c0-.13.05-.23.16-.29.11-.06.25-.11.41-.16.35-.08.6-.2.74-.35.14-.15.21-.35.21-.6v-5.5c0-.42-.06-.77-.17-1.06-.12-.29-.37-.48-.75-.56-.07-.02-.13-.06-.19-.12-.06-.07-.09-.15-.09-.25,0-.18.08-.3.25-.35.47-.13.97-.32,1.5-.56.53-.24.97-.45,1.3-.64.1-.07.19-.12.27-.15.08-.03.14-.05.17-.05.12,0,.18.07.18.2,0,.07,0,.21-.01.42,0,.22-.02.46-.04.73s-.02.52-.02.77c0,.07.02.1.05.1.27-.33.56-.64.89-.93.33-.28.67-.51,1.04-.69.37-.17.72-.26,1.05-.26.43,0,.77.09,1,.26.23.18.35.4.35.69,0,.18-.05.4-.16.64-.11.24-.25.45-.42.62s-.36.26-.56.26c-.12,0-.24-.03-.38-.09-.13-.06-.27-.12-.42-.19-.13-.07-.27-.13-.41-.19-.14-.06-.28-.09-.41-.09-.42,0-.8.15-1.15.45-.35.3-.53.88-.53,1.75v4.7c0,.27.11.48.33.62.22.15.54.29.97.43.18.05.33.1.42.16.1.06.15.15.15.26,0,.2-.16.3-.47.3-.5,0-.93-.02-1.29-.06-.36-.04-.75-.06-1.19-.06-.28,0-.53,0-.75.02s-.44.04-.67.06-.52.04-.85.04Z"/><path d="M266.95,123.7c-.35,0-.69-.11-1.03-.34-.33-.23-.61-.51-.83-.85-.22-.34-.33-.68-.33-1.01,0-.55.15-.99.46-1.32s.79-.63,1.44-.9l2.42-1.02c.33-.13.53-.25.6-.36.07-.11.11-.33.12-.66l.05-1.52c.02-.45-.09-.83-.33-1.12-.23-.3-.58-.45-1.03-.45-.23,0-.47.05-.71.14-.24.09-.44.2-.59.31-.08.07-.14.16-.16.27-.03.12-.04.24-.04.38,0,.08,0,.18.01.29s.01.2.01.26c0,.1-.11.22-.34.36-.22.14-.48.27-.77.39-.29.12-.54.18-.74.18-.1,0-.18-.03-.24-.09s-.09-.14-.09-.24c0-.27.09-.55.26-.84.17-.29.44-.59.79-.89.4-.35.84-.66,1.31-.94.47-.27.94-.49,1.4-.64.46-.15.86-.23,1.21-.23.7,0,1.27.24,1.71.71.44.48.65,1.09.61,1.84l-.12,5.65c-.02.37.06.67.22.9.17.23.38.35.62.35.38,0,.68-.1.9-.3.07-.07.12-.1.17-.1.08,0,.15.03.21.08.06.05.09.12.09.2,0,.2-.12.41-.35.62-.28.28-.59.5-.91.66-.33.16-.64.24-.94.24-.83,0-1.5-.45-2-1.35h-.08c-.55.47-1.07.81-1.55,1.02-.48.22-.98.33-1.5.33ZM268.25,122.35c.28,0,.52-.05.71-.14.19-.09.36-.22.51-.39.08-.08.15-.19.19-.31s.07-.32.09-.59l.05-1.43c.02-.17,0-.29-.03-.36-.03-.08-.1-.11-.2-.11-.03,0-.08,0-.15.03s-.16.05-.28.1c-.75.28-1.27.58-1.57.89-.3.31-.45.65-.45,1.01,0,.45.12.78.36.99.24.21.5.31.76.31Z"/><path d="M278.92,123.7c-.92,0-1.62-.26-2.11-.77-.49-.52-.74-1.28-.74-2.28v-5.8c0-.13-.05-.23-.16-.29-.11-.06-.32-.09-.64-.09h-.2c-.1,0-.18-.07-.25-.21-.07-.14-.1-.28-.1-.41,0-.03.02-.08.06-.14.04-.06.08-.1.11-.11.35-.22.7-.45,1.04-.71.34-.26.66-.52.95-.79.29-.27.54-.5.74-.7.1-.08.18-.16.25-.22.07-.07.15-.1.25-.1s.19.02.26.07c.07.05.1.15.09.3l-.15,1.23c-.02.2.03.33.14.4.11.07.26.1.46.1h2.9s.1.06.15.17c.05.12.08.23.08.35,0,.18-.03.36-.08.52-.05.17-.11.25-.17.25h-2.42c-.42,0-.69.04-.81.12-.12.08-.19.27-.19.58v4.85c0,.7.14,1.24.42,1.61s.68.56,1.2.56c.48,0,.85-.04,1.1-.12s.48-.18.67-.3c.05-.03.09-.05.12-.05.08,0,.14.04.16.12.02.08.04.17.04.27s-.15.27-.45.52c-.3.25-.69.49-1.17.71-.48.22-1,.34-1.55.34Z"/><path d="M283.62,123.42c-.13,0-.25-.03-.34-.08-.09-.05-.14-.12-.14-.23,0-.13.05-.23.16-.29.11-.06.23-.1.36-.14.38-.1.67-.21.85-.33.18-.12.27-.32.27-.62v-5.4c0-.5-.08-.9-.25-1.21-.17-.31-.46-.5-.88-.56-.08-.02-.15-.05-.19-.11-.04-.06-.06-.15-.06-.26,0-.2.08-.31.23-.33.73-.17,1.36-.39,1.89-.66.52-.27.92-.5,1.19-.66.18-.12.32-.18.4-.18.13,0,.2.07.2.2,0,.18-.02.48-.06.88-.04.4-.08.83-.12,1.3-.04.47-.06.9-.06,1.3v5.7c0,.27.09.47.28.6.18.13.47.25.85.35.13.03.25.08.36.14.11.06.16.15.16.29,0,.2-.15.3-.45.3-.32,0-.6-.01-.85-.04s-.49-.05-.71-.06c-.23-.02-.49-.02-.79-.02-.28,0-.54,0-.77.02s-.46.04-.69.06c-.23.02-.5.04-.84.04ZM285.87,110.65c-.42,0-.77-.15-1.06-.44-.29-.29-.44-.65-.44-1.06s.15-.8.44-1.09c.29-.29.65-.44,1.06-.44s.8.15,1.1.44c.3.29.45.65.45,1.09s-.15.77-.45,1.06c-.3.29-.67.44-1.1.44Z"/><path d="M294.67,123.7c-.95,0-1.81-.22-2.59-.66-.77-.44-1.39-1.05-1.84-1.81s-.67-1.64-.67-2.62c0-.73.14-1.44.42-2.12.28-.68.68-1.3,1.2-1.85.52-.55,1.12-.99,1.8-1.31.68-.32,1.42-.49,2.2-.49.98,0,1.88.24,2.67.71s1.43,1.1,1.9,1.86c.47.77.7,1.61.7,2.53,0,1-.22,1.94-.65,2.82-.43.88-1.08,1.6-1.94,2.14-.86.54-1.93.81-3.21.81ZM295.2,122.82c.48,0,.92-.1,1.3-.29s.68-.49.9-.89c.2-.38.34-.85.41-1.41s.11-1.13.11-1.71c0-.83-.13-1.62-.4-2.35s-.63-1.33-1.1-1.78c-.47-.45-1.02-.67-1.65-.67-.38,0-.73.06-1.04.19s-.59.34-.84.64c-.32.38-.52.88-.62,1.49-.1.61-.15,1.27-.15,1.99,0,.8.13,1.57.4,2.3s.63,1.33,1.09,1.8c.46.47.99.7,1.59.7Z"/><path d="M301.97,123.42c-.13,0-.25-.03-.35-.08-.1-.05-.15-.12-.15-.23,0-.13.05-.23.16-.29.11-.06.25-.11.41-.16.25-.07.48-.16.7-.28.22-.12.33-.34.33-.67v-5.5c0-.42-.05-.77-.14-1.06-.09-.29-.34-.49-.74-.59-.07-.02-.12-.05-.17-.11-.05-.06-.08-.14-.08-.24,0-.22.08-.33.23-.35.58-.15,1.11-.33,1.59-.55.48-.22.91-.46,1.31-.73.05-.03.1-.07.16-.1.06-.03.11-.05.16-.05.07,0,.11.02.14.06.02.04.04.1.04.16,0,.12-.02.34-.06.67-.04.33-.06.62-.06.85,0,.07,0,.13.01.2,0,.07.02.11.04.12.58-.55,1.19-.97,1.81-1.25.62-.28,1.33-.42,2.11-.42.83,0,1.52.33,2.07.98.55.65.83,1.49.83,2.52v5.4c0,.33.11.55.34.65.22.1.46.19.71.28.13.05.26.11.38.17.12.07.18.17.18.3,0,.12-.05.19-.16.23s-.21.05-.31.05c-.33,0-.61-.01-.84-.04-.23-.02-.44-.05-.65-.06-.21-.02-.46-.02-.76-.02-.28,0-.53,0-.75.02s-.44.04-.66.06c-.23.02-.5.04-.84.04-.08,0-.18-.02-.3-.05-.12-.03-.17-.11-.17-.23,0-.13.06-.23.17-.3.12-.07.24-.12.38-.17.25-.08.48-.18.7-.28.22-.1.33-.32.33-.65v-5.17c0-.7-.19-1.24-.56-1.62s-.86-.58-1.46-.6c-.52,0-.97.08-1.36.24-.39.16-.75.37-1.09.64-.07.07-.12.15-.15.25-.03.1-.05.19-.05.27v6c0,.33.11.55.33.66s.44.2.67.26c.37.12.55.27.55.45,0,.1-.04.18-.12.23-.08.05-.2.08-.35.08-.33,0-.61-.01-.84-.04-.23-.02-.43-.05-.62-.06-.19-.02-.44-.02-.74-.02-.28,0-.53,0-.75.02s-.44.04-.67.06-.52.04-.85.04Z"/><path d="M325.82,123.7c-.95,0-1.81-.22-2.59-.66-.77-.44-1.39-1.05-1.84-1.81s-.67-1.64-.67-2.62c0-.73.14-1.44.42-2.12.28-.68.68-1.3,1.2-1.85.52-.55,1.12-.99,1.8-1.31.68-.32,1.42-.49,2.2-.49.98,0,1.88.24,2.67.71s1.43,1.1,1.9,1.86c.47.77.7,1.61.7,2.53,0,1-.22,1.94-.65,2.82-.43.88-1.08,1.6-1.94,2.14-.86.54-1.93.81-3.21.81ZM326.35,122.82c.48,0,.92-.1,1.3-.29s.68-.49.9-.89c.2-.38.34-.85.41-1.41s.11-1.13.11-1.71c0-.83-.13-1.62-.4-2.35s-.63-1.33-1.1-1.78c-.47-.45-1.02-.67-1.65-.67-.38,0-.73.06-1.04.19s-.59.34-.84.64c-.32.38-.52.88-.62,1.49-.1.61-.15,1.27-.15,1.99,0,.8.13,1.57.4,2.3s.63,1.33,1.09,1.8c.46.47.99.7,1.59.7Z"/><path d="M333.32,123.42c-.15,0-.27-.03-.36-.08-.09-.05-.14-.12-.14-.23,0-.13.05-.23.15-.29.1-.06.23-.1.38-.14.42-.1.7-.23.85-.38.15-.15.22-.38.22-.7v-7.07c-.17,0-.36,0-.58-.01-.22,0-.46-.02-.72-.04-.07-.02-.14-.09-.22-.21-.08-.12-.12-.24-.12-.34,0-.03.02-.07.07-.1.05-.03.09-.06.12-.08.27-.13.51-.25.74-.36.22-.11.46-.22.71-.34.03-1.42.24-2.6.62-3.55.38-.95.87-1.7,1.46-2.26.59-.56,1.22-.96,1.88-1.2.66-.24,1.28-.36,1.86-.36,1,0,1.74.15,2.21.44.47.29.71.7.71,1.21,0,.35-.08.62-.25.81-.17.19-.38.29-.65.29-.15,0-.29-.06-.43-.19-.13-.12-.28-.27-.45-.44-.23-.25-.52-.49-.86-.71-.34-.23-.79-.34-1.34-.34-.75,0-1.35.32-1.8.96-.45.64-.68,1.65-.68,3.01v2.15c0,.12.03.19.1.23.07.03.14.05.22.05h3c.1,0,.18.03.25.1.07.07.1.14.1.23,0,.13-.01.27-.04.41-.02.14-.06.26-.11.36-.07.13-.14.2-.22.2h-2.68c-.27,0-.44.04-.51.11-.08.08-.11.18-.11.31v6.58c0,.37.1.63.31.8.21.17.65.3,1.34.4.35.07.53.21.53.42,0,.1-.04.18-.12.24-.08.06-.19.09-.33.09-.5,0-.99-.02-1.46-.06-.47-.04-.93-.06-1.36-.06-.28,0-.54,0-.76.02-.22.02-.45.04-.69.06s-.52.04-.85.04Z"/><path d="M351.09,123.7c-.92,0-1.62-.26-2.11-.77-.49-.52-.74-1.28-.74-2.28v-5.8c0-.13-.05-.23-.16-.29-.11-.06-.32-.09-.64-.09h-.2c-.1,0-.18-.07-.25-.21-.07-.14-.1-.28-.1-.41,0-.03.02-.08.06-.14.04-.06.08-.1.11-.11.35-.22.7-.45,1.04-.71.34-.26.66-.52.95-.79.29-.27.54-.5.74-.7.1-.08.18-.16.25-.22.07-.07.15-.1.25-.1s.19.02.26.07c.07.05.1.15.09.3l-.15,1.23c-.02.2.03.33.14.4.11.07.26.1.46.1h2.9s.1.06.15.17c.05.12.08.23.08.35,0,.18-.03.36-.08.52-.05.17-.11.25-.17.25h-2.42c-.42,0-.69.04-.81.12-.12.08-.19.27-.19.58v4.85c0,.7.14,1.24.42,1.61s.68.56,1.2.56c.48,0,.85-.04,1.1-.12s.48-.18.67-.3c.05-.03.09-.05.12-.05.08,0,.14.04.16.12.02.08.04.17.04.27s-.15.27-.45.52c-.3.25-.69.49-1.17.71-.48.22-1,.34-1.55.34Z"/><path d="M355.73,123.42c-.33,0-.5-.1-.5-.3,0-.17.19-.32.58-.45.25-.08.48-.18.7-.3.22-.12.33-.35.33-.7v-12.33c0-.45-.07-.85-.2-1.19-.13-.34-.42-.55-.85-.61-.15-.03-.22-.16-.22-.38,0-.17.07-.28.2-.33.28-.08.62-.18,1.01-.3s.78-.25,1.16-.39c.38-.14.71-.27.97-.39.1-.03.17-.05.22-.05.07,0,.12.02.15.06.03.04.05.1.05.16,0,.08-.02.21-.05.39-.03.18-.07.45-.1.83-.03.38-.05.9-.05,1.59v4.85c0,.23.01.41.04.54.02.12.06.23.11.31.27-.2.59-.43.96-.68s.8-.47,1.27-.65c.48-.18.98-.27,1.51-.27.85,0,1.55.32,2.11.95s.84,1.47.84,2.5v5.32c0,.33.1.57.31.71.21.14.44.25.69.34.17.07.3.13.4.19.1.06.15.15.15.26,0,.2-.17.3-.53.3s-.62-.01-.82-.04c-.2-.02-.39-.05-.58-.06-.18-.02-.43-.02-.75-.02s-.56,0-.74.02c-.18.02-.36.04-.55.06s-.47.04-.84.04-.53-.1-.53-.3c0-.13.05-.23.15-.27.1-.05.23-.11.4-.17.23-.07.45-.18.65-.33s.3-.4.3-.75v-5.05c0-.4-.11-.76-.33-1.09-.22-.32-.48-.58-.79-.76-.31-.18-.63-.27-.96-.27-.3,0-.64.04-1.01.12s-.69.22-.94.42c-.22.17-.36.35-.44.54-.08.19-.11.5-.11.94v5.23c.02.33.12.56.3.69.18.12.39.23.62.31.17.05.3.11.4.17.1.07.15.16.15.27,0,.2-.17.3-.5.3s-.6-.01-.81-.04c-.21-.02-.41-.05-.6-.06s-.44-.02-.74-.02c-.28,0-.53,0-.74.02-.21.02-.42.04-.65.06-.22.02-.5.04-.84.04Z"/><path d="M373.02,123.72c-.9,0-1.7-.23-2.39-.69s-1.24-1.1-1.64-1.92c-.4-.83-.6-1.78-.6-2.86,0-.98.23-1.88.69-2.7s1.07-1.47,1.84-1.96c.77-.49,1.61-.74,2.52-.74.68,0,1.3.14,1.84.41.54.27.97.66,1.28,1.15.31.49.46,1.05.46,1.69,0,.55-.26.83-.77.83h-5.18c-.23,0-.4.07-.5.2-.1.13-.15.38-.15.73,0,.73.17,1.4.5,2.01.33.61.77,1.1,1.33,1.46.55.37,1.16.55,1.82.55.5,0,.95-.1,1.36-.29.41-.19.79-.46,1.14-.81.05-.07.1-.12.14-.15.04-.03.09-.05.14-.05.15,0,.22.09.22.27,0,.27-.12.58-.35.95-.23.35-.53.67-.89.96s-.77.52-1.25.7c-.47.18-1,.26-1.56.26ZM371.1,116.07h2c.43,0,.78,0,1.03-.02s.48-.05.7-.1c.08-.03.14-.1.18-.21.03-.11.05-.25.05-.41,0-.47-.19-.86-.58-1.19-.38-.33-.84-.49-1.38-.49-.37,0-.73.11-1.09.33-.36.22-.65.49-.89.81-.23.33-.34.65-.33.99,0,.2.1.3.3.3Z"/><path d="M392.62,123.52c-.32,0-.78-.02-1.39-.05-.61-.03-1.25-.06-1.94-.09s-1.29-.04-1.83-.04c-.33,0-.65,0-.94.02-.29.02-.6.03-.91.05-.32.02-.68.02-1.1.02-.18,0-.34-.02-.46-.08-.12-.05-.19-.13-.19-.25,0-.13.06-.23.17-.29.12-.06.3-.11.55-.16.63-.12,1.07-.3,1.31-.55.24-.25.36-.66.36-1.23v-11.3c0-.57-.12-.97-.36-1.21-.24-.24-.68-.43-1.31-.56-.25-.05-.43-.11-.55-.18-.12-.07-.17-.17-.17-.3,0-.12.06-.2.19-.26.12-.06.28-.09.46-.09.42,0,.78,0,1.1.02.32.02.62.03.92.04.3,0,.64.01,1.03.01.27,0,.61,0,1.02-.02.42-.02.86-.04,1.33-.08.47-.03.9-.06,1.3-.08.4-.02.71-.02.93-.02,1.53,0,2.88.2,4.04.6s2.12.96,2.89,1.69,1.35,1.57,1.74,2.54c.39.97.59,2.02.59,3.15s-.21,2.27-.64,3.31c-.42,1.04-1.03,1.97-1.83,2.77-.79.81-1.72,1.44-2.79,1.9-1.07.46-2.24.69-3.53.69ZM392.3,122.5c1.23,0,2.31-.3,3.23-.9.92-.6,1.62-1.44,2.12-2.51.5-1.07.75-2.31.75-3.71,0-1.18-.18-2.24-.53-3.16-.35-.92-.82-1.71-1.41-2.36-.59-.65-1.28-1.15-2.05-1.49-.77-.34-1.59-.51-2.44-.51-.65,0-1.2.02-1.66.06-.46.04-.8.15-1.04.34-.23.18-.35.49-.35.93v11.05c0,.63.15,1.11.46,1.44.31.33.72.55,1.24.66s1.08.17,1.67.17Z"/><path d="M407.58,123.72c-.9,0-1.7-.23-2.39-.69s-1.24-1.1-1.64-1.92c-.4-.83-.6-1.78-.6-2.86,0-.98.23-1.88.69-2.7s1.07-1.47,1.84-1.96c.77-.49,1.61-.74,2.52-.74.68,0,1.3.14,1.84.41.54.27.97.66,1.28,1.15.31.49.46,1.05.46,1.69,0,.55-.26.83-.77.83h-5.18c-.23,0-.4.07-.5.2-.1.13-.15.38-.15.73,0,.73.17,1.4.5,2.01.33.61.77,1.1,1.33,1.46.55.37,1.16.55,1.82.55.5,0,.95-.1,1.36-.29.41-.19.79-.46,1.14-.81.05-.07.1-.12.14-.15.04-.03.09-.05.14-.05.15,0,.22.09.22.27,0,.27-.12.58-.35.95-.23.35-.53.67-.89.96s-.77.52-1.25.7c-.47.18-1,.26-1.56.26ZM405.66,116.07h2c.43,0,.78,0,1.03-.02s.48-.05.7-.1c.08-.03.14-.1.18-.21.03-.11.05-.25.05-.41,0-.47-.19-.86-.58-1.19-.38-.33-.84-.49-1.38-.49-.37,0-.73.11-1.09.33-.36.22-.65.49-.89.81-.23.33-.34.65-.33.99,0,.2.1.3.3.3Z"/><path d="M413.22,123.42c-.13,0-.25-.03-.34-.08-.09-.05-.14-.12-.14-.23,0-.13.05-.23.16-.29.11-.06.23-.1.36-.14.38-.1.67-.21.85-.33.18-.12.27-.32.27-.62v-5.4c0-.5-.08-.9-.25-1.21-.17-.31-.46-.5-.88-.56-.08-.02-.15-.05-.19-.11-.04-.06-.06-.15-.06-.26,0-.2.08-.31.23-.33.73-.17,1.36-.39,1.89-.66.52-.27.92-.5,1.19-.66.18-.12.32-.18.4-.18.13,0,.2.07.2.2,0,.18-.02.48-.06.88-.04.4-.08.83-.12,1.3-.04.47-.06.9-.06,1.3v5.7c0,.27.09.47.28.6.18.13.47.25.85.35.13.03.25.08.36.14.11.06.16.15.16.29,0,.2-.15.3-.45.3-.32,0-.6-.01-.85-.04s-.49-.05-.71-.06c-.23-.02-.49-.02-.79-.02-.28,0-.54,0-.77.02s-.46.04-.69.06c-.23.02-.5.04-.84.04ZM415.47,110.65c-.42,0-.77-.15-1.06-.44-.29-.29-.44-.65-.44-1.06s.15-.8.44-1.09c.29-.29.65-.44,1.06-.44s.8.15,1.1.44c.3.29.45.65.45,1.09s-.15.77-.45,1.06c-.3.29-.67.44-1.1.44Z"/><path d="M423.23,123.7c-.92,0-1.62-.26-2.11-.77-.49-.52-.74-1.28-.74-2.28v-5.8c0-.13-.05-.23-.16-.29-.11-.06-.32-.09-.64-.09h-.2c-.1,0-.18-.07-.25-.21-.07-.14-.1-.28-.1-.41,0-.03.02-.08.06-.14.04-.06.08-.1.11-.11.35-.22.7-.45,1.04-.71.34-.26.66-.52.95-.79.29-.27.54-.5.74-.7.1-.08.18-.16.25-.22.07-.07.15-.1.25-.1s.19.02.26.07c.07.05.1.15.09.3l-.15,1.23c-.02.2.03.33.14.4.11.07.26.1.46.1h2.9s.1.06.15.17c.05.12.08.23.08.35,0,.18-.03.36-.08.52-.05.17-.11.25-.17.25h-2.42c-.42,0-.69.04-.81.12-.12.08-.19.27-.19.58v4.85c0,.7.14,1.24.42,1.61s.68.56,1.2.56c.48,0,.85-.04,1.1-.12s.48-.18.67-.3c.05-.03.09-.05.12-.05.08,0,.14.04.16.12.02.08.04.17.04.27s-.15.27-.45.52c-.3.25-.69.49-1.17.71-.48.22-1,.34-1.55.34Z"/><path d="M429.01,130.45c-.37,0-.71-.1-1.02-.31-.32-.21-.48-.5-.48-.89,0-.32.08-.6.23-.85.15-.25.38-.38.67-.38.22,0,.43.03.64.09.21.06.4.09.56.09.17-.02.29-.05.38-.11.08-.06.17-.16.25-.31.17-.27.35-.58.54-.94s.4-.77.61-1.24c.22-.47.44-.99.67-1.58.1-.25.15-.52.15-.8,0-.17-.02-.33-.05-.48-.03-.15-.08-.3-.15-.45l-2.95-7.2c-.13-.32-.29-.59-.47-.83-.18-.23-.42-.39-.7-.47-.13-.07-.25-.13-.36-.2-.11-.07-.16-.17-.16-.3,0-.1.07-.16.2-.19.13-.03.24-.04.33-.04.37,0,.65,0,.85.02.2.02.38.03.55.05.17.02.38.03.65.03.32,0,.57,0,.75-.03.18-.02.38-.03.59-.05.21-.02.49-.02.84-.02.12,0,.23.02.35.06.12.04.17.11.17.21,0,.13-.08.25-.22.34-.15.09-.29.16-.42.21-.18.05-.32.14-.41.26s-.14.32-.14.59c0,.12.03.25.08.4.05.15.11.3.17.45l1.85,4.58c.03.08.08.12.12.12.03,0,.07-.04.1-.12l1.58-4.33c.05-.12.09-.27.12-.46.03-.19.05-.35.05-.49,0-.3-.06-.52-.17-.66-.12-.14-.25-.25-.4-.31-.13-.07-.28-.15-.44-.24-.16-.09-.24-.2-.24-.34,0-.1.06-.17.19-.21s.24-.06.34-.06c.3,0,.58.02.83.05.25.03.57.05.95.05.27,0,.48,0,.62-.03.15-.02.29-.03.43-.05.13-.02.31-.02.52-.02.08,0,.19.01.33.04.13.02.2.09.2.19,0,.13-.05.23-.16.3-.11.07-.23.13-.36.2-.27.08-.54.27-.81.57-.27.3-.5.65-.66,1.05l-3.53,8.4c-.05.15-.15.42-.31.8s-.35.83-.56,1.35-.45,1.06-.69,1.64c-.24.57-.48,1.13-.71,1.66-.17.38-.41.68-.74.88-.32.2-.7.3-1.11.3Z"/><path d="M439.91,123.85c-.43,0-.81-.16-1.12-.48-.32-.32-.48-.69-.48-1.12,0-.47.16-.85.48-1.16.32-.31.69-.46,1.12-.46s.83.15,1.14.46c.31.31.46.7.46,1.16,0,.43-.15.81-.46,1.12-.31.32-.69.48-1.14.48Z"/></g><g id="f"><path d="M72.04,123.47c-.2,0-.37-.03-.5-.09s-.2-.15-.2-.26c0-.13.07-.24.2-.32s.32-.17.55-.25c.45-.13.86-.33,1.23-.6s.67-.68.9-1.23c.45-1.02.87-1.99,1.25-2.91.38-.92.75-1.84,1.1-2.74s.71-1.83,1.08-2.79c.37-.96.74-1.98,1.12-3.06.15-.38.26-.7.32-.96s.11-.49.12-.69c.22-.05.42-.1.6-.16.18-.06.38-.15.6-.26.2-.1.35-.25.46-.44.11-.19.2-.33.26-.41.03-.02.07-.03.11-.04s.08.02.11.09c.05.08.09.17.11.27s.05.21.09.33c.38,1.22.78,2.45,1.19,3.71.41,1.26.81,2.49,1.21,3.69.4,1.2.78,2.31,1.12,3.34.35,1.02.65,1.92.9,2.69.18.55.4.97.65,1.26s.52.51.8.65c.28.14.59.25.93.31.25.05.44.12.56.23s.19.22.19.35c0,.1-.06.17-.19.21s-.28.06-.46.06c-.27,0-.62-.01-1.05-.04-.43-.02-.88-.05-1.35-.06-.47-.02-.89-.02-1.27-.02h-1.05c-.38,0-.75,0-1.09.02s-.64.02-.89.02c-.2,0-.36-.03-.49-.09-.12-.06-.19-.14-.19-.24,0-.13.08-.24.23-.33.15-.08.33-.14.52-.17.57-.1.98-.25,1.24-.45.26-.2.36-.47.31-.8-.02-.28-.08-.64-.18-1.06-.1-.43-.22-.88-.35-1.35-.13-.48-.26-.91-.38-1.31-.03-.13-.09-.22-.18-.25-.08-.03-.23-.05-.42-.05h-4.62c-.08,0-.16.03-.23.09-.07.06-.13.17-.2.34-.05.2-.13.45-.24.76-.11.31-.21.63-.31.98-.1.34-.19.66-.26.95-.07.29-.12.5-.14.64-.05.42.05.75.31.99.26.24.65.43,1.16.56.5.13.75.3.75.5,0,.12-.06.2-.19.24s-.29.06-.49.06c-.32,0-.68,0-1.1-.02s-.86-.02-1.32-.02c-.53,0-1.05.02-1.55.07-.5.05-.97.08-1.42.08ZM77.96,116.25h3.65c.23,0,.35-.04.35-.12,0-.05,0-.09-.01-.12,0-.03-.02-.08-.04-.15l-1.85-5.92c-.08-.27-.15-.4-.2-.4-.03,0-.09.12-.18.38l-2.17,5.95c-.03.1-.05.17-.05.2,0,.08.05.14.14.16.09.03.21.04.36.04Z"/><path d="M90.74,123.42c-.15,0-.27-.03-.36-.08-.09-.05-.14-.12-.14-.23,0-.13.05-.23.16-.29.11-.06.25-.11.41-.16.35-.08.6-.2.74-.35s.21-.35.21-.6v-5.5c0-.42-.06-.77-.17-1.06-.12-.29-.37-.48-.75-.56-.07-.02-.13-.06-.19-.12-.06-.07-.09-.15-.09-.25,0-.18.08-.3.25-.35.47-.13.97-.32,1.5-.56.53-.24.97-.45,1.3-.64.1-.07.19-.12.27-.15.08-.03.14-.05.18-.05.12,0,.17.07.17.2,0,.07,0,.21-.01.42,0,.22-.02.46-.04.73-.02.27-.02.52-.02.77,0,.07.02.1.05.1.27-.33.56-.64.89-.93.32-.28.67-.51,1.04-.69.37-.17.72-.26,1.05-.26.43,0,.77.09,1,.26.23.18.35.4.35.69,0,.18-.05.4-.16.64-.11.24-.25.45-.43.62-.17.17-.36.26-.56.26-.12,0-.24-.03-.38-.09-.13-.06-.27-.12-.42-.19-.13-.07-.27-.13-.41-.19-.14-.06-.28-.09-.41-.09-.42,0-.8.15-1.15.45-.35.3-.52.88-.52,1.75v4.7c0,.27.11.48.33.62.22.15.54.29.97.43.18.05.33.1.43.16s.15.15.15.26c0,.2-.16.3-.48.3-.5,0-.93-.02-1.29-.06-.36-.04-.75-.06-1.19-.06-.28,0-.53,0-.75.02s-.44.04-.67.06-.52.04-.85.04Z"/><path d="M103.98,123.7c-.92,0-1.62-.26-2.11-.77-.49-.52-.74-1.28-.74-2.28v-5.8c0-.13-.05-.23-.16-.29-.11-.06-.32-.09-.64-.09h-.2c-.1,0-.18-.07-.25-.21-.07-.14-.1-.28-.1-.41,0-.03.02-.08.06-.14.04-.06.08-.1.11-.11.35-.22.7-.45,1.04-.71.34-.26.66-.52.95-.79s.54-.5.74-.7c.1-.08.18-.16.25-.22.07-.07.15-.1.25-.1s.19.02.26.07c.08.05.1.15.09.3l-.15,1.23c-.02.2.03.33.14.4.11.07.26.1.46.1h2.9c.05,0,.1.06.15.17.05.12.08.23.08.35,0,.18-.02.36-.08.52-.05.17-.11.25-.17.25h-2.42c-.42,0-.69.04-.81.12-.12.08-.19.27-.19.58v4.85c0,.7.14,1.24.42,1.61.28.38.68.56,1.2.56.48,0,.85-.04,1.1-.12s.48-.18.68-.3c.05-.03.09-.05.12-.05.08,0,.14.04.16.12.02.08.04.17.04.27s-.15.27-.45.52c-.3.25-.69.49-1.18.71-.48.22-1,.34-1.55.34Z"/><path d="M108.68,123.42c-.13,0-.25-.03-.34-.08-.09-.05-.14-.12-.14-.23,0-.13.05-.23.16-.29.11-.06.23-.1.36-.14.38-.1.67-.21.85-.33.18-.12.27-.32.27-.62v-5.4c0-.5-.08-.9-.25-1.21-.17-.31-.46-.5-.88-.56-.08-.02-.15-.05-.19-.11-.04-.06-.06-.15-.06-.26,0-.2.07-.31.23-.33.73-.17,1.36-.39,1.89-.66.52-.27.92-.5,1.19-.66.18-.12.32-.18.4-.18.13,0,.2.07.2.2,0,.18-.02.48-.06.88-.04.4-.08.83-.12,1.3-.04.47-.06.9-.06,1.3v5.7c0,.27.09.47.27.6.18.13.47.25.85.35.13.03.25.08.36.14.11.06.16.15.16.29,0,.2-.15.3-.45.3-.32,0-.6-.01-.85-.04s-.49-.05-.71-.06c-.23-.02-.49-.02-.79-.02-.28,0-.54,0-.77.02-.23.02-.46.04-.69.06-.23.02-.5.04-.84.04ZM110.93,110.65c-.42,0-.77-.15-1.06-.44-.29-.29-.44-.65-.44-1.06s.15-.8.44-1.09c.29-.29.65-.44,1.06-.44s.8.15,1.1.44c.3.29.45.65.45,1.09s-.15.77-.45,1.06c-.3.29-.67.44-1.1.44Z"/><path d="M118.11,123.7c-.53,0-1.04-.08-1.51-.23s-.89-.37-1.24-.65c-.12-.22-.2-.56-.25-1.02-.05-.47-.07-.89-.07-1.28,0-.17.12-.25.38-.25.1,0,.19.02.26.06.08.04.12.1.14.16.25.78.6,1.38,1.05,1.77.45.4.94.6,1.48.6.47,0,.85-.15,1.15-.46.3-.31.45-.68.45-1.11s-.16-.83-.48-1.14c-.32-.31-.8-.66-1.45-1.06-.53-.32-.99-.63-1.38-.94-.38-.31-.68-.65-.88-1.02-.2-.38-.3-.8-.3-1.29,0-.58.15-1.1.44-1.55.29-.45.7-.81,1.24-1.08.53-.27,1.17-.4,1.92-.4.53,0,.99.05,1.36.16s.65.22.81.34c.13.18.25.48.34.9.09.42.14.83.14,1.25,0,.13-.11.2-.32.2-.1,0-.2-.03-.31-.08-.11-.05-.18-.12-.21-.2-.22-.58-.49-1.02-.81-1.32-.32-.3-.72-.45-1.19-.45-.4,0-.76.12-1.07.36-.32.24-.48.59-.48,1.04,0,.38.14.72.41,1.01.27.29.71.6,1.31.94,1,.55,1.74,1.07,2.21,1.56.48.49.71,1.15.71,1.96,0,.97-.35,1.74-1.04,2.33-.69.58-1.63.88-2.81.88Z"/><path d="M125.78,123.7c-.35,0-.69-.11-1.02-.34-.33-.23-.61-.51-.83-.85-.22-.34-.32-.68-.32-1.01,0-.55.15-.99.46-1.32.31-.33.79-.63,1.44-.9l2.42-1.02c.33-.13.53-.25.6-.36.07-.11.11-.33.12-.66l.05-1.52c.02-.45-.09-.83-.33-1.12-.23-.3-.58-.45-1.02-.45-.23,0-.47.05-.71.14-.24.09-.44.2-.59.31-.08.07-.14.16-.16.27-.03.12-.04.24-.04.38,0,.08,0,.18.01.29s.01.2.01.26c0,.1-.11.22-.34.36s-.48.27-.77.39c-.29.12-.54.18-.74.18-.1,0-.18-.03-.24-.09-.06-.06-.09-.14-.09-.24,0-.27.09-.55.26-.84.18-.29.44-.59.79-.89.4-.35.84-.66,1.31-.94.48-.27.94-.49,1.4-.64s.86-.23,1.21-.23c.7,0,1.27.24,1.71.71.44.48.65,1.09.61,1.84l-.12,5.65c-.02.37.06.67.23.9.17.23.38.35.62.35.38,0,.68-.1.9-.3.07-.07.12-.1.17-.1.08,0,.15.03.21.08.06.05.09.12.09.2,0,.2-.12.41-.35.62-.28.28-.59.5-.91.66-.32.16-.64.24-.94.24-.83,0-1.5-.45-2-1.35h-.07c-.55.47-1.07.81-1.55,1.02s-.98.33-1.5.33ZM127.08,122.35c.28,0,.52-.05.71-.14.19-.09.36-.22.51-.39.08-.08.15-.19.19-.31s.07-.32.09-.59l.05-1.43c.02-.17,0-.29-.02-.36-.03-.08-.1-.11-.2-.11-.03,0-.08,0-.15.03-.07.02-.16.05-.27.1-.75.28-1.27.58-1.58.89-.3.31-.45.65-.45,1.01,0,.45.12.78.36.99.24.21.5.31.76.31Z"/><path d="M134.6,123.42c-.13,0-.25-.03-.35-.08s-.15-.12-.15-.23c0-.13.05-.23.16-.29.11-.06.25-.11.41-.16.25-.07.48-.16.7-.28.22-.12.32-.34.32-.67v-5.5c0-.42-.05-.77-.14-1.06-.09-.29-.34-.49-.74-.59-.07-.02-.12-.05-.17-.11-.05-.06-.08-.14-.08-.24,0-.22.08-.33.23-.35.58-.15,1.11-.33,1.59-.55.48-.22.91-.46,1.31-.73.05-.03.1-.07.16-.1.06-.03.11-.05.16-.05.07,0,.11.02.14.06.02.04.04.1.04.16,0,.12-.02.34-.06.67-.04.33-.06.62-.06.85,0,.07,0,.13.01.2,0,.07.02.11.04.12.58-.55,1.19-.97,1.81-1.25.62-.28,1.33-.42,2.11-.42.83,0,1.52.33,2.08.98.55.65.82,1.49.82,2.52v5.4c0,.33.11.55.34.65.22.1.46.19.71.28.13.05.26.11.38.17.12.07.17.17.17.3,0,.12-.05.19-.16.23s-.21.05-.31.05c-.33,0-.61-.01-.84-.04s-.44-.05-.65-.06c-.21-.02-.46-.02-.76-.02-.28,0-.53,0-.75.02s-.44.04-.66.06c-.23.02-.5.04-.84.04-.08,0-.18-.02-.3-.05-.12-.03-.17-.11-.17-.23,0-.13.06-.23.17-.3.12-.07.24-.12.38-.17.25-.08.48-.18.7-.28.22-.1.32-.32.32-.65v-5.17c0-.7-.19-1.24-.56-1.62s-.86-.58-1.46-.6c-.52,0-.97.08-1.36.24-.39.16-.75.37-1.09.64-.07.07-.12.15-.15.25-.03.1-.05.19-.05.27v6c0,.33.11.55.32.66s.44.2.68.26c.37.12.55.27.55.45,0,.1-.04.18-.12.23s-.2.08-.35.08c-.33,0-.61-.01-.84-.04s-.43-.05-.62-.06c-.19-.02-.44-.02-.74-.02-.28,0-.53,0-.75.02-.22.02-.44.04-.68.06s-.52.04-.85.04Z"/><path d="M150.91,123.7c-.53,0-1.04-.08-1.51-.23s-.89-.37-1.24-.65c-.12-.22-.2-.56-.25-1.02-.05-.47-.07-.89-.07-1.28,0-.17.12-.25.38-.25.1,0,.19.02.26.06.08.04.12.1.14.16.25.78.6,1.38,1.05,1.77.45.4.94.6,1.48.6.47,0,.85-.15,1.15-.46.3-.31.45-.68.45-1.11s-.16-.83-.48-1.14c-.32-.31-.8-.66-1.45-1.06-.53-.32-.99-.63-1.38-.94-.38-.31-.68-.65-.88-1.02-.2-.38-.3-.8-.3-1.29,0-.58.15-1.1.44-1.55.29-.45.7-.81,1.24-1.08.53-.27,1.17-.4,1.92-.4.53,0,.99.05,1.36.16s.65.22.81.34c.13.18.25.48.34.9.09.42.14.83.14,1.25,0,.13-.11.2-.32.2-.1,0-.2-.03-.31-.08-.11-.05-.18-.12-.21-.2-.22-.58-.49-1.02-.81-1.32-.32-.3-.72-.45-1.19-.45-.4,0-.76.12-1.07.36-.32.24-.48.59-.48,1.04,0,.38.14.72.41,1.01.27.29.71.6,1.31.94,1,.55,1.74,1.07,2.21,1.56.48.49.71,1.15.71,1.96,0,.97-.35,1.74-1.04,2.33-.69.58-1.63.88-2.81.88Z"/><path d="M156.27,123.42c-.33,0-.5-.1-.5-.3,0-.17.19-.32.57-.45.25-.08.48-.18.7-.3.22-.12.32-.35.32-.7v-12.33c0-.45-.07-.85-.2-1.19-.13-.34-.42-.55-.85-.61-.15-.03-.23-.16-.23-.38,0-.17.07-.28.2-.33.28-.08.62-.18,1.01-.3s.78-.25,1.16-.39.71-.27.98-.39c.1-.03.17-.05.23-.05.07,0,.12.02.15.06.03.04.05.1.05.16,0,.08-.02.21-.05.39-.03.18-.07.45-.1.83-.03.38-.05.9-.05,1.59v4.85c0,.23.01.41.04.54.02.12.06.23.11.31.27-.2.59-.43.96-.68s.8-.47,1.27-.65c.48-.18.98-.27,1.51-.27.85,0,1.55.32,2.11.95s.84,1.47.84,2.5v5.32c0,.33.1.57.31.71.21.14.44.25.69.34.17.07.3.13.4.19s.15.15.15.26c0,.2-.17.3-.52.3s-.62-.01-.83-.04c-.2-.02-.39-.05-.57-.06-.18-.02-.43-.02-.75-.02s-.56,0-.74.02c-.17.02-.36.04-.55.06-.19.02-.47.04-.84.04s-.53-.1-.53-.3c0-.13.05-.23.15-.27.1-.05.23-.11.4-.17.23-.07.45-.18.65-.33s.3-.4.3-.75v-5.05c0-.4-.11-.76-.32-1.09-.22-.32-.48-.58-.79-.76-.31-.18-.63-.27-.96-.27-.3,0-.64.04-1.01.12s-.69.22-.94.42c-.22.17-.36.35-.44.54-.07.19-.11.5-.11.94v5.23c.02.33.12.56.3.69.18.12.39.23.62.31.17.05.3.11.4.17.1.07.15.16.15.27,0,.2-.17.3-.5.3s-.6-.01-.81-.04c-.21-.02-.41-.05-.6-.06-.19-.02-.44-.02-.74-.02-.28,0-.53,0-.74.02-.21.02-.42.04-.65.06s-.5.04-.84.04Z"/><path d="M169.9,123.42c-.13,0-.25-.03-.34-.08-.09-.05-.14-.12-.14-.23,0-.13.05-.23.16-.29.11-.06.23-.1.36-.14.38-.1.67-.21.85-.33.18-.12.27-.32.27-.62v-5.4c0-.5-.08-.9-.25-1.21-.17-.31-.46-.5-.88-.56-.08-.02-.15-.05-.19-.11-.04-.06-.06-.15-.06-.26,0-.2.07-.31.23-.33.73-.17,1.36-.39,1.89-.66.53-.27.92-.5,1.19-.66.18-.12.32-.18.4-.18.13,0,.2.07.2.2,0,.18-.02.48-.06.88-.04.4-.08.83-.12,1.3-.04.47-.06.9-.06,1.3v5.7c0,.27.09.47.27.6.18.13.47.25.85.35.13.03.25.08.36.14.11.06.16.15.16.29,0,.2-.15.3-.45.3-.32,0-.6-.01-.85-.04s-.49-.05-.71-.06c-.23-.02-.49-.02-.79-.02-.28,0-.54,0-.77.02-.23.02-.46.04-.69.06-.23.02-.5.04-.84.04ZM172.15,110.65c-.42,0-.77-.15-1.06-.44-.29-.29-.44-.65-.44-1.06s.15-.8.44-1.09c.29-.29.65-.44,1.06-.44s.8.15,1.1.44c.3.29.45.65.45,1.09s-.15.77-.45,1.06c-.3.29-.67.44-1.1.44Z"/><path d="M175.97,130.27c-.1,0-.21-.02-.34-.06s-.19-.11-.19-.21c0-.13.06-.23.17-.3.12-.07.25-.12.4-.18.28-.08.53-.18.73-.3.2-.12.3-.33.3-.65v-12.43c0-.15-.04-.35-.11-.6s-.2-.48-.36-.7c-.17-.22-.38-.34-.62-.38-.08-.03-.15-.08-.19-.14-.04-.06-.06-.14-.06-.24s.02-.18.06-.24c.04-.06.1-.1.16-.11.6-.15,1.17-.32,1.7-.5.53-.18,1.01-.38,1.42-.57.05,0,.09-.01.11-.04.03-.02.05-.04.09-.04.05,0,.09.03.12.09.03.06.05.11.05.16,0,.15-.02.38-.06.7-.04.32-.06.58-.06.8,0,.13,0,.21.03.23.17-.17.47-.38.9-.64.43-.26.93-.5,1.5-.71.57-.22,1.11-.33,1.62-.33.87,0,1.61.23,2.23.7.62.47,1.09,1.07,1.42,1.8.33.73.5,1.49.5,2.28s-.15,1.51-.44,2.22c-.29.72-.7,1.36-1.23,1.94-.52.58-1.13,1.03-1.81,1.38-.68.34-1.42.51-2.22.51-.22,0-.47-.03-.78-.09-.3-.06-.6-.14-.89-.25-.29-.11-.52-.23-.69-.36-.02,0-.03.07-.05.21-.02.14-.03.29-.04.45,0,.16-.01.27-.01.34v4.48c0,.22.08.39.23.52.15.13.33.24.54.31.21.08.42.15.64.21.15.05.28.1.4.16.12.06.18.15.18.29,0,.1-.06.17-.18.21-.12.04-.23.06-.35.06-.48,0-.92-.02-1.33-.06-.4-.04-.82-.06-1.25-.06-.28,0-.53,0-.75.03-.22.02-.44.04-.66.06-.23.02-.5.04-.84.04ZM182.02,122.82c.23,0,.51-.07.83-.21s.64-.38.96-.71c.33-.33.6-.77.81-1.32.22-.55.33-1.23.33-2.05,0-.95-.11-1.71-.34-2.27-.22-.57-.5-1-.84-1.29-.33-.29-.67-.49-1.01-.59-.34-.1-.63-.15-.86-.15-.37,0-.75.08-1.14.24-.39.16-.72.34-.98.54-.26.2-.39.36-.39.48,0,.3,0,.64-.01,1.01,0,.38-.02.76-.03,1.15,0,.39-.01.75-.01,1.06v.67c0,.57.13,1.12.39,1.65.26.53.59.97,1,1.3s.84.5,1.29.5Z"/><path d="M194.82,123.42c-.13,0-.25-.03-.34-.08-.09-.05-.14-.12-.14-.23,0-.13.05-.23.16-.29.11-.06.23-.1.36-.14.38-.1.67-.21.85-.33.18-.12.28-.32.28-.62v-5.4c0-.5-.08-.9-.25-1.21-.17-.31-.46-.5-.88-.56-.08-.02-.15-.05-.19-.11-.04-.06-.06-.15-.06-.26,0-.2.07-.31.22-.33.73-.17,1.36-.39,1.89-.66.52-.27.92-.5,1.19-.66.18-.12.32-.18.4-.18.13,0,.2.07.2.2,0,.18-.02.48-.06.88s-.08.83-.12,1.3c-.04.47-.06.9-.06,1.3v5.7c0,.27.09.47.28.6.18.13.47.25.85.35.13.03.25.08.36.14.11.06.16.15.16.29,0,.2-.15.3-.45.3-.32,0-.6-.01-.85-.04s-.49-.05-.71-.06-.49-.02-.79-.02c-.28,0-.54,0-.78.02s-.46.04-.69.06-.5.04-.84.04ZM197.07,110.65c-.42,0-.77-.15-1.06-.44s-.44-.65-.44-1.06.15-.8.44-1.09c.29-.29.65-.44,1.06-.44s.8.15,1.1.44c.3.29.45.65.45,1.09s-.15.77-.45,1.06c-.3.29-.67.44-1.1.44Z"/><path d="M201.71,123.42c-.13,0-.25-.03-.35-.08-.1-.05-.15-.12-.15-.23,0-.13.05-.23.16-.29.11-.06.25-.11.41-.16.25-.07.48-.16.7-.28.22-.12.33-.34.33-.67v-5.5c0-.42-.05-.77-.14-1.06-.09-.29-.34-.49-.74-.59-.07-.02-.12-.05-.17-.11-.05-.06-.08-.14-.08-.24,0-.22.08-.33.22-.35.58-.15,1.11-.33,1.59-.55.47-.22.91-.46,1.31-.73.05-.03.1-.07.16-.1.06-.03.11-.05.16-.05.07,0,.11.02.14.06.02.04.04.1.04.16,0,.12-.02.34-.06.67-.04.33-.06.62-.06.85,0,.07,0,.13.01.2,0,.07.02.11.04.12.58-.55,1.19-.97,1.81-1.25.62-.28,1.33-.42,2.11-.42.83,0,1.53.33,2.08.98s.83,1.49.83,2.52v5.4c0,.33.11.55.34.65.22.1.46.19.71.28.13.05.26.11.38.17.12.07.17.17.17.3,0,.12-.05.19-.16.23s-.21.05-.31.05c-.33,0-.61-.01-.84-.04-.22-.02-.44-.05-.65-.06-.21-.02-.46-.02-.76-.02-.28,0-.53,0-.75.02s-.44.04-.66.06c-.23.02-.5.04-.84.04-.08,0-.18-.02-.3-.05-.12-.03-.17-.11-.17-.23,0-.13.06-.23.17-.3.12-.07.24-.12.38-.17.25-.08.48-.18.7-.28.22-.1.32-.32.32-.65v-5.17c0-.7-.19-1.24-.56-1.62s-.86-.58-1.46-.6c-.52,0-.97.08-1.36.24-.39.16-.75.37-1.09.64-.07.07-.12.15-.15.25s-.05.19-.05.27v6c0,.33.11.55.33.66s.44.2.67.26c.37.12.55.27.55.45,0,.1-.04.18-.12.23-.08.05-.2.08-.35.08-.33,0-.61-.01-.84-.04-.22-.02-.43-.05-.62-.06s-.44-.02-.74-.02c-.28,0-.53,0-.75.02s-.44.04-.67.06-.52.04-.85.04Z"/><path d="M222.71,123.7c-.35,0-.69-.11-1.03-.34-.33-.23-.61-.51-.83-.85-.22-.34-.32-.68-.32-1.01,0-.55.15-.99.46-1.32s.79-.63,1.44-.9l2.43-1.02c.33-.13.53-.25.6-.36s.11-.33.12-.66l.05-1.52c.02-.45-.09-.83-.33-1.12-.23-.3-.57-.45-1.03-.45-.23,0-.47.05-.71.14-.24.09-.44.2-.59.31-.08.07-.14.16-.16.27-.03.12-.04.24-.04.38,0,.08,0,.18.01.29,0,.11.01.2.01.26,0,.1-.11.22-.34.36-.23.14-.48.27-.78.39-.29.12-.54.18-.74.18-.1,0-.18-.03-.24-.09-.06-.06-.09-.14-.09-.24,0-.27.09-.55.26-.84.17-.29.44-.59.79-.89.4-.35.84-.66,1.31-.94.48-.27.94-.49,1.4-.64s.86-.23,1.21-.23c.7,0,1.27.24,1.71.71.44.48.64,1.09.61,1.84l-.12,5.65c-.02.37.06.67.22.9.17.23.38.35.62.35.38,0,.68-.1.9-.3.07-.07.12-.1.18-.1.08,0,.15.03.21.08.06.05.09.12.09.2,0,.2-.12.41-.35.62-.28.28-.59.5-.91.66s-.64.24-.94.24c-.83,0-1.5-.45-2-1.35h-.07c-.55.47-1.07.81-1.55,1.02-.48.22-.98.33-1.5.33ZM224.01,122.35c.28,0,.52-.05.71-.14.19-.09.36-.22.51-.39.08-.08.14-.19.19-.31.04-.12.07-.32.09-.59l.05-1.43c.02-.17,0-.29-.03-.36-.03-.08-.1-.11-.2-.11-.03,0-.08,0-.15.03s-.16.05-.28.1c-.75.28-1.27.58-1.57.89-.3.31-.45.65-.45,1.01,0,.45.12.78.36.99.24.21.5.31.76.31Z"/><path d="M238.89,123.82s-.09-.04-.17-.12c-.08-.08-.12-.14-.12-.18.02-.2.04-.44.08-.72.03-.28.05-.53.05-.73v-.15c-.28.43-.7.84-1.26,1.21s-1.23.56-2.01.56c-.95,0-1.77-.25-2.47-.74-.7-.49-1.25-1.13-1.64-1.91s-.59-1.62-.59-2.5c0-1.02.23-1.96.7-2.83.47-.87,1.13-1.56,2-2.09.87-.52,1.88-.79,3.05-.79.3,0,.61.03.94.09.32.06.58.12.76.19.18.05.29.08.33.08.12,0,.17-.18.17-.52v-3.33c0-.65-.1-1.1-.3-1.35s-.49-.41-.88-.48c-.17-.03-.25-.15-.25-.35,0-.17.08-.28.23-.33.7-.17,1.3-.34,1.8-.52.5-.18.9-.33,1.2-.45.12-.07.21-.1.27-.11s.12-.01.15-.01c.13,0,.2.07.2.2,0,.05,0,.18-.03.4-.02.22-.04.52-.08.92-.03.4-.05.89-.05,1.48l-.05,11.77c0,.57.04.98.12,1.23.08.25.22.38.42.38.08,0,.21,0,.38-.02.17-.02.39-.03.67-.05.27-.02.4.07.4.25,0,.12-.04.23-.12.34-.08.11-.17.16-.25.16-.52.07-1.04.17-1.56.3-.53.13-1.08.33-1.66.58-.13.07-.22.11-.27.12-.05.02-.1.02-.15.02ZM236.46,122.25c.37,0,.75-.1,1.16-.29.41-.19.75-.45,1.04-.76v-4.88c0-.38-.12-.77-.36-1.16-.24-.39-.57-.71-.99-.95-.42-.24-.89-.36-1.42-.36-.38,0-.79.13-1.22.39-.43.26-.8.69-1.1,1.29-.3.6-.45,1.41-.45,2.43,0,.85.12,1.55.35,2.11.23.56.53,1,.89,1.31.36.32.73.54,1.11.68.38.13.72.2,1,.2Z"/><path d="M248.74,123.7c-.95,0-1.81-.22-2.59-.66-.77-.44-1.39-1.05-1.84-1.81s-.67-1.64-.67-2.62c0-.73.14-1.44.42-2.12.28-.68.68-1.3,1.2-1.85.52-.55,1.12-.99,1.8-1.31.68-.32,1.42-.49,2.2-.49.98,0,1.88.24,2.67.71s1.43,1.1,1.9,1.86c.47.77.7,1.61.7,2.53,0,1-.22,1.94-.65,2.82-.43.88-1.08,1.6-1.94,2.14-.86.54-1.93.81-3.21.81ZM249.27,122.82c.48,0,.92-.1,1.3-.29s.68-.49.9-.89c.2-.38.34-.85.41-1.41s.11-1.13.11-1.71c0-.83-.13-1.62-.4-2.35s-.63-1.33-1.1-1.78c-.47-.45-1.02-.67-1.65-.67-.38,0-.73.06-1.04.19s-.59.34-.84.64c-.32.38-.52.88-.62,1.49-.1.61-.15,1.27-.15,1.99,0,.8.13,1.57.4,2.3s.63,1.33,1.09,1.8c.46.47.99.7,1.59.7Z"/><path d="M256.15,123.42c-.15,0-.27-.03-.36-.08s-.14-.12-.14-.23c0-.13.05-.23.16-.29.11-.06.25-.11.41-.16.35-.08.6-.2.74-.35.14-.15.21-.35.21-.6v-5.5c0-.42-.06-.77-.17-1.06-.12-.29-.37-.48-.75-.56-.07-.02-.13-.06-.19-.12-.06-.07-.09-.15-.09-.25,0-.18.08-.3.25-.35.47-.13.97-.32,1.5-.56.53-.24.97-.45,1.3-.64.1-.07.19-.12.27-.15.08-.03.14-.05.17-.05.12,0,.18.07.18.2,0,.07,0,.21-.01.42,0,.22-.02.46-.04.73s-.02.52-.02.77c0,.07.02.1.05.1.27-.33.56-.64.89-.93.33-.28.67-.51,1.04-.69.37-.17.72-.26,1.05-.26.43,0,.77.09,1,.26.23.18.35.4.35.69,0,.18-.05.4-.16.64-.11.24-.25.45-.42.62s-.36.26-.56.26c-.12,0-.24-.03-.38-.09-.13-.06-.27-.12-.42-.19-.13-.07-.27-.13-.41-.19-.14-.06-.28-.09-.41-.09-.42,0-.8.15-1.15.45-.35.3-.53.88-.53,1.75v4.7c0,.27.11.48.33.62.22.15.54.29.97.43.18.05.33.1.42.16.1.06.15.15.15.26,0,.2-.16.3-.47.3-.5,0-.93-.02-1.29-.06-.36-.04-.75-.06-1.19-.06-.28,0-.53,0-.75.02s-.44.04-.67.06-.52.04-.85.04Z"/><path d="M266.95,123.7c-.35,0-.69-.11-1.03-.34-.33-.23-.61-.51-.83-.85-.22-.34-.33-.68-.33-1.01,0-.55.15-.99.46-1.32s.79-.63,1.44-.9l2.42-1.02c.33-.13.53-.25.6-.36.07-.11.11-.33.12-.66l.05-1.52c.02-.45-.09-.83-.33-1.12-.23-.3-.58-.45-1.03-.45-.23,0-.47.05-.71.14-.24.09-.44.2-.59.31-.08.07-.14.16-.16.27-.03.12-.04.24-.04.38,0,.08,0,.18.01.29s.01.2.01.26c0,.1-.11.22-.34.36-.22.14-.48.27-.77.39-.29.12-.54.18-.74.18-.1,0-.18-.03-.24-.09s-.09-.14-.09-.24c0-.27.09-.55.26-.84.17-.29.44-.59.79-.89.4-.35.84-.66,1.31-.94.47-.27.94-.49,1.4-.64.46-.15.86-.23,1.21-.23.7,0,1.27.24,1.71.71.44.48.65,1.09.61,1.84l-.12,5.65c-.02.37.06.67.22.9.17.23.38.35.62.35.38,0,.68-.1.9-.3.07-.07.12-.1.17-.1.08,0,.15.03.21.08.06.05.09.12.09.2,0,.2-.12.41-.35.62-.28.28-.59.5-.91.66-.33.16-.64.24-.94.24-.83,0-1.5-.45-2-1.35h-.08c-.55.47-1.07.81-1.55,1.02-.48.22-.98.33-1.5.33ZM268.25,122.35c.28,0,.52-.05.71-.14.19-.09.36-.22.51-.39.08-.08.15-.19.19-.31s.07-.32.09-.59l.05-1.43c.02-.17,0-.29-.03-.36-.03-.08-.1-.11-.2-.11-.03,0-.08,0-.15.03s-.16.05-.28.1c-.75.28-1.27.58-1.57.89-.3.31-.45.65-.45,1.01,0,.45.12.78.36.99.24.21.5.31.76.31Z"/><path d="M278.92,123.7c-.92,0-1.62-.26-2.11-.77-.49-.52-.74-1.28-.74-2.28v-5.8c0-.13-.05-.23-.16-.29-.11-.06-.32-.09-.64-.09h-.2c-.1,0-.18-.07-.25-.21-.07-.14-.1-.28-.1-.41,0-.03.02-.08.06-.14.04-.06.08-.1.11-.11.35-.22.7-.45,1.04-.71.34-.26.66-.52.95-.79.29-.27.54-.5.74-.7.1-.08.18-.16.25-.22.07-.07.15-.1.25-.1s.19.02.26.07c.07.05.1.15.09.3l-.15,1.23c-.02.2.03.33.14.4.11.07.26.1.46.1h2.9s.1.06.15.17c.05.12.08.23.08.35,0,.18-.03.36-.08.52-.05.17-.11.25-.17.25h-2.42c-.42,0-.69.04-.81.12-.12.08-.19.27-.19.58v4.85c0,.7.14,1.24.42,1.61s.68.56,1.2.56c.48,0,.85-.04,1.1-.12s.48-.18.67-.3c.05-.03.09-.05.12-.05.08,0,.14.04.16.12.02.08.04.17.04.27s-.15.27-.45.52c-.3.25-.69.49-1.17.71-.48.22-1,.34-1.55.34Z"/><path d="M283.62,123.42c-.13,0-.25-.03-.34-.08-.09-.05-.14-.12-.14-.23,0-.13.05-.23.16-.29.11-.06.23-.1.36-.14.38-.1.67-.21.85-.33.18-.12.27-.32.27-.62v-5.4c0-.5-.08-.9-.25-1.21-.17-.31-.46-.5-.88-.56-.08-.02-.15-.05-.19-.11-.04-.06-.06-.15-.06-.26,0-.2.08-.31.23-.33.73-.17,1.36-.39,1.89-.66.52-.27.92-.5,1.19-.66.18-.12.32-.18.4-.18.13,0,.2.07.2.2,0,.18-.02.48-.06.88-.04.4-.08.83-.12,1.3-.04.47-.06.9-.06,1.3v5.7c0,.27.09.47.28.6.18.13.47.25.85.35.13.03.25.08.36.14.11.06.16.15.16.29,0,.2-.15.3-.45.3-.32,0-.6-.01-.85-.04s-.49-.05-.71-.06c-.23-.02-.49-.02-.79-.02-.28,0-.54,0-.77.02s-.46.04-.69.06c-.23.02-.5.04-.84.04ZM285.87,110.65c-.42,0-.77-.15-1.06-.44-.29-.29-.44-.65-.44-1.06s.15-.8.44-1.09c.29-.29.65-.44,1.06-.44s.8.15,1.1.44c.3.29.45.65.45,1.09s-.15.77-.45,1.06c-.3.29-.67.44-1.1.44Z"/><path d="M294.67,123.7c-.95,0-1.81-.22-2.59-.66-.77-.44-1.39-1.05-1.84-1.81s-.67-1.64-.67-2.62c0-.73.14-1.44.42-2.12.28-.68.68-1.3,1.2-1.85.52-.55,1.12-.99,1.8-1.31.68-.32,1.42-.49,2.2-.49.98,0,1.88.24,2.67.71s1.43,1.1,1.9,1.86c.47.77.7,1.61.7,2.53,0,1-.22,1.94-.65,2.82-.43.88-1.08,1.6-1.94,2.14-.86.54-1.93.81-3.21.81ZM295.2,122.82c.48,0,.92-.1,1.3-.29s.68-.49.9-.89c.2-.38.34-.85.41-1.41s.11-1.13.11-1.71c0-.83-.13-1.62-.4-2.35s-.63-1.33-1.1-1.78c-.47-.45-1.02-.67-1.65-.67-.38,0-.73.06-1.04.19s-.59.34-.84.64c-.32.38-.52.88-.62,1.49-.1.61-.15,1.27-.15,1.99,0,.8.13,1.57.4,2.3s.63,1.33,1.09,1.8c.46.47.99.7,1.59.7Z"/><path d="M301.97,123.42c-.13,0-.25-.03-.35-.08-.1-.05-.15-.12-.15-.23,0-.13.05-.23.16-.29.11-.06.25-.11.41-.16.25-.07.48-.16.7-.28.22-.12.33-.34.33-.67v-5.5c0-.42-.05-.77-.14-1.06-.09-.29-.34-.49-.74-.59-.07-.02-.12-.05-.17-.11-.05-.06-.08-.14-.08-.24,0-.22.08-.33.23-.35.58-.15,1.11-.33,1.59-.55.48-.22.91-.46,1.31-.73.05-.03.1-.07.16-.1.06-.03.11-.05.16-.05.07,0,.11.02.14.06.02.04.04.1.04.16,0,.12-.02.34-.06.67-.04.33-.06.62-.06.85,0,.07,0,.13.01.2,0,.07.02.11.04.12.58-.55,1.19-.97,1.81-1.25.62-.28,1.33-.42,2.11-.42.83,0,1.52.33,2.07.98.55.65.83,1.49.83,2.52v5.4c0,.33.11.55.34.65.22.1.46.19.71.28.13.05.26.11.38.17.12.07.18.17.18.3,0,.12-.05.19-.16.23s-.21.05-.31.05c-.33,0-.61-.01-.84-.04-.23-.02-.44-.05-.65-.06-.21-.02-.46-.02-.76-.02-.28,0-.53,0-.75.02s-.44.04-.66.06c-.23.02-.5.04-.84.04-.08,0-.18-.02-.3-.05-.12-.03-.17-.11-.17-.23,0-.13.06-.23.17-.3.12-.07.24-.12.38-.17.25-.08.48-.18.7-.28.22-.1.33-.32.33-.65v-5.17c0-.7-.19-1.24-.56-1.62s-.86-.58-1.46-.6c-.52,0-.97.08-1.36.24-.39.16-.75.37-1.09.64-.07.07-.12.15-.15.25-.03.1-.05.19-.05.27v6c0,.33.11.55.33.66s.44.2.67.26c.37.12.55.27.55.45,0,.1-.04.18-.12.23-.08.05-.2.08-.35.08-.33,0-.61-.01-.84-.04-.23-.02-.43-.05-.62-.06-.19-.02-.44-.02-.74-.02-.28,0-.53,0-.75.02s-.44.04-.67.06-.52.04-.85.04Z"/><path d="M325.82,123.7c-.95,0-1.81-.22-2.59-.66-.77-.44-1.39-1.05-1.84-1.81s-.67-1.64-.67-2.62c0-.73.14-1.44.42-2.12.28-.68.68-1.3,1.2-1.85.52-.55,1.12-.99,1.8-1.31.68-.32,1.42-.49,2.2-.49.98,0,1.88.24,2.67.71s1.43,1.1,1.9,1.86c.47.77.7,1.61.7,2.53,0,1-.22,1.94-.65,2.82-.43.88-1.08,1.6-1.94,2.14-.86.54-1.93.81-3.21.81ZM326.35,122.82c.48,0,.92-.1,1.3-.29s.68-.49.9-.89c.2-.38.34-.85.41-1.41s.11-1.13.11-1.71c0-.83-.13-1.62-.4-2.35s-.63-1.33-1.1-1.78c-.47-.45-1.02-.67-1.65-.67-.38,0-.73.06-1.04.19s-.59.34-.84.64c-.32.38-.52.88-.62,1.49-.1.61-.15,1.27-.15,1.99,0,.8.13,1.57.4,2.3s.63,1.33,1.09,1.8c.46.47.99.7,1.59.7Z"/><path d="M333.32,123.42c-.15,0-.27-.03-.36-.08-.09-.05-.14-.12-.14-.23,0-.13.05-.23.15-.29.1-.06.23-.1.38-.14.42-.1.7-.23.85-.38.15-.15.22-.38.22-.7v-7.07c-.17,0-.36,0-.58-.01-.22,0-.46-.02-.72-.04-.07-.02-.14-.09-.22-.21-.08-.12-.12-.24-.12-.34,0-.03.02-.07.07-.1.05-.03.09-.06.12-.08.27-.13.51-.25.74-.36.22-.11.46-.22.71-.34.03-1.42.24-2.6.62-3.55.38-.95.87-1.7,1.46-2.26.59-.56,1.22-.96,1.88-1.2.66-.24,1.28-.36,1.86-.36,1,0,1.74.15,2.21.44.47.29.71.7.71,1.21,0,.35-.08.62-.25.81-.17.19-.38.29-.65.29-.15,0-.29-.06-.43-.19-.13-.12-.28-.27-.45-.44-.23-.25-.52-.49-.86-.71-.34-.23-.79-.34-1.34-.34-.75,0-1.35.32-1.8.96-.45.64-.68,1.65-.68,3.01v2.15c0,.12.03.19.1.23.07.03.14.05.22.05h3c.1,0,.18.03.25.1.07.07.1.14.1.23,0,.13-.01.27-.04.41-.02.14-.06.26-.11.36-.07.13-.14.2-.22.2h-2.68c-.27,0-.44.04-.51.11-.08.08-.11.18-.11.31v6.58c0,.37.1.63.31.8.21.17.65.3,1.34.4.35.07.53.21.53.42,0,.1-.04.18-.12.24-.08.06-.19.09-.33.09-.5,0-.99-.02-1.46-.06-.47-.04-.93-.06-1.36-.06-.28,0-.54,0-.76.02-.22.02-.45.04-.69.06s-.52.04-.85.04Z"/><path d="M351.09,123.7c-.92,0-1.62-.26-2.11-.77-.49-.52-.74-1.28-.74-2.28v-5.8c0-.13-.05-.23-.16-.29-.11-.06-.32-.09-.64-.09h-.2c-.1,0-.18-.07-.25-.21-.07-.14-.1-.28-.1-.41,0-.03.02-.08.06-.14.04-.06.08-.1.11-.11.35-.22.7-.45,1.04-.71.34-.26.66-.52.95-.79.29-.27.54-.5.74-.7.1-.08.18-.16.25-.22.07-.07.15-.1.25-.1s.19.02.26.07c.07.05.1.15.09.3l-.15,1.23c-.02.2.03.33.14.4.11.07.26.1.46.1h2.9s.1.06.15.17c.05.12.08.23.08.35,0,.18-.03.36-.08.52-.05.17-.11.25-.17.25h-2.42c-.42,0-.69.04-.81.12-.12.08-.19.27-.19.58v4.85c0,.7.14,1.24.42,1.61s.68.56,1.2.56c.48,0,.85-.04,1.1-.12s.48-.18.67-.3c.05-.03.09-.05.12-.05.08,0,.14.04.16.12.02.08.04.17.04.27s-.15.27-.45.52c-.3.25-.69.49-1.17.71-.48.22-1,.34-1.55.34Z"/><path d="M355.73,123.42c-.33,0-.5-.1-.5-.3,0-.17.19-.32.58-.45.25-.08.48-.18.7-.3.22-.12.33-.35.33-.7v-12.33c0-.45-.07-.85-.2-1.19-.13-.34-.42-.55-.85-.61-.15-.03-.22-.16-.22-.38,0-.17.07-.28.2-.33.28-.08.62-.18,1.01-.3s.78-.25,1.16-.39c.38-.14.71-.27.97-.39.1-.03.17-.05.22-.05.07,0,.12.02.15.06.03.04.05.1.05.16,0,.08-.02.21-.05.39-.03.18-.07.45-.1.83-.03.38-.05.9-.05,1.59v4.85c0,.23.01.41.04.54.02.12.06.23.11.31.27-.2.59-.43.96-.68s.8-.47,1.27-.65c.48-.18.98-.27,1.51-.27.85,0,1.55.32,2.11.95s.84,1.47.84,2.5v5.32c0,.33.1.57.31.71.21.14.44.25.69.34.17.07.3.13.4.19.1.06.15.15.15.26,0,.2-.17.3-.53.3s-.62-.01-.82-.04c-.2-.02-.39-.05-.58-.06-.18-.02-.43-.02-.75-.02s-.56,0-.74.02c-.18.02-.36.04-.55.06s-.47.04-.84.04-.53-.1-.53-.3c0-.13.05-.23.15-.27.1-.05.23-.11.4-.17.23-.07.45-.18.65-.33s.3-.4.3-.75v-5.05c0-.4-.11-.76-.33-1.09-.22-.32-.48-.58-.79-.76-.31-.18-.63-.27-.96-.27-.3,0-.64.04-1.01.12s-.69.22-.94.42c-.22.17-.36.35-.44.54-.08.19-.11.5-.11.94v5.23c.02.33.12.56.3.69.18.12.39.23.62.31.17.05.3.11.4.17.1.07.15.16.15.27,0,.2-.17.3-.5.3s-.6-.01-.81-.04c-.21-.02-.41-.05-.6-.06s-.44-.02-.74-.02c-.28,0-.53,0-.74.02-.21.02-.42.04-.65.06-.22.02-.5.04-.84.04Z"/><path d="M373.02,123.72c-.9,0-1.7-.23-2.39-.69s-1.24-1.1-1.64-1.92c-.4-.83-.6-1.78-.6-2.86,0-.98.23-1.88.69-2.7s1.07-1.47,1.84-1.96c.77-.49,1.61-.74,2.52-.74.68,0,1.3.14,1.84.41.54.27.97.66,1.28,1.15.31.49.46,1.05.46,1.69,0,.55-.26.83-.77.83h-5.18c-.23,0-.4.07-.5.2-.1.13-.15.38-.15.73,0,.73.17,1.4.5,2.01.33.61.77,1.1,1.33,1.46.55.37,1.16.55,1.82.55.5,0,.95-.1,1.36-.29.41-.19.79-.46,1.14-.81.05-.07.1-.12.14-.15.04-.03.09-.05.14-.05.15,0,.22.09.22.27,0,.27-.12.58-.35.95-.23.35-.53.67-.89.96s-.77.52-1.25.7c-.47.18-1,.26-1.56.26ZM371.1,116.07h2c.43,0,.78,0,1.03-.02s.48-.05.7-.1c.08-.03.14-.1.18-.21.03-.11.05-.25.05-.41,0-.47-.19-.86-.58-1.19-.38-.33-.84-.49-1.38-.49-.37,0-.73.11-1.09.33-.36.22-.65.49-.89.81-.23.33-.34.65-.33.99,0,.2.1.3.3.3Z"/><path d="M392.62,123.52c-.32,0-.78-.02-1.39-.05-.61-.03-1.25-.06-1.94-.09s-1.29-.04-1.83-.04c-.33,0-.65,0-.94.02-.29.02-.6.03-.91.05-.32.02-.68.02-1.1.02-.18,0-.34-.02-.46-.08-.12-.05-.19-.13-.19-.25,0-.13.06-.23.17-.29.12-.06.3-.11.55-.16.63-.12,1.07-.3,1.31-.55.24-.25.36-.66.36-1.23v-11.3c0-.57-.12-.97-.36-1.21-.24-.24-.68-.43-1.31-.56-.25-.05-.43-.11-.55-.18-.12-.07-.17-.17-.17-.3,0-.12.06-.2.19-.26.12-.06.28-.09.46-.09.42,0,.78,0,1.1.02.32.02.62.03.92.04.3,0,.64.01,1.03.01.27,0,.61,0,1.02-.02.42-.02.86-.04,1.33-.08.47-.03.9-.06,1.3-.08.4-.02.71-.02.93-.02,1.53,0,2.88.2,4.04.6s2.12.96,2.89,1.69,1.35,1.57,1.74,2.54c.39.97.59,2.02.59,3.15s-.21,2.27-.64,3.31c-.42,1.04-1.03,1.97-1.83,2.77-.79.81-1.72,1.44-2.79,1.9-1.07.46-2.24.69-3.53.69ZM392.3,122.5c1.23,0,2.31-.3,3.23-.9.92-.6,1.62-1.44,2.12-2.51.5-1.07.75-2.31.75-3.71,0-1.18-.18-2.24-.53-3.16-.35-.92-.82-1.71-1.41-2.36-.59-.65-1.28-1.15-2.05-1.49-.77-.34-1.59-.51-2.44-.51-.65,0-1.2.02-1.66.06-.46.04-.8.15-1.04.34-.23.18-.35.49-.35.93v11.05c0,.63.15,1.11.46,1.44.31.33.72.55,1.24.66s1.08.17,1.67.17Z"/><path d="M407.58,123.72c-.9,0-1.7-.23-2.39-.69s-1.24-1.1-1.64-1.92c-.4-.83-.6-1.78-.6-2.86,0-.98.23-1.88.69-2.7s1.07-1.47,1.84-1.96c.77-.49,1.61-.74,2.52-.74.68,0,1.3.14,1.84.41.54.27.97.66,1.28,1.15.31.49.46,1.05.46,1.69,0,.55-.26.83-.77.83h-5.18c-.23,0-.4.07-.5.2-.1.13-.15.38-.15.73,0,.73.17,1.4.5,2.01.33.61.77,1.1,1.33,1.46.55.37,1.16.55,1.82.55.5,0,.95-.1,1.36-.29.41-.19.79-.46,1.14-.81.05-.07.1-.12.14-.15.04-.03.09-.05.14-.05.15,0,.22.09.22.27,0,.27-.12.58-.35.95-.23.35-.53.67-.89.96s-.77.52-1.25.7c-.47.18-1,.26-1.56.26ZM405.66,116.07h2c.43,0,.78,0,1.03-.02s.48-.05.7-.1c.08-.03.14-.1.18-.21.03-.11.05-.25.05-.41,0-.47-.19-.86-.58-1.19-.38-.33-.84-.49-1.38-.49-.37,0-.73.11-1.09.33-.36.22-.65.49-.89.81-.23.33-.34.65-.33.99,0,.2.1.3.3.3Z"/><path d="M413.22,123.42c-.13,0-.25-.03-.34-.08-.09-.05-.14-.12-.14-.23,0-.13.05-.23.16-.29.11-.06.23-.1.36-.14.38-.1.67-.21.85-.33.18-.12.27-.32.27-.62v-5.4c0-.5-.08-.9-.25-1.21-.17-.31-.46-.5-.88-.56-.08-.02-.15-.05-.19-.11-.04-.06-.06-.15-.06-.26,0-.2.08-.31.23-.33.73-.17,1.36-.39,1.89-.66.52-.27.92-.5,1.19-.66.18-.12.32-.18.4-.18.13,0,.2.07.2.2,0,.18-.02.48-.06.88-.04.4-.08.83-.12,1.3-.04.47-.06.9-.06,1.3v5.7c0,.27.09.47.28.6.18.13.47.25.85.35.13.03.25.08.36.14.11.06.16.15.16.29,0,.2-.15.3-.45.3-.32,0-.6-.01-.85-.04s-.49-.05-.71-.06c-.23-.02-.49-.02-.79-.02-.28,0-.54,0-.77.02s-.46.04-.69.06c-.23.02-.5.04-.84.04ZM415.47,110.65c-.42,0-.77-.15-1.06-.44-.29-.29-.44-.65-.44-1.06s.15-.8.44-1.09c.29-.29.65-.44,1.06-.44s.8.15,1.1.44c.3.29.45.65.45,1.09s-.15.77-.45,1.06c-.3.29-.67.44-1.1.44Z"/><path d="M423.23,123.7c-.92,0-1.62-.26-2.11-.77-.49-.52-.74-1.28-.74-2.28v-5.8c0-.13-.05-.23-.16-.29-.11-.06-.32-.09-.64-.09h-.2c-.1,0-.18-.07-.25-.21-.07-.14-.1-.28-.1-.41,0-.03.02-.08.06-.14.04-.06.08-.1.11-.11.35-.22.7-.45,1.04-.71.34-.26.66-.52.95-.79.29-.27.54-.5.74-.7.1-.08.18-.16.25-.22.07-.07.15-.1.25-.1s.19.02.26.07c.07.05.1.15.09.3l-.15,1.23c-.02.2.03.33.14.4.11.07.26.1.46.1h2.9s.1.06.15.17c.05.12.08.23.08.35,0,.18-.03.36-.08.52-.05.17-.11.25-.17.25h-2.42c-.42,0-.69.04-.81.12-.12.08-.19.27-.19.58v4.85c0,.7.14,1.24.42,1.61s.68.56,1.2.56c.48,0,.85-.04,1.1-.12s.48-.18.67-.3c.05-.03.09-.05.12-.05.08,0,.14.04.16.12.02.08.04.17.04.27s-.15.27-.45.52c-.3.25-.69.49-1.17.71-.48.22-1,.34-1.55.34Z"/><path d="M429.01,130.45c-.37,0-.71-.1-1.02-.31-.32-.21-.48-.5-.48-.89,0-.32.08-.6.23-.85.15-.25.38-.38.67-.38.22,0,.43.03.64.09.21.06.4.09.56.09.17-.02.29-.05.38-.11.08-.06.17-.16.25-.31.17-.27.35-.58.54-.94s.4-.77.61-1.24c.22-.47.44-.99.67-1.58.1-.25.15-.52.15-.8,0-.17-.02-.33-.05-.48-.03-.15-.08-.3-.15-.45l-2.95-7.2c-.13-.32-.29-.59-.47-.83-.18-.23-.42-.39-.7-.47-.13-.07-.25-.13-.36-.2-.11-.07-.16-.17-.16-.3,0-.1.07-.16.2-.19.13-.03.24-.04.33-.04.37,0,.65,0,.85.02.2.02.38.03.55.05.17.02.38.03.65.03.32,0,.57,0,.75-.03.18-.02.38-.03.59-.05.21-.02.49-.02.84-.02.12,0,.23.02.35.06.12.04.17.11.17.21,0,.13-.08.25-.22.34-.15.09-.29.16-.42.21-.18.05-.32.14-.41.26s-.14.32-.14.59c0,.12.03.25.08.4.05.15.11.3.17.45l1.85,4.58c.03.08.08.12.12.12.03,0,.07-.04.1-.12l1.58-4.33c.05-.12.09-.27.12-.46.03-.19.05-.35.05-.49,0-.3-.06-.52-.17-.66-.12-.14-.25-.25-.4-.31-.13-.07-.28-.15-.44-.24-.16-.09-.24-.2-.24-.34,0-.1.06-.17.19-.21s.24-.06.34-.06c.3,0,.58.02.83.05.25.03.57.05.95.05.27,0,.48,0,.62-.03.15-.02.29-.03.43-.05.13-.02.31-.02.52-.02.08,0,.19.01.33.04.13.02.2.09.2.19,0,.13-.05.23-.16.3-.11.07-.23.13-.36.2-.27.08-.54.27-.81.57-.27.3-.5.65-.66,1.05l-3.53,8.4c-.05.15-.15.42-.31.8s-.35.83-.56,1.35-.45,1.06-.69,1.64c-.24.57-.48,1.13-.71,1.66-.17.38-.41.68-.74.88-.32.2-.7.3-1.11.3Z"/><path d="M439.91,123.85c-.43,0-.81-.16-1.12-.48-.32-.32-.48-.69-.48-1.12,0-.47.16-.85.48-1.16.32-.31.69-.46,1.12-.46s.83.15,1.14.46c.31.31.46.7.46,1.16,0,.43-.15.81-.46,1.12-.31.32-.69.48-1.14.48Z"/></g></g></svg>