<?xml version="1.0" encoding="UTF-8"?><svg id="a" xmlns="http://www.w3.org/2000/svg" viewBox="0 0 331.86 245.86"><defs><style>.b{fill:#151515;}.c{fill:#1d1d1b;}</style></defs><path class="b" d="M88.12,52.06H18.79c-10.38,0-18.79,8.41-18.79,18.79v104.15c0,10.38,8.41,18.79,18.79,18.79h69.33c4.07,0,8.03,1.32,11.29,3.77l59.21,44.49c12.39,9.31,30.08.47,30.08-15.02V18.83c0-15.49-17.7-24.33-30.08-15.02l-59.21,44.49c-3.26,2.45-7.22,3.77-11.29,3.77Z"/><path class="c" d="M286.47,124.55l41.73-41.73c4.88-4.88,4.88-12.8,0-17.68-4.88-4.88-12.8-4.88-17.68,0l-41.73,41.73-44.98-44.98c-4.88-4.88-12.8-4.88-17.68,0-4.88,4.88-4.88,12.8,0,17.68l44.98,44.98-41.73,41.73c-4.88,4.88-4.88,12.8,0,17.68,2.44,2.44,5.64,3.66,8.84,3.66s6.4-1.22,8.84-3.66l41.73-41.73,38.49,38.49c2.44,2.44,5.64,3.66,8.84,3.66s6.4-1.22,8.84-3.66c4.88-4.88,4.88-12.8,0-17.68l-38.49-38.49Z"/></svg>