<?xml version="1.0" encoding="UTF-8"?><svg id="a" xmlns="http://www.w3.org/2000/svg" viewBox="0 0 331.86 245.86"><defs><style>.b{fill:#151515;}.c{fill:#1d1d1b;}</style></defs><path class="b" d="M88.12,52.06H18.79c-10.38,0-18.79,8.41-18.79,18.79v104.15c0,10.38,8.41,18.79,18.79,18.79h69.33c4.07,0,8.03,1.32,11.29,3.77l59.21,44.49c12.39,9.31,30.08.47,30.08-15.02V18.83c0-15.49-17.7-24.33-30.08-15.02l-59.21,44.49c-3.26,2.45-7.22,3.77-11.29,3.77Z"/><path class="c" d="M208.93,13.2h0c0,6.36,4.77,11.7,11.08,12.42,48.8,5.52,86.85,47.05,86.85,97.31s-38.05,91.79-86.85,97.31c-6.31.71-11.08,6.06-11.08,12.41h0c0,7.41,6.41,13.27,13.77,12.45,61.41-6.84,109.16-58.93,109.16-122.17S284.11,7.61,222.7.76c-7.36-.82-13.77,5.04-13.77,12.44Z"/><path class="c" d="M208.93,63.8h0c0,5.86,4.05,11.01,9.79,12.2,21.75,4.53,38.14,23.85,38.14,46.93s-16.39,42.4-38.14,46.93c-5.74,1.19-9.79,6.34-9.79,12.2h0c0,7.99,7.37,13.87,15.19,12.22,32.99-6.99,57.74-36.28,57.74-71.35s-24.75-64.36-57.74-71.35c-7.81-1.65-15.19,4.23-15.19,12.22Z"/></svg>