<?xml version="1.0" encoding="UTF-8"?><svg id="a" xmlns="http://www.w3.org/2000/svg" viewBox="0 0 446.01 123.64"><defs><style>.g{fill:#785adc;}.h{fill:none;}.i{fill:#151515;}.j{fill:#fa8ca0;}</style></defs><g id="b"><g id="c"><path class="i" d="M83.07,95.12c3.16,0,5.6-.94,7.34-2.82,1.73-1.88,2.6-4.1,2.6-6.66,0-3.76-2.79-6.7-8.35-8.8-3.99-1.5-7.09-3.29-9.31-5.36-2.22-2.07-3.33-4.87-3.33-8.41,0-1.65.3-3.25.9-4.8.6-1.54,1.48-2.9,2.65-4.06,1.17-1.17,2.56-2.09,4.18-2.77,1.62-.68,3.44-1.02,5.47-1.02,2.86,0,5.19.47,7,1.41,1.81.94,3.01,1.9,3.61,2.88.23.38.41.79.56,1.24.15.45.15.87,0,1.24-.38,1.88-1.51,2.64-3.39,2.26-.68-.23-1.28-.64-1.81-1.24-.38-.52-.73-1.09-1.07-1.69-.34-.6-.73-1.17-1.18-1.69-.45-.53-1-.96-1.64-1.3-.64-.34-1.45-.51-2.43-.51-2.03,0-3.86.66-5.47,1.98-1.62,1.32-2.43,3.1-2.43,5.36,0,2.93,2.44,5.42,7.34,7.45,2.26.9,4.23,1.81,5.93,2.71,1.69.9,3.12,1.92,4.29,3.05,1.17,1.13,2.03,2.46,2.6,4.01.56,1.54.85,3.44.85,5.7,0,1.96-.36,3.8-1.07,5.53-.71,1.73-1.73,3.24-3.05,4.52-1.32,1.28-2.88,2.3-4.68,3.05-1.81.75-3.84,1.13-6.1,1.13-2.03,0-3.78-.21-5.25-.62-1.47-.41-2.73-.9-3.78-1.47-1.06-.56-1.9-1.17-2.54-1.81-.64-.64-1.11-1.19-1.41-1.64-.53-.9-.68-1.73-.45-2.48.15-.83.58-1.45,1.3-1.86.71-.41,1.48-.54,2.31-.4.68.23,1.28.64,1.81,1.24.38.53.77,1.17,1.19,1.92.41.75.92,1.49,1.52,2.2.6.71,1.32,1.32,2.14,1.81.83.49,1.88.73,3.16.73Z"/><path class="i" d="M170.47,57.03c.87-1.24,1.94-2.33,3.22-3.27,1.28-.94,2.73-1.71,4.35-2.31,1.62-.6,3.33-.9,5.14-.9,2.26,0,4.27.38,6.04,1.13,1.77.75,3.27,1.79,4.51,3.1,1.24,1.32,2.2,2.84,2.88,4.57.68,1.73,1.02,3.58,1.02,5.53v24.6c0,3.24,1.62,4.85,4.85,4.85v1.92h-17.16v-1.91c3.23,0,4.85-1.61,4.85-4.84v-23.98c0-3-.9-5.55-2.71-7.65-1.81-2.1-4.21-3.15-7.22-3.15-1.51,0-2.93.34-4.29,1.01-1.35.68-2.56,1.58-3.61,2.7-1.05,1.13-1.9,2.4-2.54,3.83-.64,1.42-.96,2.89-.96,4.39v22.85c0,3.23,1.62,4.84,4.85,4.84v1.91h-17.16v-1.92c3.23,0,4.85-1.62,4.85-4.85v-31.15c0-3.23-1.62-4.85-4.85-4.85v-1.92h12.3v9.37c.23-1.35.77-2.65,1.64-3.89Z"/><path class="i" d="M218.11,95.12c3.16,0,5.6-.94,7.34-2.82,1.73-1.88,2.6-4.1,2.6-6.66,0-3.76-2.79-6.7-8.35-8.8-3.99-1.5-7.09-3.29-9.31-5.36-2.22-2.07-3.33-4.87-3.33-8.41,0-1.65.3-3.25.9-4.8.6-1.54,1.48-2.9,2.65-4.06,1.17-1.17,2.56-2.09,4.18-2.77,1.62-.68,3.44-1.02,5.47-1.02,2.86,0,5.19.47,7,1.41,1.81.94,3.01,1.9,3.61,2.88.23.38.41.79.56,1.24.15.45.15.87,0,1.24-.38,1.88-1.51,2.64-3.39,2.26-.68-.23-1.28-.64-1.81-1.24-.38-.52-.73-1.09-1.07-1.69-.34-.6-.73-1.17-1.18-1.69-.45-.53-1-.96-1.64-1.3-.64-.34-1.45-.51-2.43-.51-2.03,0-3.86.66-5.47,1.98-1.62,1.32-2.43,3.1-2.43,5.36,0,2.93,2.44,5.42,7.34,7.45,2.26.9,4.23,1.81,5.93,2.71,1.69.9,3.12,1.92,4.29,3.05,1.17,1.13,2.03,2.46,2.6,4.01.56,1.54.85,3.44.85,5.7,0,1.96-.36,3.8-1.07,5.53-.71,1.73-1.73,3.24-3.05,4.52-1.32,1.28-2.88,2.3-4.68,3.05-1.81.75-3.84,1.13-6.1,1.13-2.03,0-3.78-.21-5.25-.62-1.47-.41-2.73-.9-3.78-1.47-1.06-.56-1.9-1.17-2.54-1.81-.64-.64-1.11-1.19-1.41-1.64-.53-.9-.68-1.73-.45-2.48.15-.83.58-1.45,1.3-1.86.71-.41,1.48-.54,2.31-.4.68.23,1.28.64,1.81,1.24.38.53.77,1.17,1.19,1.92.41.75.92,1.49,1.52,2.2.6.71,1.32,1.32,2.14,1.81.83.49,1.88.73,3.16.73Z"/><path class="i" d="M275.67,95.12c3.16,0,5.6-.94,7.34-2.82,1.73-1.88,2.6-4.1,2.6-6.66,0-3.76-2.79-6.7-8.35-8.8-3.99-1.5-7.09-3.29-9.31-5.36-2.22-2.07-3.33-4.87-3.33-8.41,0-1.65.3-3.25.9-4.8.6-1.54,1.48-2.9,2.65-4.06,1.17-1.17,2.56-2.09,4.18-2.77,1.62-.68,3.44-1.02,5.47-1.02,2.86,0,5.19.47,7,1.41,1.81.94,3.01,1.9,3.61,2.88.23.38.41.79.56,1.24.15.45.15.87,0,1.24-.38,1.88-1.51,2.64-3.39,2.26-.68-.23-1.28-.64-1.81-1.24-.38-.52-.73-1.09-1.07-1.69-.34-.6-.73-1.17-1.18-1.69-.45-.53-1-.96-1.64-1.3-.64-.34-1.45-.51-2.43-.51-2.03,0-3.86.66-5.47,1.98-1.62,1.32-2.43,3.1-2.43,5.36,0,2.93,2.44,5.42,7.34,7.45,2.26.9,4.23,1.81,5.93,2.71,1.69.9,3.12,1.92,4.29,3.05,1.17,1.13,2.03,2.46,2.6,4.01.56,1.54.85,3.44.85,5.7,0,1.96-.36,3.8-1.07,5.53-.71,1.73-1.73,3.24-3.05,4.52-1.32,1.28-2.88,2.3-4.68,3.05-1.81.75-3.84,1.13-6.1,1.13-2.03,0-3.78-.21-5.25-.62-1.47-.41-2.73-.9-3.78-1.47-1.06-.56-1.9-1.17-2.54-1.81-.64-.64-1.11-1.19-1.41-1.64-.53-.9-.68-1.73-.45-2.48.15-.83.58-1.45,1.3-1.86.71-.41,1.48-.54,2.31-.4.68.23,1.28.64,1.81,1.24.38.53.77,1.17,1.19,1.92.41.75.92,1.49,1.52,2.2.6.71,1.32,1.32,2.14,1.81.83.49,1.88.73,3.16.73Z"/><path class="i" d="M353.92,58.32c0-3.23-1.62-4.85-4.85-4.85v-1.92h17.15v1.92c-3.23,0-4.85,1.62-4.85,4.85v31.15c0,3.24,1.62,4.85,4.85,4.85v1.92h-17.15v-1.92c3.23,0,4.85-1.62,4.85-4.85v-31.15Z"/><path class="i" d="M384.27,57.03c.87-1.24,1.94-2.33,3.22-3.27,1.28-.94,2.73-1.71,4.35-2.31,1.62-.6,3.33-.9,5.14-.9,2.26,0,4.27.38,6.04,1.13,1.77.75,3.27,1.79,4.51,3.1,1.24,1.32,2.2,2.84,2.88,4.57.68,1.73,1.02,3.58,1.02,5.53v24.6c0,3.24,1.62,4.85,4.85,4.85v1.92h-17.16v-1.91c3.23,0,4.85-1.61,4.85-4.84v-23.98c0-3-.9-5.55-2.71-7.65-1.81-2.1-4.21-3.15-7.22-3.15-1.51,0-2.93.34-4.29,1.01-1.35.68-2.56,1.58-3.61,2.7-1.05,1.13-1.9,2.4-2.54,3.83-.64,1.42-.96,2.89-.96,4.39v22.85c0,3.23,1.62,4.84,4.85,4.84v1.91h-17.16v-1.92c3.23,0,4.85-1.62,4.85-4.85v-31.15c0-3.23-1.62-4.85-4.85-4.85v-1.92h12.3v9.37c.23-1.35.77-2.65,1.64-3.89Z"/><path class="i" d="M444.88,90.38c-.83,1.2-1.77,2.14-2.82,2.82-1.06.68-2.33,1.02-3.84,1.02-2.41,0-4.42-.81-6.04-2.43-1.62-1.62-2.43-3.63-2.43-6.04v-26.31c0-3.22,1.63-4.83,4.85-4.83h0s6.55-.01,6.55-.01v-3.05h-23.7v3.05h0c3.23.01,4.85,1.63,4.85,4.87v25.27c0,1.73.32,3.37.96,4.91.64,1.54,1.52,2.88,2.65,4.01,1.13,1.13,2.46,2.01,4.01,2.65,1.54.64,4.24.96,5.98.96,2.41,0,3.54-.53,5.54-1.58,1.99-1.05,3.52-2.56,4.57-4.51l-1.13-.79Z"/><path class="i" d="M333.27,92.15c-.51.53-1.27,1.12-2.28,1.76-1.02.64-2.19,1.25-3.52,1.81-1.33.57-2.82,1.04-4.45,1.42-1.63.38-3.28.57-4.95.57-3.1,0-6.04-.66-8.83-1.98-2.78-1.32-5.22-3.08-7.33-5.27-2.11-2.19-3.77-4.72-4.98-7.6-1.21-2.87-1.84-5.86-1.88-8.96-.05-3.1.48-6.07,1.59-8.9,1.1-2.84,2.65-5.31,4.64-7.43,1.99-2.12,4.37-3.8,7.13-5.05,2.76-1.25,5.8-1.87,9.13-1.87,2.95,0,5.77.53,8.47,1.59,2.69,1.06,5.01,2.72,6.94,4.99l.09-5.67h12.37s.02,1.93.02,1.93c-3.33,0-4.96,1.63-4.89,4.88l.19,31.07c-.08,3.25,1.59,4.88,4.99,4.88v1.94h-12.49s.06-4.09.06-4.09ZM317.78,53.25c-2.12,0-4.08.53-5.89,1.59-1.81,1.06-3.38,2.52-4.7,4.37-1.32,1.85-2.36,4.05-3.1,6.58-.74,2.53-1.11,5.27-1.09,8.22.03,3.03.43,5.82,1.21,8.39.78,2.57,1.85,4.8,3.23,6.69,1.37,1.89,2.97,3.37,4.79,4.42,1.82,1.06,3.76,1.59,5.8,1.59,2.65,0,5.31-.53,7.99-1.59s5.05-2.76,7.12-5.1l-.14-27.11c-1.98-2.5-4.21-4.46-6.71-5.9-2.5-1.44-5.34-2.16-8.52-2.16Z"/><path class="i" d="M147.99,89.43l-.19-31.07c-.07-3.25,1.56-4.88,4.89-4.88l-.02-1.93h-12.37l-.09,5.67c-1.94-2.27-4.25-3.93-6.94-4.99-2.69-1.06-5.52-1.59-8.47-1.59-3.33,0-6.38.62-9.13,1.87-2.76,1.25-5.13,2.93-7.13,5.05-1.99,2.12-3.54,4.59-4.64,7.43-1.1,2.83-1.63,5.8-1.59,8.9.04,3.1.67,6.09,1.88,8.96,1.21,2.87,2.87,5.41,4.98,7.6,2.11,2.19,4.55,3.95,7.33,5.27,2.78,1.32,5.72,1.98,8.83,1.98,1.66,0,3.31-.19,4.95-.57,1.63-.38,3.11-.85,4.45-1.42,1.33-.57,2.51-1.17,3.52-1.81,1.02-.64,1.78-1.23,2.28-1.76l-.06,4.09h12.49v-1.94c-3.4,0-5.07-1.63-4.99-4.88ZM133.31,93.51c-2.68,1.06-5.35,1.59-7.99,1.59-2.04,0-3.98-.53-5.8-1.59-1.82-1.06-3.42-2.53-4.79-4.42-1.37-1.89-2.45-4.12-3.23-6.69-.78-2.57-1.18-5.37-1.21-8.39-.02-2.95.35-5.69,1.09-8.22.74-2.53,1.77-4.72,3.1-6.58,1.32-1.85,2.89-3.31,4.7-4.37,1.81-1.06,3.77-1.59,5.89-1.59,3.18,0,6.02.72,8.52,2.16,2.5,1.44,4.73,3.4,6.71,5.9l.14,27.11c-2.06,2.34-4.44,4.05-7.12,5.1Z"/><path class="i" d="M250.05,67.94h0s-1.92,0-1.92,0c0,3.18-1.57,4.79-4.7,4.85h-.16v1.92c3.23,0,4.85,1.62,4.85,4.85h0s1.92,0,1.92,0c0-3.18,1.57-4.79,4.7-4.85h.16v-1.92c-3.23,0-4.85-1.62-4.85-4.85Z"/></g><g id="d"><path class="g" d="M32.11,21.68c-5.69,9.47-8.97,20.58-8.97,32.31v69.43H0v-61.71C0,38.87,4.71,26.1,23.14,15.43c3.45,2,6.42,4.06,8.97,6.26Z"/><path class="j" d="M54,0v123.42h-7.71v-61.71c0-18.56-3.11-30.48-14.18-40.03C37.48,12.7,45.02,5.19,54,0Z"/><path class="i" d="M35.96,50.43h0s-1.92,0-1.92,0c0,3.18-1.57,4.79-4.7,4.85h-.16v1.92c3.23,0,4.85,1.62,4.85,4.85h0s1.92,0,1.92,0c0-3.18,1.57-4.79,4.7-4.85h.16v-1.92c-3.23,0-4.85-1.62-4.85-4.85Z"/></g><g id="e"><rect class="h" x="71.43" y="104.84" width="387" height="27"/><path d="M72.08,123.27c-.21,0-.38-.03-.52-.09-.14-.06-.21-.15-.21-.27,0-.14.07-.25.21-.34.14-.09.33-.17.57-.26.47-.14.89-.35,1.27-.62.38-.28.69-.7.94-1.27.47-1.06.9-2.07,1.3-3.03.4-.96.78-1.91,1.14-2.85.36-.94.74-1.9,1.12-2.9.38-1,.77-2.06,1.17-3.19.16-.4.27-.73.34-1,.07-.27.11-.51.13-.71.23-.05.43-.11.62-.17.19-.06.4-.15.62-.27.21-.1.37-.26.48-.46.11-.2.2-.34.27-.43.03-.02.07-.03.12-.04.04,0,.08.02.12.09.05.09.09.18.12.29.03.1.06.22.09.34.4,1.27.81,2.55,1.23,3.86.42,1.31.85,2.59,1.26,3.83.42,1.25.81,2.4,1.17,3.47.36,1.07.68,2,.94,2.79.19.57.42,1.01.68,1.31.26.3.54.53.83.68.29.15.62.26.96.33.26.05.46.13.58.23s.2.23.2.36c0,.1-.07.18-.2.22s-.29.06-.48.06c-.28,0-.64-.01-1.09-.04-.45-.03-.92-.05-1.4-.06s-.93-.03-1.33-.03h-1.09c-.4,0-.78,0-1.13.03-.36.02-.66.03-.92.03-.21,0-.38-.03-.51-.09-.13-.06-.19-.14-.19-.25,0-.14.08-.25.23-.34.16-.09.34-.15.55-.18.59-.1,1.02-.26,1.29-.47.27-.21.38-.49.33-.83-.02-.29-.08-.66-.18-1.1-.1-.44-.23-.91-.36-1.4-.14-.49-.27-.95-.39-1.36-.04-.14-.1-.23-.18-.26-.09-.03-.23-.05-.44-.05h-4.81c-.09,0-.17.03-.23.09-.07.06-.14.18-.21.35-.05.21-.13.47-.25.79-.11.32-.22.66-.33,1.01-.1.36-.19.68-.27.99-.08.3-.13.52-.14.66-.05.43.06.78.33,1.03.27.25.67.45,1.21.58.52.14.78.31.78.52,0,.12-.06.2-.19.25s-.3.06-.51.06c-.33,0-.71,0-1.14-.03-.43-.02-.89-.03-1.38-.03-.56,0-1.09.03-1.61.08-.52.05-1.01.08-1.48.08ZM78.24,115.76h3.8c.24,0,.36-.04.36-.13,0-.05,0-.09-.01-.13,0-.03-.02-.09-.04-.16l-1.92-6.16c-.09-.28-.16-.42-.21-.42-.04,0-.1.13-.18.39l-2.26,6.19c-.04.1-.05.17-.05.21,0,.09.05.14.14.17.1.03.22.04.38.04Z"/><path d="M92.1,123.22c-.16,0-.28-.03-.38-.08s-.14-.13-.14-.23c0-.14.06-.24.17-.3.11-.06.26-.12.43-.17.36-.09.62-.21.77-.36.15-.16.22-.36.22-.62v-5.72c0-.43-.06-.8-.18-1.1-.12-.3-.38-.5-.78-.58-.07-.02-.13-.06-.19-.13-.06-.07-.09-.16-.09-.26,0-.19.09-.31.26-.36.49-.14,1.01-.33,1.56-.58.55-.25,1-.47,1.35-.66.1-.07.2-.12.29-.16.09-.03.15-.05.18-.05.12,0,.18.07.18.21,0,.07,0,.22-.01.44,0,.23-.02.48-.04.75-.02.28-.03.55-.03.81,0,.07.02.1.05.1.28-.35.58-.67.92-.96.34-.29.7-.53,1.08-.71.38-.18.75-.27,1.09-.27.45,0,.8.09,1.04.27.24.18.36.42.36.71,0,.19-.06.41-.17.66-.11.25-.26.47-.44.65-.18.18-.38.27-.58.27-.12,0-.25-.03-.39-.09-.14-.06-.29-.13-.44-.2-.14-.07-.28-.13-.43-.19-.15-.06-.29-.09-.43-.09-.43,0-.83.16-1.2.47-.36.31-.55.92-.55,1.82v4.89c0,.28.11.49.34.65.23.16.56.3,1.01.44.19.05.34.11.44.17s.16.15.16.27c0,.21-.17.31-.49.31-.52,0-.97-.02-1.34-.06-.37-.04-.78-.06-1.23-.06-.29,0-.56,0-.78.03-.23.02-.46.04-.7.06-.24.03-.54.04-.88.04Z"/><path d="M106.44,123.51c-.95,0-1.69-.27-2.2-.81s-.77-1.33-.77-2.37v-6.03c0-.14-.06-.24-.17-.3-.11-.06-.33-.09-.66-.09h-.21c-.1,0-.19-.07-.26-.22-.07-.15-.1-.29-.1-.43,0-.03.02-.08.06-.14.04-.06.08-.1.12-.12.36-.23.72-.47,1.08-.74s.68-.54.99-.82c.3-.28.56-.52.77-.73.1-.09.19-.16.26-.23.07-.07.16-.1.26-.1s.19.03.27.08c.08.05.11.16.09.31l-.16,1.27c-.02.21.03.35.14.42.11.07.27.1.48.1h3.02c.05,0,.1.06.16.18.05.12.08.24.08.36,0,.19-.03.37-.08.55-.05.17-.11.26-.18.26h-2.52c-.43,0-.71.04-.84.13-.13.09-.2.29-.2.6v5.04c0,.73.15,1.29.44,1.68.29.39.71.58,1.25.58.5,0,.88-.04,1.14-.13.26-.09.49-.19.7-.31.05-.03.1-.05.13-.05.09,0,.14.04.17.13.03.09.04.18.04.29s-.16.29-.47.55c-.31.26-.72.51-1.22.74-.5.23-1.04.35-1.61.35Z"/><path d="M111.89,123.22c-.14,0-.26-.03-.35-.08-.1-.05-.14-.13-.14-.23,0-.14.06-.24.17-.3.11-.06.24-.11.38-.14.4-.1.69-.22.88-.34.19-.12.29-.34.29-.65v-5.62c0-.52-.09-.94-.26-1.26-.17-.32-.48-.52-.91-.58-.09-.02-.15-.06-.19-.12-.04-.06-.07-.15-.07-.27,0-.21.08-.32.23-.34.76-.17,1.42-.4,1.96-.69s.96-.52,1.23-.69c.19-.12.33-.18.42-.18.14,0,.21.07.21.21,0,.19-.02.49-.06.91-.04.42-.09.87-.13,1.35-.04.49-.06.94-.06,1.35v5.93c0,.28.09.49.29.62.19.14.49.26.88.36.14.03.26.08.38.14.11.06.17.16.17.3,0,.21-.16.31-.47.31-.33,0-.62-.01-.88-.04-.26-.03-.51-.05-.74-.06-.23-.02-.51-.03-.82-.03-.29,0-.56,0-.81.03-.24.02-.48.04-.72.06s-.52.04-.87.04ZM114.23,109.93c-.43,0-.8-.15-1.1-.46-.3-.3-.46-.67-.46-1.1s.15-.83.46-1.13c.3-.3.67-.46,1.1-.46s.83.15,1.14.46.47.68.47,1.13-.16.8-.47,1.1c-.31.3-.69.46-1.14.46Z"/><path d="M122.25,123.51c-.56,0-1.08-.08-1.57-.23-.49-.16-.92-.38-1.29-.68-.12-.23-.21-.58-.26-1.07-.05-.49-.08-.93-.08-1.33,0-.17.13-.26.39-.26.1,0,.19.02.27.07s.13.1.14.17c.26.81.62,1.43,1.09,1.85.47.42.98.62,1.53.62.48,0,.88-.16,1.2-.48.31-.32.47-.71.47-1.16s-.17-.86-.49-1.18c-.33-.32-.83-.69-1.51-1.1-.56-.33-1.03-.65-1.43-.98-.4-.32-.7-.68-.91-1.07s-.31-.84-.31-1.34c0-.61.15-1.14.46-1.61.3-.47.73-.84,1.29-1.12s1.22-.42,2-.42c.55,0,1.03.06,1.42.17s.67.23.85.35c.14.19.26.5.35.94.09.43.14.87.14,1.3,0,.14-.11.21-.34.21-.1,0-.21-.03-.32-.08-.11-.05-.19-.12-.22-.21-.23-.61-.51-1.07-.85-1.38-.34-.31-.75-.47-1.23-.47-.42,0-.79.13-1.12.38s-.49.61-.49,1.08c0,.4.14.75.43,1.05.29.3.74.63,1.37.98,1.04.57,1.81,1.11,2.3,1.62.49.51.74,1.19.74,2.04,0,1.01-.36,1.81-1.08,2.42s-1.69.91-2.92.91Z"/><path d="M130.8,123.51c-.36,0-.72-.12-1.07-.35-.35-.23-.63-.53-.86-.88-.23-.35-.34-.71-.34-1.05,0-.57.16-1.03.48-1.38.32-.35.82-.66,1.49-.94l2.52-1.07c.35-.14.55-.26.62-.38.07-.11.11-.34.13-.69l.05-1.59c.02-.47-.1-.86-.34-1.17-.24-.31-.6-.47-1.07-.47-.24,0-.49.05-.74.14-.25.1-.46.2-.61.33-.09.07-.14.17-.17.29-.03.12-.04.25-.04.39,0,.09,0,.19.01.3s.01.2.01.27c0,.1-.12.23-.35.38-.23.15-.5.28-.81.4-.3.12-.56.18-.77.18-.1,0-.19-.03-.25-.09-.06-.06-.09-.14-.09-.25,0-.28.09-.57.27-.87.18-.3.45-.61.82-.92.42-.36.87-.69,1.36-.98.49-.29.98-.51,1.46-.66.48-.16.9-.23,1.26-.23.73,0,1.32.25,1.78.74.46.49.67,1.13.64,1.91l-.13,5.88c-.02.38.06.69.23.94.17.24.39.36.65.36.4,0,.71-.1.94-.31.07-.07.13-.1.18-.1.09,0,.16.03.22.08.06.05.09.12.09.21,0,.21-.12.43-.36.65-.29.29-.61.52-.95.69-.34.16-.66.25-.98.25-.87,0-1.56-.47-2.08-1.4h-.08c-.57.49-1.11.84-1.61,1.07-.5.23-1.02.34-1.56.34ZM132.15,122.1c.29,0,.54-.05.74-.14.2-.09.38-.23.53-.4.09-.09.15-.19.19-.33.04-.13.07-.33.09-.61l.05-1.48c.02-.17,0-.3-.03-.38-.04-.08-.1-.12-.21-.12-.04,0-.09,0-.16.03-.07.02-.17.05-.29.1-.78.29-1.33.6-1.64.92s-.47.67-.47,1.05c0,.47.13.81.38,1.03.25.22.52.33.79.33Z"/><path d="M140.53,123.22c-.14,0-.26-.03-.36-.08s-.16-.13-.16-.23c0-.14.06-.24.17-.3.11-.06.26-.12.43-.17.26-.07.5-.16.73-.29s.34-.36.34-.7v-5.72c0-.43-.05-.8-.14-1.1-.1-.3-.35-.51-.77-.61-.07-.02-.13-.06-.18-.12-.05-.06-.08-.14-.08-.25,0-.22.08-.35.23-.36.61-.16,1.16-.35,1.65-.57s.95-.48,1.36-.75c.05-.03.11-.07.17-.1.06-.03.12-.05.17-.05.07,0,.12.02.14.06.03.04.04.1.04.17,0,.12-.02.36-.06.7-.04.35-.06.64-.06.88,0,.07,0,.14.01.21,0,.07.02.11.04.13.61-.57,1.23-1,1.88-1.3.65-.29,1.38-.44,2.2-.44.87,0,1.59.34,2.16,1.01.57.68.86,1.55.86,2.63v5.62c0,.35.12.57.35.68s.48.2.74.29c.14.05.27.11.39.18.12.07.18.17.18.31,0,.12-.06.2-.17.23-.11.03-.22.05-.33.05-.35,0-.64-.01-.87-.04-.23-.03-.46-.05-.68-.06-.22-.02-.48-.03-.79-.03-.29,0-.55,0-.78.03-.23.02-.46.04-.69.06-.23.03-.52.04-.87.04-.09,0-.19-.02-.31-.05-.12-.03-.18-.11-.18-.23,0-.14.06-.24.18-.31.12-.07.25-.13.39-.18.26-.09.5-.18.73-.29.22-.1.34-.33.34-.68v-5.38c0-.73-.2-1.29-.58-1.69-.39-.4-.9-.61-1.52-.62-.54,0-1.01.08-1.42.25-.41.16-.78.39-1.13.66-.07.07-.12.16-.16.26-.04.1-.05.2-.05.29v6.24c0,.35.11.58.34.69.23.11.46.2.7.27.38.12.57.28.57.47,0,.1-.04.18-.13.23-.09.05-.21.08-.36.08-.35,0-.64-.01-.87-.04s-.45-.05-.65-.06c-.2-.02-.46-.03-.77-.03-.29,0-.55,0-.78.03-.23.02-.46.04-.7.06s-.54.04-.88.04Z"/><path d="M157.11,123.51c-.36,0-.72-.12-1.07-.35-.35-.23-.63-.53-.86-.88-.23-.35-.34-.71-.34-1.05,0-.57.16-1.03.48-1.38.32-.35.82-.66,1.49-.94l2.52-1.07c.35-.14.55-.26.62-.38.07-.11.11-.34.13-.69l.05-1.59c.02-.47-.1-.86-.34-1.17-.24-.31-.6-.47-1.07-.47-.24,0-.49.05-.74.14-.25.1-.46.2-.61.33-.09.07-.14.17-.17.29-.03.12-.04.25-.04.39,0,.09,0,.19.01.3s.01.2.01.27c0,.1-.12.23-.35.38-.23.15-.5.28-.81.4-.3.12-.56.18-.77.18-.1,0-.19-.03-.25-.09-.06-.06-.09-.14-.09-.25,0-.28.09-.57.27-.87.18-.3.45-.61.82-.92.42-.36.87-.69,1.36-.98.49-.29.98-.51,1.46-.66.48-.16.9-.23,1.26-.23.73,0,1.32.25,1.78.74.46.49.67,1.13.64,1.91l-.13,5.88c-.02.38.06.69.23.94.17.24.39.36.65.36.4,0,.71-.1.94-.31.07-.07.13-.1.18-.1.09,0,.16.03.22.08.06.05.09.12.09.21,0,.21-.12.43-.36.65-.29.29-.61.52-.95.69-.34.16-.66.25-.98.25-.87,0-1.56-.47-2.08-1.4h-.08c-.57.49-1.11.84-1.61,1.07-.5.23-1.02.34-1.56.34ZM158.46,122.1c.29,0,.54-.05.74-.14.2-.09.38-.23.53-.4.09-.09.15-.19.19-.33.04-.13.07-.33.09-.61l.05-1.48c.02-.17,0-.3-.03-.38-.04-.08-.1-.12-.21-.12-.04,0-.09,0-.16.03-.07.02-.17.05-.29.1-.78.29-1.33.6-1.64.92s-.47.67-.47,1.05c0,.47.13.81.38,1.03.25.22.52.33.79.33Z"/><path d="M170.12,123.51c-.95,0-1.69-.27-2.2-.81s-.77-1.33-.77-2.37v-6.03c0-.14-.06-.24-.17-.3-.11-.06-.33-.09-.66-.09h-.21c-.1,0-.19-.07-.26-.22-.07-.15-.1-.29-.1-.43,0-.03.02-.08.06-.14.04-.06.08-.1.12-.12.36-.23.72-.47,1.08-.74s.68-.54.99-.82c.3-.28.56-.52.77-.73.1-.09.19-.16.26-.23.07-.07.16-.1.26-.1s.19.03.27.08c.08.05.11.16.09.31l-.16,1.27c-.02.21.03.35.14.42.11.07.27.1.48.1h3.02c.05,0,.1.06.16.18.05.12.08.24.08.36,0,.19-.03.37-.08.55-.05.17-.11.26-.18.26h-2.52c-.43,0-.71.04-.84.13-.13.09-.2.29-.2.6v5.04c0,.73.15,1.29.44,1.68.29.39.71.58,1.25.58.5,0,.88-.04,1.14-.13.26-.09.49-.19.7-.31.05-.03.09-.05.13-.05.09,0,.14.04.17.13.03.09.04.18.04.29s-.16.29-.47.55c-.31.26-.72.51-1.22.74-.5.23-1.04.35-1.61.35Z"/><path d="M186.04,123.53c-.94,0-1.76-.24-2.48-.72-.72-.48-1.29-1.14-1.7-2s-.62-1.85-.62-2.98c0-1.02.24-1.96.71-2.81s1.11-1.53,1.91-2.04,1.67-.77,2.63-.77c.71,0,1.35.14,1.91.43.56.29,1,.69,1.33,1.2.32.51.48,1.1.48,1.75,0,.57-.27.86-.81.86h-5.38c-.24,0-.42.07-.52.21-.1.14-.16.39-.16.75,0,.76.17,1.46.52,2.09s.81,1.14,1.38,1.52,1.21.57,1.9.57c.52,0,.99-.1,1.42-.3.42-.2.82-.48,1.18-.85.05-.07.1-.12.14-.16.04-.03.09-.05.14-.05.16,0,.23.1.23.29,0,.28-.12.61-.36.99-.24.36-.55.7-.92,1-.37.3-.81.55-1.3.73-.49.18-1.04.27-1.62.27ZM184.03,115.58h2.08c.45,0,.81,0,1.07-.03s.5-.05.73-.1c.09-.03.15-.11.18-.22.03-.11.05-.26.05-.43,0-.48-.2-.9-.6-1.23-.4-.34-.88-.51-1.43-.51-.38,0-.76.11-1.13.34-.37.23-.68.51-.92.85-.24.34-.36.68-.34,1.03,0,.21.1.31.31.31Z"/><path d="M192.46,123.22c-.14,0-.26-.03-.36-.08-.1-.05-.16-.13-.16-.23,0-.14.06-.24.17-.3.11-.06.25-.12.43-.17.26-.07.5-.16.73-.29.23-.12.34-.36.34-.7v-5.72c0-.43-.05-.8-.14-1.1-.1-.3-.35-.51-.77-.61-.07-.02-.13-.06-.18-.12-.05-.06-.08-.14-.08-.25,0-.22.08-.35.23-.36.61-.16,1.16-.35,1.65-.57s.95-.48,1.36-.75c.05-.03.11-.07.17-.1.06-.03.12-.05.17-.05.07,0,.12.02.14.06.03.04.04.1.04.17,0,.12-.02.36-.07.7s-.06.64-.06.88c0,.07,0,.14.01.21,0,.07.02.11.04.13.61-.57,1.24-1,1.88-1.3.65-.29,1.38-.44,2.2-.44.87,0,1.59.34,2.16,1.01.57.68.86,1.55.86,2.63v5.62c0,.35.12.57.35.68.23.1.48.2.74.29.14.05.27.11.39.18.12.07.18.17.18.31,0,.12-.06.2-.17.23-.11.03-.22.05-.33.05-.35,0-.64-.01-.87-.04-.23-.03-.46-.05-.68-.06-.22-.02-.48-.03-.79-.03-.29,0-.55,0-.78.03-.23.02-.46.04-.69.06s-.52.04-.87.04c-.09,0-.19-.02-.31-.05-.12-.03-.18-.11-.18-.23,0-.14.06-.24.18-.31.12-.07.25-.13.39-.18.26-.09.5-.18.73-.29.22-.1.34-.33.34-.68v-5.38c0-.73-.2-1.29-.58-1.69-.39-.4-.9-.61-1.52-.62-.54,0-1.01.08-1.42.25s-.78.39-1.13.66c-.07.07-.12.16-.16.26s-.05.2-.05.29v6.24c0,.35.11.58.34.69.23.11.46.2.7.27.38.12.57.28.57.47,0,.1-.04.18-.13.23-.09.05-.21.08-.36.08-.35,0-.64-.01-.87-.04-.23-.03-.45-.05-.65-.06-.2-.02-.46-.03-.77-.03-.29,0-.55,0-.78.03-.23.02-.46.04-.7.06-.24.03-.54.04-.88.04Z"/><path d="M215.44,123.51c-.36,0-.72-.12-1.07-.35-.35-.23-.63-.53-.86-.88-.23-.35-.34-.71-.34-1.05,0-.57.16-1.03.48-1.38.32-.35.82-.66,1.49-.94l2.52-1.07c.35-.14.55-.26.62-.38.07-.11.11-.34.13-.69l.05-1.59c.02-.47-.09-.86-.34-1.17s-.6-.47-1.07-.47c-.24,0-.49.05-.74.14-.25.1-.46.2-.61.33-.09.07-.14.17-.17.29s-.04.25-.04.39c0,.09,0,.19.01.3s.01.2.01.27c0,.1-.12.23-.35.38-.23.15-.5.28-.81.4-.3.12-.56.18-.77.18-.1,0-.19-.03-.25-.09-.06-.06-.09-.14-.09-.25,0-.28.09-.57.27-.87.18-.3.46-.61.82-.92.42-.36.87-.69,1.36-.98.49-.29.98-.51,1.46-.66.48-.16.9-.23,1.26-.23.73,0,1.32.25,1.78.74.46.49.67,1.13.64,1.91l-.13,5.88c-.02.38.06.69.23.94.17.24.39.36.65.36.4,0,.71-.1.94-.31.07-.07.13-.1.18-.1.09,0,.16.03.22.08.06.05.09.12.09.21,0,.21-.12.43-.36.65-.29.29-.61.52-.95.69-.34.16-.66.25-.98.25-.87,0-1.56-.47-2.08-1.4h-.08c-.57.49-1.11.84-1.61,1.07-.5.23-1.02.34-1.56.34ZM216.8,122.1c.29,0,.54-.05.74-.14.2-.09.38-.23.53-.4.09-.09.15-.19.2-.33.04-.13.07-.33.09-.61l.05-1.48c.02-.17,0-.3-.03-.38-.04-.08-.1-.12-.21-.12-.04,0-.09,0-.16.03-.07.02-.17.05-.29.1-.78.29-1.33.6-1.64.92-.31.32-.47.67-.47,1.05,0,.47.12.81.38,1.03.25.22.52.33.79.33Z"/><path d="M232.84,123.64s-.1-.04-.18-.13-.13-.15-.13-.18c.02-.21.04-.46.08-.75s.05-.55.05-.75v-.16c-.29.45-.73.87-1.31,1.26-.58.39-1.28.58-2.09.58-.99,0-1.85-.26-2.57-.77-.73-.51-1.3-1.17-1.7-1.99-.41-.81-.61-1.68-.61-2.6,0-1.06.24-2.04.73-2.94.49-.9,1.18-1.62,2.08-2.17.9-.55,1.96-.82,3.17-.82.31,0,.64.03.97.09.34.06.6.13.79.2.19.05.3.08.34.08.12,0,.18-.18.18-.55v-3.46c0-.68-.1-1.14-.31-1.4-.21-.26-.51-.42-.91-.49-.17-.03-.26-.16-.26-.36,0-.17.08-.29.23-.34.73-.17,1.35-.35,1.87-.55.52-.19.94-.35,1.25-.47.12-.07.22-.11.29-.12.07,0,.12-.01.16-.01.14,0,.21.07.21.21,0,.05,0,.19-.03.42-.02.23-.04.55-.08.96-.04.42-.05.93-.05,1.53l-.05,12.25c0,.59.04,1.01.13,1.27.09.26.23.39.44.39.09,0,.22,0,.39-.03.17-.02.41-.03.7-.05.28-.02.42.07.42.26,0,.12-.04.24-.13.35-.09.11-.17.17-.26.17-.54.07-1.08.17-1.62.31s-1.12.34-1.73.6c-.14.07-.23.11-.29.13-.05.02-.1.03-.16.03ZM230.32,122c.38,0,.78-.1,1.21-.3s.78-.46,1.08-.79v-5.07c0-.4-.13-.8-.38-1.21-.25-.41-.59-.74-1.03-.99-.43-.25-.93-.38-1.48-.38-.4,0-.82.13-1.27.4-.45.27-.83.71-1.14,1.34-.31.62-.47,1.47-.47,2.52,0,.88.12,1.62.36,2.2.24.58.55,1.04.92,1.36.37.33.76.56,1.16.7.4.14.75.21,1.04.21Z"/><path d="M243.65,123.51c-.99,0-1.89-.23-2.69-.69-.81-.46-1.44-1.09-1.91-1.88-.47-.8-.7-1.71-.7-2.73,0-.76.15-1.5.44-2.21.29-.71.71-1.35,1.25-1.92.54-.57,1.16-1.03,1.87-1.36.71-.34,1.47-.51,2.29-.51,1.02,0,1.95.25,2.78.74.83.49,1.49,1.14,1.98,1.94.49.8.73,1.67.73,2.63,0,1.04-.22,2.02-.68,2.94-.45.92-1.12,1.66-2.01,2.22-.89.56-2.01.84-3.34.84ZM244.19,122.6c.5,0,.95-.1,1.35-.3.4-.2.71-.51.94-.92.21-.4.35-.89.43-1.47s.12-1.17.12-1.78c0-.87-.14-1.68-.42-2.44-.28-.76-.66-1.38-1.14-1.85-.49-.47-1.06-.7-1.72-.7-.4,0-.76.06-1.08.19s-.61.35-.87.66c-.33.4-.55.91-.65,1.55-.1.63-.16,1.32-.16,2.07,0,.83.14,1.63.42,2.39s.65,1.39,1.13,1.87,1.03.73,1.65.73Z"/><path d="M251.92,123.22c-.16,0-.28-.03-.38-.08-.1-.05-.14-.13-.14-.23,0-.14.06-.24.17-.3.11-.06.26-.12.43-.17.36-.09.62-.21.77-.36.15-.16.22-.36.22-.62v-5.72c0-.43-.06-.8-.18-1.1-.12-.3-.38-.5-.78-.58-.07-.02-.13-.06-.19-.13-.06-.07-.09-.16-.09-.26,0-.19.09-.31.26-.36.48-.14,1-.33,1.56-.58.55-.25,1-.47,1.35-.66.1-.07.2-.12.29-.16s.15-.05.18-.05c.12,0,.18.07.18.21,0,.07,0,.22-.01.44,0,.23-.02.48-.04.75-.02.28-.03.55-.03.81,0,.07.02.1.05.1.28-.35.58-.67.92-.96.34-.29.7-.53,1.08-.71.38-.18.75-.27,1.09-.27.45,0,.8.09,1.04.27.24.18.36.42.36.71,0,.19-.06.41-.17.66-.11.25-.26.47-.44.65-.18.18-.38.27-.58.27-.12,0-.25-.03-.39-.09-.14-.06-.29-.13-.44-.2-.14-.07-.28-.13-.43-.19-.15-.06-.29-.09-.43-.09-.43,0-.83.16-1.2.47-.36.31-.55.92-.55,1.82v4.89c0,.28.11.49.34.65.23.16.56.3,1.01.44.19.05.34.11.44.17.1.06.16.15.16.27,0,.21-.17.31-.49.31-.52,0-.97-.02-1.34-.06-.37-.04-.78-.06-1.24-.06-.29,0-.55,0-.78.03-.23.02-.46.04-.7.06-.24.03-.54.04-.88.04Z"/><path d="M263.71,123.51c-.36,0-.72-.12-1.07-.35-.35-.23-.63-.53-.86-.88-.23-.35-.34-.71-.34-1.05,0-.57.16-1.03.48-1.38.32-.35.82-.66,1.5-.94l2.52-1.07c.35-.14.55-.26.62-.38.07-.11.11-.34.13-.69l.05-1.59c.02-.47-.1-.86-.34-1.17-.24-.31-.6-.47-1.07-.47-.24,0-.49.05-.74.14-.25.1-.46.2-.61.33-.09.07-.14.17-.17.29-.03.12-.04.25-.04.39,0,.09,0,.19.01.3,0,.11.01.2.01.27,0,.1-.12.23-.35.38-.23.15-.5.28-.81.4-.3.12-.56.18-.77.18-.1,0-.19-.03-.25-.09-.06-.06-.09-.14-.09-.25,0-.28.09-.57.27-.87.18-.3.46-.61.82-.92.42-.36.87-.69,1.37-.98s.98-.51,1.46-.66c.48-.16.9-.23,1.26-.23.73,0,1.32.25,1.78.74.46.49.67,1.13.64,1.91l-.13,5.88c-.02.38.06.69.23.94.17.24.39.36.65.36.4,0,.71-.1.94-.31.07-.07.13-.1.18-.1.09,0,.16.03.22.08.06.05.09.12.09.21,0,.21-.12.43-.36.65-.29.29-.61.52-.95.69s-.66.25-.98.25c-.87,0-1.56-.47-2.08-1.4h-.08c-.57.49-1.11.84-1.61,1.07s-1.02.34-1.56.34ZM265.06,122.1c.29,0,.54-.05.74-.14.2-.09.38-.23.53-.4.09-.09.15-.19.19-.33.04-.13.07-.33.09-.61l.05-1.48c.02-.17,0-.3-.03-.38-.04-.08-.1-.12-.21-.12-.04,0-.09,0-.16.03-.07.02-.17.05-.29.1-.78.29-1.33.6-1.64.92-.31.32-.47.67-.47,1.05,0,.47.12.81.38,1.03.25.22.52.33.79.33Z"/><path d="M276.73,123.51c-.95,0-1.69-.27-2.2-.81-.51-.54-.77-1.33-.77-2.37v-6.03c0-.14-.06-.24-.17-.3-.11-.06-.33-.09-.66-.09h-.21c-.1,0-.19-.07-.26-.22-.07-.15-.1-.29-.1-.43,0-.03.02-.08.07-.14.04-.06.08-.1.12-.12.36-.23.72-.47,1.08-.74s.68-.54.99-.82c.3-.28.56-.52.77-.73.1-.09.19-.16.26-.23.07-.07.16-.1.26-.1s.2.03.27.08c.08.05.11.16.09.31l-.16,1.27c-.02.21.03.35.14.42.11.07.27.1.48.1h3.02c.05,0,.1.06.16.18.05.12.08.24.08.36,0,.19-.03.37-.08.55-.05.17-.11.26-.18.26h-2.52c-.43,0-.71.04-.84.13-.13.09-.2.29-.2.6v5.04c0,.73.15,1.29.44,1.68.29.39.71.58,1.25.58.5,0,.88-.04,1.14-.13.26-.09.49-.19.7-.31.05-.03.09-.05.13-.05.09,0,.14.04.17.13.03.09.04.18.04.29s-.16.29-.47.55c-.31.26-.72.51-1.22.74-.5.23-1.04.35-1.61.35Z"/><path d="M282.18,123.22c-.14,0-.26-.03-.35-.08-.1-.05-.14-.13-.14-.23,0-.14.06-.24.17-.3.11-.06.24-.11.38-.14.4-.1.69-.22.88-.34.19-.12.29-.34.29-.65v-5.62c0-.52-.09-.94-.26-1.26-.17-.32-.48-.52-.91-.58-.09-.02-.15-.06-.19-.12-.04-.06-.07-.15-.07-.27,0-.21.08-.32.23-.34.76-.17,1.42-.4,1.96-.69s.96-.52,1.24-.69c.19-.12.33-.18.42-.18.14,0,.21.07.21.21,0,.19-.02.49-.07.91-.04.42-.09.87-.13,1.35-.04.49-.07.94-.07,1.35v5.93c0,.28.1.49.29.62.19.14.49.26.88.36.14.03.26.08.38.14.11.06.17.16.17.3,0,.21-.16.31-.47.31-.33,0-.62-.01-.88-.04s-.51-.05-.74-.06c-.23-.02-.51-.03-.82-.03-.29,0-.56,0-.81.03-.24.02-.48.04-.71.06s-.52.04-.87.04ZM284.52,109.93c-.43,0-.8-.15-1.1-.46-.3-.3-.46-.67-.46-1.1s.15-.83.46-1.13c.3-.3.67-.46,1.1-.46s.83.15,1.14.46c.31.3.47.68.47,1.13s-.16.8-.47,1.1c-.31.3-.69.46-1.14.46Z"/><path d="M294.24,123.51c-.99,0-1.89-.23-2.69-.69-.81-.46-1.44-1.09-1.91-1.88-.47-.8-.7-1.71-.7-2.73,0-.76.15-1.5.44-2.21.29-.71.71-1.35,1.25-1.92.54-.57,1.16-1.03,1.87-1.36.71-.34,1.47-.51,2.29-.51,1.02,0,1.95.25,2.78.74.83.49,1.49,1.14,1.98,1.94.49.8.73,1.67.73,2.63,0,1.04-.22,2.02-.68,2.94-.45.92-1.12,1.66-2.01,2.22-.89.56-2.01.84-3.34.84ZM294.79,122.6c.5,0,.95-.1,1.35-.3.4-.2.71-.51.94-.92.21-.4.35-.89.43-1.47s.12-1.17.12-1.78c0-.87-.14-1.68-.42-2.44-.28-.76-.66-1.38-1.14-1.85-.49-.47-1.06-.7-1.72-.7-.4,0-.76.06-1.08.19s-.61.35-.87.66c-.33.4-.55.91-.65,1.55-.1.63-.16,1.32-.16,2.07,0,.83.14,1.63.42,2.39s.65,1.39,1.13,1.87,1.03.73,1.65.73Z"/><path d="M302.4,123.22c-.14,0-.26-.03-.36-.08-.1-.05-.16-.13-.16-.23,0-.14.06-.24.17-.3.11-.06.26-.12.43-.17.26-.07.5-.16.73-.29s.34-.36.34-.7v-5.72c0-.43-.05-.8-.14-1.1-.1-.3-.35-.51-.77-.61-.07-.02-.13-.06-.18-.12-.05-.06-.08-.14-.08-.25,0-.22.08-.35.23-.36.61-.16,1.16-.35,1.65-.57.49-.23.95-.48,1.37-.75.05-.03.11-.07.17-.1.06-.03.12-.05.17-.05.07,0,.12.02.14.06.03.04.04.1.04.17,0,.12-.02.36-.07.7s-.06.64-.06.88c0,.07,0,.14.01.21,0,.07.02.11.04.13.61-.57,1.23-1,1.88-1.3.65-.29,1.38-.44,2.2-.44.87,0,1.59.34,2.16,1.01.57.68.86,1.55.86,2.63v5.62c0,.35.12.57.35.68.23.1.48.2.74.29.14.05.27.11.39.18.12.07.18.17.18.31,0,.12-.06.2-.17.23-.11.03-.22.05-.33.05-.35,0-.64-.01-.87-.04-.23-.03-.46-.05-.68-.06-.22-.02-.48-.03-.79-.03-.29,0-.55,0-.78.03-.23.02-.46.04-.69.06-.23.03-.52.04-.87.04-.09,0-.19-.02-.31-.05-.12-.03-.18-.11-.18-.23,0-.14.06-.24.18-.31.12-.07.25-.13.39-.18.26-.09.5-.18.73-.29s.34-.33.34-.68v-5.38c0-.73-.19-1.29-.58-1.69-.39-.4-.9-.61-1.52-.62-.54,0-1.01.08-1.42.25s-.78.39-1.13.66c-.07.07-.12.16-.16.26-.04.1-.05.2-.05.29v6.24c0,.35.11.58.34.69.22.11.46.2.7.27.38.12.57.28.57.47,0,.1-.04.18-.13.23s-.21.08-.36.08c-.35,0-.64-.01-.87-.04-.23-.03-.45-.05-.65-.06-.2-.02-.46-.03-.77-.03-.29,0-.56,0-.78.03-.23.02-.46.04-.7.06-.24.03-.54.04-.88.04Z"/><path d="M331.52,123.64s-.1-.04-.18-.13-.13-.15-.13-.18c.02-.21.04-.46.08-.75s.05-.55.05-.75v-.16c-.29.45-.73.87-1.31,1.26-.58.39-1.28.58-2.09.58-.99,0-1.85-.26-2.57-.77-.73-.51-1.3-1.17-1.7-1.99-.41-.81-.61-1.68-.61-2.6,0-1.06.24-2.04.73-2.94.49-.9,1.18-1.62,2.08-2.17.9-.55,1.96-.82,3.17-.82.31,0,.64.03.97.09.34.06.6.13.79.2.19.05.3.08.34.08.12,0,.18-.18.18-.55v-3.46c0-.68-.1-1.14-.31-1.4-.21-.26-.51-.42-.91-.49-.17-.03-.26-.16-.26-.36,0-.17.08-.29.23-.34.73-.17,1.35-.35,1.87-.55.52-.19.94-.35,1.25-.47.12-.07.22-.11.29-.12.07,0,.12-.01.16-.01.14,0,.21.07.21.21,0,.05,0,.19-.03.42-.02.23-.04.55-.08.96-.04.42-.05.93-.05,1.53l-.05,12.25c0,.59.04,1.01.13,1.27.09.26.23.39.44.39.09,0,.22,0,.39-.03.17-.02.41-.03.7-.05.28-.02.42.07.42.26,0,.12-.04.24-.13.35-.09.11-.17.17-.26.17-.54.07-1.08.17-1.62.31s-1.12.34-1.73.6c-.14.07-.23.11-.29.13-.05.02-.1.03-.16.03ZM329,122c.38,0,.78-.1,1.21-.3s.78-.46,1.08-.79v-5.07c0-.4-.13-.8-.38-1.21-.25-.41-.59-.74-1.03-.99-.43-.25-.93-.38-1.48-.38-.4,0-.82.13-1.27.4-.45.27-.83.71-1.14,1.34-.31.62-.47,1.47-.47,2.52,0,.88.12,1.62.36,2.2.24.58.55,1.04.92,1.36.37.33.76.56,1.16.7.4.14.75.21,1.04.21Z"/><path d="M341.82,123.53c-.94,0-1.76-.24-2.48-.72-.72-.48-1.29-1.14-1.7-2s-.62-1.85-.62-2.98c0-1.02.24-1.96.71-2.81s1.11-1.53,1.91-2.04c.8-.51,1.67-.77,2.63-.77.71,0,1.35.14,1.91.43.56.29,1,.69,1.33,1.2.32.51.48,1.1.48,1.75,0,.57-.27.86-.81.86h-5.38c-.24,0-.42.07-.52.21-.1.14-.16.39-.16.75,0,.76.17,1.46.52,2.09s.81,1.14,1.38,1.52,1.2.57,1.9.57c.52,0,.99-.1,1.42-.3.42-.2.82-.48,1.18-.85.05-.07.1-.12.14-.16.04-.03.09-.05.14-.05.16,0,.23.1.23.29,0,.28-.12.61-.36.99-.24.36-.55.7-.92,1-.37.3-.81.55-1.3.73-.49.18-1.04.27-1.62.27ZM339.82,115.58h2.08c.45,0,.81,0,1.07-.03s.5-.05.73-.1c.09-.03.15-.11.18-.22.03-.11.05-.26.05-.43,0-.48-.2-.9-.6-1.23-.4-.34-.88-.51-1.43-.51-.38,0-.76.11-1.13.34-.37.23-.68.51-.92.85-.24.34-.36.68-.34,1.03,0,.21.1.31.31.31Z"/><path d="M354.59,123.22c-.12,0-.24-.02-.35-.05-.11-.03-.17-.11-.17-.23,0-.14.06-.24.18-.3.12-.06.26-.13.42-.2.26-.09.5-.18.73-.29s.34-.34.34-.7v-12.87c0-.5-.08-.92-.25-1.26-.17-.34-.46-.55-.9-.64-.14-.03-.21-.16-.21-.36,0-.19.06-.3.18-.34.45-.09.88-.2,1.27-.34.4-.14.77-.28,1.12-.42.35-.14.66-.26.94-.36.1-.03.18-.05.23-.05s.09.03.12.08c.03.05.04.1.04.16,0,.14-.03.43-.08.88-.05.45-.08,1.13-.08,2.03v13.49c0,.35.11.58.34.69.22.11.47.21.73.3.16.05.29.11.42.18.12.07.18.17.18.31,0,.1-.06.17-.17.21-.11.03-.23.05-.35.05-.33,0-.62,0-.86-.03-.24-.02-.48-.03-.7-.05-.23-.02-.49-.03-.81-.03-.29,0-.55,0-.78.03-.23.02-.45.04-.68.06s-.51.04-.86.04Z"/><path d="M363.91,123.51c-.36,0-.72-.12-1.07-.35-.35-.23-.63-.53-.86-.88-.23-.35-.34-.71-.34-1.05,0-.57.16-1.03.48-1.38.32-.35.82-.66,1.5-.94l2.52-1.07c.35-.14.55-.26.62-.38.07-.11.11-.34.13-.69l.05-1.59c.02-.47-.1-.86-.34-1.17-.24-.31-.6-.47-1.07-.47-.24,0-.49.05-.74.14-.25.1-.46.2-.61.33-.09.07-.14.17-.17.29-.03.12-.04.25-.04.39,0,.09,0,.19.01.3,0,.11.01.2.01.27,0,.1-.12.23-.35.38-.23.15-.5.28-.81.4-.3.12-.56.18-.77.18-.1,0-.19-.03-.25-.09-.06-.06-.09-.14-.09-.25,0-.28.09-.57.27-.87.18-.3.46-.61.82-.92.42-.36.87-.69,1.37-.98s.98-.51,1.46-.66c.48-.16.9-.23,1.26-.23.73,0,1.32.25,1.78.74.46.49.67,1.13.64,1.91l-.13,5.88c-.02.38.06.69.23.94.17.24.39.36.65.36.4,0,.71-.1.94-.31.07-.07.13-.1.18-.1.09,0,.16.03.22.08.06.05.09.12.09.21,0,.21-.12.43-.36.65-.29.29-.61.52-.95.69s-.66.25-.98.25c-.87,0-1.56-.47-2.08-1.4h-.08c-.57.49-1.11.84-1.61,1.07s-1.02.34-1.56.34ZM365.26,122.1c.29,0,.54-.05.74-.14.2-.09.38-.23.53-.4.09-.09.15-.19.19-.33.04-.13.07-.33.09-.61l.05-1.48c.02-.17,0-.3-.03-.38-.04-.08-.1-.12-.21-.12-.04,0-.09,0-.16.03-.07.02-.17.05-.29.1-.78.29-1.33.6-1.64.92-.31.32-.47.67-.47,1.05,0,.47.12.81.38,1.03.25.22.52.33.79.33Z"/><path d="M388.14,123.32c-.33,0-.81-.02-1.44-.05s-1.3-.06-2.01-.09-1.34-.04-1.9-.04c-.35,0-.67,0-.97.03-.3.02-.62.03-.95.05-.33.02-.71.03-1.14.03-.19,0-.35-.03-.48-.08-.13-.05-.19-.14-.19-.26,0-.14.06-.24.18-.3.12-.06.31-.12.57-.17.66-.12,1.11-.31,1.36-.57.25-.26.38-.68.38-1.27v-11.75c0-.59-.13-1.01-.38-1.26-.25-.25-.71-.45-1.36-.58-.26-.05-.45-.11-.57-.18-.12-.07-.18-.17-.18-.31,0-.12.06-.21.19-.27.13-.06.29-.09.48-.09.43,0,.81,0,1.14.03.33.02.65.03.96.04.31,0,.67.01,1.07.01.28,0,.63,0,1.07-.03.43-.02.89-.04,1.38-.08.48-.03.94-.06,1.35-.08.42-.02.74-.03.96-.03,1.59,0,2.99.21,4.2.62,1.2.42,2.21,1,3,1.75.8.75,1.4,1.63,1.81,2.64.41,1.01.61,2.1.61,3.28s-.22,2.36-.66,3.44c-.44,1.08-1.08,2.05-1.9,2.89-.82.84-1.79,1.5-2.9,1.98-1.11.48-2.33.72-3.67.72ZM387.8,122.26c1.28,0,2.4-.31,3.35-.94s1.69-1.5,2.21-2.61c.52-1.12.78-2.4.78-3.86,0-1.23-.18-2.33-.55-3.29s-.85-1.78-1.47-2.46c-.62-.68-1.33-1.19-2.13-1.55-.81-.35-1.65-.53-2.54-.53-.68,0-1.25.02-1.73.06-.48.04-.84.16-1.08.35-.24.19-.36.51-.36.96v11.49c0,.66.16,1.16.48,1.5s.75.57,1.29.69c.54.12,1.12.18,1.74.18Z"/><path d="M404.26,123.53c-.94,0-1.76-.24-2.48-.72-.72-.48-1.29-1.14-1.7-2s-.62-1.85-.62-2.98c0-1.02.24-1.96.71-2.81s1.11-1.53,1.91-2.04c.8-.51,1.67-.77,2.63-.77.71,0,1.35.14,1.91.43.56.29,1,.69,1.33,1.2.32.51.48,1.1.48,1.75,0,.57-.27.86-.81.86h-5.38c-.24,0-.42.07-.52.21-.1.14-.16.39-.16.75,0,.76.17,1.46.52,2.09s.81,1.14,1.38,1.52,1.2.57,1.9.57c.52,0,.99-.1,1.42-.3.42-.2.82-.48,1.18-.85.05-.07.1-.12.14-.16.04-.03.09-.05.14-.05.16,0,.23.1.23.29,0,.28-.12.61-.36.99-.24.36-.55.7-.92,1-.37.3-.81.55-1.3.73-.49.18-1.04.27-1.62.27ZM402.26,115.58h2.08c.45,0,.81,0,1.07-.03s.5-.05.73-.1c.09-.03.15-.11.18-.22.03-.11.05-.26.05-.43,0-.48-.2-.9-.6-1.23-.4-.34-.88-.51-1.43-.51-.38,0-.76.11-1.13.34-.37.23-.68.51-.92.85-.24.34-.36.68-.34,1.03,0,.21.1.31.31.31ZM404,111.29c-.16,0-.23-.09-.23-.26,0-.05,0-.12.03-.21.02-.09.04-.18.08-.29.12-.33.31-.75.56-1.25.25-.5.5-1,.75-1.48.25-.49.45-.85.58-1.09.1-.17.23-.3.38-.39.15-.09.31-.13.48-.13.36,0,.68.04.96.13s.42.23.42.44c0,.1-.02.19-.06.27-.04.08-.11.18-.2.3-.26.33-.57.71-.92,1.14-.36.43-.72.86-1.09,1.27-.37.42-.7.76-.98,1.04-.33.33-.58.49-.75.49Z"/><path d="M410.69,123.22c-.14,0-.26-.03-.35-.08-.1-.05-.14-.13-.14-.23,0-.14.06-.24.17-.3.11-.06.24-.11.38-.14.4-.1.69-.22.88-.34.19-.12.29-.34.29-.65v-5.62c0-.52-.09-.94-.26-1.26-.17-.32-.48-.52-.91-.58-.09-.02-.15-.06-.19-.12-.04-.06-.07-.15-.07-.27,0-.21.08-.32.23-.34.76-.17,1.42-.4,1.96-.69s.96-.52,1.24-.69c.19-.12.33-.18.42-.18.14,0,.21.07.21.21,0,.19-.02.49-.07.91-.04.42-.09.87-.13,1.35-.04.49-.07.94-.07,1.35v5.93c0,.28.1.49.29.62.19.14.49.26.88.36.14.03.26.08.38.14.11.06.17.16.17.3,0,.21-.16.31-.47.31-.33,0-.62-.01-.88-.04s-.51-.05-.74-.06c-.23-.02-.51-.03-.82-.03-.29,0-.56,0-.81.03-.24.02-.48.04-.71.06s-.52.04-.87.04ZM413.03,109.93c-.43,0-.8-.15-1.1-.46-.3-.3-.46-.67-.46-1.1s.15-.83.46-1.13c.3-.3.67-.46,1.1-.46s.83.15,1.14.46c.31.3.47.68.47,1.13s-.16.8-.47,1.1c-.31.3-.69.46-1.14.46Z"/><path d="M421.67,123.51c-.95,0-1.69-.27-2.2-.81-.51-.54-.77-1.33-.77-2.37v-6.03c0-.14-.06-.24-.17-.3-.11-.06-.33-.09-.66-.09h-.21c-.1,0-.19-.07-.26-.22-.07-.15-.1-.29-.1-.43,0-.03.02-.08.07-.14.04-.06.08-.1.12-.12.36-.23.72-.47,1.08-.74s.68-.54.99-.82c.3-.28.56-.52.77-.73.1-.09.19-.16.26-.23.07-.07.16-.1.26-.1s.2.03.27.08c.08.05.11.16.09.31l-.16,1.27c-.02.21.03.35.14.42.11.07.27.1.48.1h3.02c.05,0,.1.06.16.18.05.12.08.24.08.36,0,.19-.03.37-.08.55-.05.17-.11.26-.18.26h-2.52c-.43,0-.71.04-.84.13-.13.09-.2.29-.2.6v5.04c0,.73.15,1.29.44,1.68.29.39.71.58,1.25.58.5,0,.88-.04,1.14-.13.26-.09.49-.19.7-.31.05-.03.09-.05.13-.05.09,0,.14.04.17.13.03.09.04.18.04.29s-.16.29-.47.55c-.31.26-.72.51-1.22.74-.5.23-1.04.35-1.61.35Z"/><path d="M431.24,123.53c-.94,0-1.76-.24-2.48-.72-.72-.48-1.29-1.14-1.7-2s-.62-1.85-.62-2.98c0-1.02.24-1.96.71-2.81s1.11-1.53,1.91-2.04c.8-.51,1.67-.77,2.63-.77.71,0,1.35.14,1.91.43.56.29,1,.69,1.33,1.2.32.51.48,1.1.48,1.75,0,.57-.27.86-.81.86h-5.38c-.24,0-.42.07-.52.21-.1.14-.16.39-.16.75,0,.76.17,1.46.52,2.09s.81,1.14,1.38,1.52,1.2.57,1.9.57c.52,0,.99-.1,1.42-.3.42-.2.82-.48,1.18-.85.05-.07.1-.12.14-.16.04-.03.09-.05.14-.05.16,0,.23.1.23.29,0,.28-.12.61-.36.99-.24.36-.55.7-.92,1-.37.3-.81.55-1.3.73-.49.18-1.04.27-1.62.27ZM429.23,115.58h2.08c.45,0,.81,0,1.07-.03s.5-.05.73-.1c.09-.03.15-.11.18-.22.03-.11.05-.26.05-.43,0-.48-.2-.9-.6-1.23-.4-.34-.88-.51-1.43-.51-.38,0-.76.11-1.13.34-.37.23-.68.51-.92.85-.24.34-.36.68-.34,1.03,0,.21.1.31.31.31ZM430.98,111.29c-.16,0-.23-.09-.23-.26,0-.05,0-.12.03-.21.02-.09.04-.18.08-.29.12-.33.31-.75.56-1.25.25-.5.5-1,.75-1.48.25-.49.45-.85.58-1.09.1-.17.23-.3.38-.39.15-.09.31-.13.48-.13.36,0,.68.04.96.13s.42.23.42.44c0,.1-.02.19-.06.27-.04.08-.11.18-.2.3-.26.33-.57.71-.92,1.14-.36.43-.72.86-1.09,1.27-.37.42-.7.76-.98,1.04-.33.33-.58.49-.75.49Z"/><path d="M439.88,123.66c-.45,0-.84-.17-1.17-.49-.33-.33-.49-.72-.49-1.17,0-.48.16-.89.49-1.21.33-.32.72-.48,1.17-.48s.86.16,1.18.48c.32.32.48.72.48,1.21,0,.45-.16.84-.48,1.17-.32.33-.71.49-1.18.49Z"/></g><g id="f"><path d="M72.08,123.27c-.21,0-.38-.03-.52-.09-.14-.06-.21-.15-.21-.27,0-.14.07-.25.21-.34.14-.09.33-.17.57-.26.47-.14.89-.35,1.27-.62.38-.28.69-.7.94-1.27.47-1.06.9-2.07,1.3-3.03.4-.96.78-1.91,1.14-2.85.36-.94.74-1.9,1.12-2.9.38-1,.77-2.06,1.17-3.19.16-.4.27-.73.34-1,.07-.27.11-.51.13-.71.23-.05.43-.11.62-.17.19-.06.4-.15.62-.27.21-.1.37-.26.48-.46.11-.2.2-.34.27-.43.03-.02.07-.03.12-.04.04,0,.08.02.12.09.05.09.09.18.12.29.03.1.06.22.09.34.4,1.27.81,2.55,1.23,3.86.42,1.31.85,2.59,1.26,3.83.42,1.25.81,2.4,1.17,3.47.36,1.07.68,2,.94,2.79.19.57.42,1.01.68,1.31.26.3.54.53.83.68.29.15.62.26.96.33.26.05.46.13.58.23s.2.23.2.36c0,.1-.07.18-.2.22s-.29.06-.48.06c-.28,0-.64-.01-1.09-.04-.45-.03-.92-.05-1.4-.06s-.93-.03-1.33-.03h-1.09c-.4,0-.78,0-1.13.03-.36.02-.66.03-.92.03-.21,0-.38-.03-.51-.09-.13-.06-.19-.14-.19-.25,0-.14.08-.25.23-.34.16-.09.34-.15.55-.18.59-.1,1.02-.26,1.29-.47.27-.21.38-.49.33-.83-.02-.29-.08-.66-.18-1.1-.1-.44-.23-.91-.36-1.4-.14-.49-.27-.95-.39-1.36-.04-.14-.1-.23-.18-.26-.09-.03-.23-.05-.44-.05h-4.81c-.09,0-.17.03-.23.09-.07.06-.14.18-.21.35-.05.21-.13.47-.25.79-.11.32-.22.66-.33,1.01-.1.36-.19.68-.27.99-.08.3-.13.52-.14.66-.05.43.06.78.33,1.03.27.25.67.45,1.21.58.52.14.78.31.78.52,0,.12-.06.2-.19.25s-.3.06-.51.06c-.33,0-.71,0-1.14-.03-.43-.02-.89-.03-1.38-.03-.56,0-1.09.03-1.61.08-.52.05-1.01.08-1.48.08ZM78.24,115.76h3.8c.24,0,.36-.04.36-.13,0-.05,0-.09-.01-.13,0-.03-.02-.09-.04-.16l-1.92-6.16c-.09-.28-.16-.42-.21-.42-.04,0-.1.13-.18.39l-2.26,6.19c-.04.1-.05.17-.05.21,0,.09.05.14.14.17.1.03.22.04.38.04Z"/><path d="M92.1,123.22c-.16,0-.28-.03-.38-.08s-.14-.13-.14-.23c0-.14.06-.24.17-.3.11-.06.26-.12.43-.17.36-.09.62-.21.77-.36.15-.16.22-.36.22-.62v-5.72c0-.43-.06-.8-.18-1.1-.12-.3-.38-.5-.78-.58-.07-.02-.13-.06-.19-.13-.06-.07-.09-.16-.09-.26,0-.19.09-.31.26-.36.49-.14,1.01-.33,1.56-.58.55-.25,1-.47,1.35-.66.1-.07.2-.12.29-.16.09-.03.15-.05.18-.05.12,0,.18.07.18.21,0,.07,0,.22-.01.44,0,.23-.02.48-.04.75-.02.28-.03.55-.03.81,0,.07.02.1.05.1.28-.35.58-.67.92-.96.34-.29.7-.53,1.08-.71.38-.18.75-.27,1.09-.27.45,0,.8.09,1.04.27.24.18.36.42.36.71,0,.19-.06.41-.17.66-.11.25-.26.47-.44.65-.18.18-.38.27-.58.27-.12,0-.25-.03-.39-.09-.14-.06-.29-.13-.44-.2-.14-.07-.28-.13-.43-.19-.15-.06-.29-.09-.43-.09-.43,0-.83.16-1.2.47-.36.31-.55.92-.55,1.82v4.89c0,.28.11.49.34.65.23.16.56.3,1.01.44.19.05.34.11.44.17s.16.15.16.27c0,.21-.17.31-.49.31-.52,0-.97-.02-1.34-.06-.37-.04-.78-.06-1.23-.06-.29,0-.56,0-.78.03-.23.02-.46.04-.7.06-.24.03-.54.04-.88.04Z"/><path d="M106.44,123.51c-.95,0-1.69-.27-2.2-.81s-.77-1.33-.77-2.37v-6.03c0-.14-.06-.24-.17-.3-.11-.06-.33-.09-.66-.09h-.21c-.1,0-.19-.07-.26-.22-.07-.15-.1-.29-.1-.43,0-.03.02-.08.06-.14.04-.06.08-.1.12-.12.36-.23.72-.47,1.08-.74s.68-.54.99-.82c.3-.28.56-.52.77-.73.1-.09.19-.16.26-.23.07-.07.16-.1.26-.1s.19.03.27.08c.08.05.11.16.09.31l-.16,1.27c-.02.21.03.35.14.42.11.07.27.1.48.1h3.02c.05,0,.1.06.16.18.05.12.08.24.08.36,0,.19-.03.37-.08.55-.05.17-.11.26-.18.26h-2.52c-.43,0-.71.04-.84.13-.13.09-.2.29-.2.6v5.04c0,.73.15,1.29.44,1.68.29.39.71.58,1.25.58.5,0,.88-.04,1.14-.13.26-.09.49-.19.7-.31.05-.03.1-.05.13-.05.09,0,.14.04.17.13.03.09.04.18.04.29s-.16.29-.47.55c-.31.26-.72.51-1.22.74-.5.23-1.04.35-1.61.35Z"/><path d="M111.89,123.22c-.14,0-.26-.03-.35-.08-.1-.05-.14-.13-.14-.23,0-.14.06-.24.17-.3.11-.06.24-.11.38-.14.4-.1.69-.22.88-.34.19-.12.29-.34.29-.65v-5.62c0-.52-.09-.94-.26-1.26-.17-.32-.48-.52-.91-.58-.09-.02-.15-.06-.19-.12-.04-.06-.07-.15-.07-.27,0-.21.08-.32.23-.34.76-.17,1.42-.4,1.96-.69s.96-.52,1.23-.69c.19-.12.33-.18.42-.18.14,0,.21.07.21.21,0,.19-.02.49-.06.91-.04.42-.09.87-.13,1.35-.04.49-.06.94-.06,1.35v5.93c0,.28.09.49.29.62.19.14.49.26.88.36.14.03.26.08.38.14.11.06.17.16.17.3,0,.21-.16.31-.47.31-.33,0-.62-.01-.88-.04-.26-.03-.51-.05-.74-.06-.23-.02-.51-.03-.82-.03-.29,0-.56,0-.81.03-.24.02-.48.04-.72.06s-.52.04-.87.04ZM114.23,109.93c-.43,0-.8-.15-1.1-.46-.3-.3-.46-.67-.46-1.1s.15-.83.46-1.13c.3-.3.67-.46,1.1-.46s.83.15,1.14.46.47.68.47,1.13-.16.8-.47,1.1c-.31.3-.69.46-1.14.46Z"/><path d="M122.25,123.51c-.56,0-1.08-.08-1.57-.23-.49-.16-.92-.38-1.29-.68-.12-.23-.21-.58-.26-1.07-.05-.49-.08-.93-.08-1.33,0-.17.13-.26.39-.26.1,0,.19.02.27.07s.13.1.14.17c.26.81.62,1.43,1.09,1.85.47.42.98.62,1.53.62.48,0,.88-.16,1.2-.48.31-.32.47-.71.47-1.16s-.17-.86-.49-1.18c-.33-.32-.83-.69-1.51-1.1-.56-.33-1.03-.65-1.43-.98-.4-.32-.7-.68-.91-1.07s-.31-.84-.31-1.34c0-.61.15-1.14.46-1.61.3-.47.73-.84,1.29-1.12s1.22-.42,2-.42c.55,0,1.03.06,1.42.17s.67.23.85.35c.14.19.26.5.35.94.09.43.14.87.14,1.3,0,.14-.11.21-.34.21-.1,0-.21-.03-.32-.08-.11-.05-.19-.12-.22-.21-.23-.61-.51-1.07-.85-1.38-.34-.31-.75-.47-1.23-.47-.42,0-.79.13-1.12.38s-.49.61-.49,1.08c0,.4.14.75.43,1.05.29.3.74.63,1.37.98,1.04.57,1.81,1.11,2.3,1.62.49.51.74,1.19.74,2.04,0,1.01-.36,1.81-1.08,2.42s-1.69.91-2.92.91Z"/><path d="M130.8,123.51c-.36,0-.72-.12-1.07-.35-.35-.23-.63-.53-.86-.88-.23-.35-.34-.71-.34-1.05,0-.57.16-1.03.48-1.38.32-.35.82-.66,1.49-.94l2.52-1.07c.35-.14.55-.26.62-.38.07-.11.11-.34.13-.69l.05-1.59c.02-.47-.1-.86-.34-1.17-.24-.31-.6-.47-1.07-.47-.24,0-.49.05-.74.14-.25.1-.46.2-.61.33-.09.07-.14.17-.17.29-.03.12-.04.25-.04.39,0,.09,0,.19.01.3s.01.2.01.27c0,.1-.12.23-.35.38-.23.15-.5.28-.81.4-.3.12-.56.18-.77.18-.1,0-.19-.03-.25-.09-.06-.06-.09-.14-.09-.25,0-.28.09-.57.27-.87.18-.3.45-.61.82-.92.42-.36.87-.69,1.36-.98.49-.29.98-.51,1.46-.66.48-.16.9-.23,1.26-.23.73,0,1.32.25,1.78.74.46.49.67,1.13.64,1.91l-.13,5.88c-.02.38.06.69.23.94.17.24.39.36.65.36.4,0,.71-.1.94-.31.07-.07.13-.1.18-.1.09,0,.16.03.22.08.06.05.09.12.09.21,0,.21-.12.43-.36.65-.29.29-.61.52-.95.69-.34.16-.66.25-.98.25-.87,0-1.56-.47-2.08-1.4h-.08c-.57.49-1.11.84-1.61,1.07-.5.23-1.02.34-1.56.34ZM132.15,122.1c.29,0,.54-.05.74-.14.2-.09.38-.23.53-.4.09-.09.15-.19.19-.33.04-.13.07-.33.09-.61l.05-1.48c.02-.17,0-.3-.03-.38-.04-.08-.1-.12-.21-.12-.04,0-.09,0-.16.03-.07.02-.17.05-.29.1-.78.29-1.33.6-1.64.92s-.47.67-.47,1.05c0,.47.13.81.38,1.03.25.22.52.33.79.33Z"/><path d="M140.53,123.22c-.14,0-.26-.03-.36-.08s-.16-.13-.16-.23c0-.14.06-.24.17-.3.11-.06.26-.12.43-.17.26-.07.5-.16.73-.29s.34-.36.34-.7v-5.72c0-.43-.05-.8-.14-1.1-.1-.3-.35-.51-.77-.61-.07-.02-.13-.06-.18-.12-.05-.06-.08-.14-.08-.25,0-.22.08-.35.23-.36.61-.16,1.16-.35,1.65-.57s.95-.48,1.36-.75c.05-.03.11-.07.17-.1.06-.03.12-.05.17-.05.07,0,.12.02.14.06.03.04.04.1.04.17,0,.12-.02.36-.06.7-.04.35-.06.64-.06.88,0,.07,0,.14.01.21,0,.07.02.11.04.13.61-.57,1.23-1,1.88-1.3.65-.29,1.38-.44,2.2-.44.87,0,1.59.34,2.16,1.01.57.68.86,1.55.86,2.63v5.62c0,.35.12.57.35.68s.48.2.74.29c.14.05.27.11.39.18.12.07.18.17.18.31,0,.12-.06.2-.17.23-.11.03-.22.05-.33.05-.35,0-.64-.01-.87-.04-.23-.03-.46-.05-.68-.06-.22-.02-.48-.03-.79-.03-.29,0-.55,0-.78.03-.23.02-.46.04-.69.06-.23.03-.52.04-.87.04-.09,0-.19-.02-.31-.05-.12-.03-.18-.11-.18-.23,0-.14.06-.24.18-.31.12-.07.25-.13.39-.18.26-.09.5-.18.73-.29.22-.1.34-.33.34-.68v-5.38c0-.73-.2-1.29-.58-1.69-.39-.4-.9-.61-1.52-.62-.54,0-1.01.08-1.42.25-.41.16-.78.39-1.13.66-.07.07-.12.16-.16.26-.04.1-.05.2-.05.29v6.24c0,.35.11.58.34.69.23.11.46.2.7.27.38.12.57.28.57.47,0,.1-.04.18-.13.23-.09.05-.21.08-.36.08-.35,0-.64-.01-.87-.04s-.45-.05-.65-.06c-.2-.02-.46-.03-.77-.03-.29,0-.55,0-.78.03-.23.02-.46.04-.7.06s-.54.04-.88.04Z"/><path d="M157.11,123.51c-.36,0-.72-.12-1.07-.35-.35-.23-.63-.53-.86-.88-.23-.35-.34-.71-.34-1.05,0-.57.16-1.03.48-1.38.32-.35.82-.66,1.49-.94l2.52-1.07c.35-.14.55-.26.62-.38.07-.11.11-.34.13-.69l.05-1.59c.02-.47-.1-.86-.34-1.17-.24-.31-.6-.47-1.07-.47-.24,0-.49.05-.74.14-.25.1-.46.2-.61.33-.09.07-.14.17-.17.29-.03.12-.04.25-.04.39,0,.09,0,.19.01.3s.01.2.01.27c0,.1-.12.23-.35.38-.23.15-.5.28-.81.4-.3.12-.56.18-.77.18-.1,0-.19-.03-.25-.09-.06-.06-.09-.14-.09-.25,0-.28.09-.57.27-.87.18-.3.45-.61.82-.92.42-.36.87-.69,1.36-.98.49-.29.98-.51,1.46-.66.48-.16.9-.23,1.26-.23.73,0,1.32.25,1.78.74.46.49.67,1.13.64,1.91l-.13,5.88c-.02.38.06.69.23.94.17.24.39.36.65.36.4,0,.71-.1.94-.31.07-.07.13-.1.18-.1.09,0,.16.03.22.08.06.05.09.12.09.21,0,.21-.12.43-.36.65-.29.29-.61.52-.95.69-.34.16-.66.25-.98.25-.87,0-1.56-.47-2.08-1.4h-.08c-.57.49-1.11.84-1.61,1.07-.5.23-1.02.34-1.56.34ZM158.46,122.1c.29,0,.54-.05.74-.14.2-.09.38-.23.53-.4.09-.09.15-.19.19-.33.04-.13.07-.33.09-.61l.05-1.48c.02-.17,0-.3-.03-.38-.04-.08-.1-.12-.21-.12-.04,0-.09,0-.16.03-.07.02-.17.05-.29.1-.78.29-1.33.6-1.64.92s-.47.67-.47,1.05c0,.47.13.81.38,1.03.25.22.52.33.79.33Z"/><path d="M170.12,123.51c-.95,0-1.69-.27-2.2-.81s-.77-1.33-.77-2.37v-6.03c0-.14-.06-.24-.17-.3-.11-.06-.33-.09-.66-.09h-.21c-.1,0-.19-.07-.26-.22-.07-.15-.1-.29-.1-.43,0-.03.02-.08.06-.14.04-.06.08-.1.12-.12.36-.23.72-.47,1.08-.74s.68-.54.99-.82c.3-.28.56-.52.77-.73.1-.09.19-.16.26-.23.07-.07.16-.1.26-.1s.19.03.27.08c.08.05.11.16.09.31l-.16,1.27c-.02.21.03.35.14.42.11.07.27.1.48.1h3.02c.05,0,.1.06.16.18.05.12.08.24.08.36,0,.19-.03.37-.08.55-.05.17-.11.26-.18.26h-2.52c-.43,0-.71.04-.84.13-.13.09-.2.29-.2.6v5.04c0,.73.15,1.29.44,1.68.29.39.71.58,1.25.58.5,0,.88-.04,1.14-.13.26-.09.49-.19.7-.31.05-.03.09-.05.13-.05.09,0,.14.04.17.13.03.09.04.18.04.29s-.16.29-.47.55c-.31.26-.72.51-1.22.74-.5.23-1.04.35-1.61.35Z"/><path d="M186.04,123.53c-.94,0-1.76-.24-2.48-.72-.72-.48-1.29-1.14-1.7-2s-.62-1.85-.62-2.98c0-1.02.24-1.96.71-2.81s1.11-1.53,1.91-2.04,1.67-.77,2.63-.77c.71,0,1.35.14,1.91.43.56.29,1,.69,1.33,1.2.32.51.48,1.1.48,1.75,0,.57-.27.86-.81.86h-5.38c-.24,0-.42.07-.52.21-.1.14-.16.39-.16.75,0,.76.17,1.46.52,2.09s.81,1.14,1.38,1.52,1.21.57,1.9.57c.52,0,.99-.1,1.42-.3.42-.2.82-.48,1.18-.85.05-.07.1-.12.14-.16.04-.03.09-.05.14-.05.16,0,.23.1.23.29,0,.28-.12.61-.36.99-.24.36-.55.7-.92,1-.37.3-.81.55-1.3.73-.49.18-1.04.27-1.62.27ZM184.03,115.58h2.08c.45,0,.81,0,1.07-.03s.5-.05.73-.1c.09-.03.15-.11.18-.22.03-.11.05-.26.05-.43,0-.48-.2-.9-.6-1.23-.4-.34-.88-.51-1.43-.51-.38,0-.76.11-1.13.34-.37.23-.68.51-.92.85-.24.34-.36.68-.34,1.03,0,.21.1.31.31.31Z"/><path d="M192.46,123.22c-.14,0-.26-.03-.36-.08-.1-.05-.16-.13-.16-.23,0-.14.06-.24.17-.3.11-.06.25-.12.43-.17.26-.07.5-.16.73-.29.23-.12.34-.36.34-.7v-5.72c0-.43-.05-.8-.14-1.1-.1-.3-.35-.51-.77-.61-.07-.02-.13-.06-.18-.12-.05-.06-.08-.14-.08-.25,0-.22.08-.35.23-.36.61-.16,1.16-.35,1.65-.57s.95-.48,1.36-.75c.05-.03.11-.07.17-.1.06-.03.12-.05.17-.05.07,0,.12.02.14.06.03.04.04.1.04.17,0,.12-.02.36-.07.7s-.06.64-.06.88c0,.07,0,.14.01.21,0,.07.02.11.04.13.61-.57,1.24-1,1.88-1.3.65-.29,1.38-.44,2.2-.44.87,0,1.59.34,2.16,1.01.57.68.86,1.55.86,2.63v5.62c0,.35.12.57.35.68.23.1.48.2.74.29.14.05.27.11.39.18.12.07.18.17.18.31,0,.12-.06.2-.17.23-.11.03-.22.05-.33.05-.35,0-.64-.01-.87-.04-.23-.03-.46-.05-.68-.06-.22-.02-.48-.03-.79-.03-.29,0-.55,0-.78.03-.23.02-.46.04-.69.06s-.52.04-.87.04c-.09,0-.19-.02-.31-.05-.12-.03-.18-.11-.18-.23,0-.14.06-.24.18-.31.12-.07.25-.13.39-.18.26-.09.5-.18.73-.29.22-.1.34-.33.34-.68v-5.38c0-.73-.2-1.29-.58-1.69-.39-.4-.9-.61-1.52-.62-.54,0-1.01.08-1.42.25s-.78.39-1.13.66c-.07.07-.12.16-.16.26s-.05.2-.05.29v6.24c0,.35.11.58.34.69.23.11.46.2.7.27.38.12.57.28.57.47,0,.1-.04.18-.13.23-.09.05-.21.08-.36.08-.35,0-.64-.01-.87-.04-.23-.03-.45-.05-.65-.06-.2-.02-.46-.03-.77-.03-.29,0-.55,0-.78.03-.23.02-.46.04-.7.06-.24.03-.54.04-.88.04Z"/><path d="M215.44,123.51c-.36,0-.72-.12-1.07-.35-.35-.23-.63-.53-.86-.88-.23-.35-.34-.71-.34-1.05,0-.57.16-1.03.48-1.38.32-.35.82-.66,1.49-.94l2.52-1.07c.35-.14.55-.26.62-.38.07-.11.11-.34.13-.69l.05-1.59c.02-.47-.09-.86-.34-1.17s-.6-.47-1.07-.47c-.24,0-.49.05-.74.14-.25.1-.46.2-.61.33-.09.07-.14.17-.17.29s-.04.25-.04.39c0,.09,0,.19.01.3s.01.2.01.27c0,.1-.12.23-.35.38-.23.15-.5.28-.81.4-.3.12-.56.18-.77.18-.1,0-.19-.03-.25-.09-.06-.06-.09-.14-.09-.25,0-.28.09-.57.27-.87.18-.3.46-.61.82-.92.42-.36.87-.69,1.36-.98.49-.29.98-.51,1.46-.66.48-.16.9-.23,1.26-.23.73,0,1.32.25,1.78.74.46.49.67,1.13.64,1.91l-.13,5.88c-.02.38.06.69.23.94.17.24.39.36.65.36.4,0,.71-.1.94-.31.07-.07.13-.1.18-.1.09,0,.16.03.22.08.06.05.09.12.09.21,0,.21-.12.43-.36.65-.29.29-.61.52-.95.69-.34.16-.66.25-.98.25-.87,0-1.56-.47-2.08-1.4h-.08c-.57.49-1.11.84-1.61,1.07-.5.23-1.02.34-1.56.34ZM216.8,122.1c.29,0,.54-.05.74-.14.2-.09.38-.23.53-.4.09-.09.15-.19.2-.33.04-.13.07-.33.09-.61l.05-1.48c.02-.17,0-.3-.03-.38-.04-.08-.1-.12-.21-.12-.04,0-.09,0-.16.03-.07.02-.17.05-.29.1-.78.29-1.33.6-1.64.92-.31.32-.47.67-.47,1.05,0,.47.12.81.38,1.03.25.22.52.33.79.33Z"/><path d="M232.84,123.64s-.1-.04-.18-.13-.13-.15-.13-.18c.02-.21.04-.46.08-.75s.05-.55.05-.75v-.16c-.29.45-.73.87-1.31,1.26-.58.39-1.28.58-2.09.58-.99,0-1.85-.26-2.57-.77-.73-.51-1.3-1.17-1.7-1.99-.41-.81-.61-1.68-.61-2.6,0-1.06.24-2.04.73-2.94.49-.9,1.18-1.62,2.08-2.17.9-.55,1.96-.82,3.17-.82.31,0,.64.03.97.09.34.06.6.13.79.2.19.05.3.08.34.08.12,0,.18-.18.18-.55v-3.46c0-.68-.1-1.14-.31-1.4-.21-.26-.51-.42-.91-.49-.17-.03-.26-.16-.26-.36,0-.17.08-.29.23-.34.73-.17,1.35-.35,1.87-.55.52-.19.94-.35,1.25-.47.12-.07.22-.11.29-.12.07,0,.12-.01.16-.01.14,0,.21.07.21.21,0,.05,0,.19-.03.42-.02.23-.04.55-.08.96-.04.42-.05.93-.05,1.53l-.05,12.25c0,.59.04,1.01.13,1.27.09.26.23.39.44.39.09,0,.22,0,.39-.03.17-.02.41-.03.7-.05.28-.02.42.07.42.26,0,.12-.04.24-.13.35-.09.11-.17.17-.26.17-.54.07-1.08.17-1.62.31s-1.12.34-1.73.6c-.14.07-.23.11-.29.13-.05.02-.1.03-.16.03ZM230.32,122c.38,0,.78-.1,1.21-.3s.78-.46,1.08-.79v-5.07c0-.4-.13-.8-.38-1.21-.25-.41-.59-.74-1.03-.99-.43-.25-.93-.38-1.48-.38-.4,0-.82.13-1.27.4-.45.27-.83.71-1.14,1.34-.31.62-.47,1.47-.47,2.52,0,.88.12,1.62.36,2.2.24.58.55,1.04.92,1.36.37.33.76.56,1.16.7.4.14.75.21,1.04.21Z"/><path d="M243.65,123.51c-.99,0-1.89-.23-2.69-.69-.81-.46-1.44-1.09-1.91-1.88-.47-.8-.7-1.71-.7-2.73,0-.76.15-1.5.44-2.21.29-.71.71-1.35,1.25-1.92.54-.57,1.16-1.03,1.87-1.36.71-.34,1.47-.51,2.29-.51,1.02,0,1.95.25,2.78.74.83.49,1.49,1.14,1.98,1.94.49.8.73,1.67.73,2.63,0,1.04-.22,2.02-.68,2.94-.45.92-1.12,1.66-2.01,2.22-.89.56-2.01.84-3.34.84ZM244.19,122.6c.5,0,.95-.1,1.35-.3.4-.2.71-.51.94-.92.21-.4.35-.89.43-1.47s.12-1.17.12-1.78c0-.87-.14-1.68-.42-2.44-.28-.76-.66-1.38-1.14-1.85-.49-.47-1.06-.7-1.72-.7-.4,0-.76.06-1.08.19s-.61.35-.87.66c-.33.4-.55.91-.65,1.55-.1.63-.16,1.32-.16,2.07,0,.83.14,1.63.42,2.39s.65,1.39,1.13,1.87,1.03.73,1.65.73Z"/><path d="M251.92,123.22c-.16,0-.28-.03-.38-.08-.1-.05-.14-.13-.14-.23,0-.14.06-.24.17-.3.11-.06.26-.12.43-.17.36-.09.62-.21.77-.36.15-.16.22-.36.22-.62v-5.72c0-.43-.06-.8-.18-1.1-.12-.3-.38-.5-.78-.58-.07-.02-.13-.06-.19-.13-.06-.07-.09-.16-.09-.26,0-.19.09-.31.26-.36.48-.14,1-.33,1.56-.58.55-.25,1-.47,1.35-.66.1-.07.2-.12.29-.16s.15-.05.18-.05c.12,0,.18.07.18.21,0,.07,0,.22-.01.44,0,.23-.02.48-.04.75-.02.28-.03.55-.03.81,0,.07.02.1.05.1.28-.35.58-.67.92-.96.34-.29.7-.53,1.08-.71.38-.18.75-.27,1.09-.27.45,0,.8.09,1.04.27.24.18.36.42.36.71,0,.19-.06.41-.17.66-.11.25-.26.47-.44.65-.18.18-.38.27-.58.27-.12,0-.25-.03-.39-.09-.14-.06-.29-.13-.44-.2-.14-.07-.28-.13-.43-.19-.15-.06-.29-.09-.43-.09-.43,0-.83.16-1.2.47-.36.31-.55.92-.55,1.82v4.89c0,.28.11.49.34.65.23.16.56.3,1.01.44.19.05.34.11.44.17.1.06.16.15.16.27,0,.21-.17.31-.49.31-.52,0-.97-.02-1.34-.06-.37-.04-.78-.06-1.24-.06-.29,0-.55,0-.78.03-.23.02-.46.04-.7.06-.24.03-.54.04-.88.04Z"/><path d="M263.71,123.51c-.36,0-.72-.12-1.07-.35-.35-.23-.63-.53-.86-.88-.23-.35-.34-.71-.34-1.05,0-.57.16-1.03.48-1.38.32-.35.82-.66,1.5-.94l2.52-1.07c.35-.14.55-.26.62-.38.07-.11.11-.34.13-.69l.05-1.59c.02-.47-.1-.86-.34-1.17-.24-.31-.6-.47-1.07-.47-.24,0-.49.05-.74.14-.25.1-.46.2-.61.33-.09.07-.14.17-.17.29-.03.12-.04.25-.04.39,0,.09,0,.19.01.3,0,.11.01.2.01.27,0,.1-.12.23-.35.38-.23.15-.5.28-.81.4-.3.12-.56.18-.77.18-.1,0-.19-.03-.25-.09-.06-.06-.09-.14-.09-.25,0-.28.09-.57.27-.87.18-.3.46-.61.82-.92.42-.36.87-.69,1.37-.98s.98-.51,1.46-.66c.48-.16.9-.23,1.26-.23.73,0,1.32.25,1.78.74.46.49.67,1.13.64,1.91l-.13,5.88c-.02.38.06.69.23.94.17.24.39.36.65.36.4,0,.71-.1.94-.31.07-.07.13-.1.18-.1.09,0,.16.03.22.08.06.05.09.12.09.21,0,.21-.12.43-.36.65-.29.29-.61.52-.95.69s-.66.25-.98.25c-.87,0-1.56-.47-2.08-1.4h-.08c-.57.49-1.11.84-1.61,1.07s-1.02.34-1.56.34ZM265.06,122.1c.29,0,.54-.05.74-.14.2-.09.38-.23.53-.4.09-.09.15-.19.19-.33.04-.13.07-.33.09-.61l.05-1.48c.02-.17,0-.3-.03-.38-.04-.08-.1-.12-.21-.12-.04,0-.09,0-.16.03-.07.02-.17.05-.29.1-.78.29-1.33.6-1.64.92-.31.32-.47.67-.47,1.05,0,.47.12.81.38,1.03.25.22.52.33.79.33Z"/><path d="M276.73,123.51c-.95,0-1.69-.27-2.2-.81-.51-.54-.77-1.33-.77-2.37v-6.03c0-.14-.06-.24-.17-.3-.11-.06-.33-.09-.66-.09h-.21c-.1,0-.19-.07-.26-.22-.07-.15-.1-.29-.1-.43,0-.03.02-.08.07-.14.04-.06.08-.1.12-.12.36-.23.72-.47,1.08-.74s.68-.54.99-.82c.3-.28.56-.52.77-.73.1-.09.19-.16.26-.23.07-.07.16-.1.26-.1s.2.03.27.08c.08.05.11.16.09.31l-.16,1.27c-.02.21.03.35.14.42.11.07.27.1.48.1h3.02c.05,0,.1.06.16.18.05.12.08.24.08.36,0,.19-.03.37-.08.55-.05.17-.11.26-.18.26h-2.52c-.43,0-.71.04-.84.13-.13.09-.2.29-.2.6v5.04c0,.73.15,1.29.44,1.68.29.39.71.58,1.25.58.5,0,.88-.04,1.14-.13.26-.09.49-.19.7-.31.05-.03.09-.05.13-.05.09,0,.14.04.17.13.03.09.04.18.04.29s-.16.29-.47.55c-.31.26-.72.51-1.22.74-.5.23-1.04.35-1.61.35Z"/><path d="M282.18,123.22c-.14,0-.26-.03-.35-.08-.1-.05-.14-.13-.14-.23,0-.14.06-.24.17-.3.11-.06.24-.11.38-.14.4-.1.69-.22.88-.34.19-.12.29-.34.29-.65v-5.62c0-.52-.09-.94-.26-1.26-.17-.32-.48-.52-.91-.58-.09-.02-.15-.06-.19-.12-.04-.06-.07-.15-.07-.27,0-.21.08-.32.23-.34.76-.17,1.42-.4,1.96-.69s.96-.52,1.24-.69c.19-.12.33-.18.42-.18.14,0,.21.07.21.21,0,.19-.02.49-.07.91-.04.42-.09.87-.13,1.35-.04.49-.07.94-.07,1.35v5.93c0,.28.1.49.29.62.19.14.49.26.88.36.14.03.26.08.38.14.11.06.17.16.17.3,0,.21-.16.31-.47.31-.33,0-.62-.01-.88-.04s-.51-.05-.74-.06c-.23-.02-.51-.03-.82-.03-.29,0-.56,0-.81.03-.24.02-.48.04-.71.06s-.52.04-.87.04ZM284.52,109.93c-.43,0-.8-.15-1.1-.46-.3-.3-.46-.67-.46-1.1s.15-.83.46-1.13c.3-.3.67-.46,1.1-.46s.83.15,1.14.46c.31.3.47.68.47,1.13s-.16.8-.47,1.1c-.31.3-.69.46-1.14.46Z"/><path d="M294.24,123.51c-.99,0-1.89-.23-2.69-.69-.81-.46-1.44-1.09-1.91-1.88-.47-.8-.7-1.71-.7-2.73,0-.76.15-1.5.44-2.21.29-.71.71-1.35,1.25-1.92.54-.57,1.16-1.03,1.87-1.36.71-.34,1.47-.51,2.29-.51,1.02,0,1.95.25,2.78.74.83.49,1.49,1.14,1.98,1.94.49.8.73,1.67.73,2.63,0,1.04-.22,2.02-.68,2.94-.45.92-1.12,1.66-2.01,2.22-.89.56-2.01.84-3.34.84ZM294.79,122.6c.5,0,.95-.1,1.35-.3.4-.2.71-.51.94-.92.21-.4.35-.89.43-1.47s.12-1.17.12-1.78c0-.87-.14-1.68-.42-2.44-.28-.76-.66-1.38-1.14-1.85-.49-.47-1.06-.7-1.72-.7-.4,0-.76.06-1.08.19s-.61.35-.87.66c-.33.4-.55.91-.65,1.55-.1.63-.16,1.32-.16,2.07,0,.83.14,1.63.42,2.39s.65,1.39,1.13,1.87,1.03.73,1.65.73Z"/><path d="M302.4,123.22c-.14,0-.26-.03-.36-.08-.1-.05-.16-.13-.16-.23,0-.14.06-.24.17-.3.11-.06.26-.12.43-.17.26-.07.5-.16.73-.29s.34-.36.34-.7v-5.72c0-.43-.05-.8-.14-1.1-.1-.3-.35-.51-.77-.61-.07-.02-.13-.06-.18-.12-.05-.06-.08-.14-.08-.25,0-.22.08-.35.23-.36.61-.16,1.16-.35,1.65-.57.49-.23.95-.48,1.37-.75.05-.03.11-.07.17-.1.06-.03.12-.05.17-.05.07,0,.12.02.14.06.03.04.04.1.04.17,0,.12-.02.36-.07.7s-.06.64-.06.88c0,.07,0,.14.01.21,0,.07.02.11.04.13.61-.57,1.23-1,1.88-1.3.65-.29,1.38-.44,2.2-.44.87,0,1.59.34,2.16,1.01.57.68.86,1.55.86,2.63v5.62c0,.35.12.57.35.68.23.1.48.2.74.29.14.05.27.11.39.18.12.07.18.17.18.31,0,.12-.06.2-.17.23-.11.03-.22.05-.33.05-.35,0-.64-.01-.87-.04-.23-.03-.46-.05-.68-.06-.22-.02-.48-.03-.79-.03-.29,0-.55,0-.78.03-.23.02-.46.04-.69.06-.23.03-.52.04-.87.04-.09,0-.19-.02-.31-.05-.12-.03-.18-.11-.18-.23,0-.14.06-.24.18-.31.12-.07.25-.13.39-.18.26-.09.5-.18.73-.29s.34-.33.34-.68v-5.38c0-.73-.19-1.29-.58-1.69-.39-.4-.9-.61-1.52-.62-.54,0-1.01.08-1.42.25s-.78.39-1.13.66c-.07.07-.12.16-.16.26-.04.1-.05.2-.05.29v6.24c0,.35.11.58.34.69.22.11.46.2.7.27.38.12.57.28.57.47,0,.1-.04.18-.13.23s-.21.08-.36.08c-.35,0-.64-.01-.87-.04-.23-.03-.45-.05-.65-.06-.2-.02-.46-.03-.77-.03-.29,0-.56,0-.78.03-.23.02-.46.04-.7.06-.24.03-.54.04-.88.04Z"/><path d="M331.52,123.64s-.1-.04-.18-.13-.13-.15-.13-.18c.02-.21.04-.46.08-.75s.05-.55.05-.75v-.16c-.29.45-.73.87-1.31,1.26-.58.39-1.28.58-2.09.58-.99,0-1.85-.26-2.57-.77-.73-.51-1.3-1.17-1.7-1.99-.41-.81-.61-1.68-.61-2.6,0-1.06.24-2.04.73-2.94.49-.9,1.18-1.62,2.08-2.17.9-.55,1.96-.82,3.17-.82.31,0,.64.03.97.09.34.06.6.13.79.2.19.05.3.08.34.08.12,0,.18-.18.18-.55v-3.46c0-.68-.1-1.14-.31-1.4-.21-.26-.51-.42-.91-.49-.17-.03-.26-.16-.26-.36,0-.17.08-.29.23-.34.73-.17,1.35-.35,1.87-.55.52-.19.94-.35,1.25-.47.12-.07.22-.11.29-.12.07,0,.12-.01.16-.01.14,0,.21.07.21.21,0,.05,0,.19-.03.42-.02.23-.04.55-.08.96-.04.42-.05.93-.05,1.53l-.05,12.25c0,.59.04,1.01.13,1.27.09.26.23.39.44.39.09,0,.22,0,.39-.03.17-.02.41-.03.7-.05.28-.02.42.07.42.26,0,.12-.04.24-.13.35-.09.11-.17.17-.26.17-.54.07-1.08.17-1.62.31s-1.12.34-1.73.6c-.14.07-.23.11-.29.13-.05.02-.1.03-.16.03ZM329,122c.38,0,.78-.1,1.21-.3s.78-.46,1.08-.79v-5.07c0-.4-.13-.8-.38-1.21-.25-.41-.59-.74-1.03-.99-.43-.25-.93-.38-1.48-.38-.4,0-.82.13-1.27.4-.45.27-.83.71-1.14,1.34-.31.62-.47,1.47-.47,2.52,0,.88.12,1.62.36,2.2.24.58.55,1.04.92,1.36.37.33.76.56,1.16.7.4.14.75.21,1.04.21Z"/><path d="M341.82,123.53c-.94,0-1.76-.24-2.48-.72-.72-.48-1.29-1.14-1.7-2s-.62-1.85-.62-2.98c0-1.02.24-1.96.71-2.81s1.11-1.53,1.91-2.04c.8-.51,1.67-.77,2.63-.77.71,0,1.35.14,1.91.43.56.29,1,.69,1.33,1.2.32.51.48,1.1.48,1.75,0,.57-.27.86-.81.86h-5.38c-.24,0-.42.07-.52.21-.1.14-.16.39-.16.75,0,.76.17,1.46.52,2.09s.81,1.14,1.38,1.52,1.2.57,1.9.57c.52,0,.99-.1,1.42-.3.42-.2.82-.48,1.18-.85.05-.07.1-.12.14-.16.04-.03.09-.05.14-.05.16,0,.23.1.23.29,0,.28-.12.61-.36.99-.24.36-.55.7-.92,1-.37.3-.81.55-1.3.73-.49.18-1.04.27-1.62.27ZM339.82,115.58h2.08c.45,0,.81,0,1.07-.03s.5-.05.73-.1c.09-.03.15-.11.18-.22.03-.11.05-.26.05-.43,0-.48-.2-.9-.6-1.23-.4-.34-.88-.51-1.43-.51-.38,0-.76.11-1.13.34-.37.23-.68.51-.92.85-.24.34-.36.68-.34,1.03,0,.21.1.31.31.31Z"/><path d="M354.59,123.22c-.12,0-.24-.02-.35-.05-.11-.03-.17-.11-.17-.23,0-.14.06-.24.18-.3.12-.06.26-.13.42-.2.26-.09.5-.18.73-.29s.34-.34.34-.7v-12.87c0-.5-.08-.92-.25-1.26-.17-.34-.46-.55-.9-.64-.14-.03-.21-.16-.21-.36,0-.19.06-.3.18-.34.45-.09.88-.2,1.27-.34.4-.14.77-.28,1.12-.42.35-.14.66-.26.94-.36.1-.03.18-.05.23-.05s.09.03.12.08c.03.05.04.1.04.16,0,.14-.03.43-.08.88-.05.45-.08,1.13-.08,2.03v13.49c0,.35.11.58.34.69.22.11.47.21.73.3.16.05.29.11.42.18.12.07.18.17.18.31,0,.1-.06.17-.17.21-.11.03-.23.05-.35.05-.33,0-.62,0-.86-.03-.24-.02-.48-.03-.7-.05-.23-.02-.49-.03-.81-.03-.29,0-.55,0-.78.03-.23.02-.45.04-.68.06s-.51.04-.86.04Z"/><path d="M363.91,123.51c-.36,0-.72-.12-1.07-.35-.35-.23-.63-.53-.86-.88-.23-.35-.34-.71-.34-1.05,0-.57.16-1.03.48-1.38.32-.35.82-.66,1.5-.94l2.52-1.07c.35-.14.55-.26.62-.38.07-.11.11-.34.13-.69l.05-1.59c.02-.47-.1-.86-.34-1.17-.24-.31-.6-.47-1.07-.47-.24,0-.49.05-.74.14-.25.1-.46.2-.61.33-.09.07-.14.17-.17.29-.03.12-.04.25-.04.39,0,.09,0,.19.01.3,0,.11.01.2.01.27,0,.1-.12.23-.35.38-.23.15-.5.28-.81.4-.3.12-.56.18-.77.18-.1,0-.19-.03-.25-.09-.06-.06-.09-.14-.09-.25,0-.28.09-.57.27-.87.18-.3.46-.61.82-.92.42-.36.87-.69,1.37-.98s.98-.51,1.46-.66c.48-.16.9-.23,1.26-.23.73,0,1.32.25,1.78.74.46.49.67,1.13.64,1.91l-.13,5.88c-.02.38.06.69.23.94.17.24.39.36.65.36.4,0,.71-.1.94-.31.07-.07.13-.1.18-.1.09,0,.16.03.22.08.06.05.09.12.09.21,0,.21-.12.43-.36.65-.29.29-.61.52-.95.69s-.66.25-.98.25c-.87,0-1.56-.47-2.08-1.4h-.08c-.57.49-1.11.84-1.61,1.07s-1.02.34-1.56.34ZM365.26,122.1c.29,0,.54-.05.74-.14.2-.09.38-.23.53-.4.09-.09.15-.19.19-.33.04-.13.07-.33.09-.61l.05-1.48c.02-.17,0-.3-.03-.38-.04-.08-.1-.12-.21-.12-.04,0-.09,0-.16.03-.07.02-.17.05-.29.1-.78.29-1.33.6-1.64.92-.31.32-.47.67-.47,1.05,0,.47.12.81.38,1.03.25.22.52.33.79.33Z"/><path d="M388.14,123.32c-.33,0-.81-.02-1.44-.05s-1.3-.06-2.01-.09-1.34-.04-1.9-.04c-.35,0-.67,0-.97.03-.3.02-.62.03-.95.05-.33.02-.71.03-1.14.03-.19,0-.35-.03-.48-.08-.13-.05-.19-.14-.19-.26,0-.14.06-.24.18-.3.12-.06.31-.12.57-.17.66-.12,1.11-.31,1.36-.57.25-.26.38-.68.38-1.27v-11.75c0-.59-.13-1.01-.38-1.26-.25-.25-.71-.45-1.36-.58-.26-.05-.45-.11-.57-.18-.12-.07-.18-.17-.18-.31,0-.12.06-.21.19-.27.13-.06.29-.09.48-.09.43,0,.81,0,1.14.03.33.02.65.03.96.04.31,0,.67.01,1.07.01.28,0,.63,0,1.07-.03.43-.02.89-.04,1.38-.08.48-.03.94-.06,1.35-.08.42-.02.74-.03.96-.03,1.59,0,2.99.21,4.2.62,1.2.42,2.21,1,3,1.75.8.75,1.4,1.63,1.81,2.64.41,1.01.61,2.1.61,3.28s-.22,2.36-.66,3.44c-.44,1.08-1.08,2.05-1.9,2.89-.82.84-1.79,1.5-2.9,1.98-1.11.48-2.33.72-3.67.72ZM387.8,122.26c1.28,0,2.4-.31,3.35-.94s1.69-1.5,2.21-2.61c.52-1.12.78-2.4.78-3.86,0-1.23-.18-2.33-.55-3.29s-.85-1.78-1.47-2.46c-.62-.68-1.33-1.19-2.13-1.55-.81-.35-1.65-.53-2.54-.53-.68,0-1.25.02-1.73.06-.48.04-.84.16-1.08.35-.24.19-.36.51-.36.96v11.49c0,.66.16,1.16.48,1.5s.75.57,1.29.69c.54.12,1.12.18,1.74.18Z"/><path d="M404.26,123.53c-.94,0-1.76-.24-2.48-.72-.72-.48-1.29-1.14-1.7-2s-.62-1.85-.62-2.98c0-1.02.24-1.96.71-2.81s1.11-1.53,1.91-2.04c.8-.51,1.67-.77,2.63-.77.71,0,1.35.14,1.91.43.56.29,1,.69,1.33,1.2.32.51.48,1.1.48,1.75,0,.57-.27.86-.81.86h-5.38c-.24,0-.42.07-.52.21-.1.14-.16.39-.16.75,0,.76.17,1.46.52,2.09s.81,1.14,1.38,1.52,1.2.57,1.9.57c.52,0,.99-.1,1.42-.3.42-.2.82-.48,1.18-.85.05-.07.1-.12.14-.16.04-.03.09-.05.14-.05.16,0,.23.1.23.29,0,.28-.12.61-.36.99-.24.36-.55.7-.92,1-.37.3-.81.55-1.3.73-.49.18-1.04.27-1.62.27ZM402.26,115.58h2.08c.45,0,.81,0,1.07-.03s.5-.05.73-.1c.09-.03.15-.11.18-.22.03-.11.05-.26.05-.43,0-.48-.2-.9-.6-1.23-.4-.34-.88-.51-1.43-.51-.38,0-.76.11-1.13.34-.37.23-.68.51-.92.85-.24.34-.36.68-.34,1.03,0,.21.1.31.31.31ZM404,111.29c-.16,0-.23-.09-.23-.26,0-.05,0-.12.03-.21.02-.09.04-.18.08-.29.12-.33.31-.75.56-1.25.25-.5.5-1,.75-1.48.25-.49.45-.85.58-1.09.1-.17.23-.3.38-.39.15-.09.31-.13.48-.13.36,0,.68.04.96.13s.42.23.42.44c0,.1-.02.19-.06.27-.04.08-.11.18-.2.3-.26.33-.57.71-.92,1.14-.36.43-.72.86-1.09,1.27-.37.42-.7.76-.98,1.04-.33.33-.58.49-.75.49Z"/><path d="M410.69,123.22c-.14,0-.26-.03-.35-.08-.1-.05-.14-.13-.14-.23,0-.14.06-.24.17-.3.11-.06.24-.11.38-.14.4-.1.69-.22.88-.34.19-.12.29-.34.29-.65v-5.62c0-.52-.09-.94-.26-1.26-.17-.32-.48-.52-.91-.58-.09-.02-.15-.06-.19-.12-.04-.06-.07-.15-.07-.27,0-.21.08-.32.23-.34.76-.17,1.42-.4,1.96-.69s.96-.52,1.24-.69c.19-.12.33-.18.42-.18.14,0,.21.07.21.21,0,.19-.02.49-.07.91-.04.42-.09.87-.13,1.35-.04.49-.07.94-.07,1.35v5.93c0,.28.1.49.29.62.19.14.49.26.88.36.14.03.26.08.38.14.11.06.17.16.17.3,0,.21-.16.31-.47.31-.33,0-.62-.01-.88-.04s-.51-.05-.74-.06c-.23-.02-.51-.03-.82-.03-.29,0-.56,0-.81.03-.24.02-.48.04-.71.06s-.52.04-.87.04ZM413.03,109.93c-.43,0-.8-.15-1.1-.46-.3-.3-.46-.67-.46-1.1s.15-.83.46-1.13c.3-.3.67-.46,1.1-.46s.83.15,1.14.46c.31.3.47.68.47,1.13s-.16.8-.47,1.1c-.31.3-.69.46-1.14.46Z"/><path d="M421.67,123.51c-.95,0-1.69-.27-2.2-.81-.51-.54-.77-1.33-.77-2.37v-6.03c0-.14-.06-.24-.17-.3-.11-.06-.33-.09-.66-.09h-.21c-.1,0-.19-.07-.26-.22-.07-.15-.1-.29-.1-.43,0-.03.02-.08.07-.14.04-.06.08-.1.12-.12.36-.23.72-.47,1.08-.74s.68-.54.99-.82c.3-.28.56-.52.77-.73.1-.09.19-.16.26-.23.07-.07.16-.1.26-.1s.2.03.27.08c.08.05.11.16.09.31l-.16,1.27c-.02.21.03.35.14.42.11.07.27.1.48.1h3.02c.05,0,.1.06.16.18.05.12.08.24.08.36,0,.19-.03.37-.08.55-.05.17-.11.26-.18.26h-2.52c-.43,0-.71.04-.84.13-.13.09-.2.29-.2.6v5.04c0,.73.15,1.29.44,1.68.29.39.71.58,1.25.58.5,0,.88-.04,1.14-.13.26-.09.49-.19.7-.31.05-.03.09-.05.13-.05.09,0,.14.04.17.13.03.09.04.18.04.29s-.16.29-.47.55c-.31.26-.72.51-1.22.74-.5.23-1.04.35-1.61.35Z"/><path d="M431.24,123.53c-.94,0-1.76-.24-2.48-.72-.72-.48-1.29-1.14-1.7-2s-.62-1.85-.62-2.98c0-1.02.24-1.96.71-2.81s1.11-1.53,1.91-2.04c.8-.51,1.67-.77,2.63-.77.71,0,1.35.14,1.91.43.56.29,1,.69,1.33,1.2.32.51.48,1.1.48,1.75,0,.57-.27.86-.81.86h-5.38c-.24,0-.42.07-.52.21-.1.14-.16.39-.16.75,0,.76.17,1.46.52,2.09s.81,1.14,1.38,1.52,1.2.57,1.9.57c.52,0,.99-.1,1.42-.3.42-.2.82-.48,1.18-.85.05-.07.1-.12.14-.16.04-.03.09-.05.14-.05.16,0,.23.1.23.29,0,.28-.12.61-.36.99-.24.36-.55.7-.92,1-.37.3-.81.55-1.3.73-.49.18-1.04.27-1.62.27ZM429.23,115.58h2.08c.45,0,.81,0,1.07-.03s.5-.05.73-.1c.09-.03.15-.11.18-.22.03-.11.05-.26.05-.43,0-.48-.2-.9-.6-1.23-.4-.34-.88-.51-1.43-.51-.38,0-.76.11-1.13.34-.37.23-.68.51-.92.85-.24.34-.36.68-.34,1.03,0,.21.1.31.31.31ZM430.98,111.29c-.16,0-.23-.09-.23-.26,0-.05,0-.12.03-.21.02-.09.04-.18.08-.29.12-.33.31-.75.56-1.25.25-.5.5-1,.75-1.48.25-.49.45-.85.58-1.09.1-.17.23-.3.38-.39.15-.09.31-.13.48-.13.36,0,.68.04.96.13s.42.23.42.44c0,.1-.02.19-.06.27-.04.08-.11.18-.2.3-.26.33-.57.71-.92,1.14-.36.43-.72.86-1.09,1.27-.37.42-.7.76-.98,1.04-.33.33-.58.49-.75.49Z"/><path d="M439.88,123.66c-.45,0-.84-.17-1.17-.49-.33-.33-.49-.72-.49-1.17,0-.48.16-.89.49-1.21.33-.32.72-.48,1.17-.48s.86.16,1.18.48c.32.32.48.72.48,1.21,0,.45-.16.84-.48,1.17-.32.33-.71.49-1.18.49Z"/></g></g></svg>