<?xml version="1.0" encoding="UTF-8"?><svg id="a" xmlns="http://www.w3.org/2000/svg" viewBox="0 0 437.01 115.87"><defs><style>.b{fill:#fa8ca0;}.c{fill:#785adc;}.d{fill:#151515;}</style></defs><path class="d" d="M74.07,79.7c3.16,0,5.6-.94,7.34-2.82,1.73-1.88,2.6-4.1,2.6-6.66,0-3.76-2.79-6.7-8.35-8.8-3.99-1.5-7.09-3.29-9.31-5.36s-3.33-4.87-3.33-8.41c0-1.65.3-3.25.9-4.8.6-1.54,1.48-2.9,2.65-4.06,1.17-1.17,2.56-2.09,4.18-2.77s3.44-1.02,5.47-1.02c2.86,0,5.19.47,7,1.41s3.01,1.9,3.61,2.88c.23.38.41.79.56,1.24.15.45.15.87,0,1.24-.38,1.88-1.51,2.64-3.39,2.26-.68-.23-1.28-.64-1.81-1.24-.38-.52-.73-1.09-1.07-1.69-.34-.6-.73-1.17-1.18-1.69-.45-.53-1-.96-1.64-1.3-.64-.34-1.45-.51-2.43-.51-2.03,0-3.86.66-5.47,1.98-1.62,1.32-2.43,3.1-2.43,5.36,0,2.93,2.44,5.42,7.34,7.45,2.26.9,4.23,1.81,5.93,2.71,1.69.9,3.12,1.92,4.29,3.05,1.17,1.13,2.03,2.46,2.6,4.01.56,1.54.85,3.44.85,5.7,0,1.96-.36,3.8-1.07,5.53-.71,1.73-1.73,3.24-3.05,4.52s-2.88,2.3-4.68,3.05c-1.81.75-3.84,1.13-6.1,1.13-2.03,0-3.78-.21-5.25-.62s-2.73-.9-3.78-1.47c-1.06-.56-1.9-1.17-2.54-1.81s-1.11-1.19-1.41-1.64c-.53-.9-.68-1.73-.45-2.48.15-.83.58-1.45,1.3-1.86.71-.41,1.48-.54,2.31-.4.68.23,1.28.64,1.81,1.24.38.53.77,1.17,1.19,1.92.41.75.92,1.49,1.52,2.2s1.32,1.32,2.14,1.81c.83.49,1.88.73,3.16.73h-.01Z"/><path class="d" d="M161.47,41.61c.87-1.24,1.94-2.33,3.22-3.27,1.28-.94,2.73-1.71,4.35-2.31,1.62-.6,3.33-.9,5.14-.9,2.26,0,4.27.38,6.04,1.13,1.77.75,3.27,1.79,4.51,3.1,1.24,1.32,2.2,2.84,2.88,4.57.68,1.73,1.02,3.58,1.02,5.53v24.6c0,3.24,1.62,4.85,4.85,4.85v1.92h-17.16v-1.91c3.23,0,4.85-1.61,4.85-4.84v-23.98c0-3-.9-5.55-2.71-7.65-1.81-2.1-4.21-3.15-7.22-3.15-1.51,0-2.93.34-4.29,1.01-1.35.68-2.56,1.58-3.61,2.7-1.05,1.13-1.9,2.4-2.54,3.83-.64,1.42-.96,2.89-.96,4.39v22.85c0,3.23,1.62,4.84,4.85,4.84v1.91h-17.16v-1.92c3.23,0,4.85-1.62,4.85-4.85v-31.15c0-3.23-1.62-4.85-4.85-4.85v-1.92h12.3v9.37c.23-1.35.77-2.65,1.64-3.89h0Z"/><path class="d" d="M209.11,79.7c3.16,0,5.6-.94,7.34-2.82,1.73-1.88,2.6-4.1,2.6-6.66,0-3.76-2.79-6.7-8.35-8.8-3.99-1.5-7.09-3.29-9.31-5.36s-3.33-4.87-3.33-8.41c0-1.65.3-3.25.9-4.8.6-1.54,1.48-2.9,2.65-4.06,1.17-1.17,2.56-2.09,4.18-2.77s3.44-1.02,5.47-1.02c2.86,0,5.19.47,7,1.41s3.01,1.9,3.61,2.88c.23.38.41.79.56,1.24s.15.87,0,1.24c-.38,1.88-1.51,2.64-3.39,2.26-.68-.23-1.28-.64-1.81-1.24-.38-.52-.73-1.09-1.07-1.69-.34-.6-.73-1.17-1.18-1.69-.45-.53-1-.96-1.64-1.3-.64-.34-1.45-.51-2.43-.51-2.03,0-3.86.66-5.47,1.98-1.62,1.32-2.43,3.1-2.43,5.36,0,2.93,2.44,5.42,7.34,7.45,2.26.9,4.23,1.81,5.93,2.71,1.69.9,3.12,1.92,4.29,3.05,1.17,1.13,2.03,2.46,2.6,4.01.56,1.54.85,3.44.85,5.7,0,1.96-.36,3.8-1.07,5.53-.71,1.73-1.73,3.24-3.05,4.52-1.32,1.28-2.88,2.3-4.68,3.05-1.81.75-3.84,1.13-6.1,1.13-2.03,0-3.78-.21-5.25-.62s-2.73-.9-3.78-1.47c-1.06-.56-1.9-1.17-2.54-1.81s-1.11-1.19-1.41-1.64c-.53-.9-.68-1.73-.45-2.48.15-.83.58-1.45,1.3-1.86.71-.41,1.48-.54,2.31-.4.68.23,1.28.64,1.81,1.24.38.53.77,1.17,1.19,1.92.41.75.92,1.49,1.52,2.2s1.32,1.32,2.14,1.81c.83.49,1.88.73,3.16.73h0Z"/><path class="d" d="M266.68,79.7c3.16,0,5.6-.94,7.34-2.82,1.73-1.88,2.6-4.1,2.6-6.66,0-3.76-2.79-6.7-8.35-8.8-3.99-1.5-7.09-3.29-9.31-5.36s-3.33-4.87-3.33-8.41c0-1.65.3-3.25.9-4.8.6-1.54,1.48-2.9,2.65-4.06,1.17-1.17,2.56-2.09,4.18-2.77s3.44-1.02,5.47-1.02c2.86,0,5.19.47,7,1.41s3.01,1.9,3.61,2.88c.23.38.41.79.56,1.24s.15.87,0,1.24c-.38,1.88-1.51,2.64-3.39,2.26-.68-.23-1.28-.64-1.81-1.24-.38-.52-.73-1.09-1.07-1.69-.34-.6-.73-1.17-1.18-1.69-.45-.53-1-.96-1.64-1.3-.64-.34-1.45-.51-2.43-.51-2.03,0-3.86.66-5.47,1.98-1.62,1.32-2.43,3.1-2.43,5.36,0,2.93,2.44,5.42,7.34,7.45,2.26.9,4.23,1.81,5.93,2.71,1.69.9,3.12,1.92,4.29,3.05,1.17,1.13,2.03,2.46,2.6,4.01.56,1.54.85,3.44.85,5.7,0,1.96-.36,3.8-1.07,5.53-.71,1.73-1.73,3.24-3.05,4.52-1.32,1.28-2.88,2.3-4.68,3.05-1.81.75-3.84,1.13-6.1,1.13-2.03,0-3.78-.21-5.25-.62s-2.73-.9-3.78-1.47c-1.06-.56-1.9-1.17-2.54-1.81s-1.11-1.19-1.41-1.64c-.53-.9-.68-1.73-.45-2.48.15-.83.58-1.45,1.3-1.86.71-.41,1.48-.54,2.31-.4.68.23,1.28.64,1.81,1.24.38.53.77,1.17,1.19,1.92.41.75.92,1.49,1.52,2.2.6.71,1.32,1.32,2.14,1.81.83.49,1.88.73,3.16.73h0Z"/><path class="d" d="M344.93,42.9c0-3.23-1.62-4.85-4.85-4.85v-1.92h17.15v1.92c-3.23,0-4.85,1.62-4.85,4.85v31.15c0,3.24,1.62,4.85,4.85,4.85v1.92h-17.15v-1.92c3.23,0,4.85-1.62,4.85-4.85v-31.15Z"/><path class="d" d="M375.27,41.61c.87-1.24,1.94-2.33,3.22-3.27,1.28-.94,2.73-1.71,4.35-2.31s3.33-.9,5.14-.9c2.26,0,4.27.38,6.04,1.13,1.77.75,3.27,1.79,4.51,3.1,1.24,1.32,2.2,2.84,2.88,4.57s1.02,3.58,1.02,5.53v24.6c0,3.24,1.62,4.85,4.85,4.85v1.92h-17.16v-1.91c3.23,0,4.85-1.61,4.85-4.84v-23.98c0-3-.9-5.55-2.71-7.65s-4.21-3.15-7.22-3.15c-1.51,0-2.93.34-4.29,1.01-1.35.68-2.56,1.58-3.61,2.7-1.05,1.13-1.9,2.4-2.54,3.83-.64,1.42-.96,2.89-.96,4.39v22.85c0,3.23,1.62,4.84,4.85,4.84v1.91h-17.16v-1.92c3.23,0,4.85-1.62,4.85-4.85v-31.15c0-3.23-1.62-4.85-4.85-4.85v-1.92h12.3v9.37c.23-1.35.77-2.65,1.64-3.89h0Z"/><path class="d" d="M435.88,74.96c-.83,1.2-1.77,2.14-2.82,2.82-1.06.68-2.33,1.02-3.84,1.02-2.41,0-4.42-.81-6.04-2.43s-2.43-3.63-2.43-6.04v-26.31c0-3.22,1.63-4.83,4.85-4.83h6.55v-3.06h-23.7v3.05h0c3.23.01,4.85,1.63,4.85,4.87v25.27c0,1.73.32,3.37.96,4.91.64,1.54,1.52,2.88,2.65,4.01,1.13,1.13,2.46,2.01,4.01,2.65,1.54.64,4.24.96,5.98.96,2.41,0,3.54-.53,5.54-1.58,1.99-1.05,3.52-2.56,4.57-4.51l-1.13-.79h0Z"/><path class="d" d="M324.27,76.73c-.51.53-1.27,1.12-2.28,1.76-1.02.64-2.19,1.25-3.52,1.81-1.33.57-2.82,1.04-4.45,1.42s-3.28.57-4.95.57c-3.1,0-6.04-.66-8.83-1.98-2.78-1.32-5.22-3.08-7.33-5.27-2.11-2.19-3.77-4.72-4.98-7.6-1.21-2.87-1.84-5.86-1.88-8.96-.05-3.1.48-6.07,1.59-8.9,1.1-2.84,2.65-5.31,4.64-7.43,1.99-2.12,4.37-3.8,7.13-5.05s5.8-1.87,9.13-1.87c2.95,0,5.77.53,8.47,1.59,2.69,1.06,5.01,2.72,6.94,4.99l.09-5.67h12.37l.02,1.93c-3.33,0-4.96,1.63-4.89,4.88l.19,31.07c-.08,3.25,1.59,4.88,4.99,4.88v1.94h-12.49l.06-4.09-.02-.02ZM308.78,37.83c-2.12,0-4.08.53-5.89,1.59-1.81,1.06-3.38,2.52-4.7,4.37-1.32,1.85-2.36,4.05-3.1,6.58-.74,2.53-1.11,5.27-1.09,8.22.03,3.03.43,5.82,1.21,8.39s1.85,4.8,3.23,6.69c1.37,1.89,2.97,3.37,4.79,4.42,1.82,1.06,3.76,1.59,5.8,1.59,2.65,0,5.31-.53,7.99-1.59s5.05-2.76,7.12-5.1l-.14-27.11c-1.98-2.5-4.21-4.46-6.71-5.9s-5.34-2.16-8.52-2.16h.01Z"/><path class="d" d="M138.99,74.01l-.19-31.07c-.07-3.25,1.56-4.88,4.89-4.88l-.02-1.93h-12.37l-.09,5.67c-1.94-2.27-4.25-3.93-6.94-4.99s-5.52-1.59-8.47-1.59c-3.33,0-6.38.62-9.13,1.87-2.76,1.25-5.13,2.93-7.13,5.05-1.99,2.12-3.54,4.59-4.64,7.43-1.1,2.83-1.63,5.8-1.59,8.9.04,3.1.67,6.09,1.88,8.96s2.87,5.41,4.98,7.6,4.55,3.95,7.33,5.27,5.72,1.98,8.83,1.98c1.66,0,3.31-.19,4.95-.57,1.63-.38,3.11-.85,4.45-1.42,1.33-.57,2.51-1.17,3.52-1.81,1.02-.64,1.78-1.23,2.28-1.76l-.06,4.09h12.49v-1.94c-3.4,0-5.07-1.63-4.99-4.88l.02.02ZM124.31,78.09c-2.68,1.06-5.35,1.59-7.99,1.59-2.04,0-3.98-.53-5.8-1.59s-3.42-2.53-4.79-4.42-2.45-4.12-3.23-6.69-1.18-5.37-1.21-8.39c-.02-2.95.35-5.69,1.09-8.22.74-2.53,1.77-4.72,3.1-6.58,1.32-1.85,2.89-3.31,4.7-4.37,1.81-1.06,3.77-1.59,5.89-1.59,3.18,0,6.02.72,8.52,2.16s4.73,3.4,6.71,5.9l.14,27.11c-2.06,2.34-4.44,4.05-7.12,5.1h-.01Z"/><path class="d" d="M241.05,52.52h-1.92c0,3.18-1.57,4.79-4.7,4.85h-.16v1.92c3.23,0,4.85,1.62,4.85,4.85h1.92c0-3.18,1.57-4.79,4.7-4.85h.16v-1.92c-3.23,0-4.85-1.62-4.85-4.85Z"/><path class="c" d="M28.1,18.98c-4.98,8.29-7.85,18.01-7.85,28.28v60.75H0v-54C0,34.02,4.12,22.85,20.25,13.51c3.02,1.75,5.62,3.55,7.85,5.47h0Z"/><path class="b" d="M47.25,0v108h-6.75v-54c0-16.25-2.72-26.67-12.4-35.03,4.7-7.86,11.3-14.44,19.15-18.97Z"/><path class="d" d="M31.21,43.99h-1.87c0,3.1-1.53,4.67-4.58,4.73h-.15v1.87c3.15,0,4.73,1.58,4.73,4.73h1.87c0-3.1,1.53-4.67,4.58-4.73h.15v-1.87c-3.15,0-4.73-1.58-4.73-4.73Z"/><path class="d" d="M62.95,108.03c-.24,0-.44-.03-.59-.1s-.22-.15-.22-.27c0-.13.08-.25.24-.35.16-.1.39-.2.69-.29.49-.15.93-.37,1.34-.67.41-.3.77-.79,1.06-1.48.52-1.19,1-2.31,1.44-3.36.44-1.04.85-2.07,1.25-3.08.39-1.01.8-2.06,1.22-3.15s.86-2.28,1.33-3.57c.09-.26.18-.52.25-.78s.12-.54.14-.84c.17-.06.34-.11.5-.17.17-.06.34-.14.5-.25.17-.11.28-.28.35-.5s.13-.37.18-.45c.02-.02.04-.03.07-.03s.05.02.07.06c.04.08.07.17.1.28s.06.22.1.34c.45,1.42.91,2.87,1.4,4.34.49,1.48.96,2.9,1.41,4.27s.88,2.6,1.26,3.7c.38,1.09.69,1.97.91,2.65.26.75.54,1.31.84,1.68.3.37.61.63.94.78s.68.26,1.05.34c.32.06.55.14.7.27.15.12.22.25.22.38,0,.11-.07.19-.22.22-.15.04-.35.06-.59.06-.26,0-.62,0-1.06-.04-.45-.03-.92-.06-1.43-.08-.5-.03-.97-.04-1.4-.04h-1.09c-.37,0-.72,0-1.04,0s-.59,0-.81,0c-.24,0-.44-.03-.59-.08s-.22-.14-.22-.25c0-.13.09-.24.28-.34s.4-.16.64-.2c.62-.09,1.05-.25,1.32-.48.26-.22.39-.49.39-.78s-.06-.69-.18-1.22-.27-1.1-.43-1.71-.33-1.14-.48-1.61c-.04-.15-.11-.24-.21-.27s-.28-.04-.55-.04h-5.29c-.07,0-.15.03-.24.1s-.16.2-.24.41c-.06.19-.15.48-.28.88s-.26.83-.39,1.27c-.13.45-.24.85-.34,1.2-.09.36-.14.58-.14.67,0,.41.16.75.48,1.02s.7.46,1.15.57c.62.17.92.35.92.56,0,.11-.07.19-.22.24s-.35.07-.59.07-.6,0-1.06-.03-.96-.03-1.48-.03c-.62,0-1.21.03-1.79.08-.58.06-1.1.08-1.57.08h0ZM69.5,99.99h4.34c.26,0,.39-.05.39-.14,0-.04,0-.08-.01-.13,0-.05-.02-.1-.04-.15l-2.18-6.83c-.11-.34-.2-.5-.25-.5-.04,0-.11.16-.22.48l-2.55,6.86c-.04.11-.06.19-.06.22,0,.09.05.15.15.17s.25.03.43.03h0Z"/><path class="d" d="M84.64,107.97c-.19,0-.33-.02-.42-.07s-.14-.13-.14-.24c0-.15.06-.25.17-.29.11-.05.27-.1.48-.15.35-.09.62-.23.8-.41.18-.18.27-.4.27-.66v-6.02c0-.5-.07-.94-.22-1.32-.15-.37-.46-.61-.92-.7-.08-.02-.14-.06-.2-.14-.06-.07-.08-.15-.08-.22,0-.19.08-.3.25-.34.49-.15.99-.37,1.53-.66s.95-.53,1.25-.71c.11-.07.2-.13.27-.15s.12-.04.15-.04c.09,0,.14.07.14.2,0,.06,0,.2-.01.42,0,.22-.02.49-.03.78s-.02.6-.04.9c0,.04.02.06.06.06.3-.37.63-.7.99-.98s.74-.5,1.12-.67.75-.25,1.11-.25c.39,0,.71.08.97.25.26.17.38.38.38.64,0,.19-.05.39-.15.62s-.24.42-.41.59-.35.25-.53.25c-.11,0-.23-.02-.36-.07s-.27-.11-.42-.18c-.15-.06-.3-.11-.45-.17-.15-.06-.3-.08-.45-.08-.45,0-.88.16-1.3.48s-.63.94-.63,1.88v5.66c0,.24.13.44.39.6s.62.31,1.09.46c.21.06.36.11.48.17.11.06.17.15.17.28,0,.21-.19.31-.56.31-.56,0-.99-.02-1.27-.07-.29-.05-.68-.07-1.16-.07-.32,0-.57,0-.77.03-.2.02-.4.04-.62.07s-.51.04-.88.04l-.05-.03Z"/><path class="d" d="M99.26,108.28c-.92,0-1.63-.28-2.14-.84s-.77-1.39-.77-2.49v-6.5c0-.15-.06-.26-.17-.32s-.35-.1-.73-.1h-.17c-.09,0-.17-.06-.24-.18s-.1-.25-.1-.38c0-.04.03-.09.08-.17.06-.07.09-.12.11-.14.37-.26.71-.52,1.02-.78s.59-.52.84-.77.46-.48.63-.69l.24-.24c.06-.07.14-.1.24-.1s.18.02.27.06c.08.04.12.12.1.25l-.14,1.26c-.02.21.03.35.14.42.11.07.29.11.53.11h3.19c.07,0,.14.06.2.18s.08.27.08.43-.03.33-.08.49c-.06.16-.12.24-.2.24h-2.77c-.47,0-.77.04-.91.11-.14.08-.21.3-.21.67v5.52c0,.75.16,1.33.48,1.76.32.43.77.64,1.37.64.54,0,.96-.04,1.26-.13.3-.08.57-.21.81-.38.04-.04.07-.06.11-.06.07,0,.13.04.15.13.03.08.04.17.04.27s-.15.28-.46.56c-.31.28-.71.54-1.2.78-.5.24-1.03.36-1.61.36v.03Z"/><path class="d" d="M105.28,107.97c-.17,0-.3-.02-.41-.07-.1-.05-.15-.13-.15-.24,0-.15.07-.25.21-.31s.28-.1.43-.14c.39-.09.69-.21.9-.35.21-.14.31-.38.31-.71v-6.08c0-.5-.09-.95-.27-1.34-.18-.39-.51-.62-.99-.7-.09-.02-.16-.06-.21-.11-.05-.06-.07-.14-.07-.25,0-.21.08-.32.25-.34.75-.17,1.36-.4,1.85-.69.49-.29.85-.53,1.09-.71.17-.13.3-.2.39-.2.11,0,.17.05.17.14,0,.15-.02.44-.07.88s-.09.92-.13,1.46c-.04.53-.06,1.01-.06,1.44v6.5c0,.32.11.55.32.7s.51.27.88.36c.15.04.29.08.43.14s.21.16.21.31c0,.21-.19.31-.56.31-.35,0-.64,0-.85-.04s-.42-.05-.62-.07-.46-.03-.8-.03c-.32,0-.58,0-.78.03-.21.02-.41.04-.62.07-.21.03-.49.04-.87.04h.02ZM107.52,93.44c-.39,0-.72-.13-.99-.41s-.41-.6-.41-.99c0-.41.13-.75.41-1.02s.6-.41.99-.41c.41,0,.75.14,1.02.41s.41.61.41,1.02-.14.72-.41.99-.61.41-1.02.41Z"/><path class="d" d="M116.05,108.28c-.58,0-1.12-.09-1.62-.27s-.93-.42-1.29-.74c-.09-.21-.16-.55-.21-1.04-.05-.48-.08-.89-.1-1.2,0-.17.12-.25.36-.25.07,0,.14,0,.21.04s.11.08.13.15c.24.92.63,1.57,1.16,1.96s1.07.59,1.61.59,1-.18,1.39-.55.57-.82.57-1.36c0-.5-.17-.94-.5-1.3-.34-.36-.92-.81-1.76-1.33-.63-.39-1.15-.76-1.54-1.12-.39-.35-.68-.72-.85-1.09-.18-.37-.27-.79-.27-1.26,0-.6.14-1.14.42-1.62.28-.49.7-.87,1.26-1.16.56-.29,1.26-.43,2.1-.43.56,0,1.03.06,1.4.17s.65.23.84.36c.15.21.28.53.38.97s.15.85.15,1.25c0,.13-.09.2-.28.2-.11,0-.22-.02-.32-.07s-.17-.11-.21-.18c-.24-.62-.55-1.09-.91-1.41-.36-.33-.82-.49-1.36-.49-.47,0-.88.14-1.25.42-.36.28-.55.69-.55,1.23,0,.43.13.81.41,1.15.27.34.78.72,1.53,1.15,1.08.62,1.89,1.19,2.42,1.72s.8,1.24.8,2.11c0,1.01-.38,1.83-1.15,2.46-.77.63-1.75.95-2.97.95h0Z"/><path class="d" d="M127.12,108.28c-.92,0-1.63-.28-2.14-.84s-.77-1.39-.77-2.49v-6.5c0-.15-.06-.26-.17-.32s-.35-.1-.73-.1h-.17c-.09,0-.17-.06-.24-.18s-.1-.25-.1-.38c0-.04.03-.09.08-.17.06-.07.09-.12.11-.14.37-.26.71-.52,1.02-.78s.59-.52.84-.77.46-.48.63-.69l.24-.24c.06-.07.14-.1.24-.1s.18.02.27.06c.08.04.12.12.1.25l-.14,1.26c-.02.21.03.35.14.42.11.07.29.11.53.11h3.19c.07,0,.14.06.2.18s.08.27.08.43-.03.33-.08.49c-.06.16-.12.24-.2.24h-2.77c-.47,0-.77.04-.91.11-.14.08-.21.3-.21.67v5.52c0,.75.16,1.33.48,1.76.32.43.77.64,1.37.64.54,0,.96-.04,1.26-.13.3-.08.57-.21.81-.38.04-.04.07-.06.11-.06.07,0,.13.04.15.13.03.08.04.17.04.27s-.15.28-.46.56c-.31.28-.71.54-1.2.78-.5.24-1.03.36-1.61.36v.03Z"/><path class="d" d="M133.13,107.97c-.17,0-.3-.02-.41-.07-.1-.05-.15-.13-.15-.24,0-.15.07-.25.21-.31s.28-.1.43-.14c.39-.09.69-.21.9-.35.21-.14.31-.38.31-.71v-6.08c0-.5-.09-.95-.27-1.34-.18-.39-.51-.62-.99-.7-.09-.02-.16-.06-.21-.11-.05-.06-.07-.14-.07-.25,0-.21.08-.32.25-.34.75-.17,1.36-.4,1.85-.69.49-.29.85-.53,1.09-.71.17-.13.3-.2.39-.2.11,0,.17.05.17.14,0,.15-.02.44-.07.88s-.09.92-.13,1.46c-.04.53-.06,1.01-.06,1.44v6.5c0,.32.11.55.32.7s.51.27.88.36c.15.04.29.08.43.14s.21.16.21.31c0,.21-.19.31-.56.31-.35,0-.64,0-.85-.04s-.42-.05-.62-.07-.46-.03-.8-.03c-.32,0-.58,0-.78.03-.21.02-.41.04-.62.07-.21.03-.49.04-.87.04h.02ZM135.37,93.44c-.39,0-.72-.13-.99-.41s-.41-.6-.41-.99c0-.41.13-.75.41-1.02s.6-.41.99-.41c.41,0,.75.14,1.02.41s.41.61.41,1.02-.14.72-.41.99-.61.41-1.02.41Z"/><path class="d" d="M148.58,115.87c-.09,0-.21,0-.35-.04s-.21-.1-.21-.21c0-.15.07-.26.21-.32.14-.07.28-.13.43-.18.28-.09.55-.2.81-.32.26-.12.39-.37.39-.74v-6.52c0-.32,0-.54-.04-.66-.03-.12-.07-.18-.13-.18h-.13s-.09.02-.13.06c-.15.13-.41.32-.78.57s-.8.48-1.29.67c-.49.2-.98.29-1.48.29-.97,0-1.88-.21-2.73-.62-.85-.41-1.54-1.02-2.07-1.82-.53-.8-.8-1.78-.8-2.94,0-1.33.29-2.48.87-3.47s1.39-1.76,2.44-2.31c1.04-.55,2.25-.83,3.61-.83.63,0,1.21.05,1.74.15.52.1.95.21,1.29.31s.52.15.56.15c.21,0,.35-.07.45-.2s.19-.3.28-.5c.02-.02.05-.04.08-.07.04-.03.07-.04.11-.04.09,0,.19.03.29.08.1.06.15.12.15.2,0,.19-.06.57-.17,1.16s-.17,1.28-.17,2.09v14.42c0,.37.17.62.52.74.34.12.66.23.94.32.15.06.29.12.43.18s.21.17.21.32c0,.11-.07.18-.2.21-.13.03-.25.04-.36.04-.56,0-.99-.02-1.3-.07s-.71-.07-1.22-.07c-.32,0-.57,0-.77.03-.2.02-.4.04-.62.07-.21.03-.51.04-.88.04h.02ZM146.93,106.8c.62,0,1.2-.13,1.76-.38s.96-.51,1.2-.77v-2.86c0-.6,0-1.14,0-1.62,0-.49,0-.81,0-.98-.02-.84-.35-1.55-.99-2.13s-1.43-.87-2.37-.87c-.67,0-1.31.19-1.9.57-.6.38-1.08.94-1.46,1.67-.37.73-.56,1.63-.56,2.72,0,.93.14,1.7.43,2.31s.66,1.08,1.11,1.41c.45.34.92.57,1.43.71.5.14.96.21,1.37.21h0Z"/><path class="d" d="M164.77,108.42c-.13,0-.2-.08-.2-.22,0-.19.02-.46.07-.83.05-.36.07-.67.07-.91v-.17c-.73.71-1.46,1.22-2.2,1.53-.74.31-1.54.46-2.42.46-.6,0-1.14-.13-1.62-.38-.49-.25-.87-.62-1.15-1.12-.28-.49-.42-1.11-.42-1.83v-5.68c0-.41-.09-.74-.28-.98-.19-.24-.49-.45-.92-.62-.09-.04-.18-.08-.25-.14s-.11-.16-.11-.31c0-.17.04-.28.13-.34.08-.06.18-.09.29-.11.63-.04,1.12-.09,1.47-.15.34-.07.78-.16,1.3-.29.06-.02.1-.03.13-.03h.1c.21,0,.3.13.28.39-.06.43-.1.79-.13,1.08-.03.29-.04.65-.04,1.08v5.46c0,.45.11.86.34,1.25.22.38.52.7.88.94s.74.36,1.13.36c.48,0,.91-.03,1.27-.08s.72-.21,1.08-.48c.21-.15.47-.39.78-.73s.48-.79.48-1.37v-5.12c0-.39-.12-.69-.35-.88s-.5-.33-.8-.41c-.3-.07-.54-.11-.73-.11-.17,0-.31-.03-.42-.1-.11-.06-.17-.19-.17-.38,0-.17.06-.28.18-.34s.26-.08.41-.08c.58-.02,1.06-.04,1.44-.07.38-.03.73-.08,1.04-.14.31-.07.63-.14.97-.24.04-.02.08-.03.14-.04.06,0,.1,0,.14,0,.24,0,.36.1.36.31,0,.02,0,.05,0,.1,0,.05-.02.1-.04.15-.02.06-.04.21-.07.48-.03.26-.06.53-.08.81-.03.28-.04.5-.04.64v6.47c0,.5.05.86.15,1.08.1.21.22.32.35.32.15,0,.37,0,.66-.04.29-.03.5-.04.63-.04.09,0,.19.02.28.06s.14.14.14.31c0,.15-.04.25-.11.29-.08.05-.17.08-.28.1-.73.09-1.35.23-1.88.42s-.99.36-1.4.53c-.06.02-.14.05-.25.1s-.21.07-.31.07v-.02Z"/><path class="d" d="M176.03,108.31c-1.03,0-1.92-.25-2.69-.76-.77-.5-1.36-1.22-1.79-2.14s-.64-1.99-.64-3.21c0-1.08.25-2.07.74-2.95.49-.89,1.15-1.6,1.97-2.14s1.72-.81,2.69-.81c.75,0,1.41.15,1.99.45s1.03.71,1.36,1.25c.33.53.49,1.14.49,1.83,0,.58-.28.87-.84.87h-5.91c-.26,0-.44.07-.55.21-.1.14-.15.42-.15.83,0,.9.2,1.71.59,2.45.39.74.92,1.33,1.57,1.76.65.44,1.37.66,2.16.66.56,0,1.07-.11,1.53-.32.46-.21.86-.53,1.22-.94.07-.09.13-.15.17-.18s.08-.04.14-.04c.15,0,.22.09.22.28,0,.36-.17.75-.5,1.18-.28.36-.62.66-1.01.92s-.82.46-1.29.6-.95.21-1.46.21h-.01ZM173.46,99.82h2.55c.45,0,.83,0,1.15-.03s.62-.06.92-.11c.09-.02.15-.08.18-.18.03-.1.04-.25.04-.43,0-.54-.24-1-.71-1.39-.48-.38-1.04-.57-1.69-.57-.43,0-.86.13-1.29.38s-.78.57-1.06.94-.42.75-.42,1.12c0,.19.11.28.34.28h0Z"/><path class="d" d="M189.89,107.97c-.17,0-.3-.02-.41-.07-.1-.05-.15-.13-.15-.24,0-.15.07-.25.21-.31s.28-.1.43-.14c.39-.09.69-.21.9-.35.21-.14.31-.38.31-.71v-6.08c0-.5-.09-.95-.27-1.34-.18-.39-.51-.62-.99-.7-.09-.02-.16-.06-.21-.11-.05-.06-.07-.14-.07-.25,0-.21.08-.32.25-.34.75-.17,1.36-.4,1.85-.69.49-.29.85-.53,1.09-.71.17-.13.3-.2.39-.2.11,0,.17.05.17.14,0,.15-.02.44-.07.88s-.09.92-.13,1.46c-.04.53-.06,1.01-.06,1.44v6.5c0,.32.11.55.32.7s.51.27.88.36c.15.04.29.08.43.14s.21.16.21.31c0,.21-.19.31-.56.31-.35,0-.64,0-.85-.04s-.42-.05-.62-.07-.46-.03-.8-.03c-.32,0-.58,0-.78.03-.21.02-.41.04-.62.07-.21.03-.49.04-.87.04h.02ZM192.13,93.44c-.39,0-.72-.13-.99-.41s-.41-.6-.41-.99c0-.41.13-.75.41-1.02s.6-.41.99-.41c.41,0,.75.14,1.02.41s.41.61.41,1.02-.14.72-.41.99-.61.41-1.02.41Z"/><path class="d" d="M198.06,107.97c-.17,0-.3-.02-.41-.07-.1-.05-.15-.13-.15-.24,0-.15.06-.25.17-.29s.27-.1.48-.15c.28-.07.55-.18.81-.31s.39-.38.39-.76v-6.02c0-.5-.05-.93-.15-1.29s-.4-.6-.88-.73c-.08-.04-.14-.08-.2-.13s-.08-.13-.08-.24c0-.21.08-.32.25-.34.65-.17,1.19-.37,1.6-.62.41-.24.81-.51,1.2-.81.06-.04.11-.07.15-.1.05-.03.1-.04.15-.04.04,0,.07.02.1.06s.04.08.04.14c0,.13-.02.4-.07.8s-.07.73-.07.99c0,.07,0,.14,0,.21,0,.07.02.11.04.13.65-.62,1.35-1.08,2.09-1.4s1.54-.48,2.42-.48,1.67.37,2.27,1.12.9,1.67.9,2.77v5.96c0,.37.13.62.39.74.26.12.53.23.81.32.15.06.29.12.43.18.14.07.21.17.21.32,0,.11-.07.18-.2.21-.13.03-.25.04-.36.04-.37,0-.66,0-.87-.04s-.4-.05-.59-.07-.45-.03-.78-.03-.58,0-.78.03c-.21.02-.42.04-.63.07s-.51.04-.88.04c-.09,0-.21,0-.35-.04s-.21-.1-.21-.21c0-.15.07-.26.21-.32.14-.07.28-.13.43-.18.28-.09.55-.2.81-.32.26-.12.39-.37.39-.74v-5.88c0-.82-.23-1.46-.69-1.92-.46-.46-1.07-.7-1.83-.71-.67,0-1.26.11-1.76.32s-.95.48-1.34.8c-.08.08-.13.17-.17.29s-.06.24-.06.35v6.75c0,.37.13.63.39.76.26.13.53.23.81.31.43.11.64.26.64.45,0,.11-.05.19-.14.24s-.23.07-.42.07c-.37,0-.67,0-.88-.04s-.42-.05-.6-.07c-.19-.02-.45-.03-.78-.03s-.57,0-.77.03c-.2.02-.4.04-.62.07-.21.03-.51.04-.88.04h.01Z"/><path class="d" d="M222.56,108.28c-.34,0-.68-.13-1.02-.39s-.63-.58-.87-.95c-.23-.37-.35-.73-.35-1.06,0-.6.16-1.06.48-1.4s.82-.64,1.51-.92l2.86-1.18c.37-.15.59-.28.66-.39s.11-.35.13-.73l.06-1.79c.02-.49-.12-.91-.41-1.26-.29-.35-.71-.53-1.25-.53-.28,0-.56.05-.84.14s-.51.21-.7.36c-.11.07-.19.19-.22.34s-.06.31-.06.48c0,.08,0,.16.01.25,0,.09.01.18.01.25,0,.09-.12.22-.35.38s-.49.3-.78.42-.53.18-.71.18c-.09,0-.17-.02-.22-.07-.06-.05-.08-.11-.08-.18,0-.3.1-.62.29-.97s.47-.67.83-.97c.43-.39.9-.74,1.4-1.04s1-.53,1.48-.7.91-.25,1.29-.25c.67,0,1.23.24,1.67.71s.65,1.07.63,1.78l-.14,6.72c-.02.39.07.71.27.95s.44.36.74.36c.47,0,.81-.1,1.04-.31.09-.09.17-.14.22-.14.09,0,.17.03.22.08.06.06.08.13.08.22,0,.21-.1.41-.31.62-.3.3-.62.54-.97.71-.35.18-.67.27-.97.27-.86,0-1.54-.48-2.04-1.46h-.08c-.62.5-1.2.87-1.76,1.11-.56.23-1.14.35-1.74.35h-.01ZM223.88,106.94c.37,0,.69-.06.95-.18s.49-.28.7-.49c.09-.09.17-.22.24-.38.06-.16.11-.42.13-.77l.06-1.37c.02-.21,0-.35-.03-.45s-.11-.14-.22-.14c-.04,0-.1,0-.2.03s-.21.06-.36.11c-.99.35-1.67.72-2.06,1.11-.38.38-.57.73-.57,1.05,0,.49.14.85.43,1.11.29.25.6.38.94.38h-.01Z"/><path class="d" d="M241.32,108.42s-.1-.04-.18-.11c-.08-.08-.13-.13-.13-.17,0-.19.02-.45.07-.8s.07-.64.07-.88v-.17c-.28.43-.73.87-1.34,1.32-.62.45-1.39.67-2.32.67-1.06,0-1.98-.28-2.76-.84s-1.37-1.28-1.79-2.16-.63-1.78-.63-2.72c0-1.08.25-2.1.76-3.05.5-.95,1.23-1.73,2.17-2.32.94-.6,2.07-.9,3.37-.9.37,0,.75.03,1.13.1s.68.14.88.21c.17.06.29.08.36.08.13,0,.2-.22.2-.67v-3.98c0-.77-.12-1.28-.36-1.54s-.59-.43-1.04-.5c-.17-.04-.25-.16-.25-.36,0-.17.07-.28.22-.34.82-.21,1.47-.4,1.93-.59.47-.19.83-.34,1.09-.45.07-.04.14-.06.21-.07.07,0,.12-.01.15-.01.11,0,.18.06.2.17,0,.11-.01.3-.04.57s-.06.67-.1,1.19c-.04.52-.06,1.2-.06,2.04v12.66c0,.63.05,1.1.14,1.39.09.29.24.43.45.43.09,0,.26,0,.49-.03s.47-.04.71-.06c.34-.02.5.07.5.25,0,.13-.04.25-.13.35s-.17.15-.27.15c-.52.07-1.04.18-1.54.32-.5.14-1.08.35-1.74.63-.15.07-.25.12-.29.14-.05.02-.1.03-.15.03l.02.02ZM238.49,106.82c.49,0,.96-.13,1.43-.38s.88-.58,1.23-.99l.03-5.04c0-.5-.15-1-.43-1.48s-.69-.88-1.2-1.19-1.12-.46-1.81-.46c-.43,0-.92.13-1.46.39-.54.26-1.01.72-1.4,1.39-.39.66-.59,1.62-.59,2.87,0,1.06.16,1.92.48,2.56s.7,1.13,1.16,1.47.92.56,1.4.69c.48.12.86.18,1.16.18h0Z"/><path class="d" d="M252.82,108.28c-1.04,0-1.99-.24-2.83-.73-.84-.49-1.51-1.15-2-2s-.74-1.82-.74-2.9c0-.78.15-1.55.46-2.3s.74-1.43,1.3-2.04c.56-.62,1.21-1.11,1.96-1.47s1.55-.55,2.41-.55c1.08,0,2.06.26,2.93.78s1.56,1.21,2.07,2.06c.51.85.77,1.78.77,2.79,0,1.08-.24,2.11-.71,3.08s-1.18,1.76-2.11,2.37-2.1.91-3.5.91h-.01ZM253.41,107.44c.63,0,1.2-.12,1.71-.36.5-.24.9-.63,1.18-1.18.22-.43.37-.95.45-1.57.07-.62.11-1.19.11-1.74,0-.9-.16-1.76-.49-2.59s-.78-1.51-1.37-2.04-1.28-.8-2.09-.8c-.5,0-.96.08-1.36.24s-.77.45-1.11.88c-.37.47-.62,1.04-.73,1.71-.11.67-.17,1.34-.17,2.02,0,.92.17,1.79.5,2.62.34.83.79,1.51,1.37,2.03s1.24.78,1.99.78h.01Z"/><path class="d" d="M262.06,107.97c-.19,0-.33-.02-.42-.07-.09-.05-.14-.13-.14-.24,0-.15.06-.25.17-.29.11-.05.27-.1.48-.15.35-.09.62-.23.8-.41.18-.18.27-.4.27-.66v-6.02c0-.5-.07-.94-.22-1.32-.15-.37-.46-.61-.92-.7-.08-.02-.14-.06-.2-.14-.06-.07-.08-.15-.08-.22,0-.19.08-.3.25-.34.49-.15.99-.37,1.53-.66s.95-.53,1.25-.71c.11-.07.2-.13.27-.15s.12-.04.15-.04c.09,0,.14.07.14.2,0,.06,0,.2-.01.42,0,.22-.02.49-.03.78s-.02.6-.04.9c0,.04.02.06.06.06.3-.37.63-.7.99-.98s.74-.5,1.12-.67.75-.25,1.11-.25c.39,0,.71.08.97.25s.38.38.38.64c0,.19-.05.39-.15.62s-.24.42-.41.59-.35.25-.53.25c-.11,0-.23-.02-.36-.07-.13-.05-.27-.11-.42-.18-.15-.06-.3-.11-.45-.17-.15-.06-.3-.08-.45-.08-.45,0-.88.16-1.3.48s-.63.94-.63,1.88v5.66c0,.24.13.44.39.6s.62.31,1.09.46c.21.06.36.11.48.17.11.06.17.15.17.28,0,.21-.19.31-.56.31-.56,0-.99-.02-1.27-.07-.29-.05-.68-.07-1.16-.07-.32,0-.57,0-.77.03-.2.02-.4.04-.62.07s-.51.04-.88.04l-.05-.03Z"/><path class="d" d="M274.05,108.28c-.34,0-.68-.13-1.02-.39s-.63-.58-.87-.95c-.23-.37-.35-.73-.35-1.06,0-.6.16-1.06.48-1.4s.82-.64,1.51-.92l2.86-1.18c.37-.15.59-.28.66-.39s.11-.35.13-.73l.06-1.79c.02-.49-.12-.91-.41-1.26-.29-.35-.71-.53-1.25-.53-.28,0-.56.05-.84.14s-.51.21-.7.36c-.11.07-.19.19-.22.34s-.06.31-.06.48c0,.08,0,.16.01.25,0,.09.01.18.01.25,0,.09-.12.22-.35.38s-.49.3-.78.42-.53.18-.71.18c-.09,0-.17-.02-.22-.07-.06-.05-.08-.11-.08-.18,0-.3.1-.62.29-.97s.47-.67.83-.97c.43-.39.9-.74,1.4-1.04s1-.53,1.48-.7.91-.25,1.29-.25c.67,0,1.23.24,1.67.71s.65,1.07.63,1.78l-.14,6.72c-.02.39.07.71.27.95s.44.36.74.36c.47,0,.81-.1,1.04-.31.09-.09.17-.14.22-.14.09,0,.17.03.22.08.06.06.08.13.08.22,0,.21-.1.41-.31.62-.3.3-.62.54-.97.71-.35.18-.67.27-.97.27-.86,0-1.54-.48-2.04-1.46h-.08c-.62.5-1.2.87-1.76,1.11-.56.23-1.14.35-1.74.35h-.01ZM275.37,106.94c.37,0,.69-.06.95-.18s.49-.28.7-.49c.09-.09.17-.22.24-.38.06-.16.11-.42.13-.77l.06-1.37c.02-.21,0-.35-.03-.45s-.11-.14-.22-.14c-.04,0-.1,0-.2.03s-.21.06-.36.11c-.99.35-1.67.72-2.06,1.11-.38.38-.57.73-.57,1.05,0,.49.14.85.43,1.11.29.25.6.38.94.38h-.01Z"/><path class="d" d="M287.88,108.28c-.92,0-1.63-.28-2.14-.84s-.77-1.39-.77-2.49v-6.5c0-.15-.06-.26-.17-.32s-.35-.1-.73-.1h-.17c-.09,0-.17-.06-.24-.18-.07-.12-.1-.25-.1-.38,0-.04.03-.09.08-.17.06-.07.09-.12.11-.14.37-.26.71-.52,1.02-.78s.59-.52.84-.77.46-.48.63-.69c.09-.09.17-.17.24-.24.06-.07.14-.1.24-.1s.18.02.27.06c.08.04.12.12.1.25l-.14,1.26c-.02.21.03.35.14.42.11.07.29.11.53.11h3.19c.07,0,.14.06.2.18s.08.27.08.43-.03.33-.08.49c-.06.16-.12.24-.2.24h-2.77c-.47,0-.77.04-.91.11-.14.08-.21.3-.21.67v5.52c0,.75.16,1.33.48,1.76s.77.64,1.37.64c.54,0,.96-.04,1.26-.13.3-.08.57-.21.81-.38.04-.04.07-.06.11-.06.07,0,.13.04.15.13.03.08.04.17.04.27s-.15.28-.46.56-.71.54-1.2.78c-.5.24-1.03.36-1.61.36v.03Z"/><path class="d" d="M293.89,107.97c-.17,0-.3-.02-.41-.07-.1-.05-.15-.13-.15-.24,0-.15.07-.25.21-.31.14-.06.28-.1.43-.14.39-.09.69-.21.9-.35s.31-.38.31-.71v-6.08c0-.5-.09-.95-.27-1.34s-.51-.62-.99-.7c-.09-.02-.16-.06-.21-.11-.05-.06-.07-.14-.07-.25,0-.21.08-.32.25-.34.75-.17,1.36-.4,1.85-.69.49-.29.85-.53,1.09-.71.17-.13.3-.2.39-.2.11,0,.17.05.17.14,0,.15-.02.44-.07.88-.05.44-.09.92-.13,1.46-.04.53-.06,1.01-.06,1.44v6.5c0,.32.11.55.32.7s.51.27.88.36c.15.04.29.08.43.14.14.06.21.16.21.31,0,.21-.19.31-.56.31-.35,0-.64,0-.85-.04s-.42-.05-.62-.07c-.2-.02-.46-.03-.8-.03-.32,0-.58,0-.78.03-.21.02-.41.04-.62.07-.21.03-.49.04-.87.04h.02ZM296.13,93.44c-.39,0-.72-.13-.99-.41s-.41-.6-.41-.99c0-.41.13-.75.41-1.02s.6-.41.99-.41c.41,0,.75.14,1.02.41s.41.61.41,1.02-.14.72-.41.99-.61.41-1.02.41Z"/><path class="d" d="M306.62,108.28c-1.04,0-1.99-.24-2.83-.73-.84-.49-1.51-1.15-2-2s-.74-1.82-.74-2.9c0-.78.15-1.55.46-2.3s.74-1.43,1.3-2.04c.56-.62,1.21-1.11,1.96-1.47s1.55-.55,2.41-.55c1.08,0,2.06.26,2.93.78s1.56,1.21,2.07,2.06c.51.85.77,1.78.77,2.79,0,1.08-.24,2.11-.71,3.08s-1.18,1.76-2.11,2.37-2.1.91-3.5.91h-.01ZM307.21,107.44c.63,0,1.2-.12,1.71-.36.5-.24.9-.63,1.18-1.18.22-.43.37-.95.45-1.57.07-.62.11-1.19.11-1.74,0-.9-.16-1.76-.49-2.59s-.78-1.51-1.37-2.04-1.28-.8-2.09-.8c-.5,0-.96.08-1.36.24s-.77.45-1.11.88c-.37.47-.62,1.04-.73,1.71-.11.67-.17,1.34-.17,2.02,0,.92.17,1.79.5,2.62.34.83.79,1.51,1.37,2.03s1.24.78,1.99.78h.01Z"/><path class="d" d="M315.72,107.97c-.17,0-.3-.02-.41-.07-.1-.05-.15-.13-.15-.24,0-.15.06-.25.17-.29s.27-.1.48-.15c.28-.07.55-.18.81-.31s.39-.38.39-.76v-6.02c0-.5-.05-.93-.15-1.29s-.4-.6-.88-.73c-.08-.04-.14-.08-.2-.13s-.08-.13-.08-.24c0-.21.08-.32.25-.34.65-.17,1.19-.37,1.6-.62.41-.24.81-.51,1.2-.81.06-.04.11-.07.15-.1.05-.03.1-.04.15-.04.04,0,.07.02.1.06s.04.08.04.14c0,.13-.02.4-.07.8s-.07.73-.07.99c0,.07,0,.14.01.21,0,.07.02.11.04.13.65-.62,1.35-1.08,2.09-1.4s1.54-.48,2.42-.48,1.67.37,2.27,1.12c.6.75.9,1.67.9,2.77v5.96c0,.37.13.62.39.74.26.12.53.23.81.32.15.06.29.12.43.18.14.07.21.17.21.32,0,.11-.07.18-.2.21-.13.03-.25.04-.36.04-.37,0-.66,0-.87-.04s-.4-.05-.59-.07-.45-.03-.78-.03-.58,0-.78.03c-.21.02-.42.04-.63.07s-.51.04-.88.04c-.09,0-.21,0-.35-.04s-.21-.1-.21-.21c0-.15.07-.26.21-.32.14-.07.28-.13.43-.18.28-.09.55-.2.81-.32.26-.12.39-.37.39-.74v-5.88c0-.82-.23-1.46-.69-1.92-.46-.46-1.07-.7-1.83-.71-.67,0-1.26.11-1.76.32s-.95.48-1.34.8c-.08.08-.13.17-.17.29s-.06.24-.06.35v6.75c0,.37.13.63.39.76.26.13.53.23.81.31.43.11.64.26.64.45,0,.11-.05.19-.14.24-.09.05-.23.07-.42.07-.37,0-.67,0-.88-.04s-.42-.05-.6-.07c-.19-.02-.45-.03-.78-.03s-.57,0-.77.03c-.2.02-.4.04-.62.07-.21.03-.51.04-.88.04h0Z"/><path class="d" d="M346.94,108.42s-.1-.04-.18-.11c-.08-.08-.13-.13-.13-.17,0-.19.02-.45.07-.8s.07-.64.07-.88v-.17c-.28.43-.73.87-1.34,1.32-.62.45-1.39.67-2.32.67-1.06,0-1.98-.28-2.76-.84s-1.37-1.28-1.79-2.16-.63-1.78-.63-2.72c0-1.08.25-2.1.76-3.05s1.23-1.73,2.17-2.32c.94-.6,2.07-.9,3.37-.9.37,0,.75.03,1.13.1s.68.14.88.21c.17.06.29.08.36.08.13,0,.2-.22.2-.67v-3.98c0-.77-.12-1.28-.36-1.54s-.59-.43-1.04-.5c-.17-.04-.25-.16-.25-.36,0-.17.07-.28.22-.34.82-.21,1.47-.4,1.93-.59.47-.19.83-.34,1.09-.45.07-.04.14-.06.21-.07.07,0,.12-.01.15-.01.11,0,.18.06.2.17,0,.11-.01.3-.04.57s-.06.67-.1,1.19c-.04.52-.06,1.2-.06,2.04v12.66c0,.63.05,1.1.14,1.39.09.29.24.43.45.43.09,0,.26,0,.49-.03s.47-.04.71-.06c.34-.02.5.07.5.25,0,.13-.04.25-.13.35s-.17.15-.27.15c-.52.07-1.04.18-1.54.32-.5.14-1.08.35-1.74.63-.15.07-.25.12-.29.14-.05.02-.1.03-.15.03l.02.02ZM344.11,106.82c.49,0,.96-.13,1.43-.38s.88-.58,1.23-.99l.03-5.04c0-.5-.15-1-.43-1.48s-.69-.88-1.2-1.19-1.12-.46-1.81-.46c-.43,0-.92.13-1.46.39-.54.26-1.01.72-1.4,1.39-.39.66-.59,1.62-.59,2.87,0,1.06.16,1.92.48,2.56s.7,1.13,1.16,1.47.92.56,1.4.69c.48.12.86.18,1.16.18h0Z"/><path class="d" d="M357.98,108.31c-1.03,0-1.92-.25-2.69-.76-.77-.5-1.36-1.22-1.79-2.14-.43-.92-.64-1.99-.64-3.21,0-1.08.25-2.07.74-2.95.49-.89,1.15-1.6,1.97-2.14s1.72-.81,2.69-.81c.75,0,1.41.15,1.99.45s1.03.71,1.36,1.25c.33.53.49,1.14.49,1.83,0,.58-.28.87-.84.87h-5.91c-.26,0-.44.07-.55.21-.1.14-.15.42-.15.83,0,.9.2,1.71.59,2.45.39.74.92,1.33,1.57,1.76.65.44,1.37.66,2.16.66.56,0,1.07-.11,1.53-.32s.86-.53,1.22-.94c.07-.09.13-.15.17-.18s.08-.04.14-.04c.15,0,.22.09.22.28,0,.36-.17.75-.5,1.18-.28.36-.62.66-1.01.92s-.82.46-1.29.6-.95.21-1.46.21h0ZM355.41,99.82h2.55c.45,0,.83,0,1.15-.03s.62-.06.92-.11c.09-.02.15-.08.18-.18.03-.1.04-.25.04-.43,0-.54-.24-1-.71-1.39-.48-.38-1.04-.57-1.69-.57-.43,0-.86.13-1.29.38-.43.25-.78.57-1.06.94s-.42.75-.42,1.12c0,.19.11.28.34.28h0Z"/><path class="d" d="M381,108.08c-.19,0-.6-.02-1.25-.06-.64-.04-1.38-.07-2.21-.1s-1.62-.04-2.37-.04c-.37,0-.69,0-.94.03-.25.02-.52.04-.81.07-.29.03-.69.04-1.19.04-.24,0-.44-.03-.59-.08-.15-.06-.22-.15-.22-.28,0-.15.08-.25.22-.29s.38-.1.7-.15c.71-.13,1.2-.35,1.47-.64.27-.3.41-.78.41-1.46v-12.6c0-.67-.14-1.15-.41-1.43s-.76-.49-1.47-.62c-.32-.06-.55-.12-.7-.18s-.22-.17-.22-.32c0-.13.08-.22.22-.28.15-.06.34-.08.59-.08.49,0,.87,0,1.16.01.29,0,.57.02.85.03.28,0,.64.01,1.09.01.3,0,.68,0,1.13-.03.46-.02.93-.05,1.43-.08.49-.04.94-.07,1.34-.08s.7-.03.88-.03c1.9,0,3.53.23,4.87.69s2.44,1.09,3.28,1.9,1.46,1.75,1.86,2.83c.4,1.07.6,2.23.6,3.46,0,1.34-.25,2.6-.76,3.78s-1.2,2.22-2.1,3.12c-.9.91-1.93,1.61-3.11,2.11s-2.44.76-3.78.76h.03ZM380.66,107.1c1.46,0,2.74-.35,3.86-1.06,1.12-.71,1.99-1.69,2.62-2.94.62-1.25.94-2.69.94-4.31,0-1.34-.22-2.54-.67-3.6-.45-1.05-1.05-1.94-1.79-2.66-.75-.72-1.59-1.27-2.52-1.65-.93-.38-1.88-.57-2.83-.57-.8,0-1.49.02-2.06.07s-1,.19-1.3.43-.45.64-.45,1.2v12.49c0,.75.21,1.31.62,1.68s.94.62,1.58.74c.64.12,1.31.18,2,.18h0Z"/><path class="d" d="M394.01,107.97c-.17,0-.3-.02-.41-.07-.1-.05-.15-.13-.15-.24,0-.15.07-.25.21-.31.14-.06.28-.1.43-.14.39-.09.69-.21.9-.35s.31-.38.31-.71v-6.08c0-.5-.09-.95-.27-1.34s-.51-.62-.99-.7c-.09-.02-.16-.06-.21-.11-.05-.06-.07-.14-.07-.25,0-.21.08-.32.25-.34.75-.17,1.36-.4,1.85-.69.49-.29.85-.53,1.09-.71.17-.13.3-.2.39-.2.11,0,.17.05.17.14,0,.15-.02.44-.07.88-.05.44-.09.92-.13,1.46-.04.53-.06,1.01-.06,1.44v6.5c0,.32.11.55.32.7s.51.27.88.36c.15.04.29.08.43.14.14.06.21.16.21.31,0,.21-.19.31-.56.31-.35,0-.64,0-.85-.04s-.42-.05-.62-.07c-.2-.02-.46-.03-.8-.03-.32,0-.58,0-.78.03-.21.02-.41.04-.62.07-.21.03-.49.04-.87.04h.02ZM396.25,93.44c-.39,0-.72-.13-.99-.41s-.41-.6-.41-.99c0-.41.13-.75.41-1.02s.6-.41.99-.41c.41,0,.75.14,1.02.41s.41.61.41,1.02-.14.72-.41.99-.61.41-1.02.41Z"/><path class="d" d="M406.31,108.31c-1.03,0-1.92-.25-2.69-.76-.77-.5-1.36-1.22-1.79-2.14-.43-.92-.64-1.99-.64-3.21,0-1.08.25-2.07.74-2.95.49-.89,1.15-1.6,1.97-2.14s1.72-.81,2.69-.81c.75,0,1.41.15,1.99.45s1.03.71,1.36,1.25c.33.53.49,1.14.49,1.83,0,.58-.28.87-.84.87h-5.91c-.26,0-.44.07-.55.21-.1.14-.15.42-.15.83,0,.9.2,1.71.59,2.45.39.74.92,1.33,1.57,1.76.65.44,1.37.66,2.16.66.56,0,1.07-.11,1.53-.32s.86-.53,1.22-.94c.07-.09.13-.15.17-.18s.08-.04.14-.04c.15,0,.22.09.22.28,0,.36-.17.75-.5,1.18-.28.36-.62.66-1.01.92s-.82.46-1.29.6-.95.21-1.46.21h0ZM403.73,99.82h2.55c.45,0,.83,0,1.15-.03s.62-.06.92-.11c.09-.02.15-.08.18-.18.03-.1.04-.25.04-.43,0-.54-.24-1-.71-1.39-.48-.38-1.04-.57-1.69-.57-.43,0-.86.13-1.29.38-.43.25-.78.57-1.06.94s-.42.75-.42,1.12c0,.19.11.28.34.28h0Z"/><path class="d" d="M422.3,108.42c-.13,0-.2-.08-.2-.22,0-.19.02-.46.07-.83.05-.36.07-.67.07-.91v-.17c-.73.71-1.46,1.22-2.2,1.53-.74.31-1.54.46-2.42.46-.6,0-1.14-.13-1.62-.38-.49-.25-.87-.62-1.15-1.12-.28-.49-.42-1.11-.42-1.83v-5.68c0-.41-.09-.74-.28-.98-.19-.24-.49-.45-.92-.62-.09-.04-.18-.08-.25-.14s-.11-.16-.11-.31c0-.17.04-.28.13-.34.08-.06.18-.09.29-.11.63-.04,1.12-.09,1.47-.15.34-.07.78-.16,1.3-.29.06-.02.1-.03.13-.03h.1c.21,0,.3.13.28.39-.06.43-.1.79-.13,1.08-.03.29-.04.65-.04,1.08v5.46c0,.45.11.86.34,1.25.22.38.52.7.88.94.36.24.74.36,1.13.36.48,0,.91-.03,1.27-.08s.72-.21,1.08-.48c.21-.15.47-.39.78-.73s.48-.79.48-1.37v-5.12c0-.39-.12-.69-.35-.88s-.5-.33-.8-.41c-.3-.07-.54-.11-.73-.11-.17,0-.31-.03-.42-.1-.11-.06-.17-.19-.17-.38,0-.17.06-.28.18-.34s.26-.08.41-.08c.58-.02,1.06-.04,1.44-.07.38-.03.73-.08,1.04-.14.31-.07.63-.14.97-.24.04-.02.08-.03.14-.04.06,0,.1,0,.14,0,.24,0,.36.1.36.31,0,.02,0,.05-.01.1,0,.05-.02.1-.04.15-.02.06-.04.21-.07.48-.03.26-.06.53-.08.81-.03.28-.04.5-.04.64v6.47c0,.5.05.86.15,1.08.1.21.22.32.35.32.15,0,.37,0,.66-.04s.5-.04.63-.04c.09,0,.19.02.28.06s.14.14.14.31c0,.15-.04.25-.11.29-.08.05-.17.08-.28.1-.73.09-1.35.23-1.88.42s-.99.36-1.4.53c-.06.02-.14.05-.25.1s-.21.07-.31.07v-.02Z"/><path class="d" d="M431.13,108.28c-.41,0-.77-.15-1.08-.46s-.46-.67-.46-1.08.15-.79.46-1.09.67-.45,1.08-.45.79.15,1.09.45.45.66.45,1.09-.15.77-.45,1.08c-.3.31-.66.46-1.09.46Z"/></svg>