<?xml version="1.0" encoding="UTF-8"?><svg id="a" xmlns="http://www.w3.org/2000/svg" viewBox="0 0 446.01 123.69"><defs><style>.e{fill:#785adc;}.f{fill:#151515;}.g{fill:#fa8ca0;}</style></defs><g id="b"><g id="c"><path class="f" d="M83.07,95.12c3.16,0,5.6-.94,7.34-2.82,1.73-1.88,2.6-4.1,2.6-6.66,0-3.76-2.79-6.7-8.35-8.8-3.99-1.5-7.09-3.29-9.31-5.36-2.22-2.07-3.33-4.87-3.33-8.41,0-1.65.3-3.25.9-4.8.6-1.54,1.48-2.9,2.65-4.06,1.17-1.17,2.56-2.09,4.18-2.77,1.62-.68,3.44-1.02,5.47-1.02,2.86,0,5.19.47,7,1.41,1.81.94,3.01,1.9,3.61,2.88.23.38.41.79.56,1.24.15.45.15.87,0,1.24-.38,1.88-1.51,2.64-3.39,2.26-.68-.23-1.28-.64-1.81-1.24-.38-.52-.73-1.09-1.07-1.69-.34-.6-.73-1.17-1.18-1.69-.45-.53-1-.96-1.64-1.3-.64-.34-1.45-.51-2.43-.51-2.03,0-3.86.66-5.47,1.98-1.62,1.32-2.43,3.1-2.43,5.36,0,2.93,2.44,5.42,7.34,7.45,2.26.9,4.23,1.81,5.93,2.71,1.69.9,3.12,1.92,4.29,3.05,1.17,1.13,2.03,2.46,2.6,4.01.56,1.54.85,3.44.85,5.7,0,1.96-.36,3.8-1.07,5.53-.71,1.73-1.73,3.24-3.05,4.52-1.32,1.28-2.88,2.3-4.68,3.05-1.81.75-3.84,1.13-6.1,1.13-2.03,0-3.78-.21-5.25-.62-1.47-.41-2.73-.9-3.78-1.47-1.06-.56-1.9-1.17-2.54-1.81-.64-.64-1.11-1.19-1.41-1.64-.53-.9-.68-1.73-.45-2.48.15-.83.58-1.45,1.3-1.86.71-.41,1.48-.54,2.31-.4.68.23,1.28.64,1.81,1.24.38.53.77,1.17,1.19,1.92.41.75.92,1.49,1.52,2.2.6.71,1.32,1.32,2.14,1.81.83.49,1.88.73,3.16.73Z"/><path class="f" d="M170.47,57.03c.87-1.24,1.94-2.33,3.22-3.27,1.28-.94,2.73-1.71,4.35-2.31,1.62-.6,3.33-.9,5.14-.9,2.26,0,4.27.38,6.04,1.13,1.77.75,3.27,1.79,4.51,3.1,1.24,1.32,2.2,2.84,2.88,4.57.68,1.73,1.02,3.58,1.02,5.53v24.6c0,3.24,1.62,4.85,4.85,4.85v1.92h-17.16v-1.91c3.23,0,4.85-1.61,4.85-4.84v-23.98c0-3-.9-5.55-2.71-7.65-1.81-2.1-4.21-3.15-7.22-3.15-1.51,0-2.93.34-4.29,1.01-1.35.68-2.56,1.58-3.61,2.7-1.05,1.13-1.9,2.4-2.54,3.83-.64,1.42-.96,2.89-.96,4.39v22.85c0,3.23,1.62,4.84,4.85,4.84v1.91h-17.16v-1.92c3.23,0,4.85-1.62,4.85-4.85v-31.15c0-3.23-1.62-4.85-4.85-4.85v-1.92h12.3v9.37c.23-1.35.77-2.65,1.64-3.89Z"/><path class="f" d="M218.11,95.12c3.16,0,5.6-.94,7.34-2.82,1.73-1.88,2.6-4.1,2.6-6.66,0-3.76-2.79-6.7-8.35-8.8-3.99-1.5-7.09-3.29-9.31-5.36-2.22-2.07-3.33-4.87-3.33-8.41,0-1.65.3-3.25.9-4.8.6-1.54,1.48-2.9,2.65-4.06,1.17-1.17,2.56-2.09,4.18-2.77,1.62-.68,3.44-1.02,5.47-1.02,2.86,0,5.19.47,7,1.41,1.81.94,3.01,1.9,3.61,2.88.23.38.41.79.56,1.24.15.45.15.87,0,1.24-.38,1.88-1.51,2.64-3.39,2.26-.68-.23-1.28-.64-1.81-1.24-.38-.52-.73-1.09-1.07-1.69-.34-.6-.73-1.17-1.18-1.69-.45-.53-1-.96-1.64-1.3-.64-.34-1.45-.51-2.43-.51-2.03,0-3.86.66-5.47,1.98-1.62,1.32-2.43,3.1-2.43,5.36,0,2.93,2.44,5.42,7.34,7.45,2.26.9,4.23,1.81,5.93,2.71,1.69.9,3.12,1.92,4.29,3.05,1.17,1.13,2.03,2.46,2.6,4.01.56,1.54.85,3.44.85,5.7,0,1.96-.36,3.8-1.07,5.53-.71,1.73-1.73,3.24-3.05,4.52-1.32,1.28-2.88,2.3-4.68,3.05-1.81.75-3.84,1.13-6.1,1.13-2.03,0-3.78-.21-5.25-.62-1.47-.41-2.73-.9-3.78-1.47-1.06-.56-1.9-1.17-2.54-1.81-.64-.64-1.11-1.19-1.41-1.64-.53-.9-.68-1.73-.45-2.48.15-.83.58-1.45,1.3-1.86.71-.41,1.48-.54,2.31-.4.68.23,1.28.64,1.81,1.24.38.53.77,1.17,1.19,1.92.41.75.92,1.49,1.52,2.2.6.71,1.32,1.32,2.14,1.81.83.49,1.88.73,3.16.73Z"/><path class="f" d="M275.67,95.12c3.16,0,5.6-.94,7.34-2.82,1.73-1.88,2.6-4.1,2.6-6.66,0-3.76-2.79-6.7-8.35-8.8-3.99-1.5-7.09-3.29-9.31-5.36-2.22-2.07-3.33-4.87-3.33-8.41,0-1.65.3-3.25.9-4.8.6-1.54,1.48-2.9,2.65-4.06,1.17-1.17,2.56-2.09,4.18-2.77,1.62-.68,3.44-1.02,5.47-1.02,2.86,0,5.19.47,7,1.41,1.81.94,3.01,1.9,3.61,2.88.23.38.41.79.56,1.24.15.45.15.87,0,1.24-.38,1.88-1.51,2.64-3.39,2.26-.68-.23-1.28-.64-1.81-1.24-.38-.52-.73-1.09-1.07-1.69-.34-.6-.73-1.17-1.18-1.69-.45-.53-1-.96-1.64-1.3-.64-.34-1.45-.51-2.43-.51-2.03,0-3.86.66-5.47,1.98-1.62,1.32-2.43,3.1-2.43,5.36,0,2.93,2.44,5.42,7.34,7.45,2.26.9,4.23,1.81,5.93,2.71,1.69.9,3.12,1.92,4.29,3.05,1.17,1.13,2.03,2.46,2.6,4.01.56,1.54.85,3.44.85,5.7,0,1.96-.36,3.8-1.07,5.53-.71,1.73-1.73,3.24-3.05,4.52-1.32,1.28-2.88,2.3-4.68,3.05-1.81.75-3.84,1.13-6.1,1.13-2.03,0-3.78-.21-5.25-.62-1.47-.41-2.73-.9-3.78-1.47-1.06-.56-1.9-1.17-2.54-1.81-.64-.64-1.11-1.19-1.41-1.64-.53-.9-.68-1.73-.45-2.48.15-.83.58-1.45,1.3-1.86.71-.41,1.48-.54,2.31-.4.68.23,1.28.64,1.81,1.24.38.53.77,1.17,1.19,1.92.41.75.92,1.49,1.52,2.2.6.71,1.32,1.32,2.14,1.81.83.49,1.88.73,3.16.73Z"/><path class="f" d="M353.92,58.32c0-3.23-1.62-4.85-4.85-4.85v-1.92h17.15v1.92c-3.23,0-4.85,1.62-4.85,4.85v31.15c0,3.24,1.62,4.85,4.85,4.85v1.92h-17.15v-1.92c3.23,0,4.85-1.62,4.85-4.85v-31.15Z"/><path class="f" d="M384.27,57.03c.87-1.24,1.94-2.33,3.22-3.27,1.28-.94,2.73-1.71,4.35-2.31,1.62-.6,3.33-.9,5.14-.9,2.26,0,4.27.38,6.04,1.13,1.77.75,3.27,1.79,4.51,3.1,1.24,1.32,2.2,2.84,2.88,4.57.68,1.73,1.02,3.58,1.02,5.53v24.6c0,3.24,1.62,4.85,4.85,4.85v1.92h-17.16v-1.91c3.23,0,4.85-1.61,4.85-4.84v-23.98c0-3-.9-5.55-2.71-7.65-1.81-2.1-4.21-3.15-7.22-3.15-1.51,0-2.93.34-4.29,1.01-1.35.68-2.56,1.58-3.61,2.7-1.05,1.13-1.9,2.4-2.54,3.83-.64,1.42-.96,2.89-.96,4.39v22.85c0,3.23,1.62,4.84,4.85,4.84v1.91h-17.16v-1.92c3.23,0,4.85-1.62,4.85-4.85v-31.15c0-3.23-1.62-4.85-4.85-4.85v-1.92h12.3v9.37c.23-1.35.77-2.65,1.64-3.89Z"/><path class="f" d="M444.88,90.38c-.83,1.2-1.77,2.14-2.82,2.82-1.06.68-2.33,1.02-3.84,1.02-2.41,0-4.42-.81-6.04-2.43-1.62-1.62-2.43-3.63-2.43-6.04v-26.31c0-3.22,1.63-4.83,4.85-4.83h0s6.55-.01,6.55-.01v-3.05h-23.7v3.05h0c3.23.01,4.85,1.63,4.85,4.87v25.27c0,1.73.32,3.37.96,4.91.64,1.54,1.52,2.88,2.65,4.01,1.13,1.13,2.46,2.01,4.01,2.65,1.54.64,4.24.96,5.98.96,2.41,0,3.54-.53,5.54-1.58,1.99-1.05,3.52-2.56,4.57-4.51l-1.13-.79Z"/><path class="f" d="M333.27,92.15c-.51.53-1.27,1.12-2.28,1.76-1.02.64-2.19,1.25-3.52,1.81-1.33.57-2.82,1.04-4.45,1.42-1.63.38-3.28.57-4.95.57-3.1,0-6.04-.66-8.83-1.98-2.78-1.32-5.22-3.08-7.33-5.27-2.11-2.19-3.77-4.72-4.98-7.6-1.21-2.87-1.84-5.86-1.88-8.96-.05-3.1.48-6.07,1.59-8.9,1.1-2.84,2.65-5.31,4.64-7.43,1.99-2.12,4.37-3.8,7.13-5.05,2.76-1.25,5.8-1.87,9.13-1.87,2.95,0,5.77.53,8.47,1.59,2.69,1.06,5.01,2.72,6.94,4.99l.09-5.67h12.37s.02,1.93.02,1.93c-3.33,0-4.96,1.63-4.89,4.88l.19,31.07c-.08,3.25,1.59,4.88,4.99,4.88v1.94h-12.49s.06-4.09.06-4.09ZM317.78,53.25c-2.12,0-4.08.53-5.89,1.59-1.81,1.06-3.38,2.52-4.7,4.37-1.32,1.85-2.36,4.05-3.1,6.58-.74,2.53-1.11,5.27-1.09,8.22.03,3.03.43,5.82,1.21,8.39.78,2.57,1.85,4.8,3.23,6.69,1.37,1.89,2.97,3.37,4.79,4.42,1.82,1.06,3.76,1.59,5.8,1.59,2.65,0,5.31-.53,7.99-1.59s5.05-2.76,7.12-5.1l-.14-27.11c-1.98-2.5-4.21-4.46-6.71-5.9-2.5-1.44-5.34-2.16-8.52-2.16Z"/><path class="f" d="M147.99,89.43l-.19-31.07c-.07-3.25,1.56-4.88,4.89-4.88l-.02-1.93h-12.37l-.09,5.67c-1.94-2.27-4.25-3.93-6.94-4.99-2.69-1.06-5.52-1.59-8.47-1.59-3.33,0-6.38.62-9.13,1.87-2.76,1.25-5.13,2.93-7.13,5.05-1.99,2.12-3.54,4.59-4.64,7.43-1.1,2.83-1.63,5.8-1.59,8.9.04,3.1.67,6.09,1.88,8.96,1.21,2.87,2.87,5.41,4.98,7.6,2.11,2.19,4.55,3.95,7.33,5.27,2.78,1.32,5.72,1.98,8.83,1.98,1.66,0,3.31-.19,4.95-.57,1.63-.38,3.11-.85,4.45-1.42,1.33-.57,2.51-1.17,3.52-1.81,1.02-.64,1.78-1.23,2.28-1.76l-.06,4.09h12.49v-1.94c-3.4,0-5.07-1.63-4.99-4.88ZM133.31,93.51c-2.68,1.06-5.35,1.59-7.99,1.59-2.04,0-3.98-.53-5.8-1.59-1.82-1.06-3.42-2.53-4.79-4.42-1.37-1.89-2.45-4.12-3.23-6.69-.78-2.57-1.18-5.37-1.21-8.39-.02-2.95.35-5.69,1.09-8.22.74-2.53,1.77-4.72,3.1-6.58,1.32-1.85,2.89-3.31,4.7-4.37,1.81-1.06,3.77-1.59,5.89-1.59,3.18,0,6.02.72,8.52,2.16,2.5,1.44,4.73,3.4,6.71,5.9l.14,27.11c-2.06,2.34-4.44,4.05-7.12,5.1Z"/><path class="f" d="M250.05,67.94h0s-1.92,0-1.92,0c0,3.18-1.57,4.79-4.7,4.85h-.16v1.92c3.23,0,4.85,1.62,4.85,4.85h0s1.92,0,1.92,0c0-3.18,1.57-4.79,4.7-4.85h.16v-1.92c-3.23,0-4.85-1.62-4.85-4.85Z"/></g><g id="d"><path class="e" d="M32.11,21.68c-5.69,9.47-8.97,20.58-8.97,32.31v69.43H0v-61.71C0,38.87,4.71,26.1,23.14,15.43c3.45,2,6.42,4.06,8.97,6.26Z"/><path class="g" d="M54,0v123.42h-7.71v-61.71c0-18.56-3.11-30.48-14.18-40.03C37.48,12.7,45.02,5.19,54,0Z"/><path class="f" d="M35.96,50.43h0s-1.92,0-1.92,0c0,3.18-1.57,4.79-4.7,4.85h-.16v1.92c3.23,0,4.85,1.62,4.85,4.85h0s1.92,0,1.92,0c0-3.18,1.57-4.79,4.7-4.85h.16v-1.92c-3.23,0-4.85-1.62-4.85-4.85Z"/></g><path d="M72,123.49c-.18,0-.34-.03-.46-.08-.12-.05-.18-.13-.18-.24,0-.12.06-.22.18-.3s.29-.15.51-.23c.41-.12.79-.31,1.13-.55.34-.25.61-.62.83-1.13.41-.94.8-1.83,1.15-2.68.35-.85.69-1.69,1.01-2.52.32-.83.65-1.68.99-2.56.34-.88.68-1.82,1.04-2.82.14-.35.24-.65.3-.89.06-.24.1-.45.11-.63.2-.05.38-.1.55-.15.17-.05.35-.13.55-.24.18-.09.33-.23.43-.4.1-.18.18-.3.24-.38.03-.02.07-.03.1-.03.04,0,.07.02.1.08.05.08.08.16.1.25.02.09.05.19.08.3.35,1.12.72,2.26,1.09,3.42s.75,2.29,1.12,3.39c.37,1.1.71,2.13,1.04,3.07s.6,1.77.83,2.47c.17.51.37.89.6,1.16.23.27.48.47.74.6.26.13.54.23.85.29.23.05.4.11.52.21.12.09.17.2.17.32,0,.09-.06.16-.17.2-.11.04-.26.06-.42.06-.25,0-.57-.01-.97-.03-.4-.02-.81-.04-1.24-.06-.43-.02-.82-.02-1.17-.02h-.97c-.35,0-.69,0-1,.02s-.59.02-.82.02c-.18,0-.33-.03-.45-.08-.12-.05-.17-.13-.17-.22,0-.12.07-.22.21-.3.14-.08.3-.13.48-.16.52-.09.9-.23,1.14-.41.24-.18.33-.43.29-.74-.02-.26-.07-.59-.16-.98-.09-.39-.2-.81-.32-1.24s-.24-.84-.34-1.21c-.03-.12-.08-.2-.16-.23-.08-.03-.21-.05-.39-.05h-4.26c-.08,0-.15.03-.21.08-.06.05-.12.16-.18.31-.05.18-.12.42-.22.7-.1.28-.2.58-.29.9-.09.31-.17.61-.24.87-.07.27-.11.46-.13.59-.05.38.05.69.29.91.24.22.59.4,1.07.52.46.12.69.28.69.46,0,.11-.06.18-.17.22-.12.04-.26.06-.45.06-.29,0-.63,0-1.01-.02-.38-.02-.79-.02-1.22-.02-.49,0-.97.02-1.43.07-.46.05-.9.07-1.31.07ZM77.45,116.84h3.36c.21,0,.32-.04.32-.11,0-.05,0-.08-.01-.12,0-.03-.02-.08-.03-.14l-1.7-5.45c-.08-.25-.14-.37-.18-.37-.03,0-.08.12-.16.35l-2,5.47c-.03.09-.05.15-.05.18,0,.08.04.13.13.15s.2.03.33.03Z"/><path d="M89.16,123.44c-.14,0-.25-.02-.33-.07-.08-.05-.13-.12-.13-.21,0-.12.05-.21.15-.26.1-.05.23-.1.38-.15.32-.08.55-.18.68-.32.13-.14.2-.32.2-.55v-5.06c0-.38-.05-.71-.16-.98-.11-.27-.34-.44-.69-.52-.06-.02-.12-.05-.17-.12-.05-.06-.08-.14-.08-.23,0-.17.08-.28.23-.32.43-.12.89-.3,1.38-.52.49-.22.89-.42,1.2-.59.09-.06.18-.11.25-.14.08-.03.13-.05.16-.05.11,0,.16.06.16.18,0,.06,0,.19-.01.39,0,.2-.02.42-.04.67-.02.25-.02.48-.02.71,0,.06.01.09.05.09.25-.31.52-.59.82-.85.3-.26.62-.47.95-.63.34-.16.66-.24.97-.24.4,0,.71.08.92.24.21.16.32.37.32.63,0,.17-.05.36-.15.59-.1.22-.23.41-.39.58s-.33.24-.52.24c-.11,0-.22-.03-.34-.08-.12-.05-.25-.11-.39-.17-.12-.06-.25-.12-.38-.17-.13-.05-.26-.08-.38-.08-.38,0-.74.14-1.06.41-.32.28-.48.81-.48,1.61v4.32c0,.25.1.44.3.58.2.14.5.27.9.39.17.05.3.1.39.15.09.05.14.13.14.24,0,.18-.15.28-.44.28-.46,0-.85-.02-1.18-.06s-.69-.06-1.09-.06c-.26,0-.49,0-.69.02-.2.02-.41.03-.62.06s-.48.03-.78.03Z"/><path d="M101.29,123.69c-.84,0-1.49-.24-1.94-.71s-.68-1.17-.68-2.09v-5.34c0-.12-.05-.21-.15-.26s-.29-.08-.59-.08h-.18c-.09,0-.17-.06-.23-.2-.06-.13-.09-.26-.09-.38,0-.03.02-.07.06-.13.04-.05.07-.09.1-.1.32-.2.64-.42.96-.66.31-.24.61-.48.87-.72.27-.25.49-.46.68-.64.09-.08.17-.15.23-.21.06-.06.14-.09.23-.09s.17.02.24.07c.07.05.1.14.08.28l-.14,1.13c-.02.18.03.31.13.37.1.06.24.09.43.09h2.67s.09.05.14.16c.05.11.07.22.07.32,0,.17-.02.33-.07.48-.05.15-.1.23-.16.23h-2.23c-.38,0-.63.04-.75.12-.12.08-.17.25-.17.53v4.46c0,.64.13,1.14.39,1.48.26.35.63.52,1.1.52.44,0,.78-.04,1.01-.11.23-.08.44-.17.62-.28.05-.03.08-.05.12-.05.08,0,.13.04.15.12.02.08.03.16.03.25s-.14.25-.41.48c-.28.23-.64.45-1.08.66-.44.21-.92.31-1.43.31Z"/><path d="M105.56,123.44c-.12,0-.23-.02-.31-.07s-.13-.12-.13-.21c0-.12.05-.21.15-.26.1-.05.21-.1.33-.13.35-.09.61-.19.78-.3.17-.11.25-.3.25-.58v-4.97c0-.46-.08-.83-.23-1.12-.15-.28-.42-.46-.8-.52-.08-.01-.13-.05-.17-.1s-.06-.13-.06-.24c0-.18.07-.28.21-.3.67-.15,1.25-.36,1.74-.61.48-.25.85-.46,1.09-.61.17-.11.29-.16.37-.16.12,0,.18.06.18.18,0,.17-.02.44-.06.81-.04.37-.08.77-.12,1.2-.04.43-.06.83-.06,1.2v5.24c0,.25.08.43.25.55.17.12.43.23.78.32.12.03.23.07.33.13.1.05.15.14.15.26,0,.18-.14.28-.41.28-.29,0-.55-.01-.78-.03-.23-.02-.45-.04-.66-.06-.21-.02-.45-.02-.72-.02-.26,0-.5,0-.71.02-.21.02-.43.03-.63.06s-.46.03-.77.03ZM107.63,111.69c-.38,0-.71-.13-.98-.4-.27-.27-.4-.59-.4-.98s.13-.73.4-1c.27-.27.59-.4.98-.4s.74.13,1.01.4c.28.27.41.6.41,1s-.14.71-.41.98c-.28.27-.61.4-1.01.4Z"/><path d="M114.17,123.69c-.49,0-.95-.07-1.39-.21-.44-.14-.82-.34-1.14-.6-.11-.2-.18-.51-.23-.94s-.07-.82-.07-1.17c0-.15.12-.23.35-.23.09,0,.17.02.24.06.07.04.11.09.13.15.23.72.55,1.27.97,1.63.41.37.87.55,1.36.55.43,0,.78-.14,1.06-.43.28-.28.41-.62.41-1.02s-.15-.76-.44-1.05c-.29-.28-.74-.61-1.33-.98-.49-.29-.91-.58-1.26-.86-.35-.28-.62-.6-.81-.94-.18-.35-.28-.74-.28-1.18,0-.54.13-1.01.4-1.43.27-.41.65-.74,1.14-.99s1.08-.37,1.77-.37c.49,0,.91.05,1.25.15.34.1.59.2.75.31.12.17.23.44.31.83s.13.77.13,1.15c0,.12-.1.18-.3.18-.09,0-.19-.02-.29-.07s-.17-.11-.2-.18c-.2-.54-.45-.94-.75-1.22-.3-.28-.66-.41-1.09-.41-.37,0-.7.11-.99.33s-.44.54-.44.95c0,.35.13.66.38.93.25.27.66.56,1.21.86.92.51,1.6.99,2.04,1.44.44.45.66,1.05.66,1.81,0,.89-.32,1.6-.95,2.14-.64.54-1.5.8-2.59.8Z"/><path d="M121.18,123.69c-.32,0-.64-.1-.94-.31-.31-.21-.56-.47-.76-.78-.2-.31-.3-.62-.3-.93,0-.51.14-.91.42-1.22.28-.31.72-.58,1.32-.83l2.23-.94c.31-.12.49-.23.55-.33s.1-.3.12-.61l.05-1.4c.02-.41-.08-.76-.3-1.04-.21-.28-.53-.41-.94-.41-.21,0-.43.04-.66.13s-.4.18-.54.29c-.08.06-.13.15-.15.25-.02.11-.04.22-.04.34,0,.08,0,.17.01.26,0,.1.01.18.01.24,0,.09-.1.2-.31.33-.21.13-.45.25-.71.36-.27.11-.5.16-.68.16-.09,0-.17-.03-.22-.08-.05-.05-.08-.13-.08-.22,0-.25.08-.5.24-.77.16-.27.4-.54.72-.82.37-.32.77-.61,1.21-.86.44-.25.87-.45,1.29-.59.42-.14.79-.21,1.12-.21.64,0,1.17.22,1.58.66s.59,1,.56,1.69l-.12,5.2c-.02.34.05.61.21.83.15.21.34.32.58.32.35,0,.63-.09.83-.28.06-.06.12-.09.16-.09.08,0,.14.02.2.07s.08.11.08.18c0,.18-.11.38-.32.58-.26.26-.54.46-.84.61s-.59.22-.86.22c-.77,0-1.38-.41-1.84-1.24h-.07c-.51.43-.98.74-1.43.94-.45.2-.91.3-1.38.3ZM122.38,122.45c.26,0,.48-.04.66-.13.18-.08.33-.2.47-.36.08-.08.13-.17.17-.29.04-.12.07-.29.08-.54l.05-1.31c.02-.15,0-.26-.02-.33-.03-.07-.09-.1-.18-.1-.03,0-.08,0-.14.02-.06.02-.15.05-.25.09-.69.26-1.17.53-1.45.82-.28.28-.41.59-.41.93,0,.41.11.72.33.91.22.19.46.29.7.29Z"/><path d="M129.24,123.44c-.12,0-.23-.02-.32-.07s-.14-.12-.14-.21c0-.12.05-.21.15-.26.1-.05.23-.1.38-.15.23-.06.44-.15.64-.25.2-.11.3-.31.3-.62v-5.06c0-.38-.04-.71-.13-.98-.08-.27-.31-.45-.68-.54-.06-.01-.12-.05-.16-.1s-.07-.13-.07-.22c0-.2.07-.31.21-.32.54-.14,1.02-.31,1.46-.51.44-.2.84-.42,1.21-.67.05-.03.1-.06.15-.09.05-.03.1-.05.15-.05.06,0,.1.02.13.06.02.04.03.09.03.15,0,.11-.02.31-.06.62-.04.31-.06.57-.06.78,0,.06,0,.12.01.18,0,.06.02.1.04.11.54-.51,1.09-.89,1.67-1.15.58-.26,1.22-.39,1.94-.39.77,0,1.4.3,1.91.9.51.6.76,1.37.76,2.32v4.97c0,.31.1.51.31.6s.43.18.66.25c.12.05.24.1.34.16.11.06.16.15.16.28,0,.11-.05.18-.15.21-.1.03-.2.05-.29.05-.31,0-.56-.01-.77-.03s-.41-.04-.6-.06c-.19-.02-.43-.02-.7-.02-.26,0-.49,0-.69.02-.2.02-.4.03-.61.06s-.46.03-.77.03c-.08,0-.17-.02-.28-.05-.11-.03-.16-.1-.16-.21,0-.12.05-.21.16-.28.11-.06.22-.12.35-.16.23-.08.44-.16.64-.25s.3-.29.3-.6v-4.76c0-.64-.17-1.14-.52-1.5-.34-.35-.79-.54-1.34-.55-.48,0-.89.07-1.25.22-.36.15-.69.34-1,.59-.06.06-.11.14-.14.23-.03.09-.05.18-.05.25v5.52c0,.31.1.51.3.61s.41.18.62.24c.34.11.51.25.51.41,0,.09-.04.16-.11.21-.08.05-.18.07-.32.07-.31,0-.56-.01-.77-.03s-.4-.04-.58-.06c-.18-.02-.4-.02-.68-.02-.26,0-.49,0-.69.02-.2.02-.41.03-.62.06-.21.02-.48.03-.78.03Z"/><path d="M143.35,123.69c-.32,0-.64-.1-.94-.31-.31-.21-.56-.47-.76-.78-.2-.31-.3-.62-.3-.93,0-.51.14-.91.43-1.22.28-.31.72-.58,1.32-.83l2.23-.94c.31-.12.49-.23.55-.33.06-.1.1-.3.12-.61l.05-1.4c.01-.41-.08-.76-.3-1.04-.21-.28-.53-.41-.94-.41-.21,0-.43.04-.66.13-.22.08-.4.18-.54.29-.08.06-.13.15-.15.25s-.03.22-.03.34c0,.08,0,.17.01.26,0,.1.01.18.01.24,0,.09-.1.2-.31.33-.21.13-.44.25-.71.36s-.49.16-.68.16c-.09,0-.17-.03-.22-.08-.05-.05-.08-.13-.08-.22,0-.25.08-.5.24-.77.16-.27.4-.54.72-.82.37-.32.77-.61,1.21-.86.44-.25.87-.45,1.29-.59.42-.14.79-.21,1.12-.21.64,0,1.17.22,1.58.66s.59,1,.56,1.69l-.11,5.2c-.02.34.05.61.21.83.15.21.34.32.57.32.35,0,.63-.09.83-.28.06-.06.12-.09.16-.09.08,0,.14.02.2.07s.08.11.08.18c0,.18-.11.38-.32.58-.26.26-.54.46-.84.61-.3.15-.59.22-.86.22-.77,0-1.38-.41-1.84-1.24h-.07c-.51.43-.98.74-1.43.94s-.9.3-1.38.3ZM144.54,122.45c.26,0,.48-.04.66-.13.18-.08.33-.2.47-.36.08-.08.13-.17.17-.29.04-.12.07-.29.08-.54l.05-1.31c.01-.15,0-.26-.02-.33-.03-.07-.09-.1-.18-.1-.03,0-.08,0-.14.02-.06.02-.15.05-.25.09-.69.26-1.17.53-1.45.82-.28.28-.41.59-.41.93,0,.41.11.72.33.91.22.19.46.29.7.29Z"/><path d="M154.31,123.69c-.84,0-1.49-.24-1.94-.71-.45-.48-.68-1.17-.68-2.09v-5.34c0-.12-.05-.21-.15-.26-.1-.05-.3-.08-.59-.08h-.18c-.09,0-.17-.06-.23-.2s-.09-.26-.09-.38c0-.03.02-.07.06-.13.04-.05.07-.09.1-.1.32-.2.64-.42.95-.66s.61-.48.87-.72c.27-.25.5-.46.68-.64.09-.08.17-.15.23-.21.06-.06.14-.09.23-.09s.17.02.24.07c.07.05.1.14.08.28l-.14,1.13c-.01.18.03.31.13.37.1.06.24.09.43.09h2.67s.09.05.14.16c.05.11.07.22.07.32,0,.17-.02.33-.07.48-.05.15-.1.23-.16.23h-2.23c-.38,0-.63.04-.75.12s-.17.25-.17.53v4.46c0,.64.13,1.14.39,1.48.26.35.63.52,1.1.52.45,0,.78-.04,1.01-.11.23-.08.44-.17.62-.28.05-.03.08-.05.11-.05.08,0,.13.04.15.12.02.08.04.16.04.25s-.14.25-.41.48c-.28.23-.64.45-1.08.66-.45.21-.92.31-1.43.31Z"/><path d="M165.15,123.69c-.32,0-.64-.1-.94-.31-.31-.21-.56-.47-.76-.78-.2-.31-.3-.62-.3-.93,0-.51.14-.91.43-1.22.28-.31.72-.58,1.32-.83l2.23-.94c.31-.12.49-.23.55-.33.06-.1.1-.3.12-.61l.05-1.4c.01-.41-.08-.76-.3-1.04-.21-.28-.53-.41-.94-.41-.21,0-.43.04-.66.13-.22.08-.4.18-.54.29-.08.06-.13.15-.15.25s-.03.22-.03.34c0,.08,0,.17.01.26,0,.1.01.18.01.24,0,.09-.1.2-.31.33-.21.13-.44.25-.71.36s-.49.16-.68.16c-.09,0-.17-.03-.22-.08-.05-.05-.08-.13-.08-.22,0-.25.08-.5.24-.77.16-.27.4-.54.72-.82.37-.32.77-.61,1.21-.86.44-.25.87-.45,1.29-.59.42-.14.79-.21,1.12-.21.64,0,1.17.22,1.58.66s.59,1,.56,1.69l-.11,5.2c-.02.34.05.61.21.83.15.21.34.32.57.32.35,0,.63-.09.83-.28.06-.06.12-.09.16-.09.08,0,.14.02.2.07s.08.11.08.18c0,.18-.11.38-.32.58-.26.26-.54.46-.84.61-.3.15-.59.22-.86.22-.77,0-1.38-.41-1.84-1.24h-.07c-.51.43-.98.74-1.43.94s-.9.3-1.38.3ZM166.34,122.45c.26,0,.48-.04.66-.13.18-.08.33-.2.47-.36.08-.08.13-.17.17-.29.04-.12.07-.29.08-.54l.05-1.31c.01-.15,0-.26-.02-.33-.03-.07-.09-.1-.18-.1-.03,0-.08,0-.14.02-.06.02-.15.05-.25.09-.69.26-1.17.53-1.45.82-.28.28-.41.59-.41.93,0,.41.11.72.33.91.22.19.46.29.7.29Z"/><path d="M173.2,123.44c-.12,0-.23-.02-.32-.07s-.14-.12-.14-.21c0-.12.05-.21.15-.26.1-.05.23-.1.38-.15.23-.06.44-.15.64-.25.2-.11.3-.31.3-.62v-5.06c0-.38-.04-.71-.13-.98-.08-.27-.31-.45-.68-.54-.06-.01-.11-.05-.16-.1-.05-.05-.07-.13-.07-.22,0-.2.07-.31.21-.32.54-.14,1.02-.31,1.46-.51.44-.2.84-.42,1.21-.67.05-.03.1-.06.15-.09s.1-.05.15-.05c.06,0,.1.02.13.06.02.04.03.09.03.15,0,.11-.02.31-.06.62-.04.31-.06.57-.06.78,0,.06,0,.12.01.18,0,.06.02.1.03.11.54-.51,1.09-.89,1.67-1.15s1.22-.39,1.94-.39c.77,0,1.4.3,1.91.9.51.6.76,1.37.76,2.32v4.97c0,.31.1.51.31.6s.43.18.66.25c.12.05.24.1.34.16.11.06.16.15.16.28,0,.11-.05.18-.15.21-.1.03-.2.05-.29.05-.31,0-.56-.01-.77-.03s-.41-.04-.6-.06c-.19-.02-.43-.02-.7-.02-.26,0-.49,0-.69.02-.2.02-.4.03-.61.06-.21.02-.46.03-.77.03-.08,0-.17-.02-.28-.05-.11-.03-.16-.1-.16-.21,0-.12.05-.21.16-.28.11-.06.22-.12.34-.16.23-.08.44-.16.64-.25.2-.09.3-.29.3-.6v-4.76c0-.64-.17-1.14-.52-1.5-.34-.35-.79-.54-1.35-.55-.48,0-.89.07-1.25.22-.36.15-.69.34-1,.59-.06.06-.11.14-.14.23-.03.09-.05.18-.05.25v5.52c0,.31.1.51.3.61.2.1.41.18.62.24.34.11.51.25.51.41,0,.09-.04.16-.12.21-.08.05-.18.07-.32.07-.31,0-.56-.01-.77-.03s-.4-.04-.57-.06c-.18-.02-.4-.02-.68-.02-.26,0-.49,0-.69.02-.2.02-.41.03-.62.06s-.48.03-.78.03Z"/><path d="M190.18,123.49c-.18,0-.34-.03-.46-.08-.12-.05-.18-.13-.18-.24,0-.12.06-.22.18-.3.12-.08.29-.15.51-.23.41-.12.79-.31,1.13-.55.34-.25.61-.62.83-1.13.41-.94.8-1.83,1.15-2.68.35-.85.69-1.69,1.01-2.52.32-.83.65-1.68.99-2.56.34-.88.68-1.82,1.04-2.82.14-.35.24-.65.3-.89s.1-.45.12-.63c.2-.05.38-.1.55-.15.17-.05.35-.13.55-.24.18-.09.33-.23.43-.4.1-.18.18-.3.24-.38.03-.02.07-.03.1-.03.04,0,.07.02.1.08.05.08.08.16.1.25.02.09.05.19.08.3.35,1.12.72,2.26,1.09,3.42.38,1.16.75,2.29,1.12,3.39s.71,2.13,1.04,3.07c.32.94.6,1.77.83,2.47.17.51.37.89.6,1.16.23.27.47.47.74.6.26.13.54.23.85.29.23.05.4.11.52.21.12.09.17.2.17.32,0,.09-.06.16-.17.2s-.26.06-.43.06c-.25,0-.57-.01-.97-.03s-.81-.04-1.24-.06-.82-.02-1.17-.02h-.97c-.35,0-.69,0-1,.02s-.59.02-.82.02c-.18,0-.33-.03-.45-.08-.12-.05-.17-.13-.17-.22,0-.12.07-.22.21-.3.14-.08.3-.13.48-.16.52-.09.9-.23,1.14-.41.24-.18.33-.43.29-.74-.02-.26-.07-.59-.16-.98-.09-.39-.2-.81-.32-1.24-.12-.44-.24-.84-.35-1.21-.03-.12-.08-.2-.16-.23-.08-.03-.21-.05-.39-.05h-4.25c-.08,0-.15.03-.21.08s-.12.16-.18.31c-.05.18-.12.42-.22.7-.1.28-.2.58-.29.9-.09.31-.17.61-.24.87-.07.27-.11.46-.13.59-.05.38.05.69.29.91.24.22.59.4,1.07.52.46.12.69.28.69.46,0,.11-.06.18-.17.22s-.26.06-.45.06c-.29,0-.63,0-1.01-.02-.38-.02-.79-.02-1.22-.02-.49,0-.97.02-1.43.07s-.9.07-1.31.07ZM195.63,116.84h3.36c.21,0,.32-.04.32-.11,0-.05,0-.08-.01-.12,0-.03-.02-.08-.03-.14l-1.7-5.45c-.08-.25-.14-.37-.18-.37-.03,0-.08.12-.16.35l-2,5.47c-.03.09-.05.15-.05.18,0,.08.04.13.13.15.08.02.2.03.33.03Z"/><path d="M213.66,123.81s-.08-.04-.16-.12c-.08-.08-.12-.13-.12-.16.02-.18.04-.41.07-.67.03-.26.05-.48.05-.67v-.14c-.26.4-.65.77-1.16,1.12-.51.34-1.13.52-1.85.52-.87,0-1.63-.23-2.28-.68s-1.15-1.04-1.51-1.76c-.36-.72-.54-1.49-.54-2.3,0-.94.21-1.8.64-2.6.43-.8,1.04-1.44,1.84-1.92.8-.48,1.73-.72,2.81-.72.28,0,.56.03.86.08.3.05.53.11.7.17.17.05.27.07.3.07.11,0,.16-.16.16-.48v-3.06c0-.6-.09-1.01-.28-1.24-.18-.23-.45-.38-.81-.44-.15-.03-.23-.14-.23-.32,0-.15.07-.25.21-.3.64-.15,1.2-.31,1.66-.48.46-.17.83-.31,1.1-.41.11-.06.19-.1.25-.1.06,0,.11-.01.14-.01.12,0,.18.06.18.18,0,.05,0,.17-.02.37-.01.2-.04.48-.07.85-.03.37-.05.82-.05,1.36l-.05,10.83c0,.52.04.9.11,1.13.08.23.21.35.39.35.08,0,.19,0,.34-.02s.36-.03.62-.05c.25-.02.37.06.37.23,0,.11-.04.21-.12.31-.08.1-.15.15-.23.15-.47.06-.95.15-1.44.28-.48.12-.99.3-1.53.53-.12.06-.21.1-.25.12-.05.02-.09.02-.14.02ZM211.43,122.36c.34,0,.69-.09,1.07-.26.38-.18.69-.41.96-.7v-4.48c0-.35-.11-.71-.33-1.07-.22-.36-.53-.65-.91-.87-.38-.22-.82-.33-1.31-.33-.35,0-.73.12-1.13.36-.4.24-.74.63-1.01,1.18-.28.55-.41,1.3-.41,2.23,0,.78.11,1.43.32,1.94s.49.92.82,1.21c.33.29.67.5,1.02.62s.66.18.92.18Z"/><path d="M222.67,123.69c-.87,0-1.67-.2-2.38-.61-.71-.41-1.28-.96-1.69-1.67-.41-.71-.62-1.51-.62-2.42,0-.67.13-1.33.39-1.96.26-.63.63-1.2,1.1-1.7.48-.51,1.03-.91,1.66-1.21.63-.3,1.3-.45,2.02-.45.9,0,1.72.22,2.46.66.74.44,1.32,1.01,1.75,1.71.43.71.64,1.48.64,2.32,0,.92-.2,1.79-.6,2.6-.4.81-.99,1.47-1.78,1.97-.79.5-1.78.75-2.96.75ZM223.15,122.89c.44,0,.84-.09,1.2-.26s.63-.45.83-.82c.18-.35.31-.79.38-1.3.07-.51.1-1.04.1-1.58,0-.77-.12-1.49-.37-2.16-.25-.67-.58-1.22-1.01-1.63s-.93-.62-1.52-.62c-.35,0-.67.06-.95.17-.28.12-.54.31-.77.59-.29.35-.48.81-.58,1.37-.09.56-.14,1.17-.14,1.83,0,.74.12,1.44.37,2.12.25.68.58,1.23,1,1.66s.91.64,1.46.64Z"/><path d="M229.44,123.44c-.14,0-.25-.02-.33-.07-.08-.05-.13-.12-.13-.21,0-.12.05-.21.15-.26.1-.05.23-.1.38-.15.32-.08.55-.18.68-.32.13-.14.2-.32.2-.55v-5.06c0-.38-.05-.71-.16-.98-.11-.27-.34-.44-.69-.52-.06-.02-.12-.05-.17-.12-.05-.06-.08-.14-.08-.23,0-.17.08-.28.23-.32.43-.12.89-.3,1.38-.52.49-.22.89-.42,1.2-.59.09-.06.18-.11.25-.14.08-.03.13-.05.16-.05.11,0,.16.06.16.18,0,.06,0,.19-.01.39,0,.2-.02.42-.03.67-.02.25-.02.48-.02.71,0,.06.01.09.05.09.25-.31.52-.59.82-.85.3-.26.62-.47.96-.63.34-.16.66-.24.97-.24.4,0,.71.08.92.24s.32.37.32.63c0,.17-.05.36-.15.59-.1.22-.23.41-.39.58s-.33.24-.52.24c-.11,0-.22-.03-.34-.08-.12-.05-.25-.11-.39-.17-.12-.06-.25-.12-.38-.17-.13-.05-.26-.08-.38-.08-.38,0-.74.14-1.06.41s-.48.81-.48,1.61v4.32c0,.25.1.44.3.58.2.14.5.27.9.39.17.05.3.1.39.15.09.05.14.13.14.24,0,.18-.15.28-.44.28-.46,0-.85-.02-1.18-.06-.33-.04-.69-.06-1.09-.06-.26,0-.49,0-.69.02-.2.02-.41.03-.62.06s-.48.03-.78.03Z"/><path d="M239.31,123.69c-.32,0-.64-.1-.94-.31-.31-.21-.56-.47-.76-.78-.2-.31-.3-.62-.3-.93,0-.51.14-.91.42-1.22.28-.31.72-.58,1.32-.83l2.23-.94c.31-.12.49-.23.55-.33.06-.1.1-.3.11-.61l.05-1.4c.02-.41-.08-.76-.3-1.04-.21-.28-.53-.41-.94-.41-.21,0-.43.04-.66.13-.22.08-.4.18-.54.29-.08.06-.13.15-.15.25-.02.11-.04.22-.04.34,0,.08,0,.17.01.26,0,.1.01.18.01.24,0,.09-.1.2-.31.33-.21.13-.45.25-.71.36-.27.11-.49.16-.68.16-.09,0-.17-.03-.22-.08-.05-.05-.08-.13-.08-.22,0-.25.08-.5.24-.77.16-.27.4-.54.72-.82.37-.32.77-.61,1.21-.86.44-.25.87-.45,1.29-.59.42-.14.79-.21,1.12-.21.64,0,1.17.22,1.58.66s.59,1,.56,1.69l-.12,5.2c-.01.34.05.61.21.83.15.21.35.32.58.32.35,0,.63-.09.83-.28.06-.06.12-.09.16-.09.08,0,.14.02.2.07s.08.11.08.18c0,.18-.11.38-.32.58-.26.26-.54.46-.84.61s-.59.22-.86.22c-.77,0-1.38-.41-1.84-1.24h-.07c-.51.43-.98.74-1.43.94-.45.2-.91.3-1.38.3ZM240.51,122.45c.26,0,.48-.04.66-.13.18-.08.33-.2.47-.36.08-.08.13-.17.17-.29.04-.12.07-.29.08-.54l.05-1.31c.01-.15,0-.26-.02-.33s-.09-.1-.18-.1c-.03,0-.08,0-.14.02-.06.02-.15.05-.25.09-.69.26-1.17.53-1.45.82-.28.28-.41.59-.41.93,0,.41.11.72.33.91.22.19.46.29.7.29Z"/><path d="M250.28,123.69c-.84,0-1.49-.24-1.94-.71s-.68-1.17-.68-2.09v-5.34c0-.12-.05-.21-.15-.26s-.29-.08-.59-.08h-.18c-.09,0-.17-.06-.23-.2-.06-.13-.09-.26-.09-.38,0-.03.02-.07.06-.13.04-.05.07-.09.1-.1.32-.2.64-.42.95-.66s.61-.48.87-.72c.27-.25.49-.46.68-.64.09-.08.17-.15.23-.21.06-.06.14-.09.23-.09s.17.02.24.07.1.14.08.28l-.14,1.13c-.02.18.03.31.13.37.1.06.24.09.42.09h2.67s.09.05.14.16c.05.11.07.22.07.32,0,.17-.02.33-.07.48-.05.15-.1.23-.16.23h-2.23c-.38,0-.63.04-.75.12s-.17.25-.17.53v4.46c0,.64.13,1.14.39,1.48.26.35.63.52,1.1.52.44,0,.78-.04,1.01-.11.23-.08.44-.17.62-.28.05-.03.08-.05.12-.05.08,0,.13.04.15.12.02.08.04.16.04.25s-.14.25-.41.48c-.28.23-.64.45-1.08.66-.45.21-.92.31-1.43.31Z"/><path d="M254.55,123.44c-.12,0-.23-.02-.31-.07s-.13-.12-.13-.21c0-.12.05-.21.15-.26.1-.05.21-.1.33-.13.35-.09.61-.19.78-.3.17-.11.25-.3.25-.58v-4.97c0-.46-.08-.83-.23-1.12-.15-.28-.42-.46-.81-.52-.08-.01-.13-.05-.17-.1-.04-.05-.06-.13-.06-.24,0-.18.07-.28.21-.3.67-.15,1.25-.36,1.74-.61s.85-.46,1.09-.61c.17-.11.29-.16.37-.16.12,0,.18.06.18.18,0,.17-.02.44-.06.81-.04.37-.08.77-.12,1.2-.04.43-.06.83-.06,1.2v5.24c0,.25.08.43.25.55.17.12.43.23.78.32.12.03.23.07.33.13.1.05.15.14.15.26,0,.18-.14.28-.41.28-.29,0-.55-.01-.78-.03-.23-.02-.45-.04-.66-.06-.21-.02-.45-.02-.72-.02-.26,0-.5,0-.71.02-.21.02-.43.03-.63.06s-.46.03-.77.03ZM256.62,111.69c-.38,0-.71-.13-.98-.4-.27-.27-.4-.59-.4-.98s.13-.73.4-1c.27-.27.59-.4.98-.4s.74.13,1.01.4c.28.27.41.6.41,1s-.14.71-.41.98c-.28.27-.61.4-1.01.4Z"/><path d="M264.67,123.69c-.87,0-1.67-.2-2.38-.61-.71-.41-1.28-.96-1.69-1.67-.41-.71-.62-1.51-.62-2.42,0-.67.13-1.33.39-1.96.26-.63.63-1.2,1.1-1.7.47-.51,1.03-.91,1.66-1.21.63-.3,1.3-.45,2.02-.45.91,0,1.73.22,2.46.66.74.44,1.32,1.01,1.75,1.71.43.71.64,1.48.64,2.32,0,.92-.2,1.79-.6,2.6-.4.81-.99,1.47-1.78,1.97-.79.5-1.77.75-2.96.75ZM265.15,122.89c.45,0,.84-.09,1.2-.26s.63-.45.83-.82c.18-.35.31-.79.38-1.3.07-.51.1-1.04.1-1.58,0-.77-.12-1.49-.37-2.16-.25-.67-.58-1.22-1.01-1.63-.43-.41-.94-.62-1.52-.62-.35,0-.67.06-.95.17-.28.12-.54.31-.77.59-.29.35-.48.81-.58,1.37-.09.56-.14,1.17-.14,1.83,0,.74.12,1.44.37,2.12.25.68.58,1.23,1,1.66.42.43.91.64,1.46.64Z"/><path d="M278.58,123.83c-.12,0-.18-.07-.18-.21,0-.17.02-.4.06-.7.04-.3.06-.54.06-.72v-.18c-.54.55-1.12.97-1.74,1.25s-1.29.43-2.01.43c-.48,0-.91-.11-1.31-.34s-.71-.56-.93-1-.33-.95-.33-1.55v-4.55c0-.34-.07-.61-.22-.82s-.39-.36-.75-.47c-.08-.03-.15-.07-.22-.13-.07-.05-.1-.14-.1-.26,0-.14.03-.23.1-.29.07-.05.15-.09.24-.1.57-.03,1.04-.08,1.4-.15.37-.07.78-.16,1.24-.29.06-.01.11-.03.16-.03.05,0,.09-.01.14-.01.18,0,.27.11.25.32-.05.35-.08.65-.12.89-.03.24-.05.53-.05.89v4.46c0,.37.08.7.24,1s.38.54.66.72c.28.18.56.28.85.3.35,0,.67-.03.94-.08.28-.05.54-.19.8-.4.14-.11.31-.29.52-.55.21-.26.31-.62.31-1.08v-4.02c0-.31-.08-.54-.24-.7-.16-.16-.35-.28-.57-.36-.22-.08-.43-.12-.61-.14-.15,0-.28-.03-.37-.09-.09-.06-.14-.17-.14-.32s.05-.26.15-.31.22-.08.36-.08c.58-.03,1.05-.06,1.42-.09s.67-.07.94-.12c.27-.05.55-.11.84-.18.03-.01.07-.03.13-.03s.1-.01.13-.01c.2,0,.3.08.3.25,0,.03,0,.07-.01.12,0,.05-.02.09-.04.14-.01.06-.03.2-.06.4-.02.21-.05.43-.07.66-.02.23-.03.41-.03.55v5.31c0,.38.04.66.13.82s.18.24.29.24.26,0,.47-.02c.21-.01.36-.02.45-.02s.18.02.25.07c.08.05.11.14.11.28,0,.12-.03.21-.09.26s-.15.09-.25.1c-.64.08-1.21.2-1.7.37-.49.17-.92.32-1.29.46-.06.03-.14.07-.24.1s-.19.06-.26.06Z"/><path d="M283.9,123.44c-.12,0-.23-.02-.32-.07s-.14-.12-.14-.21c0-.12.05-.21.15-.26.1-.05.23-.1.38-.15.23-.06.45-.15.64-.25.2-.11.3-.31.3-.62v-5.06c0-.38-.04-.71-.13-.98-.08-.27-.31-.45-.68-.54-.06-.01-.12-.05-.16-.1s-.07-.13-.07-.22c0-.2.07-.31.21-.32.54-.14,1.02-.31,1.46-.51.44-.2.84-.42,1.21-.67.05-.03.1-.06.15-.09s.1-.05.15-.05c.06,0,.1.02.13.06.02.04.03.09.03.15,0,.11-.02.31-.06.62-.04.31-.06.57-.06.78,0,.06,0,.12.01.18,0,.06.02.1.04.11.54-.51,1.09-.89,1.67-1.15s1.22-.39,1.94-.39c.77,0,1.4.3,1.91.9.51.6.76,1.37.76,2.32v4.97c0,.31.1.51.31.6s.43.18.66.25c.12.05.24.1.35.16.11.06.16.15.16.28,0,.11-.05.18-.15.21-.1.03-.2.05-.29.05-.31,0-.56-.01-.77-.03s-.41-.04-.6-.06c-.19-.02-.43-.02-.7-.02-.26,0-.49,0-.69.02-.2.02-.4.03-.61.06s-.46.03-.77.03c-.08,0-.17-.02-.28-.05-.11-.03-.16-.1-.16-.21,0-.12.05-.21.16-.28.11-.06.22-.12.34-.16.23-.08.45-.16.64-.25s.3-.29.3-.6v-4.76c0-.64-.17-1.14-.52-1.5-.34-.35-.79-.54-1.35-.55-.48,0-.89.07-1.25.22-.36.15-.69.34-1,.59-.06.06-.11.14-.14.23-.03.09-.05.18-.05.25v5.52c0,.31.1.51.3.61s.41.18.62.24c.34.11.51.25.51.41,0,.09-.04.16-.12.21-.08.05-.18.07-.32.07-.31,0-.56-.01-.77-.03s-.4-.04-.58-.06c-.18-.02-.4-.02-.68-.02-.26,0-.49,0-.69.02-.2.02-.41.03-.62.06-.22.02-.48.03-.78.03Z"/><path d="M305.42,123.85c-.08,0-.16-.11-.25-.33s-.17-.42-.23-.59c-.11-.26-.22-.54-.33-.85-.12-.31-.22-.59-.31-.85-.35-.94-.73-1.85-1.13-2.74-.4-.89-.79-1.79-1.17-2.71-.12-.31-.29-.57-.5-.79-.21-.22-.43-.37-.68-.45-.14-.06-.24-.12-.31-.17-.07-.05-.1-.13-.1-.24s.06-.17.18-.2.22-.03.3-.03c.34,0,.59,0,.75.02.16.02.32.03.48.06.16.02.38.03.66.03.31,0,.55-.01.72-.03.18-.02.36-.04.55-.06.19-.02.45-.02.77-.02.08,0,.18.02.3.05.12.03.18.09.18.18,0,.12-.05.21-.16.26s-.23.11-.37.17c-.15.06-.27.18-.36.35-.08.17-.13.37-.13.6,0,.12,0,.24.01.36,0,.11.03.22.08.31l1.73,4.46s.03.02.03.02.02,0,.03-.02l1.61-4.19c.06-.14.1-.29.13-.45.02-.16.04-.3.04-.43,0-.29-.05-.51-.15-.67-.1-.15-.26-.27-.5-.35-.18-.06-.32-.12-.4-.17s-.13-.13-.13-.24.05-.18.16-.21c.11-.03.21-.05.32-.05.26.02.52.03.77.06s.55.03.89.03.59-.01.76-.03.39-.04.67-.06c.12,0,.24.02.35.05.11.03.16.09.16.18,0,.18-.17.33-.51.44-.25.08-.5.25-.76.53-.26.28-.47.61-.62.99l-1.79,4.39c-.05.08-.11.22-.2.43-.08.21-.17.43-.26.67-.09.24-.17.45-.24.63-.07.18-.11.29-.13.32-.03.05-.08.16-.16.33-.08.18-.16.36-.24.55-.08.19-.17.34-.24.45h-.28Z"/><path d="M319.45,123.83c-.12,0-.18-.07-.18-.21,0-.17.02-.4.06-.7.04-.3.06-.54.06-.72v-.18c-.54.55-1.12.97-1.74,1.25s-1.29.43-2.01.43c-.48,0-.91-.11-1.31-.34s-.71-.56-.93-1-.33-.95-.33-1.55v-4.55c0-.34-.07-.61-.22-.82s-.39-.36-.75-.47c-.08-.03-.15-.07-.22-.13-.07-.05-.1-.14-.1-.26,0-.14.03-.23.1-.29.07-.05.15-.09.24-.1.57-.03,1.04-.08,1.4-.15.37-.07.78-.16,1.24-.29.06-.01.11-.03.16-.03.05,0,.09-.01.14-.01.18,0,.27.11.25.32-.05.35-.08.65-.12.89-.03.24-.05.53-.05.89v4.46c0,.37.08.7.24,1s.38.54.66.72c.28.18.56.28.85.3.35,0,.67-.03.94-.08.28-.05.54-.19.8-.4.14-.11.31-.29.52-.55.21-.26.31-.62.31-1.08v-4.02c0-.31-.08-.54-.24-.7-.16-.16-.35-.28-.57-.36-.22-.08-.43-.12-.61-.14-.15,0-.28-.03-.37-.09-.09-.06-.14-.17-.14-.32s.05-.26.15-.31.22-.08.36-.08c.58-.03,1.05-.06,1.42-.09s.67-.07.94-.12c.27-.05.55-.11.84-.18.03-.01.07-.03.13-.03s.1-.01.13-.01c.2,0,.3.08.3.25,0,.03,0,.07-.01.12,0,.05-.02.09-.04.14-.01.06-.03.2-.06.4-.02.21-.05.43-.07.66-.02.23-.03.41-.03.55v5.31c0,.38.04.66.13.82s.18.24.29.24.26,0,.47-.02c.21-.01.36-.02.45-.02s.18.02.25.07c.08.05.11.14.11.28,0,.12-.03.21-.09.26s-.15.09-.25.1c-.64.08-1.21.2-1.7.37-.49.17-.92.32-1.29.46-.06.03-.14.07-.24.1s-.19.06-.26.06Z"/><path d="M324.77,123.44c-.12,0-.23-.02-.32-.07s-.14-.12-.14-.21c0-.12.05-.21.15-.26.1-.05.23-.1.38-.15.23-.06.45-.15.64-.25.2-.11.3-.31.3-.62v-5.06c0-.38-.04-.71-.13-.98-.08-.27-.31-.45-.68-.54-.06-.01-.12-.05-.16-.1s-.07-.13-.07-.22c0-.2.07-.31.21-.32.54-.14,1.02-.31,1.46-.51.44-.2.84-.42,1.21-.67.05-.03.1-.06.15-.09s.1-.05.15-.05c.06,0,.1.02.13.06.02.04.03.09.03.15,0,.11-.02.31-.06.62-.04.31-.06.57-.06.78,0,.06,0,.12.01.18,0,.06.02.1.04.11.54-.51,1.09-.89,1.67-1.15s1.22-.39,1.94-.39c.77,0,1.4.3,1.91.9.51.6.76,1.37.76,2.32v4.97c0,.31.1.51.31.6s.43.18.66.25c.12.05.24.1.35.16.11.06.16.15.16.28,0,.11-.05.18-.15.21-.1.03-.2.05-.29.05-.31,0-.56-.01-.77-.03s-.41-.04-.6-.06c-.19-.02-.43-.02-.7-.02-.26,0-.49,0-.69.02-.2.02-.4.03-.61.06s-.46.03-.77.03c-.08,0-.17-.02-.28-.05-.11-.03-.16-.1-.16-.21,0-.12.05-.21.16-.28.11-.06.22-.12.34-.16.23-.08.45-.16.64-.25s.3-.29.3-.6v-4.76c0-.64-.17-1.14-.52-1.5-.34-.35-.79-.54-1.35-.55-.48,0-.89.07-1.25.22-.36.15-.69.34-1,.59-.06.06-.11.14-.14.23-.03.09-.05.18-.05.25v5.52c0,.31.1.51.3.61s.41.18.62.24c.34.11.51.25.51.41,0,.09-.04.16-.12.21-.08.05-.18.07-.32.07-.31,0-.56-.01-.77-.03s-.4-.04-.58-.06c-.18-.02-.4-.02-.68-.02-.26,0-.49,0-.69.02-.2.02-.41.03-.62.06-.22.02-.48.03-.78.03Z"/><path d="M349.38,123.81s-.08-.04-.16-.12-.12-.13-.12-.16c.02-.18.04-.41.07-.67.03-.26.05-.48.05-.67v-.14c-.26.4-.65.77-1.16,1.12-.51.34-1.13.52-1.85.52-.87,0-1.63-.23-2.28-.68-.64-.45-1.15-1.04-1.51-1.76-.36-.72-.54-1.49-.54-2.3,0-.94.21-1.8.64-2.6.43-.8,1.04-1.44,1.84-1.92.8-.48,1.73-.72,2.81-.72.28,0,.56.03.86.08.3.05.53.11.7.17.17.05.27.07.3.07.11,0,.16-.16.16-.48v-3.06c0-.6-.09-1.01-.28-1.24s-.45-.38-.8-.44c-.15-.03-.23-.14-.23-.32,0-.15.07-.25.21-.3.64-.15,1.2-.31,1.66-.48.46-.17.83-.31,1.1-.41.11-.06.19-.1.25-.1.06,0,.11-.01.14-.01.12,0,.18.06.18.18,0,.05,0,.17-.02.37-.02.2-.04.48-.07.85-.03.37-.05.82-.05,1.36l-.05,10.83c0,.52.04.9.12,1.13.08.23.21.35.39.35.08,0,.19,0,.34-.02s.36-.03.62-.05c.25-.02.37.06.37.23,0,.11-.04.21-.12.31s-.15.15-.23.15c-.48.06-.96.15-1.44.28-.48.12-.99.3-1.53.53-.12.06-.21.1-.25.12-.05.02-.09.02-.14.02ZM347.15,122.36c.34,0,.69-.09,1.07-.26.38-.18.69-.41.95-.7v-4.48c0-.35-.11-.71-.33-1.07-.22-.36-.53-.65-.91-.87-.38-.22-.82-.33-1.31-.33-.35,0-.73.12-1.13.36-.4.24-.74.63-1.01,1.18-.28.55-.41,1.3-.41,2.23,0,.78.11,1.43.32,1.94s.49.92.82,1.21c.33.29.67.5,1.02.62s.66.18.92.18Z"/><path d="M357.94,123.72c-.83,0-1.56-.21-2.2-.63-.64-.42-1.14-1.01-1.51-1.77-.37-.76-.55-1.64-.55-2.63,0-.9.21-1.73.63-2.48.42-.75.98-1.35,1.69-1.81.71-.45,1.48-.68,2.32-.68.63,0,1.19.13,1.69.38.5.25.89.61,1.17,1.06.28.45.42.97.42,1.55,0,.51-.24.76-.71.76h-4.76c-.21,0-.37.06-.46.18-.09.12-.14.35-.14.67,0,.67.15,1.29.46,1.85.31.56.71,1.01,1.22,1.35s1.07.51,1.68.51c.46,0,.88-.09,1.25-.26.38-.18.72-.43,1.05-.75.05-.06.09-.11.13-.14s.08-.05.13-.05c.14,0,.21.08.21.25,0,.25-.11.54-.32.87-.21.32-.49.62-.82.89-.33.27-.71.48-1.15.64-.44.16-.92.24-1.44.24ZM356.17,116.68h1.84c.4,0,.71,0,.94-.02.23-.02.45-.05.64-.09.08-.03.13-.1.16-.2.03-.1.05-.23.05-.38,0-.43-.18-.79-.53-1.09-.35-.3-.77-.45-1.26-.45-.34,0-.67.1-1,.3s-.6.45-.82.75-.31.6-.3.91c0,.18.09.28.28.28Z"/><path d="M363.17,123.44c-.14,0-.25-.02-.33-.07-.08-.05-.13-.12-.13-.21,0-.12.05-.21.15-.26.1-.05.23-.1.38-.15.32-.08.55-.18.68-.32.13-.14.2-.32.2-.55v-5.06c0-.38-.05-.71-.16-.98-.11-.27-.34-.44-.69-.52-.06-.02-.12-.05-.17-.12-.05-.06-.08-.14-.08-.23,0-.17.08-.28.23-.32.43-.12.89-.3,1.38-.52.49-.22.89-.42,1.2-.59.09-.06.18-.11.25-.14.08-.03.13-.05.16-.05.11,0,.16.06.16.18,0,.06,0,.19-.01.39,0,.2-.02.42-.03.67-.02.25-.02.48-.02.71,0,.06.01.09.05.09.25-.31.52-.59.82-.85.3-.26.62-.47.96-.63.34-.16.66-.24.97-.24.4,0,.71.08.92.24s.32.37.32.63c0,.17-.05.36-.15.59-.1.22-.23.41-.39.58s-.33.24-.52.24c-.11,0-.22-.03-.34-.08-.12-.05-.25-.11-.39-.17-.12-.06-.25-.12-.38-.17-.13-.05-.26-.08-.38-.08-.38,0-.74.14-1.06.41s-.48.81-.48,1.61v4.32c0,.25.1.44.3.58.2.14.5.27.9.39.17.05.3.1.39.15.09.05.14.13.14.24,0,.18-.15.28-.44.28-.46,0-.85-.02-1.18-.06-.33-.04-.69-.06-1.09-.06-.26,0-.49,0-.69.02-.2.02-.41.03-.62.06s-.48.03-.78.03Z"/><path d="M384,123.53c-.29,0-.72-.02-1.28-.05-.56-.03-1.15-.06-1.78-.08-.63-.02-1.19-.03-1.68-.03-.31,0-.59,0-.86.02-.27.02-.55.03-.84.05-.29.02-.63.02-1.01.02-.17,0-.31-.02-.43-.07-.11-.05-.17-.12-.17-.23,0-.12.05-.21.16-.26.11-.05.28-.1.51-.15.58-.11.98-.28,1.21-.51s.33-.61.33-1.13v-10.4c0-.52-.11-.89-.33-1.12-.22-.22-.62-.39-1.21-.52-.23-.05-.4-.1-.51-.16-.11-.06-.16-.15-.16-.28,0-.11.06-.19.17-.24.12-.05.26-.08.43-.08.38,0,.72,0,1.01.02.29.02.58.03.85.03.28,0,.59.01.94.01.25,0,.56,0,.94-.02.38-.02.79-.04,1.22-.07.43-.03.83-.05,1.2-.07s.65-.02.85-.02c1.41,0,2.65.18,3.71.55s1.95.89,2.66,1.55,1.24,1.45,1.6,2.33.54,1.86.54,2.9-.2,2.09-.59,3.05c-.39.96-.95,1.81-1.68,2.55-.73.74-1.58,1.33-2.56,1.75-.98.42-2.06.63-3.24.63ZM383.71,122.59c1.13,0,2.12-.28,2.97-.83.84-.55,1.5-1.32,1.96-2.31.46-.99.69-2.13.69-3.42,0-1.09-.16-2.06-.48-2.91s-.76-1.58-1.3-2.17-1.17-1.05-1.89-1.37c-.71-.31-1.46-.47-2.24-.47-.6,0-1.11.02-1.53.06-.42.04-.74.14-.95.31-.21.17-.32.45-.32.85v10.17c0,.58.14,1.02.43,1.32.28.3.66.5,1.14.61.47.11.99.16,1.54.16Z"/><path d="M397.71,123.72c-.83,0-1.56-.21-2.2-.63-.64-.42-1.14-1.01-1.51-1.77-.37-.76-.55-1.64-.55-2.63,0-.9.21-1.73.63-2.48.42-.75.98-1.35,1.69-1.81.71-.45,1.48-.68,2.32-.68.63,0,1.19.13,1.69.38.5.25.89.61,1.17,1.06.28.45.42.97.42,1.55,0,.51-.24.76-.71.76h-4.76c-.21,0-.37.06-.46.18-.09.12-.14.35-.14.67,0,.67.15,1.29.46,1.85.31.56.71,1.01,1.22,1.35s1.07.51,1.68.51c.46,0,.88-.09,1.25-.26.38-.18.72-.43,1.05-.75.05-.06.09-.11.13-.14s.08-.05.13-.05c.14,0,.21.08.21.25,0,.25-.11.54-.32.87-.21.32-.49.62-.82.89-.33.27-.71.48-1.15.64-.44.16-.92.24-1.44.24ZM395.94,116.68h1.84c.4,0,.71,0,.94-.02.23-.02.45-.05.64-.09.08-.03.13-.1.16-.2.03-.1.05-.23.05-.38,0-.43-.18-.79-.53-1.09-.35-.3-.77-.45-1.26-.45-.34,0-.67.1-1,.3s-.6.45-.82.75-.31.6-.3.91c0,.18.09.28.28.28ZM397.48,112.88c-.14,0-.21-.08-.21-.23,0-.05,0-.11.02-.18s.04-.16.07-.25c.11-.29.27-.66.49-1.1s.44-.88.67-1.31.39-.75.52-.97c.09-.15.2-.27.33-.34.13-.08.27-.12.42-.12.32,0,.61.04.85.12.25.08.37.21.37.39,0,.09-.02.17-.06.24-.04.07-.1.16-.17.26-.23.29-.5.63-.82,1.01-.31.38-.64.76-.97,1.13-.33.37-.62.68-.86.92-.29.29-.51.44-.67.44Z"/><path d="M402.85,123.44c-.12,0-.23-.02-.31-.07s-.13-.12-.13-.21c0-.12.05-.21.15-.26.1-.05.21-.1.33-.13.35-.09.61-.19.78-.3.17-.11.25-.3.25-.58v-4.97c0-.46-.08-.83-.23-1.12-.15-.28-.42-.46-.81-.52-.08-.01-.13-.05-.17-.1-.04-.05-.06-.13-.06-.24,0-.18.07-.28.21-.3.67-.15,1.25-.36,1.74-.61s.85-.46,1.09-.61c.17-.11.29-.16.37-.16.12,0,.18.06.18.18,0,.17-.02.44-.06.81-.04.37-.08.77-.12,1.2-.04.43-.06.83-.06,1.2v5.24c0,.25.08.43.25.55.17.12.43.23.78.32.12.03.23.07.33.13.1.05.15.14.15.26,0,.18-.14.28-.41.28-.29,0-.55-.01-.78-.03-.23-.02-.45-.04-.66-.06-.21-.02-.45-.02-.72-.02-.26,0-.5,0-.71.02-.21.02-.43.03-.63.06s-.46.03-.77.03ZM404.92,111.69c-.38,0-.71-.13-.98-.4-.27-.27-.4-.59-.4-.98s.13-.73.4-1c.27-.27.59-.4.98-.4s.74.13,1.01.4c.28.27.41.6.41,1s-.14.71-.41.98c-.28.27-.61.4-1.01.4Z"/><path d="M412.01,123.69c-.84,0-1.49-.24-1.94-.71s-.68-1.17-.68-2.09v-5.34c0-.12-.05-.21-.15-.26s-.29-.08-.59-.08h-.18c-.09,0-.17-.06-.23-.2-.06-.13-.09-.26-.09-.38,0-.03.02-.07.06-.13.04-.05.07-.09.1-.1.32-.2.64-.42.95-.66s.61-.48.87-.72c.27-.25.49-.46.68-.64.09-.08.17-.15.23-.21.06-.06.14-.09.23-.09s.17.02.24.07.1.14.08.28l-.14,1.13c-.02.18.03.31.13.37.1.06.24.09.42.09h2.67s.09.05.14.16c.05.11.07.22.07.32,0,.17-.02.33-.07.48-.05.15-.1.23-.16.23h-2.23c-.38,0-.63.04-.75.12s-.17.25-.17.53v4.46c0,.64.13,1.14.39,1.48.26.35.63.52,1.1.52.44,0,.78-.04,1.01-.11.23-.08.44-.17.62-.28.05-.03.08-.05.12-.05.08,0,.13.04.15.12.02.08.04.16.04.25s-.14.25-.41.48c-.28.23-.64.45-1.08.66-.45.21-.92.31-1.43.31Z"/><path d="M419.92,123.72c-.83,0-1.56-.21-2.2-.63-.64-.42-1.14-1.01-1.51-1.77-.37-.76-.55-1.64-.55-2.63,0-.9.21-1.73.63-2.48.42-.75.98-1.35,1.69-1.81.71-.45,1.48-.68,2.32-.68.63,0,1.19.13,1.69.38.5.25.89.61,1.17,1.06.28.45.42.97.42,1.55,0,.51-.24.76-.71.76h-4.76c-.21,0-.37.06-.46.18-.09.12-.14.35-.14.67,0,.67.15,1.29.46,1.85.31.56.71,1.01,1.22,1.35s1.07.51,1.68.51c.46,0,.88-.09,1.25-.26.38-.18.72-.43,1.05-.75.05-.06.09-.11.13-.14s.08-.05.13-.05c.14,0,.21.08.21.25,0,.25-.11.54-.32.87-.21.32-.49.62-.82.89-.33.27-.71.48-1.15.64-.44.16-.92.24-1.44.24ZM418.15,116.68h1.84c.4,0,.71,0,.94-.02.23-.02.45-.05.64-.09.08-.03.13-.1.16-.2.03-.1.05-.23.05-.38,0-.43-.18-.79-.53-1.09-.35-.3-.77-.45-1.26-.45-.34,0-.67.1-1,.3s-.6.45-.82.75-.31.6-.3.91c0,.18.09.28.28.28ZM419.69,112.88c-.14,0-.21-.08-.21-.23,0-.05,0-.11.02-.18s.04-.16.07-.25c.11-.29.27-.66.49-1.1s.44-.88.67-1.31.39-.75.52-.97c.09-.15.2-.27.33-.34.13-.08.27-.12.42-.12.32,0,.61.04.85.12.25.08.37.21.37.39,0,.09-.02.17-.06.24-.04.07-.1.16-.17.26-.23.29-.5.63-.82,1.01-.31.38-.64.76-.97,1.13-.33.37-.62.68-.86.92-.29.29-.51.44-.67.44Z"/><path d="M425.05,123.44c-.12,0-.23-.02-.31-.07s-.13-.12-.13-.21c0-.12.05-.21.15-.26.1-.05.21-.1.33-.13.35-.09.61-.19.78-.3.17-.11.25-.3.25-.58v-4.97c0-.46-.08-.83-.23-1.12-.15-.28-.42-.46-.81-.52-.08-.01-.13-.05-.17-.1-.04-.05-.06-.13-.06-.24,0-.18.07-.28.21-.3.67-.15,1.25-.36,1.74-.61s.85-.46,1.09-.61c.17-.11.29-.16.37-.16.12,0,.18.06.18.18,0,.17-.02.44-.06.81-.04.37-.08.77-.12,1.2-.04.43-.06.83-.06,1.2v5.24c0,.25.08.43.25.55.17.12.43.23.78.32.12.03.23.07.33.13.1.05.15.14.15.26,0,.18-.14.28-.41.28-.29,0-.55-.01-.78-.03-.23-.02-.45-.04-.66-.06-.21-.02-.45-.02-.72-.02-.26,0-.5,0-.71.02-.21.02-.43.03-.63.06s-.46.03-.77.03ZM427.12,111.69c-.38,0-.71-.13-.98-.4-.27-.27-.4-.59-.4-.98s.13-.73.4-1c.27-.27.59-.4.98-.4s.74.13,1.01.4c.28.27.41.6.41,1s-.14.71-.41.98c-.28.27-.61.4-1.01.4Z"/><path d="M434.21,123.69c-.84,0-1.49-.24-1.94-.71s-.68-1.17-.68-2.09v-5.34c0-.12-.05-.21-.15-.26s-.29-.08-.59-.08h-.18c-.09,0-.17-.06-.23-.2-.06-.13-.09-.26-.09-.38,0-.03.02-.07.06-.13.04-.05.07-.09.1-.1.32-.2.64-.42.95-.66s.61-.48.87-.72c.27-.25.49-.46.68-.64.09-.08.17-.15.23-.21.06-.06.14-.09.23-.09s.17.02.24.07.1.14.08.28l-.14,1.13c-.02.18.03.31.13.37.1.06.24.09.42.09h2.67s.09.05.14.16c.05.11.07.22.07.32,0,.17-.02.33-.07.48-.05.15-.1.23-.16.23h-2.23c-.38,0-.63.04-.75.12s-.17.25-.17.53v4.46c0,.64.13,1.14.39,1.48.26.35.63.52,1.1.52.44,0,.78-.04,1.01-.11.23-.08.44-.17.62-.28.05-.03.08-.05.12-.05.08,0,.13.04.15.12.02.08.04.16.04.25s-.14.25-.41.48c-.28.23-.64.45-1.08.66-.45.21-.92.31-1.43.31Z"/><path d="M440.08,123.83c-.4,0-.74-.15-1.04-.44s-.44-.64-.44-1.04c0-.43.15-.79.44-1.07.29-.28.64-.43,1.04-.43s.76.14,1.05.43c.28.28.42.64.42,1.07,0,.4-.14.74-.42,1.04-.28.29-.63.44-1.05.44Z"/></g></svg>